<?xml version="1.0" encoding="utf-8"?>
<!-- Generator: Adobe Illustrator 23.1.1, SVG Export Plug-In . SVG Version: 6.00 Build 0)  -->
<svg version="1.2" baseProfile="tiny" id="Capa_1" xmlns="http://www.w3.org/2000/svg" xmlns:xlink="http://www.w3.org/1999/xlink"
	 x="0px" y="0px" viewBox="0 0 200 200" xml:space="preserve">
<g>
	<g>
		<g>
			<path fill="#FFFFFF" d="M88.4,104.7c0-16.7-13.6-30.3-30.3-30.3S27.8,88,27.8,104.7c0,6.5,2,12.5,5.6,17.5
				c0.1,0.1,0.1,0.2,0.2,0.3c1,1.5,2.2,2.8,3.5,4.1c0.1,0.1,0.2,0.2,0.3,0.3c1.7,1.6,3.5,3,5.6,4.2c0.1,0.1,0.2,0.1,0.3,0.2
				c4.4,2.5,9.4,3.9,14.8,3.9s10.5-1.4,14.8-3.9c0.1,0,0.2-0.1,0.3-0.2c2-1.2,3.9-2.6,5.6-4.2c0.1-0.1,0.2-0.2,0.3-0.3
				C84.8,121,88.4,113.3,88.4,104.7z M77.5,124.4H38.7c-0.6-0.5-1-1-1.5-1.6h27.7H79C78.6,123.4,78,124,77.5,124.4z M72.1,128.6h-28
				c-0.8-0.5-1.7-1-2.4-1.6h32.8C73.7,127.6,72.9,128.1,72.1,128.6z M68.2,104.3l6.9,11.3l-12.4-10.4l2.7-4.3l2.9-4.4l-0.2,7
				C68,103.9,68.1,104.1,68.2,104.3z M59.2,95.5l0.5,9.6l-5.5,7.9l-7.3-4.3l9.7-6.7c0.2-0.2,0.4-0.4,0.5-0.6L59.2,95.5z M61.2,107.4
				l15.5,12.9H65.2l-8.9-5.9L61.2,107.4z M63.1,99.5C63.1,99.6,63.1,99.6,63.1,99.5l-1,1.8l-0.6-11.5l2.6-1.1l0.3,3.2
				c0.1,0.6,0.6,1.1,1.2,1.2l1.7,0.1L63.1,99.5z M59.7,87.9c-0.1,0-0.1,0.1-0.2,0.1l0,0c-0.1,0-0.1,0.1-0.1,0.1l0,0l-0.1,0.1l0,0
				l-0.1,0.1l0,0c0,0.1-0.1,0.1-0.1,0.2l0,0c0,0,0,0,0,0.1l-4.2,11.6l-7.7,5.3l3.1-8.1l3.2-0.4c0.5-0.1,0.8-0.4,1-0.7l4.4-9.4
				l2.4-2.7l1.9,2.2L59.7,87.9z M44.9,110.5l6.1,3.5l-11.1,2.2l1.2-0.7c0.2-0.1,0.3-0.2,0.4-0.4L44.9,110.5z M54.3,116.1l6.3,4.3
				H35.2c-0.1-0.1-0.2-0.3-0.3-0.4L54.3,116.1z M58.1,77c15.3,0,27.7,12.4,27.7,27.7c0,5.8-1.8,11.2-4.9,15.6l-10.4-17.1l0.3-11.1
				l0,0V92c0,0,0,0,0-0.1c0,0,0,0,0-0.1c0,0,0,0,0-0.1c0,0,0,0,0-0.1c0,0,0,0,0-0.1c0,0,0,0,0-0.1c0,0,0,0,0-0.1c0,0,0,0,0-0.1
				c0,0,0,0,0-0.1c0,0,0,0,0-0.1c0,0,0,0,0-0.1c0,0,0,0,0-0.1l0,0c0,0,0,0,0-0.1l0,0c0,0,0,0-0.1-0.1l0,0l0,0c0,0,0,0-0.1,0l0,0l0,0
				c0,0,0,0-0.1,0l0,0c0,0,0,0-0.1,0c0,0,0,0-0.1,0c0,0,0,0-0.1,0c0,0,0,0-0.1,0c0,0,0,0-0.1,0h-0.1l0,0h-0.1l0,0l-2.8-0.2l-0.4-4
				l0,0c0-0.1,0-0.1,0-0.2l0,0c0-0.1,0-0.1-0.1-0.2l0,0l0,0c0-0.1,0-0.1-0.1-0.1l0,0L66.4,86l0,0l0,0l0,0l-3.9-4.6
				c-0.3-0.3-0.6-0.5-0.9-0.5s-0.7,0.2-1,0.5l-3.5,3.9c-0.1,0.1-0.2,0.2-0.2,0.3l-4.3,9l-3.3,0.4c-0.5,0.1-0.9,0.4-1,0.8l-4.7,12.5
				l-3.8,5.3l-6.1,3.7c-1.9-3.8-3-8.1-3-12.5C30.4,89.4,42.8,77,58.1,77z M50,131.2h16.3c-2.6,0.8-5.3,1.2-8.1,1.2
				S52.5,132,50,131.2z"/>
			<polygon fill="#FFFFFF" points="49.2,102.5 51.8,101 54.5,98 51.2,97.9 			"/>
			<path fill="#FFFFFF" d="M46.9,91.7L46.9,91.7c0.4,0.1,0.7,0.1,1,0.1c2.2,0,4.4-1.6,4.8-3.9c0.3-1.3,0-2.6-0.6-3.7
				C51.3,83,50.2,82.3,49,82c-2.7-0.6-5.3,1.1-5.8,3.8C42.5,88.4,44.3,91,46.9,91.7z M45.7,86.3c0.3-1.3,1.6-2,2.8-1.8
				c0.6,0.1,1.1,0.5,1.5,1c0.4,0.6,0.5,1.2,0.3,1.8c-0.3,1.3-1.6,2-2.8,1.8l0,0C46.2,88.8,45.4,87.6,45.7,86.3z"/>
		</g>
		<g>
			<path fill="#FFFFFF" d="M141.2,122.4c1.2-4.4,2.4-9,3.6-13.4c1.3,0,2.7,0,4,0c0.2,0,0.4-0.2,0.5-0.4c0.4-1.2,0.6-2.5,1-3.7
				c0.1-0.3-0.2-0.6-0.5-0.6c-4.2,0-8.3,0-12.5,0c-0.2,0-0.4,0.2-0.5,0.4c-0.4,1.2-0.6,2.5-1,3.7c-0.1,0.3,0.2,0.6,0.5,0.6
				c1.3,0,2.5,0,3.8,0c-1.2,4.4-2.4,8.8-3.5,13.2c-0.1,0.3,0.2,0.6,0.5,0.6c1.3,0,2.5,0,3.8,0C141,122.8,141.2,122.6,141.2,122.4z"
				/>
			<circle fill="#FFFFFF" cx="163.3" cy="120.4" r="2.3"/>
			<path fill="#FFFFFF" d="M172.6,91.5C172.6,91.5,172.5,91.5,172.6,91.5C172.5,91.5,172.5,91.5,172.6,91.5c-0.1,0-0.1,0-0.2,0
				c-0.2,0-0.4,0-0.6,0c-0.7,0-5.3,0-6.3,0c-0.1,0-0.2,0-0.3,0h-0.1c-0.1,0-0.1,0-0.2,0c-0.1,0-0.3,0.1-0.3,0.2s-0.1,0.1-0.1,0.2
				c-0.1,0.2-0.1,0.4-0.2,0.6c-0.1,0.4-0.2,0.7-0.3,1.1c-0.1,0.4-0.2,0.7-0.3,1.1c-0.1,0.2-0.1,0.4-0.2,0.6c0,0.1,0,0.1,0,0.2
				s0,0.1,0,0.2c-0.1,0.3,0.2,0.6,0.5,0.6c1.9,0,0.4,0,6.9,0c0.1,0,0.3,0,0.4,0h0.1c0.1,0,0.2,0,0.3-0.1s0.1-0.2,0.2-0.3v-0.1
				c0-0.1,0-0.2,0.1-0.2c0-0.2,0.1-0.3,0.1-0.5c0.1-0.3,0.2-0.6,0.3-0.9c0.1-0.4,0.2-0.7,0.3-1.1c0.1-0.2,0.1-0.4,0.2-0.6
				c0-0.1,0-0.1,0-0.2s0-0.1,0-0.2C173.1,91.7,172.9,91.5,172.6,91.5z"/>
			<path fill="#FFFFFF" d="M133,104.3c-1.4,0-2.8,0-4.2,0c-0.2,0-0.3,0.1-0.4,0.2c-0.9,1.2-1.8,2.4-2.7,3.5
				c-0.3-1.1-0.5-2.2-0.7-3.3c0-0.2-0.3-0.4-0.5-0.4c-1.2,0-2.4,0-3.7,0c-0.3,0-0.6,0.3-0.5,0.6c0.6,2.7,1.1,5.3,1.7,8
				c-2.3,3.1-4.6,6.1-6.9,9.2c-0.2,0.3,0,0.7,0.4,0.7c1.4,0,2.8,0,4.2,0c0.2,0,0.3-0.1,0.4-0.2c1-1.4,2.1-2.8,3.1-4.3
				c0.3,1.4,0.6,2.7,0.8,4.1c0,0.2,0.3,0.4,0.5,0.4c1.2,0,2.4,0,3.7,0c0.3,0,0.6-0.3,0.5-0.6c-0.6-2.9-1.2-5.7-1.9-8.6
				c2.1-2.9,4.3-5.6,6.4-8.5C133.5,104.8,133.4,104.3,133,104.3z"/>
			<path fill="#FFFFFF" d="M117.1,104.9c-1.6,5.8-3.1,11.7-4.7,17.5c-0.1,0.2-0.3,0.4-0.5,0.4c-1.3,0-2.5,0-3.8,0
				c-0.3,0-0.6-0.3-0.5-0.6c1.6-5.8,3.1-11.7,4.7-17.5c0.1-0.2,0.3-0.4,0.5-0.4c1.3,0,2.5,0,3.8,0
				C116.9,104.3,117.2,104.6,117.1,104.9z"/>
			<path fill="#FFFFFF" d="M103.1,109c0.3,0,0.6,0.3,0.5,0.6c-0.1,0.4-0.2,0.7-0.3,1.1c-0.1,0.3,0.2,0.6,0.5,0.6c1.3,0,2.5,0,3.8,0
				c0.2,0,0.4-0.2,0.5-0.4c0.1-0.3,0.1-0.6,0.2-0.7c0.4-1.4,0.1-2.9-0.8-4c-0.8-1.1-2.2-1.8-3.6-1.8c-1.3,0-2.6,0-4,0
				c-2.1,0-3.9,1.4-4.4,3.4c-0.1,0.4-0.2,0.7-0.3,1.1c-0.5,1.9,0.2,3.9,1.9,5c1.5,1,3,2,4.4,3.1c0.2,0.1,0.3,0.3,0.2,0.5
				c0,0.2-0.1,0.3-0.1,0.5c-0.1,0.2-0.3,0.4-0.5,0.4c-1,0-2,0-3,0c-0.3,0-0.6-0.3-0.5-0.6c0.1-0.4,0.2-0.7,0.3-1.1
				c0.1-0.3-0.2-0.6-0.5-0.6c-1.3,0-2.5,0-3.8,0c-0.2,0-0.4,0.2-0.5,0.4c-0.1,0.3-0.1,0.6-0.2,0.7c-0.4,1.4-0.1,2.9,0.8,4
				c0.9,1.1,2.2,1.8,3.6,1.8c1.3,0,2.6,0,4,0c2.1,0,3.9-1.4,4.4-3.4c0.1-0.4,0.2-0.6,0.3-1c0.5-1.9-0.2-3.9-1.9-5
				c-1.5-1-3-2-4.4-3.1c-0.2-0.1-0.3-0.3-0.2-0.5c0.1-0.2,0.1-0.4,0.2-0.6c0.1-0.2,0.3-0.4,0.5-0.4C101,109,102.1,109,103.1,109z"/>
			<path fill="#FFFFFF" d="M145.9,85.6c-0.6-0.6-1.3-1.1-2.2-1.1c-3.1,0-6.4,0-9.5,0c-0.2,0-0.4,0.2-0.5,0.4
				c-1.6,5.8-3.1,11.7-4.7,17.5c-0.1,0.3,0.2,0.6,0.5,0.6c1.3,0,2.5,0,3.8,0c0.2,0,0.4-0.2,0.5-0.4c0.6-2.2,1.2-4.4,1.8-6.8
				c0.6,2.2,1.2,4.4,1.8,6.8c0.1,0.2,0.3,0.4,0.5,0.4c1.3,0,2.5,0,3.8,0c0.3,0,0.6-0.3,0.5-0.6c-0.6-2.1-1.2-4.4-1.8-6.5
				c0.6,0,1.2,0,1.9,0c1.3,0,2.3-0.8,2.7-2c0.6-1.9,1-3.9,1.6-5.8C146.6,87.2,146.4,86.3,145.9,85.6z M141.2,89.5
				c-0.1,0.6-0.3,1-0.4,1.6c-0.1,0.2-0.3,0.4-0.5,0.4c-1,0-2,0-3,0c-0.3,0-0.6-0.3-0.5-0.6c0.1-0.6,0.3-1,0.4-1.6
				c0.1-0.2,0.3-0.4,0.5-0.4c1,0,2,0,3,0C141,89,141.3,89.2,141.2,89.5z"/>
			<path fill="#FFFFFF" d="M162.1,85.6c-0.6-0.6-1.3-1.1-2.2-1.1c-2.6,0-5.2,0-7.8,0c-1.3,0-2.3,0.8-2.7,2
				c-1.1,4.3-2.3,8.6-3.4,12.9c-0.2,0.8,0,1.8,0.5,2.4c0.6,0.6,1.3,1.1,2.2,1.1c2.6,0,5.2,0,7.8,0c1.3,0,2.3-0.8,2.7-2
				c1.1-4.3,2.3-8.6,3.4-12.9C162.9,87.2,162.7,86.3,162.1,85.6z M157.4,89.7c-0.7,2.8-1.5,5.6-2.2,8.3c-0.1,0.2-0.3,0.4-0.5,0.4
				c-1,0-2,0-3,0c-0.3,0-0.6-0.3-0.5-0.6c0.7-2.8,1.5-5.6,2.2-8.3c0.1-0.2,0.3-0.4,0.5-0.4c1,0,2,0,3,0
				C157.2,89.2,157.5,89.4,157.4,89.7z"/>
			<path fill="#FFFFFF" d="M123.5,95.5c0.3-1.2,0.6-2.3,0.9-3.5c0.1-0.3-0.2-0.6-0.5-0.6c-1.2,0-2.3,0-3.5,0
				c0.2-0.8,0.5-1.7,0.6-2.5c2.8,0,5.6,0,8.3,0c0.2,0,0.4-0.2,0.5-0.4c0.3-1.2,0.6-2.3,0.9-3.5c0.1-0.3-0.2-0.6-0.5-0.6
				c-4.2,0-8.3,0-12.5,0c-0.2,0-0.4,0.2-0.5,0.4c-0.4,1.4-0.7,2.9-1.1,4.3c-0.8,3.1-1.7,6.2-2.5,9.3c-0.4,1.3-0.6,2.6-1,3.9
				c-0.1,0.3,0.2,0.6,0.5,0.6c4.2,0,8.3,0,12.5,0c0.2,0,0.4-0.2,0.5-0.4c0.4-1.2,0.6-2.5,1-3.7c0.1-0.3-0.2-0.6-0.5-0.6
				c-2.7,0-5.4,0-8.1,0c0.2-0.8,0.5-1.7,0.6-2.5c1.3,0,2.5,0,3.8,0C123.3,95.9,123.5,95.7,123.5,95.5z"/>
			<path fill="#FFFFFF" d="M113.5,89.1c-3.1,3.1-6.2,6.2-9.3,9.3c2.1,0,4.2,0,6.3,0c0.3,0,0.6,0.3,0.5,0.6c-0.4,1.2-0.6,2.5-1,3.7
				c-0.1,0.2-0.3,0.4-0.5,0.4c-4.2,0-8.3,0-12.5,0c-0.3,0-0.6-0.3-0.5-0.6c0.4-1.2,0.6-2.5,1-3.7c0-0.1,0.1-0.2,0.1-0.2
				c3.1-3.1,6.2-6.2,9.3-9.3c-2.1,0-4.2,0-6.3,0c-0.3,0-0.6-0.3-0.5-0.6c0.4-1.2,0.6-2.5,1-3.7c0.1-0.2,0.3-0.4,0.5-0.4
				c4.2,0,8.3,0,12.5,0c0.3,0,0.6,0.3,0.5,0.6c-0.4,1.2-0.6,2.5-1,3.7C113.6,89,113.6,89,113.5,89.1z"/>
			<path fill="#FFFFFF" d="M156.5,104.3c-1.2,0-2.4,0-3.7,0c-0.3,0-0.6,0.3-0.5,0.6c0.6,2.9,1.2,5.6,1.9,8.5c-0.7,3-1.6,5.8-2.3,8.8
				c-0.1,0.3,0.2,0.6,0.5,0.6c1.3,0,2.5,0,3.8,0c0.2,0,0.4-0.2,0.5-0.4c0.8-3,1.6-6,2.4-9c2.1-2.8,4.2-5.6,6.3-8.3
				c0.2-0.3,0-0.7-0.4-0.7c-1.4,0-2.8,0-4.2,0c-0.2,0-0.3,0.1-0.4,0.2c-0.9,1.2-1.8,2.4-2.7,3.5c-0.3-1.1-0.5-2.2-0.7-3.3
				C157,104.5,156.8,104.3,156.5,104.3z"/>
		</g>
	</g>
</g>
</svg>
