<?xml version="1.0" encoding="utf-8"?>
<!-- Generator: Adobe Illustrator 25.2.3, SVG Export Plug-In . SVG Version: 6.00 Build 0)  -->
<svg version="1.1" id="Capa_1" xmlns="http://www.w3.org/2000/svg" xmlns:xlink="http://www.w3.org/1999/xlink" x="0px" y="0px"
	 viewBox="0 0 280.7 127.7" style="enable-background:new 0 0 280.7 127.7;" xml:space="preserve">
<style type="text/css">
	.st0{fill:#FEFEFE;}
</style>
<g>
	<g>
		<g>
			<path class="st0" d="M119.8,63.8c0-28.4-23.1-51.6-51.6-51.6S16.7,35.4,16.7,63.8c0,11.1,3.5,21.4,9.5,29.8
				c0.1,0.2,0.2,0.4,0.4,0.5c1.8,2.5,3.8,4.8,6,6.9c0.1,0.2,0.3,0.3,0.5,0.5c2.9,2.7,6,5.1,9.5,7c0.1,0.1,0.3,0.2,0.5,0.3
				c7.5,4.2,16.1,6.6,25.3,6.6c9.2,0,17.8-2.4,25.3-6.6c0.2-0.1,0.3-0.2,0.5-0.3c3.4-2,6.6-4.3,9.5-7c0.2-0.1,0.3-0.3,0.5-0.5
				C113.7,91.6,119.8,78.4,119.8,63.8z M101.3,97.5H35.2c-0.9-0.9-1.7-1.8-2.5-2.7h47.1h24.1C103,95.7,102.2,96.6,101.3,97.5z
				 M92.1,104.6H44.4c-1.4-0.8-2.8-1.7-4.1-2.7h55.8C94.8,102.8,93.5,103.7,92.1,104.6z M85.4,63.1l11.7,19.3L75.9,64.8l4.5-7.3
				l4.9-7.5l-0.3,12C85.1,62.4,85.2,62.8,85.4,63.1z M70.1,48.2l0.8,16.3l-9.3,13.3l-12.4-7.2l16.6-11.4c0.4-0.3,0.7-0.6,0.8-1.1
				L70.1,48.2z M73.5,68.4l26.3,22H80.4L65.3,80.3L73.5,68.4z M76.8,55.1C76.8,55.1,76.8,55.1,76.8,55.1l-1.8,3L74,38.5l4.4-1.9
				l0.5,5.6c0.1,1.1,1,1.9,2,2l2.9,0.2L76.8,55.1z M70.9,35.1c-0.1,0-0.2,0.1-0.3,0.1c0,0,0,0-0.1,0c-0.1,0.1-0.2,0.1-0.2,0.2
				c0,0,0,0,0,0c-0.1,0.1-0.1,0.1-0.2,0.2c0,0,0,0,0,0.1c-0.1,0.1-0.1,0.1-0.2,0.2c0,0,0,0,0,0c-0.1,0.1-0.1,0.2-0.1,0.3
				c0,0,0,0,0,0.1c0,0,0,0.1,0,0.1l-7.1,19.7l-13.1,9l5.2-13.9l5.5-0.7c0.7-0.1,1.4-0.6,1.7-1.2l7.6-16.1l4.1-4.5l3.1,3.8L70.9,35.1
				z M45.6,73.8l10.4,6.1l-18.9,3.8l2.1-1.3c0.2-0.2,0.5-0.4,0.6-0.6L45.6,73.8z M61.7,83.2l10.8,7.2H29.2c-0.1-0.2-0.3-0.4-0.4-0.6
				L61.7,83.2z M68.2,16.7c26,0,47.2,21.2,47.2,47.2c0,9.9-3.1,19.1-8.3,26.7L89.5,61.4l0.5-19c0,0,0,0,0,0c0,0,0-0.1,0-0.1
				c0,0,0-0.1,0-0.1c0,0,0-0.1,0-0.1c0,0,0-0.1,0-0.1c0,0,0-0.1,0-0.1c0,0,0-0.1,0-0.1c0,0,0-0.1,0-0.1c0,0,0-0.1,0-0.1
				c0,0,0-0.1,0-0.1c0,0,0-0.1,0-0.1c0,0,0-0.1-0.1-0.1c0,0,0-0.1,0-0.1c0,0,0-0.1-0.1-0.1c0,0,0,0-0.1-0.1c0,0-0.1-0.1-0.1-0.1
				c0,0,0,0-0.1-0.1c0,0-0.1-0.1-0.1-0.1c0,0-0.1,0-0.1-0.1c0,0-0.1,0-0.1-0.1c0,0-0.1-0.1-0.1-0.1c0,0,0,0,0,0c0,0,0,0,0,0
				c0,0-0.1,0-0.1-0.1c0,0,0,0-0.1,0c0,0-0.1,0-0.1-0.1c0,0-0.1,0-0.1,0c0,0-0.1,0-0.1,0c0,0-0.1,0-0.1,0c0,0-0.1,0-0.1,0
				c0,0-0.1,0-0.1,0c0,0,0,0-0.1,0c0,0-0.1,0-0.1,0c0,0,0,0,0,0l-4.8-0.3l-0.6-6.8c0,0,0,0,0,0c0-0.1,0-0.2-0.1-0.3c0,0,0,0,0-0.1
				c0-0.1,0-0.2-0.1-0.2c0,0,0,0,0-0.1c0,0,0,0,0,0c0-0.1-0.1-0.2-0.1-0.2c0,0,0,0,0,0c0-0.1-0.1-0.2-0.2-0.2c0,0,0,0,0,0l0,0
				c0,0,0,0,0,0L75.4,24c-0.4-0.5-1-0.8-1.6-0.8c-0.6,0-1.2,0.3-1.7,0.7l-6,6.6c-0.1,0.2-0.3,0.3-0.4,0.5l-7.2,15.3l-5.7,0.7
				c-0.8,0.1-1.5,0.6-1.8,1.4l-8,21.4l-6.5,9l-10.4,6.4C22.9,78.8,21,71.5,21,63.8C21,37.8,42.2,16.7,68.2,16.7z M54.4,109h27.7
				c-4.4,1.3-9,2.1-13.8,2.1S58.8,110.3,54.4,109z"/>
			<polygon class="st0" points="53.1,60 57.6,57.5 62.1,52.5 56.5,52.4 			"/>
			<path class="st0" d="M49.2,41.5L49.2,41.5c0.6,0.1,1.2,0.2,1.8,0.2c3.9,0,7.3-2.7,8.2-6.6c0.5-2.2,0.1-4.4-1.1-6.3
				c-1.2-1.9-3.1-3.2-5.3-3.7c-4.5-1-9,1.9-10,6.4C41.8,36.1,44.7,40.5,49.2,41.5z M47.1,32.5c0.5-2.2,2.6-3.5,4.8-3.1
				c1,0.2,1.9,0.8,2.5,1.7c0.6,0.9,0.8,2,0.5,3c-0.5,2.2-2.6,3.5-4.8,3.1v0C48,36.8,46.6,34.6,47.1,32.5z"/>
		</g>
		<path class="st0" d="M133.2,63.8"/>
		<g>
			<path class="st0" d="M209.9,94c2-7.6,4.1-15.3,6.1-22.9c2.3,0,4.5,0,6.8,0c0.4,0,0.7-0.2,0.8-0.6c0.6-2.1,1.1-4.2,1.7-6.3
				c0.1-0.5-0.2-1-0.8-1c-7.1,0-14.2,0-21.3,0c-0.4,0-0.7,0.2-0.8,0.6c-0.6,2.1-1.1,4.2-1.7,6.3c-0.1,0.5,0.2,1,0.8,1
				c2.1,0,4.3,0,6.4,0c-2,7.5-4,15-6,22.5c-0.1,0.5,0.2,1,0.8,1c2.2,0,4.3,0,6.5,0C209.5,94.6,209.8,94.3,209.9,94z"/>
			<circle class="st0" cx="247.4" cy="90.7" r="3.9"/>
			<path class="st0" d="M263.2,41.2C263.2,41.2,263.2,41.2,263.2,41.2C263.2,41.2,263.2,41.2,263.2,41.2c-0.2,0-0.2,0-0.3,0
				c-0.3,0-0.6,0-0.9,0c-1.2,0-9,0-10.7,0c-0.2,0-0.3,0-0.5,0c-0.1,0-0.2,0-0.2,0c-0.1,0-0.2,0-0.3,0c-0.2,0-0.4,0.2-0.6,0.4
				c-0.1,0.1-0.1,0.2-0.1,0.3c-0.1,0.3-0.2,0.6-0.2,0.9c-0.2,0.6-0.3,1.2-0.5,1.9c-0.2,0.6-0.3,1.3-0.5,1.9c-0.1,0.3-0.2,0.6-0.3,1
				c0,0.1,0,0.2-0.1,0.2c0,0.1,0,0.2-0.1,0.3c-0.1,0.5,0.3,1,0.8,1c3.2,0,0.7,0,11.9,0c0.2,0,0.4,0,0.6,0c0,0,0.1,0,0.1,0
				c0.2,0,0.4,0,0.5-0.2c0.1-0.1,0.2-0.3,0.3-0.4c0-0.1,0-0.1,0.1-0.2c0-0.1,0.1-0.3,0.1-0.4c0.1-0.3,0.1-0.5,0.2-0.8
				c0.1-0.5,0.3-1,0.4-1.6c0.2-0.6,0.3-1.3,0.5-1.9c0.1-0.3,0.2-0.6,0.3-1c0-0.1,0-0.2,0.1-0.2c0-0.1,0-0.2,0.1-0.3
				C264.1,41.7,263.7,41.2,263.2,41.2z"/>
			<path class="st0" d="M195.7,63.2c-2.4,0-4.7,0-7.1,0c-0.2,0-0.5,0.1-0.6,0.3c-1.5,2-3,4-4.5,6.1c-0.4-1.9-0.8-3.8-1.2-5.7
				c-0.1-0.4-0.4-0.6-0.8-0.6c-2.1,0-4.2,0-6.2,0c-0.5,0-0.9,0.5-0.8,0.9c1,4.5,1.9,9,2.9,13.5c-3.9,5.2-7.8,10.4-11.7,15.6
				c-0.4,0.5,0,1.3,0.6,1.3c2.4,0,4.7,0,7.1,0c0.2,0,0.5-0.1,0.6-0.3c1.8-2.4,3.6-4.8,5.4-7.2c0.5,2.3,1,4.6,1.5,6.9
				c0.1,0.4,0.4,0.6,0.8,0.6c2.1,0,4.2,0,6.2,0c0.5,0,0.9-0.5,0.8-0.9c-1-4.9-2.1-9.8-3.1-14.7c3.6-4.8,7.2-9.6,10.8-14.5
				C196.7,63.9,196.4,63.2,195.7,63.2z"/>
			<path class="st0" d="M168.6,64.2c-2.7,9.9-5.3,19.9-8,29.8c-0.1,0.3-0.4,0.6-0.8,0.6c-2.2,0-4.3,0-6.5,0c-0.5,0-0.9-0.5-0.8-1
				c2.7-9.9,5.3-19.9,8-29.8c0.1-0.3,0.4-0.6,0.8-0.6c2.2,0,4.3,0,6.5,0C168.4,63.2,168.8,63.7,168.6,64.2z"/>
			<path class="st0" d="M144.8,71c0.5,0,0.9,0.5,0.8,1c-0.2,0.6-0.3,1.3-0.5,1.9c-0.1,0.5,0.2,1,0.8,1c2.2,0,4.3,0,6.5,0
				c0.4,0,0.7-0.2,0.8-0.6c0.1-0.4,0.2-0.9,0.4-1.3c0.6-2.4,0.1-4.9-1.4-6.8c-1.5-1.9-3.8-3.1-6.2-3.1c-2.2,0-4.5,0-6.7,0
				c-3.5,0-6.7,2.4-7.6,5.8c-0.2,0.6-0.3,1.2-0.5,1.8c-0.9,3.2,0.4,6.6,3.1,8.5c2.5,1.7,5,3.5,7.5,5.2c0.3,0.2,0.4,0.5,0.3,0.8
				c-0.1,0.3-0.1,0.5-0.2,0.8c-0.1,0.3-0.4,0.6-0.8,0.6c-1.7,0-3.4,0-5.1,0c-0.5,0-0.9-0.5-0.8-1c0.2-0.6,0.3-1.3,0.5-1.9
				c0.1-0.5-0.2-1-0.8-1c-2.2,0-4.3,0-6.5,0c-0.4,0-0.7,0.2-0.8,0.6c-0.1,0.4-0.2,0.9-0.4,1.3c-0.6,2.4-0.1,4.9,1.4,6.8
				c1.5,1.9,3.8,3.1,6.2,3.1c2.2,0,4.5,0,6.7,0c3.5,0,6.7-2.4,7.6-5.8c0.2-0.6,0.3-1.1,0.5-1.7c0.9-3.2-0.4-6.6-3.1-8.5
				c-2.5-1.7-5-3.5-7.5-5.2c-0.3-0.2-0.4-0.5-0.3-0.8c0.1-0.3,0.2-0.6,0.2-0.9c0.1-0.3,0.4-0.6,0.8-0.6C141.4,71,143.1,71,144.8,71z
				"/>
			<path class="st0" d="M217.8,31.3c-0.9-1.2-2.3-1.8-3.7-1.8c-5.4,0-10.8,0-16.2,0c-0.4,0-0.7,0.2-0.8,0.6
				c-2.7,9.9-5.3,19.9-8,29.8c-0.1,0.5,0.2,1,0.8,1c2.2,0,4.3,0,6.5,0c0.4,0,0.7-0.2,0.8-0.6c1-3.8,2-7.6,3.1-11.4
				c1,3.8,2,7.6,3.1,11.4c0.1,0.3,0.4,0.6,0.8,0.6c2.2,0,4.3,0,6.5,0c0.5,0,0.9-0.5,0.8-1c-1-3.7-2-7.4-3-11c1,0,2.1,0,3.1,0
				c2.1,0,4-1.4,4.5-3.5c0.9-3.3,1.8-6.6,2.7-9.9C219,34,218.7,32.5,217.8,31.3z M209.8,38c-0.2,0.9-0.5,1.7-0.7,2.6
				c-0.1,0.3-0.4,0.6-0.8,0.6c-1.7,0-3.4,0-5.1,0c-0.5,0-0.9-0.5-0.8-1c0.2-0.9,0.5-1.7,0.7-2.6c0.1-0.3,0.4-0.6,0.8-0.6
				c1.7,0,3.4,0,5.1,0C209.6,37,210,37.5,209.8,38z"/>
			<path class="st0" d="M245.5,31.3c-0.9-1.2-2.3-1.8-3.7-1.8c-4.4,0-8.8,0-13.2,0c-2.1,0-4,1.4-4.5,3.5c-2,7.3-3.9,14.6-5.9,22
				c-0.4,1.4-0.1,2.9,0.8,4.1c0.9,1.2,2.3,1.8,3.7,1.8c4.4,0,8.8,0,13.2,0c2.1,0,4-1.4,4.5-3.5c2-7.3,3.9-14.6,5.9-22
				C246.7,34,246.4,32.5,245.5,31.3z M237.4,38.3c-1.3,4.7-2.5,9.4-3.8,14.1c-0.1,0.3-0.4,0.6-0.8,0.6c-1.7,0-3.4,0-5.1,0
				c-0.5,0-0.9-0.5-0.8-1c1.3-4.7,2.5-9.4,3.8-14.1c0.1-0.3,0.4-0.6,0.8-0.6c1.7,0,3.4,0,5.1,0C237.2,37.3,237.6,37.8,237.4,38.3z"
				/>
			<path class="st0" d="M179.7,48.2c0.5-2,1.1-4,1.6-6c0.1-0.5-0.2-1-0.8-1c-2,0-4,0-6,0c0.4-1.4,0.7-2.8,1.1-4.2
				c4.7,0,9.5,0,14.2,0c0.4,0,0.7-0.2,0.8-0.6c0.5-2,1.1-4,1.6-6c0.1-0.5-0.2-1-0.8-1c-7.1,0-14.2,0-21.3,0c-0.4,0-0.7,0.2-0.8,0.6
				c-0.6,2.4-1.3,4.8-1.9,7.3c-1.4,5.3-2.8,10.6-4.3,16c-0.6,2.2-1.2,4.4-1.8,6.6c-0.1,0.5,0.2,1,0.8,1c7.1,0,14.2,0,21.3,0
				c0.4,0,0.7-0.2,0.8-0.6c0.6-2.1,1.1-4.2,1.7-6.3c0.1-0.5-0.2-1-0.8-1c-4.6,0-9.2,0-13.8,0c0.4-1.4,0.7-2.8,1.1-4.2
				c2.1,0,4.3,0,6.4,0C179.3,48.8,179.6,48.6,179.7,48.2z"/>
			<path class="st0" d="M162.7,37.2c-5.3,5.3-10.5,10.5-15.8,15.8c3.6,0,7.1,0,10.7,0c0.5,0,0.9,0.5,0.8,1c-0.6,2.1-1.1,4.2-1.7,6.3
				c-0.1,0.3-0.4,0.6-0.8,0.6c-7.1,0-14.2,0-21.3,0c-0.5,0-0.9-0.5-0.8-1c0.6-2.1,1.1-4.3,1.7-6.4c0-0.1,0.1-0.2,0.2-0.4
				c5.3-5.3,10.5-10.5,15.8-15.8c-3.6,0-7.1,0-10.7,0c-0.5,0-0.9-0.5-0.8-1c0.6-2.1,1.1-4.2,1.7-6.3c0.1-0.3,0.4-0.6,0.8-0.6
				c7.1,0,14.2,0,21.3,0c0.5,0,0.9,0.5,0.8,1c-0.6,2.1-1.1,4.3-1.7,6.4C162.9,37,162.8,37.1,162.7,37.2z"/>
			<path class="st0" d="M235.9,63.2c-2.1,0-4.2,0-6.2,0c-0.5,0-0.9,0.5-0.8,0.9c1,4.8,2.1,9.6,3.1,14.4c-1.3,5-2.7,10-4,15
				c-0.1,0.5,0.2,1,0.8,1c2.2,0,4.3,0,6.5,0c0.4,0,0.7-0.2,0.8-0.6c1.4-5.1,2.7-10.2,4.1-15.3c3.6-4.7,7.1-9.5,10.7-14.2
				c0.4-0.5,0-1.3-0.6-1.3c-2.4,0-4.7,0-7.1,0c-0.2,0-0.5,0.1-0.6,0.3c-1.5,2-3,4-4.5,6.1c-0.4-1.9-0.8-3.8-1.2-5.7
				C236.6,63.5,236.3,63.2,235.9,63.2z"/>
			<path class="st0" d="M249.8,98.2"/>
		</g>
	</g>
</g>
</svg>
