<?xml version="1.0" encoding="utf-8"?>
<!-- Generator: Adobe Illustrator 23.1.1, SVG Export Plug-In . SVG Version: 6.00 Build 0)  -->
<svg version="1.2" baseProfile="tiny" id="Capa_1" xmlns="http://www.w3.org/2000/svg" xmlns:xlink="http://www.w3.org/1999/xlink"
	 x="0px" y="0px" viewBox="0 0 200 200" xml:space="preserve">
<g>
	<path fill="#FFFFFF" d="M49.5,74c-0.1,0.8-0.3,1.5-0.4,2.2c-0.6,3.4-1.3,6.9-1.9,10.3c-0.7,3.7-1.4,7.3-2,11
		c-0.7,3.6-1.4,7.3-2,10.9c-0.1,0.5,0,0.4-0.5,0.4c-1.8,0-3.7,0-5.5,0c-0.1,0-0.2,0-0.4,0c0.5-2.8,1-5.5,1.6-8.4c-0.1,0-0.3,0-0.4,0
		c-3.3,0-6.6,0-10,0c-0.4,0-0.4,0-0.5,0.4c-0.4,2.3-0.6,4.6-0.5,6.9c0,6.2,1.3,12.1,3.9,17.7c0,0.1,0.1,0.2,0.1,0.3c0,0,0,0,0,0.1
		c-0.5-0.5-1-0.8-1.4-1.3c-3.8-3.9-6-8.6-7.2-13.8c-0.6-2.6-0.9-5.2-0.9-7.8c0-7.6,2.3-14.4,7.1-20.2c2.9-3.6,6.5-6.2,10.9-7.8
		c2.3-0.8,4.6-1.2,7-1.2C47.5,73.8,48.5,73.9,49.5,74z M28.6,95.4c0.1,0,0.2,0,0.3,0c3.3,0,6.7,0,10,0c0.2,0,0.3,0,0.3-0.2
		c0.3-1.8,0.7-3.7,1-5.5c0.5-2.9,1.1-5.8,1.6-8.7c0.1-0.7,0.2-1.3,0.4-2c-0.2,0-0.3,0-0.4,0c-2.5,0.4-4.6,1.6-6.3,3.5
		c-2.7,2.9-4.7,6.3-6,10C29.2,93.4,28.9,94.4,28.6,95.4z"/>
	<path fill="#FFFFFF" d="M44.9,108.8c0.2-0.9,0.3-1.7,0.5-2.5c0.7-3.6,1.4-7.3,2.1-10.9c0.2-1.3,0.4-2.6,0.8-3.9
		c0.7-2.7,2.5-4.4,5-5.4c1.1-0.4,2.3-0.7,3.5-0.6c0.5,0,1,0,1.4,0c0.2,0,0.2-0.1,0.3-0.2c0.5-2.7,1-5.3,1.5-8c0-0.2,0.1-0.4,0.4-0.3
		c1.8,0,3.6,0,5.4,0c0.1,0,0.2,0,0.3,0c-0.1,0.7-0.3,1.5-0.4,2.2c-0.7,3.7-1.4,7.3-2,11c-0.7,4-1.5,8-2.2,11.9
		c-0.4,2.2-0.8,4.4-1.2,6.5c0,0.2-0.1,0.2-0.3,0.2c-4.9,0-9.8,0-14.7,0C45.1,108.8,45,108.8,44.9,108.8z M58,87.8
		c-0.7,0-1.4,0.2-2,0.6c-1.3,0.8-1.9,2.1-2.1,3.5c-0.9,4.5-1.7,9-2.5,13.5c-0.1,0.4-0.1,0.7-0.2,1.1c1.1,0,2.1,0,3.2,0
		c0.1,0,0.2-0.1,0.2-0.2c0.4-2.3,0.9-4.5,1.3-6.8c0.6-3.1,1.2-6.2,1.8-9.3C57.7,89.4,57.8,88.6,58,87.8z"/>
	<path fill="#FFFFFF" d="M146.2,85.4c0.1,0,0.2,0,0.4,0c3.7,0,7.4,0,11.1,0c1.9,0,3.6,1.5,3.1,3.8c-0.8,3.9-1.5,7.8-2.2,11.7
		c-0.5,2.6-1,5.1-1.4,7.7c0,0.1-0.1,0.2-0.2,0.2c-1.8,0-3.6,0-5.5,0c0,0,0,0-0.1,0c1.3-7,2.6-14,4-21c-0.1,0-0.2,0-0.3,0
		c-1.1,0-2.2,0-3.2,0c-0.2,0-0.3,0-0.3,0.3c-0.7,3.9-1.4,7.8-2.2,11.7c-0.6,3-1.1,5.9-1.7,8.9c0,0.2-0.1,0.2-0.2,0.2
		c-1.8,0-3.6,0-5.5,0c0,0,0,0-0.1,0C143.3,101,144.7,93.2,146.2,85.4z"/>
	<path fill="#FFFFFF" d="M96.2,85.4c0.1,0,0.2,0,0.3,0c3.8,0,7.6,0,11.3,0c2,0,3.3,1.7,3,3.6c-1.2,6.4-2.4,12.9-3.6,19.3
		c0,0,0,0.1,0,0.1c0,0.3-0.1,0.4-0.4,0.4c-1.7,0-3.4,0-5,0c-0.1,0-0.2,0-0.4,0c1.3-7,2.6-14,4-21.1c-0.2,0-0.3,0-0.5,0c-1,0-2,0-3,0
		c-0.2,0-0.3,0.1-0.4,0.3c-0.9,4.9-1.8,9.9-2.8,14.8c-0.4,1.9-0.7,3.8-1.1,5.6c0,0.1,0,0.2-0.1,0.3c-1.9,0-3.8,0-5.8,0
		C93.3,101,94.7,93.2,96.2,85.4z"/>
	<path fill="#FFFFFF" d="M82,106.5c2.8,0,5.7,0,8.6,0c-0.1,0.8-0.3,1.5-0.4,2.3c-4.7,0-9.5,0-14.2,0c0.1-0.6,0.2-1.2,0.3-1.8
		c0.9-4.7,1.8-9.5,2.7-14.2c0.4-2.4,0.9-4.7,1.3-7.1c0-0.1,0.1-0.2,0.2-0.2c4.6,0,9.2,0,13.9,0c0,0,0,0,0.1,0c0,0.1,0,0.2,0,0.3
		c-0.7,4-1.5,8-2.2,11.9c-0.2,1-0.7,1.8-1.4,2.6c-1.4,1.6-3.1,2.4-5.2,2.7c-0.9,0.1-1.9,0.1-2.8,0.2c-0.2,0-0.3,0.1-0.3,0.2
		c-0.2,1-0.4,1.9-0.5,2.8C82,106.4,82,106.4,82,106.5z M83.1,100.5c0.5-0.1,0.9-0.1,1.3-0.2c1.2-0.3,2.1-1,2.4-2.3
		c0.6-3.3,1.3-6.6,1.9-10c0-0.1,0-0.2,0-0.3c-1,0-1.9,0-2.9,0c-0.3,0-0.4,0.1-0.4,0.3c-0.7,3.5-1.3,7.1-2,10.6
		C83.3,99.2,83.2,99.8,83.1,100.5z"/>
	<path fill="#FFFFFF" d="M163.8,85.4c4.7,0,9.4,0,14.2,0c-0.1,0.8-0.3,1.5-0.4,2.2c-0.4,2.1-0.8,4.3-1.2,6.4
		c-0.2,1.2-0.4,2.5-0.7,3.7c-0.3,1.1-0.9,2-1.7,2.8c-1.4,1.5-3.3,2.2-5.3,2.5c-0.8,0.1-1.6,0.1-2.4,0.1c-0.1,0-0.2,0-0.3,0.2
		c-0.2,1-0.4,2-0.5,3c0,0,0,0.1,0,0.1c2.8,0,5.7,0,8.6,0c-0.1,0.4-0.1,0.8-0.2,1.2c-0.1,0.3-0.1,0.6-0.2,0.9c0,0.1-0.1,0.1-0.2,0.2
		c0,0-0.1,0-0.2,0c-4.5,0-9,0-13.5,0c-0.1,0-0.2,0-0.3,0C160.9,101,162.4,93.2,163.8,85.4z M169,87.7c-0.8,4.2-1.6,8.5-2.4,12.7
		c0.4,0,0.7-0.1,1-0.1c1.5-0.2,2.5-1.2,2.7-2.4c0.5-2.9,1.1-5.7,1.6-8.6c0.1-0.5,0.2-1,0.3-1.6C171.1,87.7,170.1,87.7,169,87.7z"/>
	<path fill="#FFFFFF" d="M109,108.8c0.1-0.6,0.2-1.2,0.3-1.8c0.5-2.8,1-5.7,1.6-8.5c0.7-3.3,2.7-5.4,6-6.2c1.2-0.3,2.4-0.3,3.6-0.3
		c0.3,0,0.4-0.1,0.4-0.3c0.2-1.2,0.5-2.4,0.7-3.7c0-0.1,0-0.2,0-0.3c-2.9,0-5.8,0-8.7,0c0.2-0.8,0.3-1.5,0.5-2.3c4.8,0,9.7,0,14.5,0
		c-0.1,0.6-0.2,1.2-0.3,1.7c-1,5.2-1.9,10.4-2.9,15.6c-0.4,1.9-0.7,3.9-1.1,5.8c0,0.2-0.1,0.2-0.3,0.2c-4.3,0-8.5,0-12.8,0
		C110.1,108.8,109.6,108.8,109,108.8z M120.4,94.6c-0.1,0-0.2,0-0.3,0c-1,0.1-1.9,0.5-2.6,1.2c-0.6,0.5-1.1,1.1-1.2,1.9
		c-0.5,2.4-0.9,4.9-1.4,7.3c-0.1,0.5-0.2,1-0.3,1.5c0.1,0,0.2,0,0.3,0c1,0,2,0,3,0c0.2,0,0.3-0.1,0.4-0.3c0.6-3,1.1-6,1.7-9
		C120.1,96.3,120.3,95.5,120.4,94.6z"/>
	<path fill="#FFFFFF" d="M125.8,108.8c0.1-0.7,0.3-1.4,0.4-2.1c0.7-3.9,1.5-7.9,2.2-11.8c0.9-5,1.9-10,2.8-14.9
		c0.2-0.9,0.4-1.9,0.5-2.8c0-0.1,0.1-0.2,0.2-0.2c1.8,0,3.7,0,5.5,0c0,0,0.1,0,0.1,0c-0.1,0.5-0.2,1-0.3,1.5
		c-0.6,3.2-1.2,6.3-1.8,9.5c-0.6,3.2-1.2,6.4-1.8,9.7c-0.6,3.4-1.3,6.9-1.9,10.3c-0.1,0.3,0,0.7-0.2,0.8c-0.2,0.1-0.5,0.1-0.8,0.1
		c-1.6,0-3.1,0-4.7,0C126.1,108.8,126,108.8,125.8,108.8z"/>
	<path fill="#FFFFFF" d="M66.2,85.4c4.2,0,8.4,0,12.6,0c-0.1,0.8-0.3,1.6-0.4,2.4c-0.2,1.1-0.4,2.2-0.6,3.3c0,0.1,0,0.3-0.2,0.3
		c-1.3,0-2.7,0-4,0c0,0,0,0-0.1,0c0.2-1.2,0.4-2.4,0.7-3.6c-0.9,0-1.7,0-2.5,0c-0.1,0-0.2,0.1-0.2,0.2c-0.4,1.9-0.7,3.7-1,5.6
		c-0.9,5-1.9,9.9-2.8,14.9c-0.1,0.3-0.2,0.3-0.4,0.3c-1.7,0-3.4,0-5.1,0c-0.1,0-0.2,0-0.4,0C63.3,101,64.8,93.2,66.2,85.4z"/>
	<path fill="#FFFFFF" d="M138.2,85.4c1.9,0,3.9,0,5.9,0c-1.5,7.8-2.9,15.6-4.3,23.3c-2,0-3.9,0-5.9,0
		C135.3,101,136.7,93.2,138.2,85.4z"/>
	<path fill="#FFFFFF" d="M85.2,120.4c0.5,1.6,1.1,3.2,1.6,4.8c-0.1,0-0.2,0-0.3,0c-1.3,0-2.7,0-4,0c-0.2,0-0.3-0.1-0.4-0.3
		c-0.3-1.3-0.7-2.6-1-3.9c-0.1-0.2-0.1-0.3-0.4-0.3c-0.9,0-1.8,0-2.6,0c-0.2,0-0.3,0.1-0.3,0.3c-0.2,1.3-0.5,2.6-0.8,3.8
		c0,0.1,0,0.2-0.1,0.3c-1.4,0-2.9,0-4.3,0c0.1-0.4,0.1-0.8,0.2-1.1c0.7-3.6,1.5-7.3,2.2-10.9c0-0.2,0.1-0.3,0.4-0.3c3,0,6,0,8.9,0
		c0.6,0,1.1,0.1,1.7,0.3c1,0.3,1.5,1.1,1.3,2.1c-0.2,1-0.4,2.1-0.6,3.1C86.5,119.3,86.1,120,85.2,120.4z M79,114.7
		c-0.3,1.5-0.6,3-0.9,4.5c1.2,0,2.4,0,3.6,0c0,0,0-0.1,0-0.1c0.3-1.2,0.6-2.4,0.8-3.6c0.1-0.5-0.2-0.9-0.7-0.9
		C81,114.6,80,114.7,79,114.7z"/>
	<path fill="#FFFFFF" d="M125.8,125.2c0.3-1.6,0.7-3.2,1-4.8c-0.1,0-0.2,0-0.3,0c-1.5,0-3.1,0-4.6,0c-0.2,0-0.3,0.1-0.4,0.3
		c-0.3,1.4-0.6,2.9-0.9,4.3c0,0.2-0.1,0.2-0.3,0.2c-1.3,0-2.6,0-3.9,0c-0.1,0-0.1,0-0.2,0c0.1-0.7,0.3-1.4,0.4-2.1
		c0.7-3.3,1.4-6.6,2.1-9.9c0-0.2,0.1-0.3,0.4-0.3c1.2,0,2.4,0,3.6,0c0.1,0,0.2,0,0.3,0c-0.3,1.5-0.6,3-1,4.6c0.1,0,0.2,0,0.3,0
		c1.6,0,3.1,0,4.7,0c0.2,0,0.3-0.1,0.4-0.3c0.3-1.4,0.6-2.7,0.8-4.1c0-0.1,0-0.3,0.2-0.3c1.3,0,2.6,0,3.9,0c0,0,0.1,0,0.1,0
		c-0.1,0.4-0.2,0.8-0.3,1.2c-0.8,3.6-1.5,7.2-2.3,10.8c0,0.2-0.1,0.3-0.3,0.3c-1.3,0-2.5,0-3.8,0C126,125.2,125.9,125.2,125.8,125.2
		z"/>
	<path fill="#FFFFFF" d="M102.6,112.9c-0.2,0.9-0.4,1.8-0.6,2.6c-0.5,2.3-1,4.7-1.5,7c-0.2,1.3-1.6,2.7-3.2,2.6
		c-2.2-0.1-4.5-0.1-6.7,0c-1.3,0-2.8-1-2.5-2.9c0.2-1.2,0.5-2.4,0.7-3.7c0.4-1.8,0.8-3.7,1.2-5.5c0-0.2,0.1-0.3,0.4-0.3
		c1.2,0,2.5,0,3.7,0c0.1,0,0.2,0,0.3,0c-0.1,0.7-0.3,1.4-0.4,2c-0.5,2.3-0.9,4.5-1.4,6.8c-0.1,0.3-0.1,0.6,0,1
		c0,0.3,0.2,0.5,0.6,0.5c0.5,0,1.1,0,1.6,0c0.9,0,1.5-0.5,1.7-1.3c0.3-1.1,0.5-2.1,0.7-3.2c0.4-1.8,0.7-3.6,1.1-5.5
		c0-0.1,0-0.3,0.2-0.2C99.8,112.9,101.1,112.9,102.6,112.9C102.5,112.9,102.5,112.9,102.6,112.9z"/>
	<path fill="#FFFFFF" d="M116.7,112.9c-0.1,0.6-0.3,1.2-0.4,1.8c0,0.1-0.1,0.1-0.2,0.1c-0.3,0-0.7,0-1,0c-1.9,0-3.8,0-5.7,0
		c-0.3,0-0.6,0-0.9,0.1c-0.4,0.1-0.7,0.4-0.8,0.9c-0.1,0.7-0.3,1.3-0.4,2c0.2,0,0.3,0,0.4,0c1.7,0,3.5,0,5.2,0
		c0.6,0,1.2,0.1,1.7,0.3c0.9,0.3,1.3,1.1,1.2,2c-0.2,0.9-0.4,1.8-0.6,2.7c-0.2,0.8-0.7,1.3-1.3,1.6c-0.8,0.4-1.6,0.7-2.5,0.7
		c-3,0-6.1,0-9.1,0c-0.1,0-0.2,0-0.4,0c0.2-0.8,0.4-1.6,0.6-2.3c0.1,0,0.2,0,0.4,0c2.7,0,5.4,0,8,0c0.2,0,0.3-0.1,0.4-0.3
		c0.1-0.4,0.2-0.9,0.3-1.3c0-0.1,0.1-0.3,0.1-0.4c0-0.5-0.2-0.7-0.7-0.7c-1.8,0-3.7,0-5.5,0c-1.1,0-1.8-0.6-2-1.6
		c-0.1-0.4-0.1-0.8,0-1.2c0.1-0.8,0.3-1.5,0.5-2.2c0.1-0.6,0.5-1.1,1-1.4c0.7-0.5,1.4-0.7,2.3-0.7c3,0,6.1,0,9.1,0
		C116.4,112.9,116.5,112.9,116.7,112.9z"/>
	<path fill="#FFFFFF" d="M145.6,76.9c-0.3,1.5-0.5,2.9-0.8,4.3c0,0.1-0.1,0.2-0.2,0.2c-1.9,0-3.7,0-5.6,0c0,0,0,0-0.1,0
		c0.3-1.5,0.6-3,0.8-4.5C141.7,76.9,143.7,76.9,145.6,76.9z"/>
	<path fill="#FFFFFF" d="M139.2,114.7c0,1.1-0.9,2-2,2c-1.1,0-2-0.9-2-2.1c0-1.1,0.9-2,2-2C138.3,112.6,139.2,113.5,139.2,114.7z
		 M138.7,114.6c0-0.9-0.7-1.6-1.6-1.6c-0.8,0-1.6,0.7-1.6,1.6c0,0.9,0.7,1.6,1.6,1.6C138,116.3,138.7,115.5,138.7,114.6z"/>
	<path fill="#FFFFFF" d="M39.3,82.4c-0.1,0.5-0.2,1-0.3,1.4c-0.6,3-1.1,6-1.7,9c0,0.2-0.1,0.3-0.3,0.3c-1.7,0-3.4,0-5.2,0
		c0,0-0.1,0-0.2,0c0.2-0.4,0.3-0.9,0.5-1.3c1.3-2.9,2.9-5.6,5.1-7.9C38,83.3,38.6,82.8,39.3,82.4z"/>
	<path fill="#FFFFFF" d="M136.3,113.6c0.4,0,0.7,0,1,0c0.3,0,0.6,0,0.7,0.4c0.1,0.3,0.1,0.8-0.2,0.8c0.1,0.2,0.2,0.6,0.3,0.9
		c-0.2,0-0.3,0-0.4,0c-0.1-0.2-0.1-0.5-0.2-0.6c-0.2-0.1-0.5-0.1-0.7-0.1c0,0.2,0,0.5,0,0.7c-0.2,0-0.3,0-0.4,0
		C136.3,115,136.3,114.3,136.3,113.6z M136.7,114.6c0.2,0,0.4,0,0.6,0c0.2,0,0.3-0.1,0.3-0.3c0-0.2-0.1-0.3-0.3-0.3
		c-0.2,0-0.4,0-0.6,0C136.7,114.2,136.7,114.4,136.7,114.6z"/>
</g>
</svg>
