<?xml version="1.0" encoding="utf-8"?>
<!-- Generator: Adobe Illustrator 25.2.3, SVG Export Plug-In . SVG Version: 6.00 Build 0)  -->
<svg version="1.1" id="Capa_1" xmlns="http://www.w3.org/2000/svg" xmlns:xlink="http://www.w3.org/1999/xlink" x="0px" y="0px"
	 viewBox="0 0 190.2 115.7" style="enable-background:new 0 0 190.2 115.7;" xml:space="preserve">
<style type="text/css">
	.st0{fill:#FEFEFE;}
	.st1{fill:#FFFFFF;}
</style>
<g>
	<g>
		<g>
			<polygon class="st0" points="96,4.7 94.2,4.7 94.3,12.8 96,12.8 			"/>
			<polygon class="st0" points="94.8,53.1 95.8,53.1 95.9,45 94.7,45 			"/>
			<polygon class="st0" points="94.3,16.1 94.6,41.7 95.9,41.7 96,16.1 			"/>
			<polygon class="st0" points="91.8,16.1 91.3,41.7 93.3,41.7 93,16.1 			"/>
			<polygon class="st0" points="91,53.1 93.4,53.1 93.3,45 91.2,45 			"/>
			<polygon class="st0" points="92.8,4.7 92,4.7 91.8,12.8 92.9,12.8 			"/>
			<polygon class="st0" points="89.6,16.1 88.8,41.7 90.5,41.7 91.1,16.1 			"/>
			<polygon class="st0" points="88.5,53.1 90.3,53.1 90.5,45 88.7,45 			"/>
			<polygon class="st0" points="91.3,4.7 90,4.7 89.7,12.8 91.1,12.8 			"/>
			<polygon class="st0" points="84.9,41.5 86.6,16.1 84.9,16.1 			"/>
			<polygon class="st0" points="87.3,4.7 84.9,4.7 84.9,12.8 86.8,12.8 			"/>
			<polygon class="st0" points="99.2,16.1 99.7,41.7 100.8,41.7 101.1,16.1 			"/>
			<polygon class="st0" points="99.9,53.1 100.7,53.1 100.8,45 99.8,45 			"/>
			<polygon class="st0" points="101.2,4.7 98.9,4.7 99.1,12.8 101.1,12.8 			"/>
			<polygon class="st0" points="84.9,52.3 84.9,53.1 87.4,53.1 87.7,45 85.4,45 			"/>
			<polygon class="st0" points="88.9,4.7 88,4.7 87.5,12.8 88.7,12.8 			"/>
			<polygon class="st0" points="88.6,16.1 87.3,16.1 85.6,41.7 87.8,41.7 			"/>
			<polygon class="st0" points="96.7,16.1 96.6,41.7 98.4,41.7 97.8,16.1 			"/>
			<polygon class="st0" points="97.6,4.7 96.8,4.7 96.7,12.8 97.8,12.8 			"/>
			<polygon class="st0" points="96.5,53.1 98.6,53.1 98.4,45 96.6,45 			"/>
			<polygon class="st0" points="103.3,53.1 104.6,53.1 104.6,45 103.7,45 			"/>
			<polygon class="st0" points="103.8,41.7 104.6,41.7 104.6,22.3 			"/>
			<polygon class="st0" points="101.9,45 101.8,53.1 102.6,53.1 102.9,45 			"/>
			<polygon class="st0" points="102.1,16.1 101.9,41.7 103.1,41.7 104.1,16.1 			"/>
			<polygon class="st0" points="104.6,4.8 104.6,4.7 102.2,4.7 102.2,12.8 104.2,12.8 			"/>
		</g>
		<g>
			<g>
				<polygon class="st1" points="56.1,59.8 36.8,97 43.3,97 59.3,66.2 				"/>
			</g>
			<g>
				<polygon class="st1" points="67.4,81.8 60.9,69.3 57.6,75.7 64.1,88 				"/>
			</g>
			<g>
				<polygon class="st1" points="82,59.8 62.7,97 69.2,97 85.2,66.2 				"/>
			</g>
			<g>
				<polygon class="st1" points="86.8,69.3 83.5,75.7 89.8,87.6 93,81.3 				"/>
			</g>
			<g>
				<polygon class="st1" points="108.9,75.5 120.1,97 126.6,97 112.2,69.2 				"/>
			</g>
			<g>
				<polygon class="st1" points="110.6,66.2 110.6,66.1 107.3,59.8 107.3,59.8 107.3,59.8 91.4,90.7 94.7,96.9 110.6,66.2 				"/>
			</g>
			<g>
				<path class="st1" d="M31.4,73.6c0.6-1.3,1-2.7,1-4.2c0-5.2-4.2-9.5-9.4-9.5H6.9v6h0v31h0.1v0h19.1c6.7,0,12.2-5.5,12.2-12.3
					C38.3,79.8,35.4,75.6,31.4,73.6z M25.8,69.4c0,1.6-1.2,2.9-2.8,3h-9.7v-5.9h9.6C24.5,66.5,25.8,67.8,25.8,69.4z M26.1,90.5H13.3
					V78.9h3.3v0h6.3c0,0,0.1,0,0.1,0h3c3.1,0,5.6,2.6,5.6,5.8S29.2,90.5,26.1,90.5z"/>
			</g>
			<g>
				<path class="st1" d="M141.7,73.6c0.6-1.3,1-2.7,1-4.2c0-5.2-4.2-9.5-9.4-9.5h-9.6v0h-6.5V73l6.5,12.6v-6.7h12.7
					c3.1,0,5.6,2.6,5.6,5.8c0,3.2-2.5,5.8-5.6,5.8h-10.2l3.4,6.5h6.8c6.7,0,12.2-5.5,12.2-12.3C148.6,79.8,145.7,75.6,141.7,73.6z
					 M123.6,66.4h9.6c1.6,0,2.9,1.3,2.9,3c0,1.6-1.3,3-2.9,3h-6.3v0h-3.3V66.4z"/>
			</g>
			<g>
				<polygon class="st1" points="176.1,59.8 176.1,73 182.6,59.8 				"/>
			</g>
			<g>
				<path class="st1" d="M176.1,79.4v2.2c0,4.9-4,8.8-8.8,8.8c-4.9,0-8.8-4-8.8-8.8V59.8h-6.5v21.9c0,8.5,6.9,15.4,15.4,15.4
					s15.4-6.9,15.4-15.4V66.2L176.1,79.4z"/>
			</g>
		</g>
	</g>
	<g>
		<path class="st0" d="M12,104.6v5.6h-1.1v-3.6l-1.6,2.6l-0.1,0l-1.6-2.6v3.6H6.5v-5.6h1.1l1.6,2.6l1.6-2.6H12z"/>
		<path class="st0" d="M18.2,110.2l-0.4-1h-2.3l-0.3,1H14l2-5.6h1.4l2,5.6H18.2z M15.9,108.2h1.6l-0.8-2.3L15.9,108.2z"/>
		<path class="st0" d="M24.4,110.2l-1.1-1.9h-0.8v1.9h-1.1v-5.6h2.2c0.5,0,1,0.2,1.3,0.5c0.4,0.4,0.5,0.8,0.5,1.3
			c0,0.3-0.1,0.7-0.3,1s-0.5,0.5-0.8,0.7l1.2,2.1H24.4z M22.4,105.6v1.7h1.1c0.2,0,0.4-0.1,0.5-0.2c0.1-0.2,0.2-0.4,0.2-0.6
			s-0.1-0.4-0.2-0.6c-0.2-0.2-0.3-0.2-0.5-0.2H22.4z"/>
		<path class="st0" d="M32.1,110.2h-1.3l-2-2.6v2.6h-1.1v-5.6h1.1v2.5l1.9-2.5H32l-2.1,2.7L32.1,110.2z"/>
		<path class="st0" d="M35.2,109.1h2.4v1.1H34v-5.6h3.4v1.1h-2.3v1.2h2.1v1h-2.1V109.1z"/>
		<path class="st0" d="M43.5,104.6v1.1h-1.5v4.5h-1.1v-4.5h-1.5v-1.1H43.5z"/>
		<path class="st0" d="M45.5,104.6h1.1v5.6h-1.1V104.6z"/>
		<path class="st0" d="M52.4,104.6h1.1v5.6h-0.8l-2.4-3.4v3.4h-1.1v-5.6H50l2.4,3.4V104.6z"/>
		<path class="st0" d="M61.5,107.2v0.4c0,0.8-0.3,1.4-0.8,1.9s-1.2,0.7-2,0.7c-0.9,0-1.6-0.3-2.2-0.8c-0.6-0.6-0.9-1.2-0.9-2.1
			c0-0.8,0.3-1.5,0.8-2.1c0.6-0.6,1.3-0.8,2.1-0.8c0.5,0,1,0.1,1.4,0.4c0.4,0.2,0.8,0.6,1,0.9l-0.9,0.5c-0.1-0.2-0.3-0.4-0.6-0.6
			c-0.3-0.1-0.6-0.2-0.9-0.2c-0.5,0-1,0.2-1.3,0.5c-0.3,0.3-0.5,0.8-0.5,1.3c0,0.5,0.2,1,0.5,1.3c0.4,0.3,0.8,0.5,1.4,0.5
			c0.4,0,0.8-0.1,1.1-0.3s0.5-0.4,0.6-0.8h-1.7v-1H61.5z"/>
		<path class="st0" d="M71.6,104.6l-1.9,3.4v2.2h-1.1V108l-1.9-3.4h1.3l1.2,2.3l1.2-2.3H71.6z"/>
		<path class="st0" d="M79.3,104.6c0.8,0,1.4,0.3,1.9,0.8s0.8,1.2,0.8,2s-0.3,1.5-0.8,2c-0.5,0.5-1.2,0.8-1.9,0.8H77v-5.6H79.3z
			 M79.3,109.1c0.5,0,0.9-0.2,1.2-0.5c0.3-0.3,0.5-0.7,0.5-1.3s-0.2-0.9-0.5-1.3c-0.3-0.3-0.7-0.5-1.2-0.5h-1.1v3.5H79.3z"/>
		<path class="st0" d="M85.3,109.1h2.4v1.1h-3.5v-5.6h3.4v1.1h-2.3v1.2h2.1v1h-2.1V109.1z"/>
		<path class="st0" d="M91.8,110.3c-0.6,0-1-0.1-1.4-0.4s-0.6-0.6-0.8-1l0.9-0.6c0.2,0.6,0.7,0.9,1.3,0.9c0.3,0,0.5-0.1,0.7-0.2
			c0.1-0.1,0.2-0.3,0.2-0.4c0-0.2-0.1-0.4-0.3-0.5s-0.5-0.2-0.9-0.4c-0.3-0.1-0.5-0.1-0.6-0.2c-0.2-0.1-0.3-0.2-0.5-0.3
			c-0.2-0.1-0.3-0.3-0.4-0.5c-0.1-0.2-0.1-0.4-0.1-0.7c0-0.5,0.2-0.9,0.5-1.2c0.4-0.3,0.8-0.5,1.3-0.5c0.5,0,0.9,0.1,1.2,0.3
			c0.3,0.2,0.6,0.5,0.8,0.9l-0.9,0.5c-0.2-0.5-0.6-0.7-1.1-0.7c-0.2,0-0.4,0.1-0.5,0.2c-0.1,0.1-0.2,0.2-0.2,0.4
			c0,0.2,0.1,0.3,0.2,0.4s0.4,0.2,0.8,0.4c0.2,0.1,0.3,0.1,0.4,0.1s0.2,0.1,0.4,0.1s0.3,0.1,0.4,0.2c0.1,0.1,0.2,0.1,0.3,0.2
			c0.1,0.1,0.2,0.2,0.2,0.3c0.1,0.1,0.1,0.2,0.1,0.3c0,0.1,0.1,0.3,0.1,0.4c0,0.5-0.2,0.9-0.6,1.2C92.9,110.2,92.4,110.3,91.8,110.3
			z"/>
		<path class="st0" d="M99.6,110.2l-0.4-1H97l-0.3,1h-1.2l2-5.6h1.4l2,5.6H99.6z M97.3,108.2h1.6l-0.8-2.3L97.3,108.2z"/>
		<path class="st0" d="M105.8,110.2l-1.1-1.9h-0.8v1.9h-1.1v-5.6h2.2c0.5,0,1,0.2,1.3,0.5c0.4,0.4,0.5,0.8,0.5,1.3
			c0,0.3-0.1,0.7-0.3,1s-0.5,0.5-0.8,0.7l1.2,2.1H105.8z M103.9,105.6v1.7h1.1c0.2,0,0.4-0.1,0.5-0.2c0.1-0.2,0.2-0.4,0.2-0.6
			s-0.1-0.4-0.2-0.6c-0.2-0.2-0.3-0.2-0.5-0.2H103.9z"/>
		<path class="st0" d="M112.2,110.2l-1.1-1.9h-0.8v1.9h-1.1v-5.6h2.2c0.5,0,1,0.2,1.3,0.5c0.4,0.4,0.5,0.8,0.5,1.3
			c0,0.3-0.1,0.7-0.3,1s-0.5,0.5-0.8,0.7l1.2,2.1H112.2z M110.2,105.6v1.7h1.1c0.2,0,0.4-0.1,0.5-0.2c0.1-0.2,0.2-0.4,0.2-0.6
			s-0.1-0.4-0.2-0.6c-0.2-0.2-0.3-0.2-0.5-0.2H110.2z"/>
		<path class="st0" d="M120.2,109.5c-0.6,0.6-1.3,0.8-2.1,0.8s-1.5-0.3-2.1-0.8c-0.6-0.6-0.8-1.3-0.8-2.1c0-0.8,0.3-1.5,0.8-2.1
			c0.6-0.6,1.3-0.8,2.1-0.8s1.5,0.3,2.1,0.8s0.9,1.3,0.9,2.1C121,108.2,120.7,108.9,120.2,109.5z M116.8,108.7
			c0.3,0.3,0.8,0.5,1.3,0.5s0.9-0.2,1.3-0.5c0.3-0.3,0.5-0.8,0.5-1.3s-0.2-1-0.5-1.3c-0.3-0.3-0.8-0.5-1.3-0.5s-0.9,0.2-1.3,0.5
			c-0.3,0.3-0.5,0.8-0.5,1.3S116.5,108.4,116.8,108.7z"/>
		<path class="st0" d="M124.4,109.1h2.1v1.1h-3.3v-5.6h1.1V109.1z"/>
		<path class="st0" d="M129.7,109.1h2.1v1.1h-3.3v-5.6h1.1V109.1z"/>
		<path class="st0" d="M138.3,109.5c-0.6,0.6-1.3,0.8-2.1,0.8s-1.5-0.3-2.1-0.8c-0.6-0.6-0.8-1.3-0.8-2.1c0-0.8,0.3-1.5,0.8-2.1
			c0.6-0.6,1.3-0.8,2.1-0.8s1.5,0.3,2.1,0.8s0.9,1.3,0.9,2.1C139.1,108.2,138.8,108.9,138.3,109.5z M134.9,108.7
			c0.3,0.3,0.8,0.5,1.3,0.5s0.9-0.2,1.3-0.5c0.3-0.3,0.5-0.8,0.5-1.3s-0.2-1-0.5-1.3c-0.3-0.3-0.8-0.5-1.3-0.5s-0.9,0.2-1.3,0.5
			c-0.3,0.3-0.5,0.8-0.5,1.3S134.6,108.4,134.9,108.7z"/>
		<path class="st0" d="M147,104.6c0.8,0,1.4,0.3,1.9,0.8s0.8,1.2,0.8,2s-0.3,1.5-0.8,2c-0.5,0.5-1.2,0.8-1.9,0.8h-2.2v-5.6H147z
			 M147,109.1c0.5,0,0.9-0.2,1.2-0.5c0.3-0.3,0.5-0.7,0.5-1.3s-0.2-0.9-0.5-1.3c-0.3-0.3-0.7-0.5-1.2-0.5h-1.1v3.5H147z"/>
		<path class="st0" d="M152,104.6h1.1v5.6H152V104.6z"/>
		<path class="st0" d="M161.1,107.2v0.4c0,0.8-0.3,1.4-0.8,1.9s-1.2,0.7-2,0.7c-0.9,0-1.6-0.3-2.2-0.8c-0.6-0.6-0.9-1.2-0.9-2.1
			c0-0.8,0.3-1.5,0.8-2.1c0.6-0.6,1.3-0.8,2.1-0.8c0.5,0,1,0.1,1.4,0.4c0.4,0.2,0.8,0.6,1,0.9l-0.9,0.5c-0.1-0.2-0.3-0.4-0.6-0.6
			c-0.3-0.1-0.6-0.2-0.9-0.2c-0.5,0-1,0.2-1.3,0.5c-0.3,0.3-0.5,0.8-0.5,1.3c0,0.5,0.2,1,0.5,1.3c0.4,0.3,0.8,0.5,1.4,0.5
			c0.4,0,0.8-0.1,1.1-0.3s0.5-0.4,0.6-0.8h-1.7v-1H161.1z"/>
		<path class="st0" d="M163.3,104.6h1.1v5.6h-1.1V104.6z"/>
		<path class="st0" d="M170.6,104.6v1.1h-1.5v4.5H168v-4.5h-1.5v-1.1H170.6z"/>
		<path class="st0" d="M176,110.2l-0.4-1h-2.3l-0.3,1h-1.2l2-5.6h1.4l2,5.6H176z M173.7,108.2h1.6l-0.8-2.3L173.7,108.2z"/>
		<path class="st0" d="M180.2,109.1h2.1v1.1h-3.3v-5.6h1.1V109.1z"/>
	</g>
</g>
</svg>
