<?xml version="1.0" encoding="utf-8"?>
<!-- Generator: Adobe Illustrator 23.1.1, SVG Export Plug-In . SVG Version: 6.00 Build 0)  -->
<svg version="1.2" baseProfile="tiny" id="Capa_1" xmlns="http://www.w3.org/2000/svg" xmlns:xlink="http://www.w3.org/1999/xlink"
	 x="0px" y="0px" viewBox="0 0 200 200" xml:space="preserve">
<g>
	<g>
		<g>
			<polygon fill="#FFFFFF" points="101,55 99.4,55 99.5,61.7 100.9,61.7 			"/>
			<polygon fill="#FFFFFF" points="99.9,94.9 100.8,94.9 100.8,88.2 99.8,88.2 			"/>
			<polygon fill="#FFFFFF" points="99.5,64.4 99.8,85.4 100.8,85.4 100.9,64.4 			"/>
			<polygon fill="#FFFFFF" points="97.4,64.4 97,85.4 98.7,85.4 98.4,64.4 			"/>
			<polygon fill="#FFFFFF" points="96.8,94.9 98.8,94.9 98.7,88.2 97,88.2 			"/>
			<polygon fill="#FFFFFF" points="98.3,55 97.6,55 97.5,61.7 98.4,61.7 			"/>
			<polygon fill="#FFFFFF" points="95.7,64.4 95,85.4 96.4,85.4 96.9,64.4 			"/>
			<polygon fill="#FFFFFF" points="94.7,94.9 96.2,94.9 96.4,88.2 94.9,88.2 			"/>
			<polygon fill="#FFFFFF" points="97.1,55 96,55 95.8,61.7 96.9,61.7 			"/>
			<polygon fill="#FFFFFF" points="91.8,85.3 93.2,64.4 91.8,64.4 			"/>
			<polygon fill="#FFFFFF" points="93.8,55 91.8,55 91.8,61.7 93.3,61.7 			"/>
			<polygon fill="#FFFFFF" points="103.5,64.4 104,85.4 104.9,85.4 105.1,64.4 			"/>
			<polygon fill="#FFFFFF" points="104.2,94.9 104.8,94.9 104.9,88.2 104,88.2 			"/>
			<polygon fill="#FFFFFF" points="105.2,55 103.4,55 103.5,61.7 105.1,61.7 			"/>
			<polygon fill="#FFFFFF" points="91.8,94.2 91.8,94.9 93.8,94.9 94.1,88.2 92.2,88.2 			"/>
			<polygon fill="#FFFFFF" points="95.1,55 94.4,55 93.9,61.7 94.9,61.7 			"/>
			<polygon fill="#FFFFFF" points="94.8,64.4 93.8,64.4 92.4,85.4 94.1,85.4 			"/>
			<polygon fill="#FFFFFF" points="101.5,64.4 101.4,85.4 102.9,85.4 102.4,64.4 			"/>
			<polygon fill="#FFFFFF" points="102.3,55 101.5,55 101.5,61.7 102.4,61.7 			"/>
			<polygon fill="#FFFFFF" points="101.4,94.9 103.1,94.9 102.9,88.2 101.4,88.2 			"/>
			<polygon fill="#FFFFFF" points="107,94.9 108,94.9 108,88.2 107.2,88.2 			"/>
			<polygon fill="#FFFFFF" points="107.3,85.4 108,85.4 108,69.5 			"/>
			<polygon fill="#FFFFFF" points="105.8,88.2 105.7,94.9 106.4,94.9 106.7,88.2 			"/>
			<polygon fill="#FFFFFF" points="106,64.4 105.8,85.4 106.8,85.4 107.6,64.4 			"/>
			<polygon fill="#FFFFFF" points="108,55.1 108,55 106.1,55 106,61.7 107.7,61.7 			"/>
		</g>
		<g>
			<polygon fill="#FFFFFF" points="68,100.4 52.2,131.1 57.5,131.1 70.7,105.7 			"/>
			<polygon fill="#FFFFFF" points="77.3,118.5 72,108.2 69.3,113.5 74.7,123.7 			"/>
			<polygon fill="#FFFFFF" points="89.3,100.4 73.5,131.1 78.8,131.1 92,105.7 			"/>
			<polygon fill="#FFFFFF" points="93.3,108.2 90.6,113.5 95.8,123.3 98.5,118.1 			"/>
			<polygon fill="#FFFFFF" points="111.6,113.4 120.8,131.1 126.1,131.1 114.3,108.1 			"/>
			<polygon fill="#FFFFFF" points="112.9,105.6 113,105.6 110.3,100.4 110.3,100.4 110.3,100.4 97.1,125.8 99.8,131 112.9,105.7 			
				"/>
			<path fill="#FFFFFF" d="M47.7,111.8c0.5-1,0.8-2.2,0.8-3.4c0-4.3-3.5-7.8-7.7-7.8H27.5v5h0V131h0.1v0h15.8c5.5,0,10-4.6,10-10.2
				C53.3,116.9,51,113.4,47.7,111.8z M43,108.3c0,1.3-1,2.4-2.3,2.4h-8v-4.9h7.9C42,105.9,43,107,43,108.3z M43.3,125.7H32.8v-9.5
				h2.7v0h5.2c0,0,0.1,0,0.1,0h2.5c2.6,0,4.6,2.1,4.6,4.8S45.8,125.7,43.3,125.7z"/>
			<path fill="#FFFFFF" d="M138.6,111.8c0.5-1,0.8-2.2,0.8-3.4c0-4.3-3.5-7.8-7.7-7.8h-7.9v0h-5.4v10.8l5.4,10.3v-5.5h10.5
				c2.6,0,4.6,2.1,4.6,4.8c0,2.6-2.1,4.8-4.6,4.8h-8.4l2.8,5.4h5.6c5.5,0,10-4.6,10-10.2C144.2,116.9,141.9,113.4,138.6,111.8z
				 M123.7,105.9h7.9c1.3,0,2.4,1.1,2.4,2.4c0,1.3-1.1,2.4-2.4,2.4h-5.2v0h-2.7V105.9z"/>
			<polygon fill="#FFFFFF" points="167,100.4 167,111.3 172.3,100.4 			"/>
			<path fill="#FFFFFF" d="M167,116.6v1.8c0,4-3.3,7.3-7.3,7.3c-4,0-7.3-3.3-7.3-7.3v-18H147v18c0,7,5.7,12.7,12.7,12.7
				c7,0,12.7-5.7,12.7-12.7v-12.7L167,116.6z"/>
		</g>
	</g>
	<g>
		<path fill="#FFFFFF" d="M31.7,137.3v4.6h-0.9v-3l-1.3,2.1h-0.1l-1.3-2.1v3h-0.9v-4.6h0.9l1.3,2.2l1.3-2.2H31.7z"/>
		<path fill="#FFFFFF" d="M36.7,141.9l-0.3-0.8h-1.8l-0.3,0.8h-1l1.6-4.6h1.1l1.6,4.6H36.7z M34.9,140.2h1.3l-0.6-1.9L34.9,140.2z"
			/>
		<path fill="#FFFFFF" d="M41.9,141.9l-0.9-1.6h-0.7v1.6h-0.9v-4.6h1.9c0.4,0,0.8,0.2,1.1,0.4c0.3,0.3,0.4,0.7,0.4,1.1
			c0,0.6-0.4,1.1-0.9,1.3l1,1.7H41.9z M40.3,138.2v1.4h0.9c0.3,0,0.6-0.3,0.6-0.7c0-0.4-0.3-0.7-0.6-0.7H40.3z"/>
		<path fill="#FFFFFF" d="M48.2,141.9h-1.1l-1.7-2.2v2.2h-0.9v-4.6h0.9v2l1.6-2h1.1l-1.7,2.2L48.2,141.9z"/>
		<path fill="#FFFFFF" d="M50.8,141.1h2v0.9h-2.9v-4.6h2.8v0.9h-1.9v1h1.8v0.9h-1.8V141.1z"/>
		<path fill="#FFFFFF" d="M57.6,137.3v0.9h-1.3v3.7h-0.9v-3.7h-1.2v-0.9H57.6z"/>
		<path fill="#FFFFFF" d="M59.3,137.3h0.9v4.6h-0.9V137.3z"/>
		<path fill="#FFFFFF" d="M65,137.3h0.9v4.6h-0.7l-2-2.8v2.8h-0.9v-4.6H63l2,2.8V137.3z"/>
		<path fill="#FFFFFF" d="M72.5,139.4v0.4c0,0.7-0.2,1.2-0.6,1.6c-0.4,0.4-1,0.6-1.6,0.6c-0.7,0-1.3-0.2-1.8-0.7
			c-0.5-0.5-0.7-1-0.7-1.7c0-0.7,0.2-1.2,0.7-1.7c0.5-0.5,1-0.7,1.7-0.7c0.9,0,1.6,0.4,2,1.1l-0.8,0.4c-0.2-0.4-0.7-0.6-1.2-0.6
			c-0.4,0-0.8,0.1-1.1,0.4c-0.3,0.3-0.4,0.6-0.4,1.1c0,0.4,0.1,0.8,0.4,1.1c0.3,0.3,0.7,0.4,1.2,0.4c0.7,0,1.2-0.3,1.3-0.9h-1.4
			v-0.8H72.5z"/>
		<path fill="#FFFFFF" d="M80.8,137.3l-1.6,2.8v1.8h-0.9v-1.8l-1.6-2.8h1l1,1.9l1-1.9H80.8z"/>
		<path fill="#FFFFFF" d="M87.1,137.3c0.6,0,1.2,0.2,1.6,0.7c0.4,0.4,0.6,1,0.6,1.6c0,0.7-0.2,1.2-0.6,1.6c-0.4,0.4-1,0.7-1.6,0.7
			h-1.8v-4.6H87.1z M87.1,141.1c0.4,0,0.7-0.1,1-0.4c0.3-0.3,0.4-0.6,0.4-1c0-0.4-0.1-0.8-0.4-1c-0.3-0.3-0.6-0.4-1-0.4h-0.9v2.9
			H87.1z"/>
		<path fill="#FFFFFF" d="M92.1,141.1h2v0.9h-2.9v-4.6H94v0.9h-1.9v1h1.8v0.9h-1.8V141.1z"/>
		<path fill="#FFFFFF" d="M95.7,140.9l0.8-0.5c0.2,0.5,0.5,0.7,1.1,0.7c0.5,0,0.7-0.2,0.7-0.5c0-0.2-0.1-0.3-0.2-0.4
			c-0.1-0.1-0.4-0.2-0.8-0.3c-0.4-0.1-0.7-0.2-1-0.4c-0.3-0.2-0.4-0.5-0.4-0.9c0-0.4,0.1-0.8,0.4-1c0.3-0.3,0.7-0.4,1.1-0.4
			c0.7,0,1.3,0.4,1.7,1l-0.8,0.4c-0.2-0.4-0.5-0.6-0.9-0.6c-0.4,0-0.6,0.2-0.6,0.5c0,0.1,0.1,0.3,0.2,0.4c0.1,0.1,0.4,0.2,0.7,0.3
			l0.3,0.1c0.1,0,0.2,0.1,0.3,0.1c0.1,0,0.2,0.1,0.3,0.1c0.1,0.1,0.4,0.3,0.4,0.4c0.1,0.2,0.2,0.4,0.2,0.7c0,0.4-0.2,0.8-0.5,1
			c-0.3,0.3-0.7,0.4-1.2,0.4C96.6,142,95.9,141.6,95.7,140.9z"/>
		<path fill="#FFFFFF" d="M103.9,141.9l-0.3-0.8h-1.8l-0.3,0.8h-1l1.6-4.6h1.1l1.6,4.6H103.9z M102,140.2h1.3l-0.6-1.9L102,140.2z"
			/>
		<path fill="#FFFFFF" d="M109,141.9l-0.9-1.6h-0.7v1.6h-0.9v-4.6h1.9c0.4,0,0.8,0.2,1.1,0.4c0.3,0.3,0.4,0.7,0.4,1.1
			c0,0.6-0.4,1.1-0.9,1.3l1,1.7H109z M107.4,138.2v1.4h0.9c0.3,0,0.6-0.3,0.6-0.7c0-0.4-0.3-0.7-0.6-0.7H107.4z"/>
		<path fill="#FFFFFF" d="M114.3,141.9l-0.9-1.6h-0.7v1.6h-0.9v-4.6h1.9c0.4,0,0.8,0.2,1.1,0.4c0.3,0.3,0.4,0.7,0.4,1.1
			c0,0.6-0.4,1.1-0.9,1.3l1,1.7H114.3z M112.7,138.2v1.4h0.9c0.3,0,0.6-0.3,0.6-0.7c0-0.4-0.3-0.7-0.6-0.7H112.7z"/>
		<path fill="#FFFFFF" d="M119.1,142c-0.7,0-1.2-0.2-1.7-0.7c-0.5-0.5-0.7-1-0.7-1.7c0-0.7,0.2-1.2,0.7-1.7c0.5-0.5,1-0.7,1.7-0.7
			c0.7,0,1.2,0.2,1.7,0.7c0.5,0.5,0.7,1,0.7,1.7c0,0.7-0.2,1.2-0.7,1.7C120.4,141.8,119.8,142,119.1,142z M119.1,141.1
			c0.4,0,0.8-0.1,1.1-0.4c0.3-0.3,0.4-0.6,0.4-1.1c0-0.4-0.1-0.8-0.4-1.1c-0.3-0.3-0.6-0.4-1.1-0.4s-0.8,0.1-1.1,0.4
			c-0.3,0.3-0.4,0.6-0.4,1.1c0,0.4,0.1,0.8,0.4,1.1C118.4,141,118.7,141.1,119.1,141.1z"/>
		<path fill="#FFFFFF" d="M124.3,141.1h1.8v0.9h-2.7v-4.6h0.9V141.1z"/>
		<path fill="#FFFFFF" d="M128.7,141.1h1.8v0.9h-2.7v-4.6h0.9V141.1z"/>
		<path fill="#FFFFFF" d="M134.1,142c-0.7,0-1.2-0.2-1.7-0.7c-0.5-0.5-0.7-1-0.7-1.7c0-0.7,0.2-1.2,0.7-1.7c0.5-0.5,1-0.7,1.7-0.7
			c0.7,0,1.2,0.2,1.7,0.7c0.5,0.5,0.7,1,0.7,1.7c0,0.7-0.2,1.2-0.7,1.7C135.3,141.8,134.7,142,134.1,142z M134.1,141.1
			c0.4,0,0.8-0.1,1.1-0.4c0.3-0.3,0.4-0.6,0.4-1.1c0-0.4-0.1-0.8-0.4-1.1c-0.3-0.3-0.6-0.4-1.1-0.4c-0.4,0-0.8,0.1-1.1,0.4
			c-0.3,0.3-0.4,0.6-0.4,1.1c0,0.4,0.1,0.8,0.4,1.1C133.3,141,133.6,141.1,134.1,141.1z"/>
		<path fill="#FFFFFF" d="M143,137.3c0.6,0,1.2,0.2,1.6,0.7c0.4,0.4,0.6,1,0.6,1.6c0,0.7-0.2,1.2-0.6,1.6c-0.4,0.4-1,0.7-1.6,0.7
			h-1.8v-4.6H143z M143,141.1c0.4,0,0.7-0.1,1-0.4c0.3-0.3,0.4-0.6,0.4-1c0-0.4-0.1-0.8-0.4-1c-0.3-0.3-0.6-0.4-1-0.4h-0.9v2.9H143z
			"/>
		<path fill="#FFFFFF" d="M147.1,137.3h0.9v4.6h-0.9V137.3z"/>
		<path fill="#FFFFFF" d="M154.6,139.4v0.4c0,0.7-0.2,1.2-0.6,1.6c-0.4,0.4-1,0.6-1.6,0.6c-0.7,0-1.3-0.2-1.8-0.7
			c-0.5-0.5-0.7-1-0.7-1.7c0-0.7,0.2-1.2,0.7-1.7c0.5-0.5,1-0.7,1.7-0.7c0.9,0,1.6,0.4,2,1.1l-0.8,0.4c-0.2-0.4-0.7-0.6-1.2-0.6
			c-0.4,0-0.8,0.1-1.1,0.4c-0.3,0.3-0.4,0.6-0.4,1.1c0,0.4,0.1,0.8,0.4,1.1c0.3,0.3,0.7,0.4,1.2,0.4c0.7,0,1.2-0.3,1.3-0.9h-1.4
			v-0.8H154.6z"/>
		<path fill="#FFFFFF" d="M156.4,137.3h0.9v4.6h-0.9V137.3z"/>
		<path fill="#FFFFFF" d="M162.4,137.3v0.9h-1.3v3.7h-0.9v-3.7H159v-0.9H162.4z"/>
		<path fill="#FFFFFF" d="M166.8,141.9l-0.3-0.8h-1.8l-0.3,0.8h-1l1.6-4.6h1.1l1.6,4.6H166.8z M164.9,140.2h1.3l-0.6-1.9
			L164.9,140.2z"/>
		<path fill="#FFFFFF" d="M170.3,141.1h1.8v0.9h-2.7v-4.6h0.9V141.1z"/>
	</g>
</g>
</svg>
