<?xml version="1.0" encoding="utf-8"?>
<!-- Generator: Adobe Illustrator 23.1.1, SVG Export Plug-In . SVG Version: 6.00 Build 0)  -->
<svg version="1.2" baseProfile="tiny" id="Capa_1" xmlns="http://www.w3.org/2000/svg" xmlns:xlink="http://www.w3.org/1999/xlink"
	 x="0px" y="0px" viewBox="0 0 200 200" xml:space="preserve">
<g>
	<g>
		<path fill="#FFFFFF" d="M111.6,112.1c-2.8,0-5.4-0.3-7.7-2.6l2.9-2.9c1.5,1.5,3.4,1.7,4.8,1.7c1.6,0,3.2-0.5,3.2-1.9
			c0-0.9-0.5-1.5-1.9-1.7l-2.8-0.3c-3.2-0.3-5.2-1.7-5.2-5c0-3.7,3.3-5.7,6.9-5.7c2.8,0,5.1,0.5,6.9,2.1l-2.8,2.8
			c-1-0.9-2.6-1.2-4.2-1.2c-1.8,0-2.6,0.8-2.6,1.7c0,0.7,0.3,1.4,1.9,1.6l2.8,0.3c3.6,0.3,5.4,2.2,5.4,5.3
			C119.3,110.2,115.9,112.1,111.6,112.1z"/>
		<path fill="#FFFFFF" d="M134.9,110.5c-1,1-2.6,1.6-4.4,1.6c-1.8,0-3.2-0.5-4.4-1.8v8.2h-4.5V93.9h4.4v1.7c1.2-1.4,2.6-1.9,4.5-1.9
			c1.8,0,3.4,0.6,4.4,1.6c1.8,1.8,1.8,4.9,1.8,7.6C136.7,105.6,136.7,108.7,134.9,110.5z M129.2,97.7c-2.7,0-3,2.2-3,5.1
			c0,2.9,0.3,5.2,3,5.2c2.7,0,3-2.2,3-5.2C132.2,99.9,131.9,97.7,129.2,97.7z"/>
		<path fill="#FFFFFF" d="M152,109.9c-1.1,1.2-2.9,2.2-5.6,2.2c-2.7,0-4.5-1-5.6-2.2c-1.6-1.7-2-3.7-2-7c0-3.2,0.4-5.3,2-7
			c1.1-1.2,2.9-2.2,5.6-2.2c2.7,0,4.5,1,5.6,2.2c1.6,1.7,2,3.7,2,7C154.1,106.2,153.7,108.2,152,109.9z M148.6,98.5
			c-0.5-0.5-1.2-0.8-2.1-0.8c-0.9,0-1.6,0.3-2.1,0.8c-0.9,0.9-1,2.5-1,4.4c0,1.9,0.1,3.5,1,4.4c0.5,0.5,1.2,0.8,2.1,0.8
			c0.9,0,1.6-0.3,2.1-0.8c0.9-0.9,1-2.5,1-4.4C149.6,101,149.5,99.5,148.6,98.5z"/>
		<path fill="#FFFFFF" d="M166,98.8c-0.7-0.7-1.3-1.1-2.4-1.1c-1.4,0-2.9,1-2.9,3.3v10.8h-4.5v-18h4.4v1.7c0.9-1,2.6-1.9,4.5-1.9
			c1.8,0,3,0.4,4.2,1.7L166,98.8z"/>
		<path fill="#FFFFFF" d="M177.3,111.9c-3.7,0-5.2-2.6-5.2-5.1v-8.9h-1.9v-3.4h1.9v-5.3h4.5v5.3h3.2v3.4h-3.2v8.6
			c0,1,0.5,1.6,1.6,1.6h1.6v3.8H177.3z"/>
		<path fill="#FFFFFF" d="M188.4,112.1c-2.8,0-5.4-0.3-7.7-2.6l2.9-2.9c1.5,1.5,3.4,1.7,4.8,1.7c1.6,0,3.2-0.5,3.2-1.9
			c0-0.9-0.5-1.5-1.9-1.7l-2.8-0.3c-3.2-0.3-5.2-1.7-5.2-5c0-3.7,3.3-5.7,6.9-5.7c2.8,0,5.1,0.5,6.9,2.1l-2.8,2.8
			c-1-0.9-2.6-1.2-4.2-1.2c-1.8,0-2.6,0.8-2.6,1.7c0,0.7,0.3,1.4,1.9,1.6l2.8,0.3c3.6,0.3,5.4,2.2,5.4,5.3
			C196,110.2,192.6,112.1,188.4,112.1z"/>
	</g>
	<g>
		<g>
			
				<rect x="83.6" y="84.8" transform="matrix(0.7067 -0.7075 0.7075 0.7067 -34.6591 90.0748)" fill="#FFFFFF" width="15.4" height="4"/>
			<rect x="75.7" y="77.7" fill="#FFFFFF" width="4" height="11.7"/>
			<rect x="89.3" y="98.2" fill="#FFFFFF" width="11.9" height="4"/>
		</g>
		<path fill="#FFFFFF" d="M80.6,106c-1,1-2.1,1.5-3.5,1.5c-1.3,0-2.5-0.5-3.5-1.5c-1-1-1.5-2.2-1.5-3.5c0-1.4,0.5-2.6,1.5-3.6
			c1-1,2.1-1.5,3.5-1.4c1.4,0,2.6,0.4,3.5,1.4c0.9,1,1.4,2.1,1.4,3.6C82.1,103.9,81.6,105,80.6,106 M83.8,95.8
			c-1.9-1.9-4.1-2.8-6.7-2.8c-2.6,0-4.8,0.9-6.6,2.8c-1.9,1.9-2.8,4.1-2.8,6.7c0,2.6,0.9,4.9,2.8,6.7c1.8,1.9,4,2.8,6.6,2.8
			c2.6,0,4.8-1,6.7-2.8c1.8-1.8,2.7-4.1,2.7-6.7C86.5,99.9,85.6,97.7,83.8,95.8"/>
		<path fill="#FFFFFF" d="M17.9,88.4c-3.2,0-5.9,1.1-8.2,3.4c-2.3,2.3-3.4,5-3.4,8.3c0,3.2,1.1,6,3.4,8.3c2.3,2.3,4.9,3.4,8.2,3.4
			c2.6,0,5-0.8,7.1-2.4c2-1.6,3.4-3.7,4.1-6.2h-4.7c-0.6,1.2-1.5,2.2-2.6,3c-1.2,0.7-2.5,1.1-3.9,1.1c-2,0-3.7-0.7-5.1-2.1
			c-1.4-1.4-2.1-3.1-2.1-5.1c0-2,0.7-3.7,2.1-5.1c1.4-1.4,3.1-2.1,5.1-2.1c1.4,0,2.6,0.4,3.9,1.2c1.1,0.7,1.9,1.8,2.6,3H29
			c-0.7-2.5-2-4.6-4.1-6.2C22.8,89.2,20.5,88.3,17.9,88.4"/>
		<path fill="#FFFFFF" d="M48.3,103.2l0.9-0.5v1.8c0,1.6-0.4,2.6-1.3,3.2c-0.9,0.6-1.8,0.9-2.8,0.9c-0.6,0-1.2-0.2-1.6-0.5
			c-0.4-0.4-0.7-1-0.7-1.8c0-0.9,0.3-1.6,1.1-2c0.4-0.3,1.2-0.5,2.1-0.6L48.3,103.2z M46.4,93c-3,0-5.2,0.8-6.4,2.4
			c-0.8,1-1.2,2.3-1.3,3.9h4.5c0.1-0.8,0.3-1.3,0.6-1.6c0.5-0.6,1.3-0.9,2.4-0.9c1,0,1.7,0.1,2.2,0.4c0.5,0.3,0.7,0.8,0.8,1.5
			c0,0.6-0.3,1.1-1,1.4l-3.5,0.6c-1.6,0.2-2.9,0.6-3.9,1.2c-1.7,1-2.5,2.6-2.5,4.9c0,1.6,0.5,2.9,1.5,3.9c0.9,0.8,2.2,1.2,3.7,1.3
			c2.5,0,4.4-0.7,5.8-1.9v1.9h4.5V98.6c0-2.2-0.8-3.7-2.3-4.5C50.1,93.3,48.4,92.9,46.4,93"/>
		<rect x="31.3" y="88.4" fill="#FFFFFF" width="4.5" height="23.5"/>
		<path fill="#FFFFFF" d="M64.4,93.6c-1.2,0.5-2.3,1.3-3.2,2.6v-2.3l-4.3,0v18h4.5v-8.6c0-1.5,0.2-2.5,0.6-3.2
			c0.3-0.7,0.9-1.3,1.6-1.7c0.8-0.5,1.6-0.8,2.5-0.8l1.4,0.1l0-4.6l-1.2,0.1L64.4,93.6z"/>
	</g>
</g>
</svg>
