<?xml version="1.0" encoding="utf-8"?>
<!-- Generator: Adobe Illustrator 23.1.1, SVG Export Plug-In . SVG Version: 6.00 Build 0)  -->
<svg version="1.2" baseProfile="tiny" id="Capa_1" xmlns="http://www.w3.org/2000/svg" xmlns:xlink="http://www.w3.org/1999/xlink"
	 x="0px" y="0px" viewBox="0 0 200 200" xml:space="preserve">
<g>
	<path fill="#FFFFFF" d="M73.1,93.2l23.3,13.4l23.6-10v4.8l-26.6,15.3l-27.7-15.9V70.2l4.3-2.7L73.1,93.2z M106.8,54.1L83.5,67.6
		l-3.1,25.5l-4.2-2.4l0-30.7l27.6-16l26.5,15.3l0.2,5.1L106.8,54.1z M123.8,103.1l0-26.9l-20.5-15.5l4.2-2.4l26.5,15.4l0,31.9
		l-26.5,15.3l-4.5-2.4L123.8,103.1z"/>
	<path fill-rule="evenodd" fill="#FFFFFF" d="M21.9,150.1h24.8v3.3H19.8c-1.9,0-3.5-1.6-3.5-3.5v-9.1c0-1.9,1.6-3.5,3.5-3.5h26.9
		v3.3H21.9V150.1z"/>
	<path fill-rule="evenodd" fill="#FFFFFF" d="M55.7,150h20.2v-9.3H55.7V150z M50.6,150v-9.1c0-1.9,1.6-3.5,3.5-3.5h23.5
		c1.9,0,3.5,1.6,3.5,3.5v9.1c0,1.9-1.6,3.5-3.5,3.5H54C52.1,153.4,50.6,151.9,50.6,150z"/>
	<path fill-rule="evenodd" fill="#FFFFFF" d="M110.1,140.7H90v12.7h-5.1v-12.6c0-1.9,1.6-3.5,3.5-3.5h23.4c1.9,0,3.5,1.6,3.5,3.5
		v3.9c0,1.9-1.6,3.5-3.5,3.5h-4.2l7.8,5.2h-6.6l-7.9-5.2h-9.4v-3.3h18.6V140.7z"/>
	<path fill-rule="evenodd" fill="#FFFFFF" d="M124.2,150h20.2v-9.2h-20.2V150z M119.1,150v-9.1c0-1.9,1.6-3.5,3.5-3.5H146
		c1.9,0,3.5,1.6,3.5,3.5v9.1c0,1.9-1.6,3.5-3.5,3.5h-23.5C120.6,153.4,119.1,151.9,119.1,150z"/>
	<path fill-rule="evenodd" fill="#FFFFFF" d="M178.6,146.8h-21.8c-1.9,0-3.5-1.6-3.5-3.5v-2.5c0-1.9,1.6-3.5,3.5-3.5h26.9v3.3h-25.2
		v2.8h21.7c1.9,0,3.5,1.6,3.5,3.5v3c0,1.9-1.6,3.5-3.5,3.5h-26.9v-3.3h25.2V146.8z"/>
</g>
</svg>
