<?xml version="1.0" encoding="utf-8"?>
<!-- Generator: Adobe Illustrator 25.2.3, SVG Export Plug-In . SVG Version: 6.00 Build 0)  -->
<svg version="1.1" id="图层_1" xmlns="http://www.w3.org/2000/svg" xmlns:xlink="http://www.w3.org/1999/xlink" x="0px" y="0px"
	 viewBox="0 0 752.9 536.6" style="enable-background:new 0 0 752.9 536.6;" xml:space="preserve">
<style type="text/css">
	.st0{fill:#FFFFFF;}
	.st1{fill-rule:evenodd;clip-rule:evenodd;fill:#FFFFFF;}
</style>
<g>
	<path class="st0" d="M259.9,244.4l100.9,58.1L463,259.2v20.8l-115,66.2l-119.7-68.9V144.9l18.7-11.6L259.9,244.4z M405.6,75.2
		l-100.8,58.4l-13.6,110.2l-18-10.4l0.2-132.7L393,31.5l114.6,66.2l0.7,22L405.6,75.2z M479.3,287.3l-0.2-116.4L390.4,104l18-10.4
		l114.8,66.5l0.2,138.1l-114.6,66.2l-19.4-10.4L479.3,287.3z"/>
	<path class="st1" d="M38.3,490.7h107.5V505H29.4c-8.3,0-15-6.7-15-15v-39.5c0-8.3,6.7-15,15-15h116.3v14.3H38.3V490.7z"/>
	<path class="st1" d="M184.6,490.2h87.3v-40.3h-87.3V490.2z M162.5,490v-39.5c0-8.3,6.7-15,15-15H279c8.3,0,15,6.7,15,15V490
		c0,8.3-6.7,15-15,15H177.5C169.2,505,162.5,498.3,162.5,490z"/>
	<path class="st1" d="M420,449.9h-87.1V505h-22.1v-54.5c0-8.3,6.7-15,15-15h101.3c8.3,0,15,6.7,15,15v16.9c0,8.3-6.7,15-15,15H409
		l33.7,22.6h-28.4l-34-22.6h-40.8v-14.3H420V449.9z"/>
	<path class="st1" d="M481,490.2h87.3v-39.8H481V490.2z M458.9,490v-39.5c0-8.3,6.7-15,15-15h101.5c8.3,0,15,6.7,15,15V490
		c0,8.3-6.7,15-15,15H473.9C465.6,505,458.9,498.3,458.9,490z"/>
	<path class="st1" d="M716.4,476.3h-94.2c-8.3,0-15-6.7-15-15v-10.8c0-8.3,6.7-15,15-15h116.3v14.3H629.4V462h94.1
		c8.3,0,15,6.7,15,15v13c0,8.3-6.7,15-15,15H607.2v-14.3h109.2V476.3z"/>
</g>
</svg>
