<?xml version="1.0" encoding="utf-8"?>
<!-- Generator: Adobe Illustrator 25.2.3, SVG Export Plug-In . SVG Version: 6.00 Build 0)  -->
<svg version="1.1" id="Capa_1" xmlns="http://www.w3.org/2000/svg" xmlns:xlink="http://www.w3.org/1999/xlink" x="0px" y="0px"
	 viewBox="0 0 1080 1080" style="enable-background:new 0 0 1080 1080;" xml:space="preserve">
<style type="text/css">
	.st0{fill:#1C3532;}
</style>
<g>
	<path class="st0" d="M364.3,521.9c-6,0-10.3-0.1-13-0.2v0.5c2.5,0.4,4.2,1.1,4.9,2.1c0.8,0.9,1.2,3.4,1.2,7.1v54.7
		c-0.3,8.3-1,8.7-5.1,9.3v0.5c3-0.1,5.9-0.2,8.9-0.2c3.5,0,6.6,0.1,9.5,0.2v-0.5c-2.2-0.3-3.8-1-4.6-2c-0.7-1-1.1-3.5-1.1-7.2v-27.7
		c3.6,0,6.2,0,7.9,0.1c1.7,0,3.6,0.1,5.4,0.3c1.9,0.2,3.2,0.4,3.8,0.7c2.4,1,3.7,3,3.9,7h0.5c-0.1-4.6-0.2-7.8-0.2-9.6
		c0-3,0.1-6.5,0.2-10.7h-0.5c-0.1,1.4-0.3,2.5-0.5,3.4c-0.5,2.4-1.8,4-3.8,4.7c-1.9,0.7-7.4,1-16.7,1v-29.9c1.5-0.4,4.4-0.6,8.6-0.6
		c7.8,0,12.8,0.5,15,1.4c2.1,0.9,3.2,3.6,3.2,7.9h0.5c0.4-1.7,0.6-4.5,0.6-8.4c0-1.2-0.1-4-0.1-4.3
		C389.5,521.8,380.1,521.9,364.3,521.9"/>
	<path class="st0" d="M434,596v-0.5c-4.1-0.6-4.8-1-5.1-9.3v-54.7c0.3-8.3,1-8.7,5.1-9.3v-0.5c-2.9,0.1-5.8,0.2-8.9,0.2
		c-3,0-5.9-0.1-8.9-0.2v0.5c4.1,0.6,4.8,1,5.1,9.3v54.7c-0.3,8.3-1,8.7-5.1,9.3v0.5c3-0.1,5.9-0.2,8.9-0.2
		C428.2,595.8,431.1,595.9,434,596"/>
	<path class="st0" d="M467,520.2h-0.7v22.5c0,16.1-0.1,26.7-0.2,31.9c-0.2,10.2-0.9,16.3-2.2,18.2c-0.6,0.9-2,1.8-4.2,2.6v0.5
		c2.9-0.1,5.5-0.2,8.1-0.2c2.8,0,5.7,0.1,8.7,0.2v-0.5c-1.4-0.5-2.3-0.8-2.9-1.1c-1.6-0.9-2.8-3.3-3.3-6.9
		c-0.6-4.4-0.9-19.3-0.9-44.6v-9.2l57.9,64.4h0.5v-23.4c0-16.3,0.1-27.1,0.2-32.5c0.3-9.7,1.1-15.5,2.4-17.4
		c0.7-0.9,2.1-1.7,4.4-2.4v-0.5c-5.7,0.3-11.1,0.3-17.1,0v0.5c0.1,0,0.2,0,0.3,0.1c1.1,0.3,1.9,0.6,2.3,0.9c1.7,0.9,2.9,3.1,3.4,6.5
		c0.7,4.6,1,19.7,1,45.5v9.1L467,520.2z"/>
	<path class="st0" d="M597.6,596.9c8.3,0,16.7-2.1,25.5-6.5c0-4.4,0.2-7.9,0.6-10.9h-0.5c-1.4,4.9-4.4,8.7-9,11.2
		c-4.6,2.5-9.6,3.8-15,3.8c-7.8,0-15.4-2.8-21.8-8.1c-6.2-5.4-10.4-14.9-10.4-26.7c0-12.2,3.4-21.9,9-27.6
		c5.6-5.7,12.7-8.6,20.9-8.6c7.1,0,13,1.4,17.7,4.3c4.7,2.8,7.2,6.8,7.7,12h0.5c0-0.3-0.1-2.5-0.1-3.9c0-3.8,0.1-7,0.3-9.7l-3.1-0.8
		c-1.6-0.5-2.8-0.9-3.5-1c-1.3-0.4-5.3-1.4-7.4-1.8c-3.5-0.6-8.6-1.3-12.6-1.3c-12.3,0-22.9,4.7-29.1,12c-6.1,7.2-9.6,16.5-9.6,26
		c0,9.7,3.6,18.8,10.1,26C574.3,592.3,584.9,596.9,597.6,596.9"/>
	<path class="st0" d="M672,534.4l9.4,30.2h-10.8c-4.3,0-7.5,0-9.7-0.1L672,534.4z M646.2,592.3c-1.3,1.5-3.3,2.6-6,3.3v0.5
		c2.9-0.1,5.2-0.2,6.9-0.2c3.4,0,6.5,0.1,9.5,0.2v-0.5c-3.2-0.3-4.7-1.8-4.7-4.5c0-1.4,0.6-3.8,1.7-6.9l6.1-16.5
		c2.3-0.1,6-0.1,10.8-0.1h11.7l6,19.2c0.8,2.8,1.2,4.5,1.2,5.3c0,2.1-1.5,3.4-4.5,3.6v0.5c6-0.3,12.2-0.3,17.9,0v-0.5
		c-1.9-0.3-3.2-0.8-3.7-1.5c-0.5-0.7-1.3-2.8-2.4-6.1l-21.4-67.7h-1l-23,61.3C649.2,587.1,647.5,590.6,646.2,592.3"/>
	<path class="st0" d="M106.3,682.9c-2.2-1.8-4.7-3.7-7.3-5.6c-5.3-3.8-10-6.4-12.9-11.4c-1.5-2.5-2.2-5.3-2.2-8.3
		c0-7.6,5.4-11.5,12.4-11.5c8,0,12.7,3.9,14.3,11.7h0.6c-0.1-1-0.1-2.9-0.1-5.6c0-2.3,0.1-4.6,0.3-6.7c-0.4,0.1-1,0.1-1.7,0.1
		c-1.1,0-3.2-0.3-6.1-0.8c-2.9-0.5-5.3-0.8-7.4-0.8c-5.5,0-10,1.7-13.6,5.1c-3.6,3.4-5.3,7.7-5.3,13.1c0,22.1,30.6,21.8,30.6,42.1
		c0,8.9-6.2,13.8-13.9,13.8c-4.4,0-8.2-1.1-11.3-3.5c-3.2-2.3-4.7-5.4-4.7-9.4c0-0.5,0.1-1.3,0.2-2.5h-0.5c-0.8,1.8-1.2,4-1.2,6.4
		c0,1.7,0.5,5.5,0.5,7c0,1.4,0,2.3-0.1,2.6c0.4-0.1,0.9-0.1,1.5-0.1c1.5,0,3.7,0.3,6.6,0.9c3,0.7,5.6,1,8.1,1
		c6.1,0,11.2-1.8,15.2-5.6c4-3.8,6-8.9,6-15.1C114.2,692.6,110.8,686.6,106.3,682.9"/>
	<path class="st0" d="M160.9,688.3c-4.3,0-7.5,0-9.7-0.1l11.1-30.1l9.4,30.2H160.9z M187.2,711.6L165.8,644h-1l-23,61.3
		c-2.1,5.6-3.9,9.2-5.2,10.8c-1.3,1.5-3.3,2.7-6,3.3v0.5c2.9-0.1,5.2-0.2,6.9-0.2c3.4,0,6.5,0.1,9.5,0.2v-0.5
		c-3.2-0.3-4.7-1.8-4.7-4.5c0-1.4,0.6-3.8,1.7-6.9l6.1-16.5c2.3-0.1,6-0.1,10.8-0.1h11.7l6,19.2c0.8,2.8,1.2,4.5,1.2,5.3
		c0,2.1-1.5,3.4-4.5,3.6v0.5c6-0.3,12.2-0.3,17.9,0v-0.5c-1.9-0.3-3.2-0.8-3.7-1.5C189.1,717,188.3,715,187.2,711.6"/>
	<path class="st0" d="M230.8,719.8v-0.5c-1.4-0.5-2.3-0.8-2.9-1.1c-1.6-0.9-2.8-3.3-3.3-6.9c-0.6-4.4-0.9-19.3-0.9-44.6v-9.2
		l57.9,64.4h0.5v-23.4c0-16.3,0.1-27.1,0.2-32.5c0.3-9.7,1.1-15.5,2.4-17.4c0.7-0.9,2.1-1.7,4.4-2.4v-0.5c-5.7,0.3-11.1,0.3-17.1,0
		v0.5c0.1,0,0.2,0,0.3,0.1c1.1,0.3,1.9,0.6,2.3,0.9c1.7,0.9,2.9,3.1,3.4,6.5c0.7,4.6,1,19.7,1,45.5v9.1L221.4,644h-0.7v22.5
		c0,16.1-0.1,26.7-0.2,31.9c-0.2,10.2-0.9,16.3-2.2,18.2c-0.6,0.9-2,1.8-4.2,2.6v0.5c2.9-0.1,5.5-0.2,8.1-0.2
		C224.9,719.6,227.8,719.7,230.8,719.8"/>
	<path class="st0" d="M393.6,645c-12.3,0-22.9,4.7-29.1,12c-6.1,7.2-9.6,16.5-9.6,26c0,9.7,3.6,18.8,10.1,26
		c6.5,7,17.1,11.6,29.8,11.6c8.3,0,16.7-2.1,25.5-6.5c0-4.4,0.2-7.9,0.6-10.9h-0.5c-1.4,4.9-4.4,8.7-9,11.2c-4.6,2.5-9.6,3.8-15,3.8
		c-7.8,0-15.4-2.8-21.8-8.1c-6.2-5.4-10.4-14.9-10.4-26.7c0-12.2,3.4-21.9,9-27.6c5.6-5.7,12.7-8.6,20.9-8.6c7.1,0,13,1.4,17.7,4.3
		c4.7,2.8,7.2,6.8,7.7,12h0.5c0-0.3-0.1-2.5-0.1-3.9c0-3.8,0.1-7,0.3-9.7l-3.1-0.8c-1.6-0.5-2.8-0.9-3.5-1c-1.3-0.4-5.3-1.4-7.4-1.8
		C402.7,645.7,397.6,645,393.6,645"/>
	<path class="st0" d="M467.7,688.3c-4.3,0-7.5,0-9.7-0.1l11.1-30.1l9.4,30.2H467.7z M494,711.6L472.6,644h-1l-23,61.3
		c-2.1,5.6-3.9,9.2-5.2,10.8c-1.3,1.5-3.3,2.7-6,3.3v0.5c2.9-0.1,5.2-0.2,6.9-0.2c3.4,0,6.5,0.1,9.5,0.2v-0.5
		c-3.2-0.3-4.7-1.8-4.7-4.5c0-1.4,0.6-3.8,1.7-6.9l6.1-16.5c2.3-0.1,6-0.1,10.8-0.1h11.7l6,19.2c0.8,2.8,1.2,4.5,1.2,5.3
		c0,2.1-1.5,3.4-4.5,3.6v0.5c6-0.3,12.2-0.3,17.9,0v-0.5c-1.9-0.3-3.2-0.8-3.7-1.5C495.9,717,495.1,715,494,711.6"/>
	<path class="st0" d="M531.1,654.9c-1.3-2.5-1.9-4.4-1.9-5.6c0-1.7,1.5-2.9,4.6-3.3v-0.5c-3,0.1-6,0.2-9.1,0.2
		c-4,0-7.3-0.1-10.2-0.2v0.5c3.7,0.8,4.7,2.2,7.4,7.6l20.5,41.1V710c0,3.8-0.3,6.2-1,7.2c-0.6,0.9-1.9,1.6-4.1,2v0.5
		c3-0.1,5.9-0.2,8.9-0.2c3.1,0,6,0.1,8.9,0.2v-0.5c-2.1-0.4-3.5-1.1-4.2-2c-0.6-1-0.9-3.5-0.9-7.2v-16.8l14.1-26.8l3.8-7.1
		c3.2-6.1,5.2-9.8,6.1-10.9c0.9-1.1,2.3-1.9,4.4-2.3v-0.5c-2.9,0.1-5.4,0.2-7.7,0.2c-1.9,0-4.5-0.1-7.4-0.2v0.5
		c2.8,0.5,4.2,1.7,4.2,3.7c0,0.5,0,1-0.1,1.5c-0.2,1.4-1.8,5.1-4.8,10.9c-0.7,1.2-1.2,2.2-1.5,3l-12.6,24.6L531.1,654.9z"/>
	<path class="st0" d="M596.3,645.5v0.5c2.5,0.4,4.2,1.1,4.9,2.1c0.8,0.9,1.2,3.4,1.2,7.1V710c0,6.9-0.9,8.5-5.8,9.3v0.5
		c2.9-0.1,9.7-0.2,20.5-0.2c7.6,0,14.7,0.1,21,0.3c0-2.5,0.5-7.2,0.6-13.5h-0.5c-0.3,5-2.1,7.5-4.3,8.9c-1.1,0.7-5.6,1.1-8.4,1.2
		h-6.9c-4.7,0-7.5-0.2-8.7-0.6v-33.1c3.7,0,6.3,0,8.1,0.1c1.7,0,3.5,0.1,5.4,0.3c1.9,0.2,3.2,0.5,3.8,0.8c2.2,1.3,3.7,3.3,4.1,7.7
		h0.5c-0.1-4.6-0.2-8.1-0.2-10.4c0-2.1,0.1-5.3,0.2-9.5h-0.5c-0.4,4-1.7,5.6-4.2,6.8c-1.2,0.4-5.7,0.9-9.1,1h-8.1v-30.4
		c1.5-0.4,4.4-0.6,8.6-0.6c7.8,0,12.8,0.5,15,1.4s3.2,3.6,3.2,7.9h0.5c0.4-1.7,0.6-4.5,0.6-8.4c0-1.2-0.1-4-0.1-4.3
		c-3.1,0.1-12.5,0.2-28.3,0.2C603.3,645.7,599,645.6,596.3,645.5"/>
	<path class="st0" d="M707.8,650.3c3.3,0.5,3.9,1.4,3.9,3.1c0,0.5-0.1,1-0.2,1.5h0.6c0.2-1.1,0.7-3,1.4-5.6c0.8-2.8,1.4-4.5,1.7-5.3
		h-0.6c-1.4,1.2-3.8,1.9-6.9,2.2c-3.2,0.2-10.8,0.3-22.9,0.3c-11.1,0-17.6-0.2-19.6-0.7c-1.5-0.4-2.4-1.3-2.5-2.6h-0.5
		c-0.5,2.3-1.1,4.9-1.9,7.4c-0.8,2.5-1.3,4.4-1.5,5.5h0.5c1.4-3.1,3.6-4.9,6.4-5.5c2.9-0.7,8.7-1,17.5-1V710c-0.3,8.3-1,8.7-5.1,9.3
		v0.5c3-0.1,5.9-0.2,8.9-0.2c3.1,0,6,0.1,8.9,0.2v-0.5c-4.1-0.6-4.8-1-5.1-9.3v-60.4C700.1,649.6,704.6,649.8,707.8,650.3"/>
	<path class="st0" d="M750,688.3c-4.3,0-7.5,0-9.7-0.1l11.1-30.1l9.4,30.2H750z M776.3,711.6L754.9,644h-1l-23,61.3
		c-2.1,5.6-3.9,9.2-5.2,10.8c-1.3,1.5-3.3,2.7-6,3.3v0.5c2.9-0.1,5.2-0.2,6.9-0.2c3.4,0,6.5,0.1,9.5,0.2v-0.5
		c-3.2-0.3-4.7-1.8-4.7-4.5c0-1.4,0.6-3.8,1.7-6.9l6.1-16.5c2.3-0.1,6-0.1,10.8-0.1h11.7l6,19.2c0.8,2.8,1.2,4.5,1.2,5.3
		c0,2.1-1.5,3.4-4.5,3.6v0.5c6-0.3,12.2-0.3,17.9,0v-0.5c-1.9-0.3-3.2-0.8-3.7-1.5S777.4,715,776.3,711.6"/>
	<path class="st0" d="M861.2,645.5v0.5c0.1,0,0.2,0,0.3,0.1c1.1,0.3,1.9,0.6,2.3,0.9c1.7,0.9,2.9,3.1,3.4,6.5c0.7,4.6,1,19.7,1,45.5
		v9.1L810.5,644h-0.7v22.5c0,16.1-0.1,26.7-0.2,31.9c-0.2,10.2-0.9,16.3-2.2,18.2c-0.6,0.9-2,1.8-4.2,2.6v0.5
		c2.9-0.1,5.5-0.2,8.1-0.2c2.8,0,5.7,0.1,8.7,0.2v-0.5c-1.4-0.5-2.3-0.8-2.9-1.1c-1.6-0.9-2.8-3.3-3.3-6.9
		c-0.6-4.4-0.9-19.3-0.9-44.6v-9.2l57.9,64.4h0.5v-23.4c0-16.3,0.1-27.1,0.2-32.5c0.3-9.7,1.1-15.5,2.4-17.4
		c0.7-0.9,2.1-1.7,4.4-2.4v-0.5C872.6,645.8,867.2,645.8,861.2,645.5"/>
	<path class="st0" d="M919.2,655.6c5.2-5.6,11.5-8.4,18.5-8.4c7.6,0,14.2,3.1,19.6,9.2c5.4,6.1,8.2,15.2,8.2,27.2
		c0,11.3-2.5,19.9-7.7,25.8c-5.2,5.9-11.8,8.9-20,8.9c-7.9,0-14.5-3-19.5-8.9c-5-5.9-7.5-14.7-7.5-26.4
		C910.7,670.8,914,661,919.2,655.6 M937.7,720.6c10.5,0,19.4-3.7,26.4-10.9c7.1-7.3,10.7-16.2,10.7-26.7c0-10.8-3.6-19.9-10.6-27.1
		c-7-7.2-15.6-10.9-25.7-10.9c-7.4,0-14.1,1.8-19.9,5.6c-5.8,3.8-10.1,8.5-13,14.3c-3,5.8-4.4,11.9-4.4,18.4
		c0,9.9,3.4,18.7,10.1,26.1C918.2,716.8,926.9,720.6,937.7,720.6"/>
	<path class="st0" d="M524.4,247.9c12.8,0,24.3,5.4,32.4,14H492C500.1,253.3,511.6,247.9,524.4,247.9 M477.3,292.4
		c0,15.6,7.7,29.5,19.4,38.1l-45.5,43.3l-71.5-68.1v-41.3h106.8C480.7,272.2,477.3,281.9,477.3,292.4 M670.6,304.5l-72.7,69.2
		l-45.6-43.4c11.6-8.6,19.1-22.4,19.1-37.9c0-10.5-3.4-20.1-9.2-28h108.4V304.5z M379.7,360.6l42.7,40.6l-25.2,24l-17.5-16.7V360.6z
		 M424.2,399.5l-44.5-42.4v-47.9l69.7,66.3L424.2,399.5z M476.4,401.3l-25.2,24l-25.2-24l25.2-24L476.4,401.3z M569.1,401.1
		l-25.2,24l-19.3-18.3l-19.4,18.5l-25.2-24l44.6-42.4L569.1,401.1z M623.1,401.1l-25.2,24l-25.2-24l25.2-24L623.1,401.1z
		 M670.6,355.9l-45.6,43.5l-25.2-24l70.8-67.4V355.9z M670.6,407.3L652,425.1l-25.2-24l43.8-41.7V407.3z M500.8,330.1l23.9-22.7
		l23.7,22.5c-6.9,4.4-15.1,7-23.9,7C515.7,336.9,507.6,334.4,500.8,330.1 M524.4,339.5c9.5,0,18.4-2.9,25.8-7.7l45.9,43.7l-25.2,24
		l-46.3-44.1l-46.4,44.2l-25.2-24l45.8-43.6C506.2,336.7,515,339.5,524.4,339.5 M379.7,435.5v-23.5l15.5,14.8h4l25-23.8l25,23.8h4
		l25-23.8l25,23.8h4l17.4-16.6l17.4,16.6h3.7l25.1-23.9l25.1,23.9h3.7l25.1-23.9l25.1,23.9h3.7l16.8-16v24.7H379.7z M559,264.4
		c6.2,7.7,9.9,17.4,9.9,28c0,14.8-7.3,28-18.5,36.1l-25.8-24.6l-26,24.8c-11.3-8.1-18.8-21.3-18.8-36.3c0-10.6,3.7-20.3,9.9-28H559z
		 M377.1,438.1h296V261.9H560.2c-8.6-10.1-21.5-16.6-35.8-16.6s-27.2,6.4-35.8,16.6H377.1V438.1z"/>
</g>
</svg>
