<?xml version="1.0" encoding="utf-8"?>
<!-- Generator: Adobe Illustrator 23.1.1, SVG Export Plug-In . SVG Version: 6.00 Build 0)  -->
<svg version="1.2" baseProfile="tiny" id="Capa_1" xmlns="http://www.w3.org/2000/svg" xmlns:xlink="http://www.w3.org/1999/xlink"
	 x="0px" y="0px" viewBox="0 0 200 200" xml:space="preserve">
<g>
	<path fill="#FFFFFF" d="M65.8,107.8c-1.3,0-2.2,0-2.8,0v0.1c0.5,0.1,0.9,0.2,1,0.5c0.2,0.2,0.3,0.7,0.3,1.5v11.6
		c-0.1,1.7-0.2,1.8-1.1,2v0.1c0.6,0,1.3,0,1.9,0c0.7,0,1.4,0,2,0v-0.1c-0.5-0.1-0.8-0.2-1-0.4c-0.2-0.2-0.2-0.7-0.2-1.5v-5.9
		c0.8,0,1.3,0,1.7,0c0.4,0,0.8,0,1.1,0.1c0.4,0,0.7,0.1,0.8,0.2c0.5,0.2,0.8,0.6,0.8,1.5h0.1c0-1,0-1.7,0-2c0-0.6,0-1.4,0-2.3h-0.1
		c0,0.3-0.1,0.5-0.1,0.7c-0.1,0.5-0.4,0.8-0.8,1c-0.4,0.2-1.6,0.2-3.5,0.2v-6.3c0.3-0.1,0.9-0.1,1.8-0.1c1.7,0,2.7,0.1,3.2,0.3
		c0.5,0.2,0.7,0.8,0.7,1.7h0.1c0.1-0.4,0.1-0.9,0.1-1.8c0-0.3,0-0.8,0-0.9C71.2,107.8,69.2,107.8,65.8,107.8"/>
	<path fill="#FFFFFF" d="M80.6,123.5v-0.1c-0.9-0.1-1-0.2-1.1-2v-11.6c0.1-1.7,0.2-1.8,1.1-2v-0.1c-0.6,0-1.2,0-1.9,0
		c-0.6,0-1.3,0-1.9,0v0.1c0.9,0.1,1,0.2,1.1,2v11.6c-0.1,1.7-0.2,1.8-1.1,2v0.1c0.6,0,1.3,0,1.9,0C79.4,123.4,80,123.5,80.6,123.5"
		/>
	<path fill="#FFFFFF" d="M87.6,107.4h-0.2v4.8c0,3.4,0,5.6,0,6.7c0,2.2-0.2,3.4-0.5,3.9c-0.1,0.2-0.4,0.4-0.9,0.6v0.1
		c0.6,0,1.2,0,1.7,0c0.6,0,1.2,0,1.8,0v-0.1c-0.3-0.1-0.5-0.2-0.6-0.2c-0.3-0.2-0.6-0.7-0.7-1.5c-0.1-0.9-0.2-4.1-0.2-9.4v-1.9
		l12.2,13.6h0.1v-5c0-3.4,0-5.7,0-6.9c0.1-2,0.2-3.3,0.5-3.7c0.2-0.2,0.5-0.4,0.9-0.5v-0.1c-1.2,0.1-2.3,0.1-3.6,0v0.1
		c0,0,0,0,0.1,0c0.2,0.1,0.4,0.1,0.5,0.2c0.4,0.2,0.6,0.6,0.7,1.4c0.2,1,0.2,4.2,0.2,9.6v1.9L87.6,107.4z"/>
	<path fill="#FFFFFF" d="M115.2,123.6c1.7,0,3.5-0.5,5.4-1.4c0-0.9,0-1.7,0.1-2.3h-0.1c-0.3,1-0.9,1.8-1.9,2.4c-1,0.5-2,0.8-3.2,0.8
		c-1.7,0-3.3-0.6-4.6-1.7c-1.3-1.1-2.2-3.1-2.2-5.6c0-2.6,0.7-4.6,1.9-5.8c1.2-1.2,2.7-1.8,4.4-1.8c1.5,0,2.8,0.3,3.8,0.9
		c1,0.6,1.5,1.4,1.6,2.5h0.1c0-0.1,0-0.5,0-0.8c0-0.8,0-1.5,0.1-2l-0.6-0.2c-0.3-0.1-0.6-0.2-0.7-0.2c-0.3-0.1-1.1-0.3-1.6-0.4
		c-0.7-0.1-1.8-0.3-2.7-0.3c-2.6,0-4.9,1-6.2,2.5c-1.3,1.5-2,3.5-2,5.5c0,2,0.8,4,2.1,5.5C110.3,122.7,112.5,123.6,115.2,123.6"/>
	<path fill="#FFFFFF" d="M130.9,110.4l2,6.4h-2.3c-0.9,0-1.6,0-2,0L130.9,110.4z M125.5,122.7c-0.3,0.3-0.7,0.6-1.3,0.7v0.1
		c0.6,0,1.1,0,1.5,0c0.7,0,1.4,0,2,0v-0.1c-0.7-0.1-1-0.4-1-0.9c0-0.3,0.1-0.8,0.4-1.5l1.3-3.5c0.5,0,1.3,0,2.3,0h2.5l1.3,4.1
		c0.2,0.6,0.3,0.9,0.3,1.1c0,0.5-0.3,0.7-0.9,0.8v0.1c1.3-0.1,2.6-0.1,3.8,0v-0.1c-0.4-0.1-0.7-0.2-0.8-0.3
		c-0.1-0.2-0.3-0.6-0.5-1.3l-4.5-14.3h-0.2l-4.9,13C126.1,121.6,125.8,122.3,125.5,122.7"/>
	<path fill="#FFFFFF" d="M11.3,141.8c-0.5-0.4-1-0.8-1.6-1.2c-1.1-0.8-2.1-1.4-2.7-2.4c-0.3-0.5-0.5-1.1-0.5-1.7
		c0-1.6,1.1-2.4,2.6-2.4c1.7,0,2.7,0.8,3,2.5h0.1c0-0.2,0-0.6,0-1.2c0-0.5,0-1,0.1-1.4c-0.1,0-0.2,0-0.4,0c-0.2,0-0.7-0.1-1.3-0.2
		c-0.6-0.1-1.1-0.2-1.6-0.2c-1.2,0-2.1,0.4-2.9,1.1c-0.8,0.7-1.1,1.6-1.1,2.8c0,4.7,6.5,4.6,6.5,8.9c0,1.9-1.3,2.9-2.9,2.9
		c-0.9,0-1.7-0.2-2.4-0.7c-0.7-0.5-1-1.1-1-2c0-0.1,0-0.3,0-0.5H5.2C5,146.4,5,146.9,5,147.4c0,0.4,0.1,1.2,0.1,1.5
		c0,0.3,0,0.5,0,0.6c0.1,0,0.2,0,0.3,0c0.3,0,0.8,0.1,1.4,0.2c0.6,0.2,1.2,0.2,1.7,0.2c1.3,0,2.4-0.4,3.2-1.2
		c0.8-0.8,1.3-1.9,1.3-3.2C13,143.9,12.2,142.6,11.3,141.8"/>
	<path fill="#FFFFFF" d="M22.8,143c-0.9,0-1.6,0-2,0l2.4-6.4l2,6.4H22.8z M28.4,147.9l-4.5-14.3h-0.2l-4.9,13
		c-0.5,1.2-0.8,1.9-1.1,2.3c-0.3,0.3-0.7,0.6-1.3,0.7v0.1c0.6,0,1.1,0,1.5,0c0.7,0,1.4,0,2,0v-0.1c-0.7-0.1-1-0.4-1-0.9
		c0-0.3,0.1-0.8,0.4-1.5l1.3-3.5c0.5,0,1.3,0,2.3,0h2.5l1.3,4.1c0.2,0.6,0.3,0.9,0.3,1.1c0,0.5-0.3,0.7-0.9,0.8v0.1
		c1.3-0.1,2.6-0.1,3.8,0v-0.1c-0.4-0.1-0.7-0.2-0.8-0.3C28.8,149.1,28.6,148.6,28.4,147.9"/>
	<path fill="#FFFFFF" d="M37.6,149.7v-0.1c-0.3-0.1-0.5-0.2-0.6-0.2c-0.3-0.2-0.6-0.7-0.7-1.5c-0.1-0.9-0.2-4.1-0.2-9.4v-1.9
		l12.2,13.6h0.1v-5c0-3.4,0-5.7,0-6.9c0.1-2,0.2-3.3,0.5-3.7c0.2-0.2,0.5-0.4,0.9-0.5v-0.1c-1.2,0.1-2.3,0.1-3.6,0v0.1
		c0,0,0,0,0.1,0c0.2,0.1,0.4,0.1,0.5,0.2c0.4,0.2,0.6,0.6,0.7,1.4c0.2,1,0.2,4.2,0.2,9.6v1.9l-12.2-13.6h-0.2v4.8c0,3.4,0,5.6,0,6.7
		c0,2.2-0.2,3.4-0.5,3.9c-0.1,0.2-0.4,0.4-0.9,0.6v0.1c0.6,0,1.2,0,1.7,0C36.4,149.6,37,149.6,37.6,149.7"/>
	<path fill="#FFFFFF" d="M72,133.8c-2.6,0-4.9,1-6.2,2.5c-1.3,1.5-2,3.5-2,5.5c0,2,0.8,4,2.1,5.5c1.4,1.5,3.6,2.5,6.3,2.5
		c1.7,0,3.5-0.5,5.4-1.4c0-0.9,0-1.7,0.1-2.3h-0.1c-0.3,1-0.9,1.8-1.9,2.4c-1,0.5-2,0.8-3.2,0.8c-1.7,0-3.3-0.6-4.6-1.7
		c-1.3-1.1-2.2-3.1-2.2-5.6c0-2.6,0.7-4.6,1.9-5.8c1.2-1.2,2.7-1.8,4.4-1.8c1.5,0,2.8,0.3,3.8,0.9c1,0.6,1.5,1.4,1.6,2.5h0.1
		c0-0.1,0-0.5,0-0.8c0-0.8,0-1.5,0.1-2l-0.6-0.2c-0.3-0.1-0.6-0.2-0.7-0.2c-0.3-0.1-1.1-0.3-1.6-0.4C74,134,72.9,133.8,72,133.8"/>
	<path fill="#FFFFFF" d="M87.7,143c-0.9,0-1.6,0-2,0l2.3-6.4l2,6.4H87.7z M93.3,147.9l-4.5-14.3h-0.2l-4.9,13
		c-0.5,1.2-0.8,1.9-1.1,2.3c-0.3,0.3-0.7,0.6-1.3,0.7v0.1c0.6,0,1.1,0,1.5,0c0.7,0,1.4,0,2,0v-0.1c-0.7-0.1-1-0.4-1-0.9
		c0-0.3,0.1-0.8,0.4-1.5l1.3-3.5c0.5,0,1.3,0,2.3,0h2.5l1.3,4.1c0.2,0.6,0.3,0.9,0.3,1.1c0,0.5-0.3,0.7-0.9,0.8v0.1
		c1.3-0.1,2.6-0.1,3.8,0v-0.1c-0.4-0.1-0.7-0.2-0.8-0.3C93.7,149.1,93.5,148.6,93.3,147.9"/>
	<path fill="#FFFFFF" d="M101.1,135.9c-0.3-0.5-0.4-0.9-0.4-1.2c0-0.4,0.3-0.6,1-0.7v-0.1c-0.6,0-1.3,0-1.9,0c-0.8,0-1.6,0-2.2,0
		v0.1c0.8,0.2,1,0.5,1.6,1.6l4.3,8.7v3.2c0,0.8-0.1,1.3-0.2,1.5c-0.1,0.2-0.4,0.3-0.9,0.4v0.1c0.6,0,1.3,0,1.9,0c0.6,0,1.3,0,1.9,0
		v-0.1c-0.5-0.1-0.7-0.2-0.9-0.4c-0.1-0.2-0.2-0.7-0.2-1.5V144l3-5.7l0.8-1.5c0.7-1.3,1.1-2.1,1.3-2.3c0.2-0.2,0.5-0.4,0.9-0.5v-0.1
		c-0.6,0-1.1,0-1.6,0c-0.4,0-0.9,0-1.6,0v0.1c0.6,0.1,0.9,0.4,0.9,0.8c0,0.1,0,0.2,0,0.3c0,0.3-0.4,1.1-1,2.3
		c-0.2,0.3-0.3,0.5-0.3,0.6l-2.7,5.2L101.1,135.9z"/>
	<path fill="#FFFFFF" d="M114.9,133.9v0.1c0.5,0.1,0.9,0.2,1,0.5c0.2,0.2,0.3,0.7,0.3,1.5v11.6c0,1.5-0.2,1.8-1.2,2v0.1
		c0.6,0,2,0,4.3,0c1.6,0,3.1,0,4.4,0.1c0-0.5,0.1-1.5,0.1-2.8h-0.1c-0.1,1.1-0.5,1.6-0.9,1.9c-0.2,0.2-1.2,0.2-1.8,0.3h-1.5
		c-1,0-1.6,0-1.8-0.1v-7c0.8,0,1.3,0,1.7,0c0.4,0,0.7,0,1.1,0.1c0.4,0,0.7,0.1,0.8,0.2c0.5,0.3,0.8,0.7,0.9,1.6h0.1c0-1,0-1.7,0-2.2
		c0-0.5,0-1.1,0-2h-0.1c-0.1,0.8-0.4,1.2-0.9,1.4c-0.3,0.1-1.2,0.2-1.9,0.2h-1.7v-6.4c0.3-0.1,0.9-0.1,1.8-0.1
		c1.7,0,2.7,0.1,3.2,0.3s0.7,0.8,0.7,1.7h0.1c0.1-0.4,0.1-0.9,0.1-1.8c0-0.3,0-0.8,0-0.9c-0.6,0-2.7,0-6,0
		C116.4,134,115.5,134,114.9,133.9"/>
	<path fill="#FFFFFF" d="M138.5,134.9c0.7,0.1,0.8,0.3,0.8,0.6c0,0.1,0,0.2,0,0.3h0.1c0-0.2,0.2-0.6,0.3-1.2
		c0.2-0.6,0.3-0.9,0.4-1.1H140c-0.3,0.3-0.8,0.4-1.5,0.5c-0.7,0-2.3,0.1-4.9,0.1c-2.3,0-3.7,0-4.1-0.2c-0.3-0.1-0.5-0.3-0.5-0.6
		h-0.1c-0.1,0.5-0.2,1-0.4,1.6c-0.2,0.5-0.3,0.9-0.3,1.2h0.1c0.3-0.6,0.8-1,1.4-1.2c0.6-0.2,1.8-0.2,3.7-0.2v12.8
		c-0.1,1.7-0.2,1.8-1.1,2v0.1c0.6,0,1.3,0,1.9,0c0.6,0,1.3,0,1.9,0v-0.1c-0.9-0.1-1-0.2-1.1-2v-12.8
		C136.9,134.8,137.8,134.8,138.5,134.9"/>
	<path fill="#FFFFFF" d="M147.4,143c-0.9,0-1.6,0-2,0l2.3-6.4l2,6.4H147.4z M153,147.9l-4.5-14.3h-0.2l-4.9,13
		c-0.5,1.2-0.8,1.9-1.1,2.3c-0.3,0.3-0.7,0.6-1.3,0.7v0.1c0.6,0,1.1,0,1.5,0c0.7,0,1.4,0,2,0v-0.1c-0.7-0.1-1-0.4-1-0.9
		c0-0.3,0.1-0.8,0.4-1.5l1.3-3.5c0.5,0,1.3,0,2.3,0h2.5l1.3,4.1c0.2,0.6,0.3,0.9,0.3,1.1c0,0.5-0.3,0.7-0.9,0.8v0.1
		c1.3-0.1,2.6-0.1,3.8,0v-0.1c-0.4-0.1-0.7-0.2-0.8-0.3C153.4,149.1,153.2,148.6,153,147.9"/>
	<path fill="#FFFFFF" d="M171,133.9v0.1c0,0,0,0,0.1,0c0.2,0.1,0.4,0.1,0.5,0.2c0.4,0.2,0.6,0.6,0.7,1.4c0.2,1,0.2,4.2,0.2,9.6v1.9
		l-12.2-13.6h-0.2v4.8c0,3.4,0,5.6,0,6.7c0,2.2-0.2,3.4-0.5,3.9c-0.1,0.2-0.4,0.4-0.9,0.6v0.1c0.6,0,1.2,0,1.7,0c0.6,0,1.2,0,1.8,0
		v-0.1c-0.3-0.1-0.5-0.2-0.6-0.2c-0.3-0.2-0.6-0.7-0.7-1.5c-0.1-0.9-0.2-4.1-0.2-9.4v-1.9l12.2,13.6h0.1v-5c0-3.4,0-5.7,0-6.9
		c0.1-2,0.2-3.3,0.5-3.7c0.2-0.2,0.5-0.4,0.9-0.5v-0.1C173.4,134,172.2,134,171,133.9"/>
	<path fill="#FFFFFF" d="M183.2,136.1c1.1-1.2,2.4-1.8,3.9-1.8c1.6,0,3,0.6,4.1,1.9c1.1,1.3,1.7,3.2,1.7,5.8c0,2.4-0.5,4.2-1.6,5.5
		c-1.1,1.3-2.5,1.9-4.2,1.9c-1.7,0-3.1-0.6-4.1-1.9c-1.1-1.3-1.6-3.1-1.6-5.6C181.4,139.3,182.1,137.2,183.2,136.1 M187.2,149.8
		c2.2,0,4.1-0.8,5.6-2.3c1.5-1.6,2.3-3.4,2.3-5.6c0-2.3-0.8-4.2-2.2-5.7c-1.5-1.5-3.3-2.3-5.4-2.3c-1.6,0-3,0.4-4.2,1.2
		c-1.2,0.8-2.1,1.8-2.8,3c-0.6,1.2-0.9,2.5-0.9,3.9c0,2.1,0.7,3.9,2.1,5.5C183,149,184.9,149.8,187.2,149.8"/>
	<path fill="#FFFFFF" d="M99.7,49.8c2.7,0,5.1,1.1,6.9,3H92.9C94.6,51,97,49.8,99.7,49.8 M89.8,59.3c0,3.3,1.6,6.2,4.1,8.1l-9.6,9.2
		L69.1,62.1v-8.7h22.6C90.5,55,89.8,57,89.8,59.3 M130.6,61.8l-15.4,14.6l-9.6-9.2c2.5-1.8,4-4.7,4-8c0-2.2-0.7-4.3-2-5.9h22.9V61.8
		z M69.1,73.7l9,8.6l-5.3,5.1l-3.7-3.5V73.7z M78.5,81.9l-9.4-9V62.8l14.7,14L78.5,81.9z M89.6,82.3l-5.3,5.1l-5.3-5.1l5.3-5.1
		L89.6,82.3z M109.2,82.3l-5.3,5.1l-4.1-3.9l-4.1,3.9l-5.3-5.1l9.4-9L109.2,82.3z M120.6,82.3l-5.3,5.1l-5.3-5.1l5.3-5.1L120.6,82.3
		z M130.6,72.7l-9.7,9.2l-5.3-5.1l15-14.3V72.7z M130.6,83.6l-3.9,3.8l-5.3-5.1l9.3-8.8V83.6z M94.7,67.2l5-4.8l5,4.8
		c-1.5,0.9-3.2,1.5-5.1,1.5C97.9,68.7,96.2,68.1,94.7,67.2 M99.7,69.2c2,0,3.9-0.6,5.5-1.6l9.7,9.2l-5.3,5.1l-9.8-9.3L90,81.9
		l-5.3-5.1l9.7-9.2C95.9,68.6,97.7,69.2,99.7,69.2 M69.1,89.5v-5l3.3,3.1h0.8l5.3-5l5.3,5h0.8l5.3-5l5.3,5h0.8l3.7-3.5l3.7,3.5h0.8
		l5.3-5.1l5.3,5.1h0.8l5.3-5.1l5.3,5.1h0.8l3.5-3.4v5.2H69.1z M107,53.3c1.3,1.6,2.1,3.7,2.1,5.9c0,3.1-1.5,5.9-3.9,7.6l-5.5-5.2
		l-5.5,5.2c-2.4-1.7-4-4.5-4-7.7c0-2.2,0.8-4.3,2.1-5.9H107z M68.6,90.1h62.6V52.8h-23.9c-1.8-2.1-4.5-3.5-7.6-3.5
		c-3,0-5.7,1.4-7.6,3.5H68.6V90.1z"/>
</g>
</svg>
