<?xml version="1.0" encoding="utf-8"?>
<!-- Generator: Adobe Illustrator 23.1.1, SVG Export Plug-In . SVG Version: 6.00 Build 0)  -->
<svg version="1.2" baseProfile="tiny" id="Capa_1" xmlns="http://www.w3.org/2000/svg" xmlns:xlink="http://www.w3.org/1999/xlink"
	 x="0px" y="0px" viewBox="0 0 200 200" xml:space="preserve">
<g id="layer1" transform="translate(-127.15947,-152.69208)">
	<path id="path741" fill="#FFFFFF" d="M280.7,266.8c0,0.2,0.3,0.5,0.6,0.6c0.1,0,0.2,0.1,0,0.4c-0.8,1.8-1.6,2.8-2.7,4.4
		c-1,1.5-2.1,2.6-3.4,3.7c-2,1.7-4.8,3.5-7.1,2.2c-1-0.5-1.5-2-1.4-3.1c0-3.2,1.5-6.6,4.2-9.9c3.3-4,6.9-6.1,9.2-4.9
		c2.4,1.2,1.7,4,0.6,6.2C280.7,266.6,280.7,266.7,280.7,266.8 M306.9,241.5c0.2-0.3,0-0.5-0.4-0.5c-2,0-4.7,0-6.8,0
		c-0.5,0-0.8,0.1-1,0.5c-0.8,1.5-10.3,15.8-12.1,18.6c-0.3,0.4-0.7,0.4-0.7-0.1c-0.2-1.7-1.6-3.6-3.9-4.5c-1.7-0.7-3.4-0.8-5.1-0.6
		c-3.1,0.4-5.9,2.1-8.4,4c-3.7,2.8-6.9,6.5-11,9.2c-2.3,1.5-5.3,2.8-7.4,0.8c-1.9-1.7-1.7-5.6,1.2-8.6c0.3-0.3,0.7,0,0.6,0.2
		c-0.3,1.3,0.1,2.7,1.1,3.6c1.2,1.1,3,1.2,4.6,0.5c1.8-0.9,2.9-2.6,3.2-4.6c0.5-3-1.9-5.7-4.8-5.9c-2.4-0.2-4.7,0.7-6.9,2.5
		c-1.1,0.9-1.7,1.6-2.7,3c-0.2,0.3-0.6,0.4-0.6-0.1c0.1-3.9-1.5-6.1-4.7-6.2c-2.5-0.1-5.2,1.3-7.3,3c-2.3,1.8-4.3,4.3-6.4,6.5
		c-0.3,0.3-0.5,0.3-0.6-0.3c-0.1-2.6-0.7-5.1-1.9-6.9c-0.4-0.6-1.3-0.9-2.1-0.5c-0.3,0.2-1.5,0.7-2.4,1.4c-0.4,0.4-0.6,0.9-0.4,1.5
		c1.2,3.9,0.9,8.2-0.7,11.9c-1.4,3.4-4.2,6.4-7.5,7.5c-2.2,0.7-4.4,0.3-5.8-1.6c-1.9-2.6-1.1-7.2,1.7-11.1c2.5-3.4,6.1-5.5,9.8-6.9
		c0.4-0.2,0.5-0.4,0.4-0.8c-0.2-0.6-0.5-1.4-0.6-1.8c-0.3-0.9-1.3-1-2.4-0.9c-2.6,0.3-5,1.2-7.4,2.5c-6.1,3.3-9.2,9.7-10.6,13.1
		c-0.7,1.6-1.2,2.7-1.9,3.6c-1,1.2-2.2,2.3-4.4,4.3c-0.2,0.2-0.4,0.6-0.2,0.9c0.2,0.5,1.4,2.1,1.7,2.2c0.4,0.2,0.8-0.1,1-0.2
		c1.6-1.1,3.4-2.7,4.3-3.9c0.3-0.4,0.6-0.2,0.8,0.4c0.9,3,3.1,5.5,6.2,6.5c5.6,1.9,11.5-0.9,15.9-5.6c2.8-3,3.8-5,4.9-6.3
		c1.8-2.3,5.4-7.3,9.7-10.5c1.6-1.2,3.4-2.1,4.4-1.5c0.7,0.5,1,1.6-0.2,3.8c-4.4,8-10.8,17.3-12,19.6c-0.2,0.4,0,0.7,0.4,0.7
		c2.3,0,4.5,0,6.6,0c0.3,0,0.5-0.2,0.7-0.4c3.3-5.2,6.5-10.2,9.9-15.4c0.2-0.3,0.4-0.1,0.4,0.1c0.1,1.2,0.4,2.8,1.1,3.9
		c1.3,2,3.1,2.8,5.1,2.9c1.6,0,2.4-0.2,4.1-0.9c1.4-0.5,2.5-1.2,3.4-1.8c0.5-0.4,0.6,0.2,0.6,0.3c-0.8,4.2,0.2,9.1,4.3,11.1
		c4.9,2.4,10.4-1,13.5-4.1c0.3-0.3,0.6-0.3,0.7,0.4c0.1,1.2,0.6,2.6,1.6,3.6c2.6,2.6,7.9,1.6,13.2-2.5c3.4-2.6,7-6.3,10.2-10.3
		c0.1-0.2,0.2-0.4,0-0.6c-0.5-0.5-1.2-1.1-1.7-1.6c-0.2-0.2-0.5-0.1-0.7,0c-3.3,3.1-6.3,6.7-10.6,9.7c-1.4,1-3.8,1.8-4.8,0.4
		c-0.4-0.5-0.4-1.3,0-2.3C286,273.5,305.9,243.3,306.9,241.5"/>
	<path id="path745" fill="#FFFFFF" d="M213.6,245.2c0.1,0.4,0.3,0.5,0.5,0.5c1-0.2,2.1-1,2.8-2c0.6-0.9,0.9-2.1,0.3-2.6
		c-0.5-0.5-1.4-0.3-2,0.2C213.8,242.4,213.5,244,213.6,245.2 M163.1,284c-7.4,0-13.9-4.5-14.7-12.4c-0.4-4.4,0.8-8.3,3.3-11.5
		c2.2-2.9,5.9-5.2,9.1-5.8c1-0.2,2.4-0.1,3,0.6c0.9,1,0.6,2.2-0.3,2.6c-2.4,1.2-5.3,3.3-6.7,6.2c-1.2,2.3-1.4,5.2,0.4,7.9
		c3,4.5,11.2,4.6,18.9-2.5c1.9-1.7,3.6-3.4,5.3-5.4c3.4-3.9,4.5-5.3,9-11.5c0-0.1,0.1-0.2,0-0.2c0-0.1-0.1-0.1-0.2-0.1
		c-3,0.1-5.6,1-8.2,2.9c-0.7,0.5-1.8,0.5-2.3-0.2c-0.5-0.8-0.1-1.8,0.7-2.4c4.1-2.9,8.6-3.4,13.2-4.1c0,0,0.3,0,0.6-0.3
		c1.9-2.4,3.3-4.6,5.3-7c2-2.5,4.6-4.7,6.6-6.4c2.8-2.4,4.6-3.2,6.4-4.2c0.5-0.2-0.1-0.5-0.2-0.5c-10.1-1.9-20.6-4.4-30.7-0.6
		c-7,2.6-10,8.1-8.5,11.8c1,2.6,4.5,3,7.7,1.5c2.7-1.3,5.1-3.4,6.9-6.1c1-1.5,3-0.4,1.9,2.2c-2.9,6.9-8.6,12.4-15.4,12.6
		c-5.8,0.2-9.6-4.1-9.6-9.4c0-10.4,11.6-17.3,23.8-18.3c14.7-1.2,28.6,2.7,43.1,4.5c11.2,1.4,21.9,1.4,33.1-1.2
		c1.3-0.3,2.3,0.6,2.2,1.9c-0.1,1.9-1.6,3.8-5.3,5.8c-4.2,2.3-8.6,3-13.2,3c-11.1,0.1-21.4-4.2-32.2-6.6c0,0.5,0.1,1-0.3,1.3
		c-5.9,4.4-11.3,8.8-14.9,15.1c-0.1,0.1-0.1,0.3,0.2,0.3c3.1-0.2,5.9-0.2,8.8-0.5c0.5,0,0.5-0.2,0.5-0.5c-0.3-2.1,0.4-4.6,2.3-6.3
		c1.9-1.7,4.4-1.9,6-0.7c1.8,1.4,1.7,4,0.7,5.9c-1,1.9-2.7,3-4.3,3.5c0,0-0.3,0.1-0.3,0.4c0.1,0.5,2.3,1.7,2.4,2
		c0.2,0.3,0.1,0.8-0.2,1.2c-0.2,0.3-0.6,0.5-1.1,0.5c-0.4,0-0.6-0.1-1.1-0.4c-1-0.5-2.2-1.4-3-2.4c-0.3-0.3-0.4-0.4-1.1-0.3
		c-3.1,0.2-8.1,0.7-11.4,1.1c-0.8,0.1-0.9,0.3-1.1,0.5c-5.3,8.7-11,18.2-17.2,24.5C174.5,282.2,169,284,163.1,284"/>
</g>
</svg>
