<?xml version="1.0" encoding="utf-8"?>
<!-- Generator: Adobe Illustrator 23.1.1, SVG Export Plug-In . SVG Version: 6.00 Build 0)  -->
<svg version="1.2" baseProfile="tiny" id="Capa_1" xmlns="http://www.w3.org/2000/svg" xmlns:xlink="http://www.w3.org/1999/xlink"
	 x="0px" y="0px" viewBox="0 0 200 200" xml:space="preserve">
<g>
	<g>
		<polygon fill="#DD9851" points="100.1,76.1 119.8,69.6 112.6,78.2 120.4,75.5 88.8,108.1 97.8,85.4 92.7,87.4 		"/>
		<polygon fill="#DD9851" points="100.1,76.1 119.8,69.6 112.6,78.2 120.4,75.5 88.8,108.1 97.8,85.4 92.7,87.4 		"/>
		<polygon fill="#C34043" points="98.8,82.8 94.7,84.3 92.7,87.4 97.8,85.4 		"/>
		<polygon fill="#C34043" points="108.8,79.5 112.6,78.2 119.8,69.6 116,70.8 		"/>
		<path fill="#FFFFFF" d="M61.5,145.6l1.3-4.6h0.1l1.4,4.6L61.5,145.6z M66.1,138.1h-7.9v2.5l1.2,0l-3.4,11l-1.1,0l0,2.9l6.2,0
			l0-2.9l-1.1,0l0.8-3l4.3,0l0.9,3l-1.1,0v2.9l6.6,0v-2.9l-1.1,0L66.1,138.1z M81.5,151.5l-1.7,0l0-10.2l2.3,0l0,2.5l2.6,0l0-5.7
			H70.4l0,5.7l2.6,0l0-2.5l2.3,0l0,10.2l-1.6,0v2.9l7.8,0V151.5z M93.4,154.7c5.5,0,8-4.3,8-8.5c0-4.2-2.5-8.4-8-8.4
			c-5.5,0-8,4.2-8,8.5C85.4,150.5,87.9,154.7,93.4,154.7 M93.4,141.5c1.9,0,3.6,1.6,3.6,4.7c0,3.1-1.7,4.8-3.6,4.8
			c-1.8,0-3.6-1.6-3.6-4.8C89.8,143.1,91.5,141.5,93.4,141.5 M102.1,154.4l6.7,0l0-2.9h-1.3l0-3.1l1,0c1.8,0,2.1,0.9,2.1,2.5v3.5
			l5.3,0v-2.9l-1.2,0l0-1.5c0-1.8-0.4-3-2.7-3.5l0-0.1c1.5-0.3,3-1.4,3-3.9c0-3-2.3-4.5-6.5-4.4l-6.4,0l0,2.9h1.3l0,10.5l-1.3,0
			L102.1,154.4z M110.8,143.1c0,1.4-0.8,2.3-2.3,2.3l-1,0l0-4.5l1,0C110.2,140.9,110.8,141.6,110.8,143.1 M123.5,145.6l1.3-4.6
			l0.1,0l1.4,4.6L123.5,145.6z M128.1,138.1l-7.9,0v2.5l1.2,0l-3.4,11h-1.1l0,2.9l6.2,0v-2.9l-1.1,0l0.8-3h4.3l0.9,3h-1.1v2.9l6.6,0
			l0-2.9h-1.1L128.1,138.1z M140.6,141c2.5,0,4.1,1.3,4.1,4.9c0,4.2-1.7,5.5-4.2,5.5l-0.4,0l0-10.4L140.6,141z M134.4,138.1l0,2.9
			h1.3l0,10.6h-1.3v2.9l6.4,0c4.9,0,8.2-2.8,8.2-8.4c0-5.3-3.3-7.9-8.1-7.9L134.4,138.1z M149.8,154.4l12.2,0l0-5.3l-2.7,0v2.4h-3.8
			l0-3.5l3,0l0-3h-3l0-4h3.8v2.4l2.7,0l0-5.3h-12.2l0,2.9h1.3v10.6h-1.3L149.8,154.4z M46.8,145.4l0,3h2.8v2.3
			c-0.6,0.3-1,0.4-1.7,0.4c-2.7,0-4.5-2.1-4.5-4.8c0-2.6,1.8-4.5,4.2-4.5c2.3,0,3.1,1,3.4,1.4l2.6,0l0-5.4h-2.6l0,0.8
			c-1-0.4-2.2-0.6-3.4-0.6c-5.1,0-8.8,3.6-8.8,8.6c0,4.9,3.5,8.2,8.7,8.2c2.4,0,4.6-0.7,6.4-1.9l0-7.4L46.8,145.4z"/>
		<path fill="#FFFFFF" d="M136.6,50.7c-0.3,0.3-0.7,0.5-1.1,0.5c-0.4,0-0.8-0.2-1.1-0.5c-0.3-0.3-0.5-0.7-0.5-1.1
			c0-0.4,0.2-0.8,0.5-1.1c0.3-0.3,0.7-0.5,1.1-0.5c0.4,0,0.8,0.2,1.1,0.5c0.3,0.3,0.5,0.7,0.5,1.1C137.1,50,137,50.4,136.6,50.7
			 M134.5,48.6c-0.3,0.3-0.4,0.6-0.4,1c0,0.4,0.1,0.7,0.4,1c0.3,0.3,0.6,0.4,1,0.4c0.4,0,0.7-0.1,1-0.4c0.3-0.3,0.4-0.6,0.4-1
			c0-0.4-0.1-0.7-0.4-1c-0.3-0.3-0.6-0.4-1-0.4C135.1,48.2,134.8,48.4,134.5,48.6 M135.5,48.7c0.2,0,0.4,0,0.5,0.1
			c0.2,0.1,0.3,0.2,0.3,0.4c0,0.2-0.1,0.3-0.2,0.3c-0.1,0-0.1,0.1-0.3,0.1c0.1,0,0.2,0.1,0.3,0.2c0.1,0.1,0.1,0.2,0.1,0.3v0.1
			c0,0,0,0.1,0,0.1c0,0,0,0.1,0,0.1l0,0h-0.3c0,0,0,0,0,0c0,0,0,0,0,0l0-0.1v-0.1c0-0.2-0.1-0.3-0.2-0.4c-0.1,0-0.2-0.1-0.3-0.1
			h-0.2v0.7h-0.3v-1.8H135.5z M135.8,49c-0.1,0-0.2-0.1-0.4-0.1h-0.3v0.6h0.3c0.1,0,0.2,0,0.3,0c0.1,0,0.2-0.1,0.2-0.3
			C135.9,49.1,135.9,49,135.8,49"/>
		<path fill="#FFFFFF" d="M111.4,86.4l-14.9,15.2h16.8v11.7c-3.2,1.3-5.2,1.8-8.5,1.8c-5.3,0-10.2-1.7-14-4.6c0,0-1.1-0.8-2.2-1.9
			c-1.1-1.1-1.7-1.9-1.7-1.9c-3-4.1-4.9-9.9-4.9-15.8c0-12.9,8.8-22.4,20.9-22.4c3,0,5.8,0.4,8.4,1.4l3.4,1.3l-1.2,4.7h6.8l0.9-0.4
			H133V48.2h-12.9v4c-5.2-2-10.8-3-17.1-3c-25.7,0-44.3,17.9-44.3,43.1c0,24.4,17.8,41.4,43.4,41.4c12.1,0,22.9-3.3,32.3-9.8l0-37.4
			H111.4z"/>
		<polygon fill="none" stroke="#DD9851" stroke-width="1.4162" stroke-miterlimit="6" points="100.1,76.1 119.8,69.6 112.6,78.2 
			120.4,75.5 88.8,108.1 97.8,85.4 92.7,87.4 		"/>
		<path fill="#FFFFFF" d="M136.6,50.7c-0.3,0.3-0.7,0.5-1.1,0.5c-0.4,0-0.8-0.2-1.1-0.5c-0.3-0.3-0.5-0.7-0.5-1.1
			c0-0.4,0.2-0.8,0.5-1.1c0.3-0.3,0.7-0.5,1.1-0.5c0.4,0,0.8,0.2,1.1,0.5c0.3,0.3,0.5,0.7,0.5,1.1C137.1,50,137,50.4,136.6,50.7
			 M134.5,48.6c-0.3,0.3-0.4,0.6-0.4,1c0,0.4,0.1,0.7,0.4,1c0.3,0.3,0.6,0.4,1,0.4c0.4,0,0.7-0.1,1-0.4c0.3-0.3,0.4-0.6,0.4-1
			c0-0.4-0.1-0.7-0.4-1c-0.3-0.3-0.6-0.4-1-0.4C135.1,48.2,134.8,48.4,134.5,48.6 M135.5,48.7c0.2,0,0.4,0,0.5,0.1
			c0.2,0.1,0.3,0.2,0.3,0.4c0,0.2-0.1,0.3-0.2,0.3c-0.1,0-0.1,0.1-0.3,0.1c0.1,0,0.2,0.1,0.3,0.2c0.1,0.1,0.1,0.2,0.1,0.3v0.1
			c0,0,0,0.1,0,0.1c0,0,0,0.1,0,0.1l0,0h-0.3c0,0,0,0,0,0c0,0,0,0,0,0l0-0.1v-0.1c0-0.2-0.1-0.3-0.2-0.4c-0.1,0-0.2-0.1-0.3-0.1
			h-0.2v0.7h-0.3v-1.8H135.5z M135.8,49c-0.1,0-0.2-0.1-0.4-0.1h-0.3v0.6h0.3c0.1,0,0.2,0,0.3,0c0.1,0,0.2-0.1,0.2-0.3
			C135.9,49.1,135.9,49,135.8,49"/>
		<polygon fill="none" stroke="#DD9851" stroke-width="1.4162" stroke-miterlimit="6" points="100.1,76.1 119.8,69.6 112.6,78.2 
			120.4,75.5 88.8,108.1 97.8,85.4 92.7,87.4 		"/>
		<polygon fill="#C34043" points="90.8,102.9 115.9,77.1 120.4,75.5 88.8,108.1 		"/>
		<polygon fill="none" stroke="#C34043" stroke-width="1.4162" stroke-miterlimit="6" points="90.8,102.9 115.9,77.1 120.4,75.5 
			88.8,108.1 		"/>
		<path fill="#2F251B" d="M84.1,116.3c1.4-3.6,11.1-28,11.1-28l-6.4,2.4l10.4-15.9l26.5-8.8l-7.1,8.6l8.9-3.1L84.1,116.3 M92.7,87.4
			l5.1-2l-9,22.7l31.6-32.6l-7.8,2.7l7.2-8.6l-19.7,6.5L92.7,87.4z"/>
	</g>
	<g>
		<polygon fill="none" stroke="#C34043" stroke-width="1.0414" stroke-miterlimit="6" points="90.9,102.8 115.8,77.1 120.3,75.5 
			88.9,107.9 		"/>
		<polygon fill="none" stroke="#C34043" stroke-width="1.0414" stroke-miterlimit="6" points="108.8,79.5 112.6,78.2 119.7,69.6 
			116,70.8 		"/>
		<polygon fill="none" stroke="#C34043" stroke-width="1.0414" stroke-miterlimit="6" points="98.9,82.7 94.7,84.3 92.7,87.3 
			97.8,85.4 		"/>
		<polygon fill="#DD9851" points="100.1,76.1 119.7,69.6 112.6,78.2 120.3,75.5 88.9,107.9 97.8,85.4 92.7,87.3 		"/>
		<polygon fill="none" stroke="#DD9851" stroke-width="1.0414" stroke-miterlimit="6" points="100.1,76.1 119.7,69.6 112.6,78.2 
			120.3,75.5 88.9,107.9 97.8,85.4 92.7,87.3 		"/>
		<polygon fill="#C34043" points="98.9,82.7 94.7,84.3 92.7,87.3 97.8,85.4 		"/>
		<polygon fill="#C34043" points="108.8,79.5 112.6,78.2 119.7,69.6 116,70.8 		"/>
		<polygon fill="#C34043" points="90.9,102.8 115.8,77.1 120.3,75.5 88.9,107.9 		"/>
		<path fill="#2F251B" d="M84.2,116.1c1.4-3.6,11-27.8,11-27.8l-6.3,2.4l10.4-15.8l26.3-8.7l-7.1,8.5l8.8-3.1L84.2,116.1 M92.7,87.3
			l5.1-1.9l-8.9,22.6l31.4-32.4l-7.7,2.7l7.1-8.6l-19.6,6.5L92.7,87.3z"/>
	</g>
</g>
</svg>
