<?xml version="1.0" encoding="utf-8"?>
<!-- Generator: Adobe Illustrator 25.2.3, SVG Export Plug-In . SVG Version: 6.00 Build 0)  -->
<svg version="1.1" id="Capa_2" xmlns="http://www.w3.org/2000/svg" xmlns:xlink="http://www.w3.org/1999/xlink" x="0px" y="0px"
	 viewBox="0 0 290.4 178.3" style="enable-background:new 0 0 290.4 178.3;" xml:space="preserve">
<g>
	<g>
		<polygon points="98.1,39.7 140.1,82.1 182.4,39.7 156.7,53.5 140,69.7 123.7,53.4 		"/>
		<polygon points="115.5,42.5 140.2,67.5 165,42.5 140.2,59.5 		"/>
		<polygon points="53.8,96.5 53.8,123.1 48.2,117.8 48.2,109.6 20.6,109.6 20.7,123.1 15.1,117.8 15.1,90.5 20.7,95.7 20.6,104 
			48.2,104.1 48.2,90.5 		"/>
		<g>
			<path d="M87.4,90.7h6.3h19.5c3.6,0,6.6,2.9,6.6,6.6v6c0,3.6-2.9,6.6-6.6,6.6l-6.1,0l-7.7,0H86.8v8.3l-5.6,5.4v-19.2H94h19.1
				c0.5,0,0.9-0.4,0.9-0.9v-6c0-0.5-0.4-0.9-0.9-0.9H81.9L87.4,90.7z"/>
			<polygon points="70.5,116.4 70.5,123.1 65,123.1 65,105.8 48.3,88.4 56.1,88.4 61.4,94 67.7,100.8 74.2,94 79.5,88.4 87.3,88.4 
				70.5,105.8 			"/>
			<path d="M187.1,138.6l-27-29l6.1,0c3.6,0,6.5-2.9,6.5-6.5v-6c0-3.6-2.9-6.5-6.5-6.6h-34.4h-3.9c-3.6,0-6.5,2.9-6.5,6.5v19.5
				c0,3.6,2.9,6.5,6.5,6.5h35l-5.2-5.6h-29.8c-0.5,0-0.9-0.4-0.9-0.9v-7h23.2l-5.2-5.6h-18v-6.9c0-0.5,0.4-0.9,0.9-0.9h9.3h29.1
				c0.5,0,0.9,0.4,0.9,0.9v6c0,0.5-0.4,0.9-0.9,0.9l-19.1,0L187.1,138.6z"/>
			<path d="M258.2,92l4.8,5.2h-29.6c-0.5,0-0.9,0.4-0.9,0.9v6.4h25.6l4.8,5.2h-30.4v6.4c0,0.5,0.4,0.9,0.9,0.9h24.8l4.8,5.2h-29.6
				c-3.3,0-6-2.7-6-6V98c0-3.3,2.7-6,6-6L258.2,92 M258.7,90.8h-0.5h-24.8c-4,0-7.2,3.2-7.2,7.2v18c0,4,3.2,7.2,7.2,7.2H263h2.6
				l-1.8-1.9l-4.8-5.2l-0.3-0.4h-0.5h-24.4v-5H263h2.6l-1.8-1.9l-4.8-5.2l-0.3-0.4h-0.5h-24.4v-5h29.3h2.6l-1.8-1.9l-4.8-5.2
				L258.7,90.8z"/>
			<path d="M217.5,91.9l4.8,5.2h-29.6c-0.5,0-0.9,0.4-0.9,0.9v18c0,0.5,0.4,0.9,0.9,0.9h24.8l4.8,5.2h-29.6c-3.3,0-6-2.7-6-6v-18
				c0-3.3,2.7-6,6-6L217.5,91.9 M218,90.7h-0.5h-24.8c-4,0-7.2,3.2-7.2,7.2v18c0,4,3.2,7.2,7.2,7.2h29.6h2.6l-1.8-1.9l-4.8-5.2
				l-0.3-0.4h-0.5H193V98.2h29.3h2.6l-1.8-1.9l-4.8-5.2L218,90.7z"/>
			<path d="M181.8,121.9h-5.2V91.8h5.2V121.9z M182.9,90.7h-1.1h-5.2h-1.1v1.1v30.1v1.1h1.1h5.2h1.1v-1.1V91.8V90.7z"/>
			<path d="M268,94.6c0-2.1,1.6-3.7,3.6-3.7c2,0,3.6,1.6,3.6,3.7c0,2.1-1.6,3.7-3.6,3.7S268,96.7,268,94.6 M274.7,94.6
				c0-1.8-1.3-3.2-3-3.2c-1.7,0-3,1.3-3,3.2c0,1.8,1.3,3.2,3,3.2C273.4,97.8,274.7,96.5,274.7,94.6 M270.3,92.6h1.8
				c0.7,0,1.2,0.5,1.2,1.1c0,0.4-0.2,0.8-0.7,0.9l0,0c0.4,0.1,0.6,0.3,0.6,0.8c0,0.6,0,0.9,0.2,1v0h-0.8c-0.1,0-0.1-0.5-0.2-0.9
				c0-0.4-0.2-0.7-0.8-0.7H271v1.6h-0.8V92.6z M271,94.4h0.9c0.4,0,0.7-0.2,0.7-0.6c0-0.3-0.2-0.6-0.7-0.6H271V94.4z"/>
		</g>
	</g>
</g>
</svg>
