<?xml version="1.0" encoding="utf-8"?>
<!-- Generator: Adobe Illustrator 23.1.1, SVG Export Plug-In . SVG Version: 6.00 Build 0)  -->
<svg version="1.2" baseProfile="tiny" id="Capa_1" xmlns="http://www.w3.org/2000/svg" xmlns:xlink="http://www.w3.org/1999/xlink"
	 x="0px" y="0px" viewBox="0 0 200 200" xml:space="preserve">
<g>
	<g>
		<polygon fill="#FFFFFF" points="69,67 96.2,94.4 123.5,67 106.9,75.9 96.2,86.4 85.6,75.8 		"/>
		<polygon fill="#FFFFFF" points="80.3,68.8 96.2,85 112.3,68.8 96.3,79.8 		"/>
		<polygon fill="#FFFFFF" points="40.4,103.7 40.4,120.9 36.8,117.5 36.8,112.2 19,112.2 19,120.9 15.4,117.5 15.4,99.8 19,103.2 
			19,108.5 36.8,108.6 36.8,99.8 		"/>
		<g>
			<path fill="#FFFFFF" d="M62.1,99.9h4.1h12.6c2.4,0,4.2,1.9,4.2,4.2v3.9c0,2.3-1.9,4.2-4.2,4.2l-4,0l-5,0h-8.1v5.4l-3.6,3.5v-12.4
				h8.3h12.4c0.3,0,0.6-0.3,0.6-0.6v-3.9c0-0.3-0.3-0.6-0.6-0.6H58.6L62.1,99.9z"/>
			<polygon fill="#FFFFFF" points="51.2,116.5 51.2,120.9 47.6,120.9 47.6,109.7 36.9,98.5 41.9,98.5 45.3,102.1 49.4,106.5 
				53.6,102.1 57,98.5 62.1,98.5 51.2,109.7 			"/>
			<path fill="#FFFFFF" d="M126.6,130.9l-17.5-18.7l4,0c2.3,0,4.2-1.9,4.2-4.2v-3.8c0-2.3-1.9-4.2-4.2-4.2H90.8h-2.5
				c-2.3,0-4.2,1.9-4.2,4.2v12.6c0,2.3,1.9,4.2,4.2,4.2h22.6l-3.4-3.6H88.3c-0.3,0-0.6-0.3-0.6-0.6v-4.5h15l-3.4-3.6H87.6v-4.5
				c0-0.3,0.3-0.6,0.6-0.6h6H113c0.3,0,0.6,0.3,0.6,0.6v3.8c0,0.3-0.3,0.6-0.6,0.6l-12.3,0L126.6,130.9z"/>
			<path fill="#FFFFFF" d="M172.5,100.8l3.1,3.3h-19.1c-0.3,0-0.5,0.2-0.5,0.5v4.2h16.5l3.1,3.4h-19.7v4.2c0,0.3,0.2,0.5,0.5,0.5h16
				l3.1,3.3h-19.1c-2.1,0-3.9-1.7-3.9-3.9v-11.6c0-2.1,1.7-3.9,3.9-3.9L172.5,100.8 M172.8,100h-0.3h-16c-2.6,0-4.6,2.1-4.6,4.6
				v11.6c0,2.6,2.1,4.6,4.6,4.6h19.1h1.7l-1.2-1.3l-3.1-3.3l-0.2-0.2h-0.3h-15.8v-3.2h18.9h1.7l-1.2-1.3l-3.1-3.4l-0.2-0.2h-0.3
				h-15.8v-3.2h18.9h1.7l-1.2-1.3l-3.1-3.3L172.8,100z"/>
			<path fill="#FFFFFF" d="M146.2,100.7l3.1,3.3h-19.1c-0.3,0-0.5,0.2-0.5,0.5v11.7c0,0.3,0.2,0.5,0.5,0.5h16l3.1,3.3h-19.1
				c-2.1,0-3.9-1.7-3.9-3.9v-11.7c0-2.1,1.7-3.9,3.9-3.9L146.2,100.7 M146.5,99.9h-0.3h-16c-2.6,0-4.6,2.1-4.6,4.6v11.7
				c0,2.6,2.1,4.6,4.6,4.6h19.1h1.7l-1.2-1.3l-3.1-3.3l-0.2-0.2h-0.3h-15.8v-11.3h18.9h1.7l-1.2-1.3l-3.1-3.3L146.5,99.9z"/>
			<path fill="#FFFFFF" d="M123.1,120.1h-3.4v-19.4h3.4V120.1z M123.8,99.9h-0.7h-3.4H119v0.7v19.4v0.7h0.7h3.4h0.7v-0.7v-19.4V99.9
				z"/>
			<path fill="#FFFFFF" d="M178.9,102.5c0-1.4,1-2.4,2.4-2.4c1.3,0,2.4,1,2.4,2.4s-1,2.4-2.4,2.4
				C179.9,104.9,178.9,103.8,178.9,102.5 M183.1,102.5c0-1.2-0.8-2-1.9-2c-1.1,0-1.9,0.9-1.9,2s0.8,2,1.9,2
				C182.3,104.5,183.1,103.7,183.1,102.5 M180.3,101.2h1.2c0.5,0,0.8,0.3,0.8,0.7c0,0.3-0.2,0.5-0.5,0.6l0,0
				c0.2,0.1,0.4,0.2,0.4,0.5c0,0.4,0,0.6,0.1,0.7v0h-0.5c-0.1,0-0.1-0.3-0.1-0.6c0-0.3-0.2-0.4-0.5-0.4h-0.4v1h-0.5V101.2z
				 M180.8,102.3h0.5c0.3,0,0.4-0.2,0.4-0.4c0-0.2-0.2-0.4-0.4-0.4h-0.5V102.3z"/>
		</g>
	</g>
</g>
</svg>
