<?xml version="1.0" encoding="utf-8"?>
<!-- Generator: Adobe Illustrator 23.1.1, SVG Export Plug-In . SVG Version: 6.00 Build 0)  -->
<svg version="1.2" baseProfile="tiny" id="Capa_1" xmlns="http://www.w3.org/2000/svg" xmlns:xlink="http://www.w3.org/1999/xlink"
	 x="0px" y="0px" viewBox="0 0 200 200" xml:space="preserve">
<g>
	<path fill-rule="evenodd" fill="#FFFFFF" d="M159.9,102.7c-2.7,0-4.2,0-6.9,0c-1.3,0-1.9-1.1-1.9-2.2c0-1.8-0.2-3-0.2-4.8
		c0-0.8-0.6-1.1-1.2-1.5c-1.8,0-2.7,0-4.5,0c-5.1,0-3.7-2.3-3-4.9c0.4-1.6,0.4-3.2-1-4.2c-2.5-1.7-6.6,1.3-8-1.3
		c-1.2-2.3,1-4.5-0.2-6.8c-0.8-1.5-3.1-1.5-5-1.5c-1.7,0-2.2,1.3-2.2,3c0,2-1,3-1,4.9c-0.3,0.5-0.7,0.9-1.4,0.9
		c-1.7,0-2.4-0.3-2.4-1.9c0-1.2,0.7-2.3,1.4-3.2c0-1.5,0-2.3,0-3.9c0-2.9-1.3-4.6,6.4-4.2c1.4,0.1,2.8,0.2,4.2,0.2
		c5.4,0,4.7,3.5,4.6,7c0,4.5,8.3,1.7,8.3,5.4c0,1.6,0,2.5,0,4.1c0,4,8.4,0.3,10.2,3.9c0.9,1.9-0.1,3.6,1,5.4
		c0.9,1.4,2.8,0.6,4.6,0.6c1.4,0,2.4,0.6,3.8,0.6c0,1.8,0.1,2.8,0.1,4.6c0,3,1.3,7.3,1.6,7.6c0.5,0.5-0.5,0.6-1.2,1
		c-0.4,2.1-1.5,0.8-1.6,1.4c-0.2,1.4-0.7,1.6-0.8,1.2C160.3,103.7,162.4,102.8,159.9,102.7z"/>
	<path fill-rule="evenodd" fill="#FFFFFF" d="M36.5,123c-1.9,0-3.9-1.4-3.9-3.2c0-1.4,1.2-2.1,2.3-3c3.5-2.8,6.2-4.3,10.8-4.3
		c5.4,0,7.2,3.9,12.5,5.6c2.5,0.8,4.4-3.9,11-4.3c9.1-0.6,6.6,4.7,11.2,4.7c4.7,0,8.3-4.7,13-4.7c2.7,0,5.1,0.5,6.4,2.7
		c1.7,2.7,2.3,4.2,4.6,3.1c5.9-2.9,6.3-2.7,10.6-2.7c2.3,0,4.2,1.9,6.4,2.3c2.4,0.5,4.6-0.4,4.6,1.9c0,1.8-1.6,1.4-3.5,1.2
		c-6.6-1-5.5-2.1-9.5-2.1c-4.5,0-8.6,3.5-13,3.5c-3.6,0-2.4-3.7-6-3.7c-4.6,0-7,2.1-11.6,4.1c-1.7,0.7-3.6,1.1-4.8-0.2
		c-1.9-2.1-3-3.5-5.4-2.9c-4.5,1.2-7.3,2.3-11.4,3.5c-3.7,0-6.5,0.3-8.9-2.4c-1.4-1.6-2.3-3.5-4.5-3.5C42.4,118.7,41.3,123,36.5,123
		z"/>
	<g>
		<path fill-rule="evenodd" fill="#FFFFFF" d="M61.5,95.4c0.7,0.8,1.4,1.6,2,2.2c0-4-0.1-5.6-0.1-6.3c-0.2,0-0.5,0-0.9,0h-1.2v-3.2
			l1.2,0.1c1,0,1.8,0.1,2.6,0.1c0.7,0,1.7,0,2.9-0.1h1.2v3.1h-1.1c-0.4,0-0.6,0-0.8,0c0,0.3-0.1,0.9-0.1,1.8c0,1.5,0,2.4,0,2.9
			c0,0.4,0,0.8,0,1.2c0.7-0.7,1.3-1.5,2-2.2c0.1-0.5,0.2-1,0.4-1.4c0.4-1,1-1.9,1.8-2.6c0.7-0.7,1.6-1.3,2.5-1.8
			c0.3-0.2,0.7-0.3,1-0.4c1.2-1.3,2.2-2.4,3.4-3.6c6.3-5.9,7-10.3,15.1-13.8c1.6-0.7,1.6,0,3,1c4,2.7,4.9,4.4,7.3,7.6
			c3.5,4.6,5.7,7.9,9.7,11.4l0.8-2c-1-2.1-2.5-4.8-3.1-6.8c2.6,3.3,3.3,2.5,6,5.6h0.8l1.1,2.4c0.6,0.9,1.4,1.9,2.2,3.2
			c2,3,5.6,6.2,7.5,6.9c0-0.1,0-0.2,0-0.3v-1.5c-1-1.8-2-3.4-3.1-4.8h-2.3V93c0-0.8,0-1.6,0-2.1c-3-3.4-6.4-6.5-9.7-11.2
			c-2.9-4.1-6.5-6.5-9.9-10.9c-1.8-2.3-1.8-3.4-4.5-6.1c-1.5-1.4-3.1-0.5-5.3-0.5s-2.9-0.7-4.6,0.5c-2.1,1.5-3.8,2.6-5.8,4.3
			c-6.8,5.8-10.3,9.3-16.9,15.8c-3.5,3.4-6,5.9-8.4,8.5C59,92.6,60.2,93.9,61.5,95.4z"/>
		<path fill-rule="evenodd" fill="#FFFFFF" d="M49.8,102.6c0.4,0,0.7,0,0.9,0c0-0.3,0.1-0.8,0.1-1.6c0-0.3,0-0.7,0-1.2
			c-0.2,0.3-0.5,0.6-0.8,1c-0.5,0.7-1,1.3-1.5,1.8h0.8l0,0H49.8z"/>
		<path fill-rule="evenodd" fill="#FFFFFF" d="M49.9,105.7h-0.6l0,0H49h-0.3l0,0h-0.6c-0.8,0-1.5,0-2.3-0.1
			c-1.2,1.3-2.3,2.8-3.6,4.8c-0.3,0.5,0.6,0.9,1.3,0.9c4.1,0,6-3.3,8.5-5.7C51.4,105.7,50.7,105.7,49.9,105.7z"/>
		<path fill-rule="evenodd" fill="#FFFFFF" d="M54.5,95.8v2.4c0,1.1,0,2.3,0.1,3.5c0,0.4,0,0.7,0,0.9c0.3,0,0.5,0,0.6,0h0.1l1.3-0.1
			v0.8c0.2,0,0.4,0,0.7,0l4.1,0.1C59.4,101.4,57.2,98.8,54.5,95.8z"/>
	</g>
	<g>
		<path fill="#FFFFFF" d="M48.1,89.2v1c-0.8,0-1.3,0.1-1.4,0.1c-0.1,0-0.3,0.1-0.3,0.1c-0.1,0-0.1,0.1-0.1,0.2
			c-0.1,0.1-0.1,0.4-0.1,0.7c0,0.2,0,0.5,0,1.1c0,1.8,0,2.8,0,2.9v4.4v2c0,0.8,0,1.2,0.1,1.5c0,0.1,0.1,0.2,0.2,0.2
			c0.1,0.1,0.2,0.1,0.4,0.1s0.6,0.1,1.4,0.1v1c-1.3,0-2.6-0.1-4.1-0.1c-1.3,0-2.4,0-3.3,0.1v-1c0.8,0,1.3-0.1,1.4-0.1
			c0.2,0,0.3-0.1,0.3-0.1c0.1-0.1,0.1-0.1,0.1-0.2c0-0.1,0.1-0.4,0.1-1c0.1-0.9,0.1-1.7,0.1-2.4v-4.6c0-1.5,0-2.4,0-2.8
			c0-0.9-0.1-1.5-0.1-1.7c0-0.1-0.1-0.2-0.1-0.2c0-0.1-0.1-0.1-0.3-0.1c-0.1,0-0.6-0.1-1.5-0.1v-1c1,0,2.1,0.1,3.4,0.1
			C45.5,89.3,46.9,89.3,48.1,89.2L48.1,89.2z"/>
		<path fill="#FFFFFF" d="M49.8,103.7c0.9,0,1.4-0.1,1.6-0.1c0.1,0,0.2-0.1,0.2-0.1c0.1-0.1,0.1-0.2,0.2-0.4c0-0.3,0.1-1,0.2-2
			c0-0.6,0-1.4,0-2.4v-3.5V92c0-0.5,0-0.9-0.1-1c0-0.2-0.1-0.3-0.2-0.4c-0.1-0.1-0.2-0.1-0.4-0.2c-0.2,0-0.7-0.1-1.5-0.1v-0.9
			c1,0,1.7,0.1,2.2,0.1h1.7h1.1c1.6,2,3.5,4.2,5.8,6.8c1.6,1.9,3,3.3,4.1,4.4v-2.8c0-3.9,0-6.3-0.1-7c0-0.3-0.1-0.4-0.2-0.5
			c-0.2-0.1-0.8-0.2-1.8-0.2v-0.9c1,0,1.8,0.1,2.6,0.1s1.8,0,3-0.1v0.9c-1,0-1.5,0.1-1.7,0.2c-0.1,0-0.1,0.1-0.1,0.2
			c-0.1,0.4-0.2,1.2-0.2,2.5s0,2.3,0,2.9c0,4.9,0,7.8,0.2,8.9H66c-0.7-0.1-1.3-0.2-2-0.3c-2.5-2.6-6.1-6.6-10.7-11.9v5.5
			c0,1.1,0,2.3,0.1,3.6c0,0.8,0.1,1.4,0.1,1.5c0,0.1,0.1,0.2,0.2,0.2c0.1,0.1,0.2,0.1,0.4,0.1c0.5,0.1,0.9,0.1,1.1,0.1
			c0,0,0.1,0,0.2,0v0.9c-1.5,0-2.3,0-2.5,0c-0.8,0-1.8,0-3.1,0.1L49.8,103.7L49.8,103.7z"/>
		<path fill="#FFFFFF" d="M85.9,93.7H85c0-0.2,0-0.6,0-1c0-0.3-0.1-0.6-0.1-0.8c-0.2-0.2-0.4-0.4-0.6-0.5c-0.5-0.3-1.1-0.6-1.8-0.8
			c-0.7-0.2-1.4-0.3-2.2-0.3c-1.9,0-3.5,0.6-4.7,1.7c-1.2,1.1-1.8,2.7-1.8,4.7c0,2.2,0.6,3.9,1.8,5.2s2.7,1.9,4.5,1.9
			c0.5,0,1-0.1,1.5-0.2c0.5-0.1,1-0.3,1.5-0.5c0-0.2,0-0.6,0.1-1.1c0-0.6,0-0.9,0-1c0-0.7,0-1.1-0.1-1.3c0-0.1-0.2-0.1-0.3-0.2
			c-0.3-0.1-1-0.1-2.2-0.2v-0.9h3.5h3.5v0.7c-0.4,0.1-0.7,0.2-0.9,0.4c-0.1,0.1-0.1,0.3-0.1,0.6c0,0.8-0.1,1.4-0.1,1.8
			c0,0.6,0,1.1,0.1,1.7c-1.4,0.5-2.7,0.8-3.8,1.1c-1.1,0.2-2.1,0.3-3.2,0.3c-1.7,0-3.3-0.3-4.6-0.8c-0.9-0.4-1.7-0.9-2.4-1.5
			c-0.7-0.6-1.2-1.3-1.5-2c-0.6-1.1-0.8-2.4-0.8-3.7c0-1.2,0.2-2.2,0.5-3c0.4-0.9,0.9-1.6,1.5-2.2c0.6-0.6,1.4-1.2,2.2-1.6
			c0.8-0.4,1.7-0.7,2.6-0.9c0.9-0.2,1.9-0.3,3-0.3c1.3,0,2.6,0.1,3.7,0.3c1.1,0.2,2,0.5,2.7,0.8l0.1,0.2
			C86.2,90.9,86.1,92.1,85.9,93.7L85.9,93.7z"/>
		<path fill="#FFFFFF" d="M89.4,90.2v-0.9l3.8,0.1h1.6h1.6h0.4v0.9c-0.8,0-1.4,0.1-1.6,0.2c-0.1,0.1-0.2,0.2-0.2,0.4
			c-0.1,0.5-0.2,1.5-0.2,3v2.5v1.3c0,1.3,0,2.2,0,2.5c0.1,0.7,0.3,1.2,0.5,1.7c0.3,0.4,0.7,0.8,1.4,1c0.6,0.3,1.4,0.4,2.3,0.4
			c1.1,0,1.9-0.2,2.6-0.5c0.6-0.4,1.1-0.8,1.4-1.4c0.3-0.6,0.4-1.6,0.4-3.2V96c0-1.9,0-3.1,0-3.5c0-0.9-0.1-1.5-0.2-1.7
			c-0.1-0.1-0.1-0.2-0.3-0.3c-0.3-0.1-0.8-0.2-1.7-0.2v-0.9c1.4,0.1,2.2,0.1,2.5,0.1c0.1,0,0.2,0,0.3,0l2.6-0.1v0.9
			c-0.7,0-1.2,0.1-1.4,0.2c-0.1,0.1-0.2,0.2-0.2,0.3c-0.1,0.2-0.1,0.9-0.2,2.2c-0.1,1.3-0.1,2.4-0.1,3.1v2.6c0,0.7-0.1,1.3-0.2,2
			c-0.1,0.7-0.3,1.3-0.6,1.8c-0.3,0.5-0.7,0.9-1.3,1.3c-0.6,0.4-1.2,0.7-2,0.9s-1.7,0.3-2.7,0.3c-1.2,0-2.3-0.1-3.3-0.4
			c-0.7-0.2-1.4-0.5-1.8-0.9c-0.5-0.4-0.8-0.8-1.1-1.2c-0.3-0.5-0.4-0.9-0.5-1.3c0-0.3-0.1-1-0.1-2.1V97v-2.8c0-1,0-2-0.1-2.8
			c0-0.3-0.1-0.6-0.1-0.7c0-0.1-0.1-0.2-0.3-0.3L89.4,90.2L89.4,90.2z"/>
		<path fill-rule="evenodd" fill="#FFFFFF" d="M107.9,104.6v-0.9c0.6,0,1-0.1,1.1-0.1c0.1,0,0.2-0.1,0.3-0.2
			c0.1-0.1,0.2-0.2,0.3-0.3c0.1-0.2,0.4-0.7,0.8-1.7c0.2-0.5,0.6-1.4,1.2-2.7l3-7.1l1-2.5h1.7l5.2,11.5l0.7,1.5l0.5,1
			c0.1,0.1,0.2,0.2,0.2,0.3c0.1,0.1,0.1,0.1,0.2,0.1c0.1,0,0.3,0.1,0.7,0.1c0.1,0,0.3,0,0.5,0.1v0.9l-3.2-0.1l-4.1,0.1v-0.9
			c0.9,0,1.5-0.1,1.6-0.1c0.1-0.1,0.2-0.2,0.2-0.3c0-0.2-0.1-0.5-0.3-0.9l-1-2.4h-6l-0.5,1.3c-0.4,1-0.6,1.6-0.6,1.9
			c0,0.2,0.1,0.3,0.2,0.4c0.2,0.1,0.7,0.2,1.7,0.2v0.9l-2.7-0.1H107.9L107.9,104.6z M113,98.7c0.7,0,1.6,0,2.5,0c0.9,0,1.7,0,2.4,0
			l-2.5-5.7L113,98.7L113,98.7z"/>
		<path fill="#FFFFFF" d="M127.9,104.6v-0.9c0.9,0,1.5-0.1,1.7-0.2c0.2-0.1,0.3-0.2,0.4-0.4c0.1-0.3,0.1-1.3,0.1-2.8v-6.6
			c0-1.8,0-2.8,0-3h-1.7c-0.8,0-1.6,0-2.2,0.1c-0.3,0-0.4,0.1-0.4,0.1c-0.1,0-0.1,0.2-0.1,0.4c-0.1,0.5-0.2,1.1-0.2,1.7h-1
			c0-1.5-0.1-2.3-0.1-2.5c0-0.3-0.1-0.7-0.1-1l0.1-0.1c0.4,0,0.8,0.1,1.2,0.1c0.7,0,2,0,3.9,0h4.7c2,0,3.3,0,3.9,0
			c0.4,0,0.7,0,1.1-0.1l0.1,0.1c-0.1,0.4-0.1,0.8-0.1,1.2c0,0.1,0,0.9,0,2.4h-1c0-0.6-0.1-1.1-0.2-1.6c0-0.3-0.1-0.4-0.2-0.5
			c0,0-0.2-0.1-0.4-0.1c-0.6-0.1-1.4-0.1-2.3-0.1h-1.7c0,0.3,0,1.3,0,3v6.6c0,1.6,0,2.5,0.1,2.9c0.1,0.2,0.2,0.3,0.3,0.4
			c0.2,0.1,0.7,0.1,1.7,0.2v0.9c-1.5-0.1-2.8-0.1-3.8-0.1C130.6,104.5,129.4,104.6,127.9,104.6L127.9,104.6z"/>
	</g>
</g>
<g>
	<path fill="#FFFFFF" d="M13.5,134.6c0,0.1,0,3,0,3.1c0,0.4,0.2,0.4,0.5,0.4h0.5c0,0,0.1,0,0.1,0.1v0.3c0,0.1,0,0.1-0.1,0.1
		s-0.6,0-1.8,0s-1.8,0-1.9,0c-0.1,0-0.1,0-0.1-0.1v-0.3c0,0,0-0.1,0.1-0.1h0.5c0.2,0,0.5,0,0.6-0.4c0-0.2,0-2.8,0-3.5v-0.9
		c0-0.3,0-2.5,0-2.7c0-0.3-0.2-0.4-0.5-0.4h-0.6c-0.1,0-0.1,0-0.1-0.1v-0.2c0-0.1,0-0.1,0.1-0.1s0.8,0,2,0s1.6,0,1.8,0
		c0.1,0,0.1,0,0.1,0.1v0.3c0,0.1,0,0.1-0.1,0.1h-0.5c-0.3,0-0.5,0.1-0.5,0.3c0,0.1,0,2.8,0,3L13.5,134.6L13.5,134.6z"/>
	<path fill="#FFFFFF" d="M17,133.4c0.1,0,0.2-0.1,0.2-0.1c0.1,0,0.1,0,0.1,0.1l0.1,0.6h0.1c0.1-0.2,0.4-0.4,0.6-0.5
		c0.3-0.2,0.6-0.3,1-0.3s0.8,0.1,1.1,0.3c0.5,0.4,0.7,0.8,0.7,1.3v1.8c0,0.4,0,0.9,0,1.2s0.1,0.3,0.3,0.3h0.3c0.1,0,0.1,0,0.1,0.1
		v0.3c0,0.1,0,0.1-0.1,0.1s-0.5,0-1.3,0c-0.7,0-1.1,0-1.2,0s-0.1,0-0.1-0.1v-0.2c0-0.1,0-0.1,0.1-0.1h0.2c0.1,0,0.2-0.1,0.2-0.3
		c0-0.3,0-0.7,0-1.2v-1.4c0-0.5,0-0.8-0.3-1.1c-0.2-0.2-0.5-0.2-0.7-0.2s-0.5,0-0.8,0.3c-0.2,0.2-0.3,0.5-0.3,0.9v2.5
		c0,0.3,0.1,0.4,0.2,0.4h0.2c0.1,0,0.1,0,0.1,0.1v0.2c0,0.1,0,0.1-0.1,0.1s-0.4,0-1.2,0c-0.8,0-1.2,0-1.2,0s-0.1,0-0.1-0.1v-0.2
		c0-0.1,0-0.1,0.1-0.1h0.2c0.1,0,0.3,0,0.3-0.2v-2.8c0-0.4-0.2-0.6-0.5-0.7h-0.1c-0.1,0-0.1-0.1-0.1-0.1v-0.1c0,0,0-0.1,0.1-0.1
		L17,133.4z"/>
	<path fill="#FFFFFF" d="M22.4,137C22.4,137,22.4,136.9,22.4,137l0.3-0.2h0.1l0.4,0.7c0.2,0.4,0.5,0.7,1.1,0.7
		c0.5,0,0.9-0.3,0.9-0.8s-0.3-0.7-1.2-1c-0.8-0.2-1.5-0.7-1.5-1.5c0-0.5,0.2-1,0.6-1.3s0.8-0.4,1.3-0.4c0.6,0,1,0.1,1.2,0.3
		c0.2,0.1,0.2,0.1,0.2,0.2l0.2,0.8v0.1l-0.2,0.1h-0.1l-0.6-0.7c-0.1-0.2-0.4-0.4-0.8-0.4c-0.5,0-0.9,0.3-0.9,0.7
		c0,0.5,0.4,0.7,1.1,0.9c0.6,0.1,0.9,0.3,1.2,0.6c0.3,0.3,0.4,0.6,0.4,1c0,1-0.8,1.8-2.1,1.8c-0.7,0-1.2-0.2-1.3-0.3l-0.1-0.1
		L22.4,137z"/>
	<path fill="#FFFFFF" d="M26.9,134.1c-0.1,0-0.2,0-0.2-0.2c0-0.1,0.1-0.2,0.2-0.2c0.3-0.1,1.4-1,1.7-1.6c0-0.1,0.1-0.1,0.2-0.1
		s0.1,0.1,0.1,0.2v1.2h1.6c0.1,0,0.1,0,0.1,0.1l-0.1,0.5c0,0,0,0.1-0.1,0.1h-1.5c0,0.5,0,1.1,0,1.7v1.1c0,1,0.4,1.2,0.7,1.2
		s0.5-0.1,0.7-0.1c0.1,0,0.1,0,0.1,0l0.1,0.1c0,0.1,0,0.1,0,0.2c-0.2,0.1-0.7,0.5-1.6,0.5c-0.7,0-1.3-0.6-1.3-1.1c0-0.4,0-1.4,0-1.9
		v-1.6h-0.7V134.1z"/>
	<path fill="#FFFFFF" d="M31.8,135c0-0.4-0.1-0.6-0.6-0.8c-0.1,0-0.1-0.1-0.1-0.1V134c0,0,0-0.1,0.1-0.1c0.2-0.1,1.4-0.5,1.6-0.6
		c0.1,0,0.2-0.1,0.3-0.1s0.1,0,0.1,0.1c0,0.2,0,1,0,2v1.3c0,0.5,0,0.9,0,1.1c0,0.2,0.1,0.3,0.2,0.3h0.5c0.1,0,0.1,0,0.1,0.1v0.2
		c0,0.1,0,0.1-0.1,0.1s-0.7,0-1.5,0c-0.7,0-1.2,0-1.3,0s-0.1,0-0.1-0.1v-0.2c0-0.1,0-0.1,0.1-0.1h0.5c0.1,0,0.2,0,0.2-0.2
		c0-0.4,0-0.8,0-1.1V135z M32.2,132c-0.4,0-0.8-0.3-0.8-0.7s0.4-0.8,0.9-0.8s0.8,0.4,0.8,0.7C33.1,131.6,32.8,132,32.2,132z"/>
	<path fill="#FFFFFF" d="M34.5,134.1c-0.1,0-0.2,0-0.2-0.2c0-0.1,0.1-0.2,0.2-0.2c0.3-0.1,1.4-1,1.7-1.6c0-0.1,0.1-0.1,0.2-0.1
		c0.1,0,0.1,0.1,0.1,0.2v1.2h1.6c0.1,0,0.1,0,0.1,0.1l-0.1,0.5c0,0,0,0.1-0.1,0.1h-1.5c0,0.5,0,1.1,0,1.7v1.1c0,1,0.4,1.2,0.7,1.2
		s0.5-0.1,0.7-0.1c0.1,0,0.1,0,0.1,0l0.1,0.1c0,0.1,0,0.1,0,0.2c-0.2,0.1-0.7,0.5-1.6,0.5c-0.7,0-1.3-0.6-1.3-1.1c0-0.4,0-1.4,0-1.9
		v-1.6h-0.7V134.1z"/>
	<path fill="#FFFFFF" d="M42.6,137.9L42.6,137.9c-0.3,0.4-1.1,0.8-1.7,0.8c-0.4,0-0.8,0-1.3-0.5c-0.4-0.6-0.5-1-0.5-1.7
		c0-0.6,0-1,0-1.3s0-0.7,0-0.9c0-0.3-0.2-0.4-0.4-0.4s-0.3,0-0.3-0.1v-0.2c0-0.1,0-0.1,0.1-0.1H40c0.1,0,0.1,0,0.2,0h0.1
		c0.1,0,0.1,0.1,0.1,0.1c0,0.1,0,0.7,0,1.5v0.8c0,0.5-0.1,1.3,0.2,1.9c0.2,0.4,0.5,0.3,0.8,0.3s0.7-0.2,0.9-0.5
		c0-0.1,0.1-0.2,0.1-0.4v-2.9c0-0.3-0.2-0.4-0.5-0.4c-0.2,0-0.2,0-0.2-0.1v-0.2c0-0.1,0-0.1,0.1-0.1h1.5c0.1,0,0.1,0,0.2,0
		c0.1,0,0.1,0,0.2,0c0.1,0,0.1,0.1,0.1,0.1c0,0.1-0.1,0.4-0.1,1.7v0.9c0,0.6,0,1.2,0,1.4c0,0.4,0.2,0.4,0.3,0.4s0.2,0,0.4,0
		c0.1,0,0.1,0,0.1,0v0.2c0,0.1,0,0.1-0.1,0.1l-1.5,0.4c-0.1,0-0.1,0-0.2,0c-0.1,0-0.2,0-0.2-0.1L42.6,137.9z"/>
	<path fill="#FFFFFF" d="M45.1,134.1c-0.1,0-0.2,0-0.2-0.2c0-0.1,0.1-0.2,0.2-0.2c0.3-0.1,1.4-1,1.7-1.6c0-0.1,0.1-0.1,0.2-0.1
		c0.1,0,0.1,0.1,0.1,0.2v1.2h1.6c0.1,0,0.1,0,0.1,0.1l-0.1,0.5c0,0,0,0.1-0.1,0.1h-1.5c0,0.5,0,1.1,0,1.7v1.1c0,1,0.4,1.2,0.7,1.2
		s0.5-0.1,0.7-0.1c0.1,0,0.1,0,0.1,0l0.1,0.1c0,0.1,0,0.1,0,0.2c-0.2,0.1-0.7,0.5-1.6,0.5c-0.7,0-1.3-0.6-1.3-1.1c0-0.4,0-1.4,0-1.9
		v-1.6h-0.7V134.1z"/>
	<path fill="#FFFFFF" d="M53.9,134c0.6,0.6,0.9,1.2,0.9,2c0,0.7-0.3,1.4-0.8,1.9c-0.5,0.6-1.2,0.9-2.1,0.9c-0.8,0-1.4-0.2-2-0.9
		c-0.5-0.6-0.7-1.2-0.7-1.9c0-0.6,0.3-1.5,1-2.1c0.6-0.5,1.2-0.6,1.8-0.6C52.9,133.3,53.5,133.6,53.9,134z M53.3,135.9
		c0-1.4-0.7-2.2-1.3-2.2c-0.3,0-0.6,0.1-0.8,0.3c-0.4,0.4-0.5,1-0.5,1.9c0,0.7,0,1.2,0.4,1.7c0.2,0.3,0.5,0.5,1,0.5
		C52.9,138.2,53.3,137.2,53.3,135.9z"/>
	<path fill="#FFFFFF" d="M66.8,137.3c0,0.2,0,0.3,0,0.4c0,0.1-0.1,0.1-0.2,0.2c-1,0.5-2,0.8-3.5,0.8c-1.2,0-2.7-0.4-3.6-1.4
		c-0.8-0.8-1.1-1.9-1.1-3.4c0-1.1,0.5-2.3,1.4-3.1c0.9-0.8,2-1.2,3.5-1.2c1.2,0,2.1,0.4,2.5,0.7c0.1,0.1,0.2,0.1,0.3,0l0.1-0.2
		c0.1-0.1,0.1-0.1,0.2-0.1c0.1,0,0.1,0.1,0.1,0.2l0.1,2.5c0,0.1,0,0.2,0,0.2h-0.3c-0.1,0-0.1,0-0.1-0.1c-0.2-0.5-0.5-1.2-1-1.7
		c-0.4-0.4-1.1-0.9-2.1-0.9c-0.8,0-1.4,0.2-2.1,1c-0.6,0.7-1,1.7-1,2.8c0,1.5,0.4,2.7,1.1,3.4c0.6,0.6,1.2,0.8,2,0.8
		s1.3-0.1,1.7-0.3c0.3-0.1,0.3-0.5,0.3-1.1v-0.9c0-0.4-0.1-0.6-0.4-0.6h-0.4c-0.1,0-0.1,0-0.1-0.1v-0.3c0-0.1,0-0.1,0.1-0.1
		c0.1,0,0.7,0,1.8,0c1,0,1.5,0,1.6,0c0.1,0,0.1,0,0.1,0.1v0.3c0,0.1,0,0.1-0.1,0.1h-0.4c-0.2,0-0.4,0.1-0.4,0.5v1.5H66.8z"/>
	<path fill="#FFFFFF" d="M72.6,137.9L72.6,137.9c-0.3,0.4-1.1,0.8-1.7,0.8c-0.4,0-0.8,0-1.3-0.5c-0.4-0.6-0.5-1-0.5-1.7
		c0-0.6,0-1,0-1.3s0-0.7,0-0.9c0-0.3-0.2-0.4-0.4-0.4s-0.3,0-0.3-0.1v-0.2c0-0.1,0-0.1,0.1-0.1H70c0.1,0,0.1,0,0.2,0h0.1
		c0.1,0,0.1,0.1,0.1,0.1c0,0.1,0,0.7,0,1.5v0.8c0,0.5-0.1,1.3,0.2,1.9c0.2,0.4,0.5,0.3,0.8,0.3s0.7-0.2,0.9-0.5
		c0-0.1,0.1-0.2,0.1-0.4v-2.9c0-0.3-0.2-0.4-0.5-0.4c-0.2,0-0.2,0-0.2-0.1v-0.2c0-0.1,0-0.1,0.1-0.1h1.5c0.1,0,0.1,0,0.2,0
		c0.1,0,0.1,0,0.2,0c0.1,0,0.1,0.1,0.1,0.1c0,0.1-0.1,0.4-0.1,1.7v0.9c0,0.6,0,1.2,0,1.4c0,0.4,0.2,0.4,0.3,0.4c0.1,0,0.2,0,0.4,0
		c0.1,0,0.1,0,0.1,0v0.2c0,0.1,0,0.1-0.1,0.1l-1.5,0.4c-0.1,0-0.1,0-0.2,0c-0.1,0-0.2,0-0.2-0.1L72.6,137.9z"/>
	<path fill="#FFFFFF" d="M78.1,138c-0.3,0.3-0.6,0.5-1.1,0.7c-0.3,0.1-0.5,0.1-0.8,0.1c-0.5,0-0.9-0.4-0.9-1.1
		c0-0.6,0.2-1.1,1.1-1.5c0.8-0.4,1.2-0.6,1.5-0.8v-0.6c0-0.2,0-0.5-0.2-0.7c-0.1-0.1-0.3-0.2-0.6-0.2c-0.2,0-0.5,0.1-0.7,0.2
		c-0.2,0.1,0,0.3,0,0.6c0,0.4-0.2,0.7-0.7,0.7c-0.2,0-0.4-0.1-0.4-0.4c0-0.3,0.2-0.7,0.6-1c0.5-0.4,1.2-0.7,2-0.7
		c0.7,0,0.9,0.1,1.1,0.3c0.3,0.2,0.3,0.6,0.3,0.9v2v0.6c0,0.7,0.1,0.9,0.3,0.9c0.2,0,0.3-0.1,0.4-0.2c0-0.1,0.1-0.1,0.1,0l0.1,0.1
		c0,0,0.1,0.1,0,0.2c-0.1,0.2-0.4,0.7-1.1,0.7C78.7,138.7,78.3,138.5,78.1,138L78.1,138z M78,135.8c-0.5,0.3-1.4,0.6-1.4,1.5
		c0,0.5,0.3,0.8,0.6,0.8c0.3,0,0.8-0.4,0.8-0.6V135.8z"/>
	<path fill="#FFFFFF" d="M80.7,134.1c-0.1,0-0.2,0-0.2-0.2c0-0.1,0.1-0.2,0.2-0.2c0.3-0.1,1.4-1,1.7-1.6c0-0.1,0.1-0.1,0.2-0.1
		c0.1,0,0.1,0.1,0.1,0.2v1.2h1.6c0.1,0,0.1,0,0.1,0.1l-0.1,0.5c0,0,0,0.1-0.1,0.1h-1.5c0,0.5,0,1.1,0,1.7v1.1c0,1,0.4,1.2,0.7,1.2
		c0.3,0,0.5-0.1,0.7-0.1c0.1,0,0.1,0,0.1,0l0.1,0.1c0,0.1,0,0.1,0,0.2c-0.2,0.1-0.7,0.5-1.6,0.5c-0.7,0-1.3-0.6-1.3-1.1
		c0-0.4,0-1.4,0-1.9v-1.6h-0.7V134.1z"/>
	<path fill="#FFFFFF" d="M86.1,135.8c0,1.3,0.9,2,1.6,2c0.8,0,1.2-0.3,1.5-0.7c0-0.1,0.1-0.1,0.1-0.1l0.2,0.1c0.1,0,0.1,0.1,0,0.2
		c-0.3,0.5-0.9,1.3-2.3,1.3c-0.8,0-1.3-0.2-1.8-0.7c-0.6-0.7-0.7-1.3-0.7-2s0.1-1.1,0.6-1.8s1.1-0.9,2.2-0.9c1.4,0,1.9,1.5,1.9,2
		c0,0.2-0.1,0.2-0.3,0.2h-3L86.1,135.8L86.1,135.8z M87.6,135c0.3,0,0.4-0.1,0.4-0.2c0-0.4-0.1-1.1-0.8-1.1c-0.6,0-1,0.4-1.1,1.3
		H87.6z"/>
	<path fill="#FFFFFF" d="M91.7,133.3c0.1,0,0.2-0.1,0.2-0.1c0.1,0,0.1,0,0.1,0.2l0.1,0.7l0,0c0.4-0.5,1-0.9,1.8-0.9
		c0.7,0,1.2,0.4,1.5,0.9h0.1c0.4-0.5,1-0.9,1.7-0.9c0.5,0,0.8,0.1,1.1,0.4s0.6,0.5,0.6,1.6v1.4c0,0.3,0,0.9,0,1.1
		c0,0.3,0.1,0.4,0.3,0.4h0.3c0.1,0,0.1,0,0.1,0.1v0.3c0,0.1,0,0.1-0.1,0.1c-0.1,0-0.4,0-1.2,0c-0.7,0-1.1,0-1.2,0
		c-0.1,0-0.1,0-0.1-0.1v-0.3c0-0.1,0-0.1,0.1-0.1h0.2c0.1,0,0.2-0.1,0.2-0.2c0-0.3,0-0.7,0-1.1v-1.4c0-0.6,0-0.9-0.3-1.1
		c-0.2-0.2-0.4-0.3-0.7-0.3s-0.7,0.3-0.9,0.5c-0.2,0.3-0.2,0.6-0.2,1v2.3c0,0.3,0.1,0.4,0.2,0.4h0.3c0.1,0,0.1,0,0.1,0.1v0.3
		c0,0.1,0,0.1-0.1,0.1c-0.1,0-0.4,0-1.2,0c-0.8,0-1.2,0-1.2,0c-0.1,0-0.1,0-0.1-0.1v-0.2c0-0.1,0-0.1,0.1-0.1h0.3
		c0.2,0,0.3-0.1,0.3-0.6v-2.1c0-0.9-0.1-1.2-0.3-1.3c-0.1-0.1-0.4-0.2-0.7-0.2c-0.3,0-0.7,0.1-0.9,0.5c-0.2,0.2-0.2,0.5-0.2,0.9v2.2
		c0,0.4,0.1,0.6,0.2,0.6h0.3c0.1,0,0.1,0,0.1,0.1v0.3c0,0.1,0,0.1-0.1,0.1c-0.1,0-0.4,0-1.2,0c-0.7,0-1.1,0-1.2,0
		c-0.1,0-0.1,0-0.1-0.1v-0.3c0-0.1,0-0.1,0.1-0.1h0.4c0.1,0,0.2-0.1,0.2-0.3v-0.7v-1.8c0-0.4-0.1-0.6-0.4-0.8l-0.3-0.1
		c-0.1,0-0.1-0.1-0.1-0.1v-0.1c0,0,0-0.1,0.1-0.1L91.7,133.3z"/>
	<path fill="#FFFFFF" d="M103.2,138c-0.3,0.3-0.6,0.5-1.1,0.7c-0.3,0.1-0.5,0.1-0.8,0.1c-0.5,0-0.9-0.4-0.9-1.1
		c0-0.6,0.2-1.1,1.1-1.5c0.8-0.4,1.2-0.6,1.5-0.8v-0.6c0-0.2,0-0.5-0.2-0.7c-0.1-0.1-0.3-0.2-0.6-0.2c-0.2,0-0.5,0.1-0.7,0.2
		c-0.2,0.1,0,0.3,0,0.6c0,0.4-0.2,0.7-0.7,0.7c-0.2,0-0.4-0.1-0.4-0.4c0-0.3,0.2-0.7,0.6-1c0.5-0.4,1.2-0.7,2-0.7
		c0.7,0,0.9,0.1,1.1,0.3c0.3,0.2,0.3,0.6,0.3,0.9v2v0.6c0,0.7,0.1,0.9,0.3,0.9s0.3-0.1,0.4-0.2c0-0.1,0.1-0.1,0.1,0l0.1,0.1
		c0,0,0.1,0.1,0,0.2c-0.1,0.2-0.4,0.7-1.1,0.7C103.8,138.7,103.4,138.5,103.2,138L103.2,138z M103.1,135.8c-0.5,0.3-1.4,0.6-1.4,1.5
		c0,0.5,0.3,0.8,0.6,0.8c0.3,0,0.8-0.4,0.8-0.6V135.8z"/>
	<path fill="#FFFFFF" d="M106.4,133.8c0-0.9,0-1.9,0-2.3c0-0.4-0.2-0.6-0.6-0.7l-0.2-0.1c-0.1,0-0.1,0-0.1-0.1v-0.1
		c0,0,0-0.1,0.1-0.1c0.5-0.1,1.5-0.5,1.9-0.7c0.1,0,0.2-0.1,0.3-0.1c0.1,0,0.1,0,0.1,0.2c0,0.7,0,3.2,0,3.9v1.8c0,0.6,0,1.8,0,2.2
		c0,0.2,0,0.4,0.3,0.4h0.5c0.1,0,0.1,0,0.1,0.1v0.2c0,0.1,0,0.1-0.1,0.1c-0.1,0-0.6,0-1.5,0c-0.9,0-1.4,0-1.5,0
		c-0.1,0-0.1,0-0.1-0.1v-0.2c0-0.1,0-0.1,0.2-0.1h0.5c0.1,0,0.3-0.1,0.3-0.4v-3.4v-0.5H106.4z"/>
	<path fill="#FFFFFF" d="M109,134.1c-0.1,0-0.2,0-0.2-0.2c0-0.1,0.1-0.2,0.2-0.2c0.3-0.1,1.4-1,1.7-1.6c0-0.1,0.1-0.1,0.2-0.1
		c0.1,0,0.1,0.1,0.1,0.2v1.2h1.6c0.1,0,0.1,0,0.1,0.1l-0.1,0.5c0,0,0,0.1-0.1,0.1H111c0,0.5,0,1.1,0,1.7v1.1c0,1,0.4,1.2,0.7,1.2
		s0.5-0.1,0.7-0.1c0.1,0,0.1,0,0.1,0l0.1,0.1c0,0.1,0,0.1,0,0.2c-0.2,0.1-0.7,0.5-1.6,0.5c-0.7,0-1.3-0.6-1.3-1.1c0-0.4,0-1.4,0-1.9
		v-1.6H109V134.1z"/>
	<path fill="#FFFFFF" d="M114.4,135.8c0,1.3,0.9,2,1.6,2c0.8,0,1.2-0.3,1.5-0.7c0-0.1,0.1-0.1,0.1-0.1l0.2,0.1c0.1,0,0.1,0.1,0,0.2
		c-0.3,0.5-0.9,1.3-2.3,1.3c-0.8,0-1.3-0.2-1.8-0.7c-0.6-0.7-0.7-1.3-0.7-2s0.1-1.1,0.6-1.8s1.1-0.9,2.2-0.9c1.4,0,1.9,1.5,1.9,2
		c0,0.2-0.1,0.2-0.3,0.2h-3L114.4,135.8L114.4,135.8z M116,135c0.3,0,0.4-0.1,0.4-0.2c0-0.4-0.1-1.1-0.8-1.1c-0.6,0-1,0.4-1.1,1.3
		H116z"/>
	<path fill="#FFFFFF" d="M123.2,137.6v0.1c-0.3,0.4-1.2,1-2.1,1c-0.8,0-1.5-0.2-2-0.8s-0.6-1.1-0.6-1.7c0-0.8,0.3-1.6,0.9-2.2
		c0.5-0.5,1.1-0.7,1.8-0.7c1.4,0,1.8,0.7,1.8,1.1c0,0.3-0.2,0.5-0.5,0.5c-0.4,0-0.6-0.3-0.7-0.6c-0.2-0.4-0.4-0.5-0.8-0.5
		c-0.5,0-1.1,0.6-1.1,1.4c0,0.7,0,1.2,0.5,2c0.3,0.5,0.9,0.7,1.3,0.7c0.6,0,1-0.2,1.3-0.5h0.1L123.2,137.6z"/>
	<path fill="#FFFFFF" d="M128.4,134c0.6,0.6,0.9,1.2,0.9,2c0,0.7-0.3,1.4-0.8,1.9c-0.5,0.6-1.2,0.9-2.1,0.9c-0.8,0-1.4-0.2-2-0.9
		c-0.5-0.6-0.7-1.2-0.7-1.9c0-0.6,0.3-1.5,1-2.1c0.6-0.5,1.2-0.6,1.8-0.6C127.3,133.3,127.9,133.6,128.4,134z M127.7,135.9
		c0-1.4-0.7-2.2-1.3-2.2c-0.3,0-0.6,0.1-0.8,0.3c-0.4,0.4-0.5,1-0.5,1.9c0,0.7,0,1.2,0.4,1.7c0.2,0.3,0.5,0.5,1,0.5
		C127.3,138.2,127.7,137.2,127.7,135.9z"/>
	<path fill="#FFFFFF" d="M137.8,136.5c0,0.5,0,1,0.1,1.1s0.3,0.2,0.5,0.2s0.2,0,0.2,0.1v0.1c0,0.1,0,0.1-0.1,0.1l-1.7,0.5
		c-0.1,0-0.1,0-0.2-0.1l-0.2-0.6c-0.4,0.4-1.2,0.7-1.7,0.7s-1-0.1-1.5-0.6s-0.8-1-0.8-1.8c0-0.9,0.2-1.5,0.9-2.2
		c0.5-0.5,1.1-0.8,1.8-0.8c0.5,0,0.9,0.1,1.2,0.2V131c0-0.4-0.1-0.6-0.8-0.7c-0.1,0-0.1,0-0.1-0.1V130c0,0,0-0.1,0.1-0.1
		c0.6-0.1,1.4-0.1,1.8-0.2c0.1,0,0.2,0,0.3,0c0,0,0.1,0.1,0.1,0.2c0,0.6,0,2.4,0,4L137.8,136.5L137.8,136.5z M136.5,134.9
		c0-0.2,0-0.4-0.1-0.6c-0.2-0.3-0.6-0.6-1.1-0.6c-0.3,0-0.6,0.1-0.9,0.4c-0.4,0.5-0.5,1-0.5,1.5c0,1.4,0.8,2.4,1.5,2.4
		c0.5,0,0.8-0.2,0.9-0.4c0.1-0.1,0.1-0.3,0.1-0.5v-2.2H136.5z"/>
	<path fill="#FFFFFF" d="M140.5,135.8c0,1.3,0.9,2,1.6,2c0.8,0,1.2-0.3,1.5-0.7c0-0.1,0.1-0.1,0.1-0.1l0.2,0.1c0.1,0,0.1,0.1,0,0.2
		c-0.3,0.5-0.9,1.3-2.3,1.3c-0.8,0-1.3-0.2-1.8-0.7c-0.6-0.7-0.7-1.3-0.7-2s0.1-1.1,0.6-1.8s1.1-0.9,2.2-0.9c1.4,0,1.9,1.5,1.9,2
		c0,0.2-0.1,0.2-0.3,0.2h-3V135.8z M142,135c0.3,0,0.4-0.1,0.4-0.2c0-0.4-0.1-1.1-0.8-1.1c-0.6,0-1,0.4-1.1,1.3H142z"/>
	<path fill="#FFFFFF" d="M149.8,130.3h-0.3c-0.4,0-1.3,0-1.8,0.2c-0.4,0.2-0.9,1-1.1,1.4c0,0.1-0.1,0.1-0.1,0.1l-0.2-0.1
		c0,0-0.1-0.1,0-0.1c0.1-0.5,0.5-2.1,0.6-2.3c0-0.2,0.1-0.2,0.1-0.2c0.1,0,0.1,0,0.2,0.1c0.2,0.2,0.5,0.3,0.8,0.3
		c0.7,0,1.2,0.1,2.4,0.1h0.7c1.4,0,1.9,0,2.5-0.1c0.2,0,0.7-0.2,0.9-0.3c0.1-0.1,0.1-0.1,0.2-0.1s0.1,0,0.1,0.2s0.3,1.8,0.4,2.4
		c0,0.1,0,0.1,0,0.1l-0.2,0.1c0,0-0.1,0-0.1-0.1c-0.2-0.3-0.6-1.1-1-1.4c-0.3-0.2-1.5-0.2-1.9-0.2h-0.3v6.6c0,0.9,0.1,1.2,0.4,1.2
		h0.7c0,0,0.1,0,0.1,0.1v0.3c0,0.1,0,0.1-0.1,0.1s-0.5,0-1.9,0c-1.3,0-1.8,0-2,0c-0.1,0-0.1,0-0.1-0.1v-0.3c0-0.1,0-0.1,0.1-0.1h0.7
		c0.2,0,0.4-0.1,0.4-0.3c0-0.3,0-4.1,0-4.4v-3.2H149.8z"/>
	<path fill="#FFFFFF" d="M158.4,137.9L158.4,137.9c-0.3,0.4-1.1,0.8-1.7,0.8c-0.4,0-0.8,0-1.3-0.5c-0.4-0.6-0.5-1-0.5-1.7
		c0-0.6,0-1,0-1.3s0-0.7,0-0.9c0-0.3-0.2-0.4-0.4-0.4s-0.3,0-0.3-0.1v-0.2c0-0.1,0-0.1,0.1-0.1h1.5c0.1,0,0.1,0,0.2,0h0.1
		c0.1,0,0.1,0.1,0.1,0.1c0,0.1,0,0.7,0,1.5v0.8c0,0.5-0.1,1.3,0.2,1.9c0.2,0.4,0.5,0.3,0.8,0.3s0.7-0.2,0.9-0.5
		c0-0.1,0.1-0.2,0.1-0.4v-2.9c0-0.3-0.2-0.4-0.5-0.4c-0.2,0-0.2,0-0.2-0.1v-0.2c0-0.1,0-0.1,0.1-0.1h1.5c0.1,0,0.1,0,0.2,0
		c0.1,0,0.1,0,0.2,0c0.1,0,0.1,0.1,0.1,0.1c0,0.1-0.1,0.4-0.1,1.7v0.9c0,0.6,0,1.2,0,1.4c0,0.4,0.2,0.4,0.3,0.4s0.2,0,0.4,0
		c0.1,0,0.1,0,0.1,0v0.2c0,0.1,0,0.1-0.1,0.1l-1.5,0.4c-0.1,0-0.1,0-0.2,0c-0.1,0-0.2,0-0.2-0.1L158.4,137.9z"/>
	<path fill="#FFFFFF" d="M161.7,135.4c0-0.6-0.1-0.8-0.5-1l-0.2-0.1c-0.1,0-0.1,0-0.1-0.1v-0.1c0,0,0-0.1,0.1-0.1l1.5-0.7
		c0.1,0,0.1,0,0.2,0c0.1,0,0.1,0.1,0.1,0.1l0.1,0.9l0,0c0.4-0.7,0.9-1.1,1.5-1.1c0.4,0,0.6,0.3,0.6,0.6s-0.3,0.7-0.7,0.7
		c-0.2,0-0.3,0-0.4-0.1c-0.1-0.1-0.2-0.1-0.3-0.1s-0.4,0.1-0.5,0.4c-0.1,0.2-0.1,0.4-0.1,0.6v2.4c0,0.4,0.1,0.5,0.3,0.5h0.5
		c0.1,0,0.1,0,0.1,0.1v0.3c0,0.1,0,0.1-0.1,0.1s-0.6,0-1.5,0s-1.3,0-1.4,0c-0.1,0-0.1,0-0.1-0.1v-0.3c0-0.1,0-0.1,0.1-0.1h0.4
		c0.2,0,0.3-0.1,0.3-0.3L161.7,135.4L161.7,135.4z"/>
	<path fill="#FFFFFF" d="M166.3,135c0-0.4-0.1-0.6-0.6-0.8c-0.1,0-0.1-0.1-0.1-0.1V134c0,0,0-0.1,0.1-0.1c0.2-0.1,1.4-0.5,1.6-0.6
		c0.1,0,0.2-0.1,0.3-0.1s0.1,0,0.1,0.1c0,0.2,0,1,0,2v1.3c0,0.5,0,0.9,0,1.1c0,0.2,0.1,0.3,0.2,0.3h0.5c0.1,0,0.1,0,0.1,0.1v0.2
		c0,0.1,0,0.1-0.1,0.1s-0.7,0-1.5,0c-0.7,0-1.2,0-1.3,0s-0.1,0-0.1-0.1v-0.2c0-0.1,0-0.1,0.1-0.1h0.5c0.1,0,0.2,0,0.2-0.2
		c0-0.4,0-0.8,0-1.1V135z M166.7,132c-0.4,0-0.8-0.3-0.8-0.7s0.4-0.8,0.9-0.8s0.8,0.4,0.8,0.7C167.5,131.6,167.3,132,166.7,132z"/>
	<path fill="#FFFFFF" d="M169,137C169,137,169,136.9,169,137l0.3-0.2h0.1l0.4,0.7c0.2,0.4,0.5,0.7,1.1,0.7c0.5,0,0.9-0.3,0.9-0.8
		s-0.3-0.7-1.2-1c-0.8-0.2-1.5-0.7-1.5-1.5c0-0.5,0.2-1,0.6-1.3c0.4-0.3,0.8-0.4,1.3-0.4c0.6,0,1,0.1,1.2,0.3
		c0.2,0.1,0.2,0.1,0.2,0.2l0.2,0.8v0.1l-0.2,0.1h-0.1l-0.6-0.7c-0.1-0.2-0.4-0.4-0.8-0.4c-0.5,0-0.9,0.3-0.9,0.7
		c0,0.5,0.4,0.7,1.1,0.9c0.6,0.1,0.9,0.3,1.2,0.6s0.4,0.6,0.4,1c0,1-0.8,1.8-2.1,1.8c-0.7,0-1.2-0.2-1.3-0.3l-0.1-0.1L169,137z"/>
	<path fill="#FFFFFF" d="M175,133.3c0.1,0,0.2-0.1,0.2-0.1c0.1,0,0.1,0,0.1,0.2l0.1,0.7l0,0c0.4-0.5,1-0.9,1.8-0.9
		c0.7,0,1.2,0.4,1.5,0.9h0.1c0.4-0.5,1-0.9,1.7-0.9c0.5,0,0.8,0.1,1.1,0.4s0.6,0.5,0.6,1.6v1.4c0,0.3,0,0.9,0,1.1
		c0,0.3,0.1,0.4,0.3,0.4h0.3c0.1,0,0.1,0,0.1,0.1v0.3c0,0.1,0,0.1-0.1,0.1s-0.4,0-1.2,0c-0.7,0-1.1,0-1.2,0c-0.1,0-0.1,0-0.1-0.1
		v-0.3c0-0.1,0-0.1,0.1-0.1h0.2c0.1,0,0.2-0.1,0.2-0.2c0-0.3,0-0.7,0-1.1v-1.4c0-0.6,0-0.9-0.3-1.1c-0.2-0.2-0.4-0.3-0.7-0.3
		s-0.7,0.3-0.9,0.5c-0.2,0.3-0.2,0.6-0.2,1v2.3c0,0.3,0.1,0.4,0.2,0.4h0.3c0.1,0,0.1,0,0.1,0.1v0.3c0,0.1,0,0.1-0.1,0.1
		s-0.4,0-1.2,0s-1.2,0-1.2,0c-0.1,0-0.1,0-0.1-0.1v-0.2c0-0.1,0-0.1,0.1-0.1h0.3c0.2,0,0.3-0.1,0.3-0.6v-2.1c0-0.9-0.1-1.2-0.3-1.3
		c-0.1-0.1-0.4-0.2-0.7-0.2s-0.7,0.1-0.9,0.5c-0.2,0.2-0.2,0.5-0.2,0.9v2.2c0,0.4,0.1,0.6,0.2,0.6h0.3c0.1,0,0.1,0,0.1,0.1v0.3
		c0,0.1,0,0.1-0.1,0.1s-0.4,0-1.2,0c-0.7,0-1.1,0-1.2,0c-0.1,0-0.1,0-0.1-0.1v-0.3c0-0.1,0-0.1,0.1-0.1h0.4c0.1,0,0.2-0.1,0.2-0.3
		v-0.7v-1.8c0-0.4-0.1-0.6-0.4-0.8l-0.3-0.1c-0.1,0-0.1-0.1-0.1-0.1v-0.1c0,0,0-0.1,0.1-0.1L175,133.3z"/>
	<path fill="#FFFFFF" d="M188.3,134c0.6,0.6,0.9,1.2,0.9,2c0,0.7-0.3,1.4-0.8,1.9c-0.5,0.6-1.2,0.9-2.1,0.9c-0.8,0-1.4-0.2-2-0.9
		c-0.5-0.6-0.7-1.2-0.7-1.9c0-0.6,0.3-1.5,1-2.1c0.6-0.5,1.2-0.6,1.8-0.6C187.2,133.3,187.9,133.6,188.3,134z M187.6,135.9
		c0-1.4-0.7-2.2-1.3-2.2c-0.3,0-0.6,0.1-0.8,0.3c-0.4,0.4-0.5,1-0.5,1.9c0,0.7,0,1.2,0.4,1.7c0.2,0.3,0.5,0.5,1,0.5
		C187.2,138.2,187.6,137.2,187.6,135.9z"/>
</g>
</svg>
