<?xml version="1.0" encoding="utf-8"?>
<!-- Generator: Adobe Illustrator 23.1.1, SVG Export Plug-In . SVG Version: 6.00 Build 0)  -->
<svg version="1.2" baseProfile="tiny" id="Capa_1" xmlns="http://www.w3.org/2000/svg" xmlns:xlink="http://www.w3.org/1999/xlink"
	 x="0px" y="0px" viewBox="0 0 200 200" xml:space="preserve">
<g>
	<polygon fill="#FFFFFF" points="117.5,62.7 166.5,111.6 166.5,62.7 	"/>
	<polygon fill="#FFFFFF" points="80.8,79.8 49.2,111.6 64.7,111.6 88.4,87.5 	"/>
	<polygon fill="#FFFFFF" points="29.1,62.7 29.1,111.6 70.7,70.1 78.4,62.7 	"/>
	<polygon fill="#FFFFFF" points="118,111.6 146.4,111.6 132.3,97.6 	"/>
	<g>
		<path fill="#FFFFFF" d="M97.4,62.7H84.1l23.1,23.4c0.7,0.9,0.7,2.1,0,2.8l-22.7,22.8h13.6l24.1-24.1L97.4,62.7z"/>
		<path fill="#FFFFFF" d="M60.4,117.4h-9.3c-1.7,0-3.2,1.4-3.2,3.2v9.3c0,1.7,1.4,3.2,3.2,3.2h9.3c1.7,0,3.2-1.4,3.2-3.2v-9.3
			C63.7,118.9,62.1,117.4,60.4,117.4 M60.2,129.7h-9v-8.9h8.9L60.2,129.7L60.2,129.7z"/>
		<path fill="#FFFFFF" d="M46.3,131.1c-0.3,0.4-0.4,0.8-0.8,1c-0.3,0.3-0.7,0.5-1,0.8c-0.4,0.3-0.9,0.3-1.3,0.3h-0.7l-9.9-10.8v10.8
			h-3.4V121c0-0.4,0.1-1.2,0.3-1.6c0.3-0.4,0.4-0.8,0.8-1c0.3-0.3,0.7-0.5,1-0.8c0.4-0.1,0.9-0.3,1.4-0.3h0.7l9.9,10.8v-10.7h3.4
			v12.4C46.6,130.4,46.5,130.8,46.3,131.1"/>
		<path fill="#FFFFFF" d="M80.2,124.7v-4.1c0-1.7-1.4-3.2-3.2-3.2H64.9h-0.3v0.3v15.1v0.3h0.3h2.8H68v-0.3v-4.8h4.5l4.3,5.1l0.1,0.1
			H77h3h0.3v-0.3v-0.8V132l-0.1-0.1l-3.4-4h0.3C78.9,128,80.2,126.6,80.2,124.7 M76.9,124.6h-8.9v-3.8h8.9V124.6z"/>
		<polygon fill="#FFFFFF" points="98.9,117.4 95.9,117.4 95.8,117.4 95.7,117.5 90.4,123.8 85.1,117.5 85,117.4 84.9,117.4 
			81.9,117.4 81.5,117.4 81.5,117.7 81.5,132.8 81.5,133.1 81.9,133.1 84.7,133.1 85,133.1 85,132.8 85,122.6 90.2,128.8 90.4,129 
			90.6,128.8 95.9,122.6 95.9,132.8 95.9,133.1 96.1,133.1 98.9,133.1 99.2,133.1 99.2,132.8 99.2,117.7 99.2,117.4 		"/>
		<path fill="#FFFFFF" d="M166.3,117.4h-12.2c-1.7,0-3.2,1.4-3.2,3.2v9.3c0,1.7,1.4,3.2,3.2,3.2h12.2h0.3v-0.3v-2.8v-0.3h-0.3h-12.1
			v-8.9h12.1h0.3v-0.3v-2.6v-0.3H166.3z"/>
		<polygon fill="#FFFFFF" points="149.2,117.4 135.2,117.4 135,117.4 135,117.7 135,132.8 135,133.1 135.2,133.1 149.2,133.1 
			149.5,133.1 149.5,132.8 149.5,130.1 149.5,129.8 149.2,129.8 138.3,129.8 138.3,127 147,127 147.3,127 147.3,126.7 147.3,123.8 
			147.3,123.7 147,123.7 138.3,123.7 138.3,120.7 149.2,120.7 149.5,120.7 149.5,120.5 149.5,117.7 149.5,117.4 		"/>
		<path fill="#FFFFFF" d="M113.1,117.4h-9.3c-1.7,0-3.2,1.4-3.2,3.2v12.2v0.3h0.3h2.8h0.3v-0.3v-4.7h8.8v4.7v0.3h0.3h2.8h0.3v-0.3
			v-12.2C116.3,118.9,114.8,117.4,113.1,117.4 M112.9,124.6H104v-3.9h8.9V124.6z"/>
		<polygon fill="#FFFFFF" points="133.4,117.4 117.5,117.4 117.1,117.4 117.1,117.7 117.1,120.5 117.1,120.7 117.5,120.7 
			124.2,120.7 124.2,132.8 124.2,133.1 124.4,133.1 127.2,133.1 127.5,133.1 127.5,132.8 127.5,120.7 133.4,120.7 133.6,120.7 
			133.6,120.5 133.6,117.7 133.6,117.4 		"/>
		<path fill="#FFFFFF" d="M29.1,144.9v-5.8c0-0.1,0.1-0.2,0.2-0.2h2.2c0.4,0,0.9,0.1,1.1,0.3s0.3,0.6,0.3,1v0.4c0,0.5-0.3,0.9-0.8,1
			c0.3,0,0.4,0.2,0.6,0.3c0.2,0.2,0.3,0.4,0.3,0.8v0.6c0,0.4-0.2,0.8-0.3,1c-0.3,0.3-0.6,0.3-1,0.3h-2.3
			C29.2,145,29.1,145,29.1,144.9 M30.1,141.5h1.2c0.5,0,0.7-0.3,0.7-0.7v-0.4c0-0.4-0.3-0.7-0.7-0.7h-1.2c-0.1,0-0.1,0-0.1,0.1
			L30.1,141.5C30,141.5,30,141.5,30.1,141.5 M30.1,144.2h1.3c0.4,0,0.7-0.3,0.7-0.7v-0.6c0-0.4-0.3-0.7-0.8-0.7H30
			c-0.1,0-0.1,0-0.1,0.1v1.7C30,144.2,30,144.2,30.1,144.2"/>
		<path fill="#FFFFFF" d="M45.8,145h-0.6c-0.1,0-0.2-0.1-0.2-0.2v-2.1l-1.7-3.6c0-0.1,0-0.1,0-0.1l0.1-0.1h0.8
			c0.1,0,0.2,0.1,0.2,0.2l1.1,2.6h0.1l1.1-2.6c0-0.1,0.1-0.2,0.2-0.2h0.8c0.1,0,0.1,0,0.1,0.1v0.1l-1.7,3.6v2.1
			C45.9,145,45.9,145,45.8,145"/>
		<path fill="#FFFFFF" d="M65.9,145h-0.6c-0.1,0-0.2-0.1-0.2-0.2v-5.8c0-0.1,0.1-0.2,0.2-0.2h0.6c0.1,0,0.2,0.1,0.2,0.2v2.3
			c0,0.1,0,0.1,0.1,0.1h2c0.1,0,0.1,0,0.1-0.1v-2.3c0-0.1,0.1-0.2,0.2-0.2H69c0.1,0,0.2,0.1,0.2,0.2v5.8c0,0.1-0.1,0.2-0.2,0.2h-0.6
			c-0.1,0-0.2-0.1-0.2-0.2v-2.4c0-0.1,0-0.1-0.1-0.1h-2c-0.1,0-0.1,0-0.1,0.1v2.4C66,145,66,145,65.9,145"/>
		<path fill="#FFFFFF" d="M82,145h-0.6c-0.1,0-0.2-0.1-0.2-0.2v-2.1l-1.7-3.6c0-0.1,0-0.1,0-0.1l0.1-0.1h0.7c0.1,0,0.2,0.1,0.2,0.2
			l1.1,2.6h0.1l1.1-2.6c0-0.1,0.1-0.2,0.2-0.2h0.8c0.1,0,0.1,0,0.1,0.1v0.1l-1.7,3.6v2.1C82,145,82,145,82,145"/>
		<path fill="#FFFFFF" d="M94.9,145h-0.6c-0.1,0-0.2-0.1-0.2-0.2v-5.8c0-0.1,0.1-0.2,0.2-0.2h2.2c0.4,0,0.8,0.1,1,0.3
			c0.3,0.3,0.3,0.6,0.3,1.1v0.9c0,0.4-0.2,0.8-0.3,1c-0.3,0.3-0.6,0.3-1,0.3h-1.4c-0.1,0-0.1,0-0.1,0.1v1.9
			C95,145,94.9,145,94.9,145 M95.1,142.1h1.3c0.4,0,0.7-0.3,0.7-0.7v-0.9c0-0.4-0.3-0.7-0.7-0.7h-1.3c-0.1,0-0.1,0-0.1,0.1
			L95.1,142.1C95,142.1,95,142.1,95.1,142.1"/>
		<path fill="#FFFFFF" d="M111.7,145h-3c-0.1,0-0.2-0.1-0.2-0.2v-5.8c0-0.1,0.1-0.2,0.2-0.2h3c0.1,0,0.2,0.1,0.2,0.2v0.5
			c0,0.1-0.1,0.2-0.2,0.2h-2.1c-0.1,0-0.1,0-0.1,0.1v1.6c0,0.1,0,0.1,0.1,0.1h1.8c0.1,0,0.2,0.1,0.2,0.2v0.5c0,0.1-0.1,0.2-0.2,0.2
			h-1.8c-0.1,0-0.1,0-0.1,0.1v1.6c0,0.1,0,0.1,0.1,0.1h2.1c0.1,0,0.2,0.1,0.2,0.2v0.5C111.8,145,111.8,145,111.7,145"/>
		<path fill="#FFFFFF" d="M123.2,145h-0.6c-0.1,0-0.2-0.1-0.2-0.2v-5.8c0-0.1,0.1-0.2,0.2-0.2h2.2c0.4,0,0.9,0.2,1.1,0.4
			c0.3,0.3,0.4,0.6,0.4,1.1v0.8c0,0.7-0.3,1.2-0.9,1.4l0,0l1,2.2c0.1,0.1,0,0.2-0.1,0.2h-0.6c-0.2,0-0.3-0.1-0.3-0.2l-1-2.1h-0.9
			c-0.1,0-0.1,0-0.1,0.1v2.1C123.3,145,123.3,145,123.2,145 M123.5,142h1.2c0.4,0,0.7-0.3,0.7-0.7v-0.8c0-0.4-0.3-0.7-0.7-0.7h-1.2
			c-0.1,0-0.1,0-0.1,0.1L123.5,142C123.3,141.9,123.4,142,123.5,142"/>
		<path fill="#FFFFFF" d="M137.9,139.1v5.8c0,0.1-0.1,0.2-0.2,0.2h-0.6c-0.1,0-0.2-0.1-0.2-0.2v-5.8c0-0.1,0.1-0.2,0.2-0.2h0.6
			C137.8,139,137.9,139.1,137.9,139.1"/>
		<path fill="#FFFFFF" d="M151.1,145H150c-0.4,0-0.9-0.2-1.1-0.3c-0.3-0.3-0.3-0.6-0.3-1v-3.1c0-0.4,0.1-0.9,0.3-1.1
			c0.3-0.3,0.6-0.3,1.1-0.3h1.1c0.4,0,0.9,0.1,1,0.3c0.3,0.3,0.3,0.6,0.3,1.1v0.4c0,0.1-0.1,0.2-0.2,0.2h-0.6
			c-0.1,0-0.2-0.1-0.2-0.2v-0.4c0-0.4-0.3-0.7-0.7-0.7H150c-0.4,0-0.7,0.3-0.7,0.7v3.1c0,0.4,0.3,0.7,0.7,0.7h0.9
			c0.4,0,0.7-0.3,0.7-0.7v-0.4c0-0.1,0.1-0.2,0.2-0.2h0.6c0.1,0,0.2,0.1,0.2,0.2v0.4c0,0.4-0.2,0.9-0.3,1
			C152,144.9,151.7,145,151.1,145"/>
		<path fill="#FFFFFF" d="M166.4,145h-3c-0.1,0-0.2-0.1-0.2-0.2v-5.8c0-0.1,0.1-0.2,0.2-0.2h3c0.1,0,0.2,0.1,0.2,0.2v0.5
			c0,0.1-0.1,0.2-0.2,0.2h-2.1c-0.1,0-0.1,0-0.1,0.1v1.6c0,0.1,0,0.1,0.1,0.1h1.8c0.1,0,0.2,0.1,0.2,0.2v0.5c0,0.1-0.1,0.2-0.2,0.2
			h-1.8c-0.1,0-0.1,0-0.1,0.1v1.6c0,0.1,0,0.1,0.1,0.1h2.1c0.1,0,0.2,0.1,0.2,0.2v0.5C166.5,145,166.5,145,166.4,145"/>
		<path fill="#FFFFFF" d="M171,119.1c0,0.9-0.8,1.7-1.7,1.7c-0.9,0-1.7-0.8-1.7-1.7s0.8-1.6,1.7-1.6
			C170.3,117.5,171,118.2,171,119.1 M168,119.1c0,0.8,0.5,1.4,1.3,1.4c0.8,0,1.3-0.6,1.3-1.3c0-0.8-0.5-1.4-1.3-1.4
			C168.6,117.8,168,118.4,168,119.1 M169,120h-0.4v-1.6c0.2,0,0.3-0.1,0.6-0.1c0.3,0,0.4,0.1,0.6,0.1c0.1,0.1,0.2,0.2,0.2,0.3
			c0,0.2-0.2,0.3-0.3,0.4l0,0c0.2,0.1,0.3,0.2,0.3,0.4c0.1,0.3,0.1,0.3,0.1,0.4h-0.4c-0.1-0.1-0.1-0.2-0.2-0.4
			c0-0.2-0.2-0.3-0.3-0.3h-0.2L169,120L169,120z M169,119h0.2c0.2,0,0.4-0.1,0.4-0.3c0-0.2-0.1-0.3-0.3-0.3c-0.1,0-0.2,0-0.3,0V119z
			"/>
	</g>
</g>
</svg>
