<?xml version="1.0" encoding="utf-8"?>
<!-- Generator: Adobe Illustrator 25.2.3, SVG Export Plug-In . SVG Version: 6.00 Build 0)  -->
<svg version="1.1" id="Capa_2" xmlns="http://www.w3.org/2000/svg" xmlns:xlink="http://www.w3.org/1999/xlink" x="0px" y="0px"
	 viewBox="0 0 226.1 162.3" style="enable-background:new 0 0 226.1 162.3;" xml:space="preserve">
<style type="text/css">
	.st0{fill:#FFFFFF;}
</style>
<g>
	<polygon class="st0" points="132.9,30 193.2,90.1 193.2,30 	"/>
	<polygon class="st0" points="87.5,51 48.7,90.1 67.8,90.1 97,60.5 	"/>
	<polygon class="st0" points="24,30 24,90.1 75.2,39 84.6,30 	"/>
	<polygon class="st0" points="133.3,90.1 168.4,90.1 151,72.9 	"/>
	<g>
		<path class="st0" d="M108.1,30H91.7l28.5,28.8c0.8,1.2,0.8,2.5,0,3.3l-28,28h16.7l29.7-29.7L108.1,30z"/>
		<path class="st0" d="M62.5,97.2H51c-2.1,0-4,1.7-4,4v11.4c0,2.1,1.7,4,4,4h11.4c2.1,0,4-1.7,4-4v-11.4
			C66.5,99.1,64.6,97.2,62.5,97.2 M62.2,112.4h-11v-11h11V112.4z"/>
		<path class="st0" d="M45.1,114.2c-0.3,0.5-0.5,0.9-0.9,1.3c-0.4,0.4-0.8,0.7-1.3,0.9c-0.5,0.3-1.1,0.3-1.6,0.3h-0.8l-12.2-13.3
			v13.3H24v-15c0-0.5,0.1-1.5,0.3-2c0.3-0.5,0.5-0.9,0.9-1.3c0.4-0.4,0.8-0.7,1.3-0.9c0.5-0.1,1.1-0.3,1.7-0.3H29l12.2,13.3V97.2
			h4.2v15.3C45.5,113.2,45.3,113.7,45.1,114.2"/>
		<path class="st0" d="M86.9,106.3v-5c0-2.1-1.7-4-4-4h-15h-0.4v0.4v18.6v0.4h0.4h3.5h0.4v-0.4v-6h5.6l5.3,6.2l0.1,0.1h0.1h3.7H87
			v-0.4v-0.9v-0.1l-0.1-0.1l-4.1-5h0.3C85.2,110.3,86.9,108.5,86.9,106.3 M82.8,106.1h-11v-4.7h11V106.1z"/>
		<polygon class="st0" points="109.9,97.2 106.2,97.2 106,97.2 105.9,97.4 99.4,105.2 92.9,97.4 92.7,97.2 92.6,97.2 88.9,97.2 
			88.5,97.2 88.5,97.6 88.5,116.2 88.5,116.6 88.9,116.6 92.4,116.6 92.7,116.6 92.7,116.2 92.7,103.6 99.1,111.3 99.4,111.6 
			99.7,111.3 106.2,103.6 106.2,116.2 106.2,116.6 106.4,116.6 109.9,116.6 110.3,116.6 110.3,116.2 110.3,97.6 110.3,97.2 		"/>
		<path class="st0" d="M192.8,97.2h-15c-2.1,0-4,1.7-4,4v11.4c0,2.1,1.7,4,4,4h15h0.4v-0.4v-3.5v-0.4h-0.4h-14.9v-11h14.9h0.4v-0.3
			v-3.5v-0.4H192.8z"/>
		<polygon class="st0" points="171.8,97.2 154.6,97.2 154.3,97.2 154.3,97.6 154.3,116.2 154.3,116.6 154.6,116.6 171.8,116.6 
			172.2,116.6 172.2,116.2 172.2,112.9 172.2,112.5 171.8,112.5 158.4,112.5 158.4,109.1 169.1,109.1 169.4,109.1 169.4,108.7 
			169.4,105.2 169.4,104.9 169.1,104.9 158.4,104.9 158.4,101.4 171.8,101.4 172.2,101.4 172.2,101.1 172.2,97.6 172.2,97.2 		"/>
		<path class="st0" d="M127.3,97.2h-11.4c-2.1,0-4,1.7-4,4v15v0.4h0.4h3.5h0.4v-0.4v-5.9h11v5.9v0.4h0.4h3.5h0.4v-0.4v-15
			C131.3,99.1,129.4,97.2,127.3,97.2 M127.1,106.1h-11v-4.8h11V106.1z"/>
		<polygon class="st0" points="152.2,97.2 132.7,97.2 132.3,97.2 132.3,97.6 132.3,101.1 132.3,101.4 132.7,101.4 141,101.4 
			141,116.2 141,116.6 141.2,116.6 144.7,116.6 145.1,116.6 145.1,116.2 145.1,101.4 152.2,101.4 152.6,101.4 152.6,101.1 
			152.6,97.6 152.6,97.2 		"/>
		<path class="st0" d="M24,131.1V124c0-0.1,0.1-0.2,0.2-0.2h2.7c0.6,0,1,0.2,1.3,0.5c0.3,0.3,0.5,0.7,0.5,1.3v0.6
			c0,0.7-0.3,1.1-1,1.3c0.3,0,0.6,0.2,0.7,0.4c0.2,0.2,0.3,0.5,0.3,0.9v0.7c0,0.6-0.2,1-0.5,1.3s-0.8,0.5-1.3,0.5h-2.9
			C24,131.3,24,131.2,24,131.1 M25.2,127h1.5c0.6,0,0.9-0.3,0.9-0.8v-0.5c0-0.6-0.3-0.8-0.9-0.8h-1.5c-0.1,0-0.1,0-0.1,0.1v2
			C25.1,127,25.2,127,25.2,127 M25.2,130.3h1.6c0.6,0,0.9-0.3,0.9-0.8v-0.7c0-0.6-0.3-0.8-0.9-0.8h-1.6c-0.1,0-0.1,0-0.1,0.1v2.2
			C25.1,130.3,25.2,130.3,25.2,130.3"/>
		<path class="st0" d="M44.4,131.3h-0.7c-0.1,0-0.2-0.1-0.2-0.2v-2.6l-2.2-4.5c0-0.1,0-0.1,0-0.2c0,0,0.1-0.1,0.1-0.1h0.9
			c0.1,0,0.2,0.1,0.2,0.2l1.4,3.2h0.1l1.4-3.2c0-0.1,0.1-0.2,0.2-0.2h0.9c0.1,0,0.1,0,0.1,0.1c0,0,0,0.1,0,0.2l-2.2,4.5v2.6
			C44.6,131.2,44.6,131.3,44.4,131.3"/>
		<path class="st0" d="M69.2,131.3h-0.7c-0.1,0-0.2-0.1-0.2-0.2V124c0-0.1,0.1-0.2,0.2-0.2h0.7c0.1,0,0.2,0.1,0.2,0.2v2.9
			c0,0.1,0,0.1,0.1,0.1H72c0.1,0,0.1,0,0.1-0.1V124c0-0.1,0.1-0.2,0.2-0.2H73c0.1,0,0.2,0.1,0.2,0.2v7.1c0,0.1-0.1,0.2-0.2,0.2h-0.7
			c-0.1,0-0.2-0.1-0.2-0.2v-2.9c0-0.1,0-0.1-0.1-0.1h-2.4c-0.1,0-0.1,0-0.1,0.1v2.9C69.4,131.2,69.3,131.3,69.2,131.3"/>
		<path class="st0" d="M89,131.3h-0.7c-0.1,0-0.2-0.1-0.2-0.2v-2.6l-2.2-4.5c0-0.1,0-0.1,0-0.2c0,0,0.1-0.1,0.1-0.1h0.9
			c0.1,0,0.2,0.1,0.2,0.2l1.4,3.2h0.1L90,124c0-0.1,0.1-0.2,0.2-0.2h0.9c0.1,0,0.1,0,0.1,0.1c0,0,0,0.1,0,0.2l-2.2,4.5v2.6
			C89.2,131.2,89.1,131.3,89,131.3"/>
		<path class="st0" d="M104.9,131.3h-0.7c-0.1,0-0.2-0.1-0.2-0.2V124c0-0.1,0.1-0.2,0.2-0.2h2.8c0.6,0,1,0.2,1.3,0.5
			s0.5,0.8,0.5,1.3v1.2c0,0.6-0.2,1-0.5,1.3c-0.3,0.3-0.8,0.5-1.3,0.5h-1.7c-0.1,0-0.1,0-0.1,0.1v2.3
			C105.1,131.2,105,131.3,104.9,131.3 M105.2,127.6h1.5c0.5,0,0.8-0.3,0.8-0.9v-1.1c0-0.6-0.3-0.9-0.8-0.9h-1.5
			c-0.1,0-0.1,0-0.1,0.1v2.6C105.1,127.6,105.1,127.6,105.2,127.6"/>
		<path class="st0" d="M125.6,131.3h-3.7c-0.1,0-0.2-0.1-0.2-0.2V124c0-0.1,0.1-0.2,0.2-0.2h3.7c0.1,0,0.2,0.1,0.2,0.2v0.6
			c0,0.1-0.1,0.2-0.2,0.2h-2.6c-0.1,0-0.1,0-0.1,0.1v2c0,0.1,0,0.1,0.1,0.1h2.2c0.1,0,0.2,0.1,0.2,0.2v0.6c0,0.1-0.1,0.2-0.2,0.2
			h-2.2c-0.1,0-0.1,0-0.1,0.1v2.1c0,0.1,0,0.1,0.1,0.1h2.6c0.1,0,0.2,0.1,0.2,0.2v0.6C125.8,131.2,125.7,131.3,125.6,131.3"/>
		<path class="st0" d="M139.8,131.3H139c-0.1,0-0.2-0.1-0.2-0.2V124c0-0.1,0.1-0.2,0.2-0.2h2.7c0.6,0,1,0.2,1.3,0.5
			c0.3,0.3,0.5,0.8,0.5,1.3v1c0,0.9-0.4,1.4-1.1,1.7v0l1.3,2.7c0.1,0.2,0,0.2-0.2,0.2h-0.7c-0.2,0-0.3-0.1-0.4-0.2l-1.2-2.7h-1.2
			c-0.1,0-0.1,0-0.1,0.1v2.5C140,131.2,139.9,131.3,139.8,131.3 M140.1,127.5h1.5c0.6,0,0.9-0.3,0.9-0.8v-1c0-0.6-0.3-0.9-0.9-0.9
			h-1.5c-0.1,0-0.1,0-0.1,0.1v2.4C140,127.4,140,127.5,140.1,127.5"/>
		<path class="st0" d="M157.9,124v7.1c0,0.1-0.1,0.2-0.2,0.2H157c-0.1,0-0.2-0.1-0.2-0.2V124c0-0.1,0.1-0.2,0.2-0.2h0.7
			C157.8,123.8,157.9,123.9,157.9,124"/>
		<path class="st0" d="M174.2,131.3h-1.3c-0.6,0-1-0.2-1.3-0.5c-0.3-0.3-0.5-0.8-0.5-1.3v-3.9c0-0.6,0.2-1,0.5-1.3
			c0.3-0.3,0.8-0.5,1.3-0.5h1.3c0.6,0,1,0.2,1.3,0.5c0.3,0.3,0.5,0.8,0.5,1.3v0.6c0,0.1-0.1,0.2-0.2,0.2h-0.7
			c-0.1,0-0.2-0.1-0.2-0.2v-0.5c0-0.6-0.3-0.9-0.8-0.9h-1c-0.6,0-0.8,0.3-0.8,0.9v3.8c0,0.6,0.3,0.9,0.8,0.9h1
			c0.6,0,0.8-0.3,0.8-0.9v-0.5c0-0.1,0.1-0.2,0.2-0.2h0.7c0.1,0,0.2,0.1,0.2,0.2v0.6c0,0.6-0.2,1-0.5,1.3
			C175.2,131.1,174.8,131.3,174.2,131.3"/>
		<path class="st0" d="M193,131.3h-3.7c-0.1,0-0.2-0.1-0.2-0.2V124c0-0.1,0.1-0.2,0.2-0.2h3.7c0.1,0,0.2,0.1,0.2,0.2v0.6
			c0,0.1-0.1,0.2-0.2,0.2h-2.6c-0.1,0-0.1,0-0.1,0.1v2c0,0.1,0,0.1,0.1,0.1h2.2c0.1,0,0.2,0.1,0.2,0.2v0.6c0,0.1-0.1,0.2-0.2,0.2
			h-2.2c-0.1,0-0.1,0-0.1,0.1v2.1c0,0.1,0,0.1,0.1,0.1h2.6c0.1,0,0.2,0.1,0.2,0.2v0.6C193.2,131.2,193.1,131.3,193,131.3"/>
		<path class="st0" d="M198.7,99.4c0,1.2-0.9,2.1-2.1,2.1c-1.2,0-2.1-0.9-2.1-2.1c0-1.1,0.9-2.1,2.1-2.1
			C197.7,97.3,198.7,98.2,198.7,99.4 M194.9,99.4c0,0.9,0.7,1.6,1.6,1.6c0.9,0,1.6-0.7,1.6-1.6c0-0.9-0.7-1.7-1.6-1.7
			C195.6,97.7,194.9,98.5,194.9,99.4 M196.2,100.5h-0.5v-2.1c0.2,0,0.5-0.1,0.8-0.1c0.4,0,0.6,0.1,0.7,0.2c0.1,0.1,0.2,0.3,0.2,0.5
			c0,0.2-0.2,0.4-0.4,0.5v0c0.2,0.1,0.3,0.2,0.4,0.5c0.1,0.3,0.1,0.4,0.2,0.5H197c-0.1-0.1-0.1-0.3-0.2-0.5c0-0.2-0.2-0.3-0.4-0.3
			h-0.2V100.5z M196.2,99.3h0.2c0.3,0,0.5-0.1,0.5-0.3c0-0.2-0.1-0.3-0.4-0.3c-0.1,0-0.2,0-0.3,0V99.3z"/>
	</g>
</g>
</svg>
