<?xml version="1.0" encoding="utf-8"?>
<!-- Generator: Adobe Illustrator 25.2.3, SVG Export Plug-In . SVG Version: 6.00 Build 0)  -->
<svg version="1.1" id="Layer_1" xmlns="http://www.w3.org/2000/svg" xmlns:xlink="http://www.w3.org/1999/xlink" x="0px" y="0px"
	 viewBox="0 0 400.4 126.4" style="enable-background:new 0 0 400.4 126.4;" xml:space="preserve">
<style type="text/css">
	.st0{fill:#FFFFFF;}
</style>
<g>
	<path class="st0" d="M43.9,31c-13.3,0-24.2,10.9-24.2,24.2c0,13.1,10.9,24.4,24.2,24.4c13.3,0,24.2-11.3,24.2-24.4
		C68.1,41.9,57.2,31,43.9,31z M43.9,70.9c-4.2,0-8-1.8-10.7-4.7c-2.7-2.9-4.4-6.8-4.4-11c0-8.5,6.6-15.5,15.1-15.5
		c8.5,0,15.1,7,15.1,15.5c0,4.2-1.7,8.1-4.4,11C51.9,69.1,48.2,70.9,43.9,70.9z"/>
	<path class="st0" d="M113.3,62.2l-0.3,0.5c-2.6,4.8-7.5,8.2-13.3,8.2c-4.2,0-8-1.8-10.7-4.7c-2.7-2.9-4.4-6.8-4.4-11
		c0-8.5,6.6-15.5,15.1-15.5c5.8,0,10.7,3.2,13.3,8l0.3,0.5h0.6h9.1l-0.5-1.3C119.1,37.7,110.2,31,99.7,31
		c-13.3,0-24.2,10.9-24.2,24.2c0,13.1,10.9,24.4,24.2,24.4c10.5,0,19.5-6.7,22.8-16.2l0.5-1.3H113.3z"/>
	<path class="st0" d="M154.2,31C140.9,31,130,41.9,130,55.2c0,13.1,10.9,24.4,24.2,24.4c9.5,0,17.8-5.4,21.8-13.5l0.7-1.4h-10.5
		l-0.3,0.4c-2.7,3.5-6.8,5.8-11.6,5.8c-7,0-12.7-5.1-14.5-11.6h38.7v-1v-3.2C178.4,41.9,167.5,31,154.2,31z M154.2,39.7
		c6.9,0,12.6,4.8,14.5,11.1h-28.9C141.6,44.5,147.2,39.7,154.2,39.7z"/>
	<path class="st0" d="M225.9,31.7v5.8c-4.1-4-9.7-6.5-15.9-6.5c-13.3,0-24.2,10.9-24.2,24.2c0,13.1,10.9,24.4,24.2,24.4
		c6.2,0,11.8-2.6,15.9-6.7v5.8h8.8v-47H225.9z M209.8,39.7c4.2,0,8.1,1.7,11,4.6c2.9,2.8,4.7,6.7,4.7,10.9c0,4.1-1.8,8.1-4.7,11
		c-2.9,2.9-6.8,4.7-11,4.7c-4.2,0-7.9-1.8-10.6-4.7c-2.7-2.9-4.3-6.8-4.3-11C194.9,46.6,201.3,39.7,209.8,39.7z"/>
	<path class="st0" d="M374,31.7v5.8c-3.5-3.3-7.9-5.6-12.9-6.3v8.9c2.9,0.6,5.6,2.1,7.7,4.2c2.9,2.8,4.7,6.7,4.7,10.9
		c0,4.1-1.8,8.1-4.7,11c-2.9,2.9-6.8,4.7-11,4.7c-4.2,0-7.9-1.8-10.6-4.7c-0.8-0.8-1.4-1.8-2-2.7c-1.1,3.1-2.6,6-4.7,8.4
		c4.4,4.7,10.6,7.7,17.5,7.7c6.2,0,11.8-2.6,15.9-6.7v5.8h8.8v-47H374z"/>
	<g>
		<path class="st0" d="M110.1,107.9l-2.9,1.1l-0.1-0.1V90.3c0-1.6-0.5-2.2-2.2-2.2v-0.2l5.9-0.6v10.1c0.9-1.1,2.3-2.1,4.4-2.1
			c3.7,0,5.7,3.3,5.7,6.8c0,4-2.6,7-7,7C112.2,109,111.1,108.6,110.1,107.9z M117.1,102.3c0-3.3-1-6-3.5-6c-1.2,0-2.1,0.6-2.8,1.4
			v9.2c0.3,0.8,1,1.9,2.5,1.9C116.1,108.8,117.1,105.3,117.1,102.3z"/>
		<path class="st0" d="M125,102.1c0-4,3-6.9,7-6.9c3.5,0,6.2,2.1,6.3,6.2h-9.4c-0.1,4.3,1.5,7,4.5,7c2.3,0,3.9-1.6,4.7-3l0.2,0.1
			c-1,1.5-2.8,3.6-6.3,3.6C127.4,109,125,105.7,125,102.1z M128.8,101.1h5.7c0-1.7-0.2-5.6-2.6-5.6C129.9,95.5,129,98.4,128.8,101.1
			z"/>
		<path class="st0" d="M142.2,105.4c0-2.6,2.4-3.7,5.3-3.7c1.3,0,2.6,0.2,3.6,0.5V99c0-2.1-0.6-3.6-2.8-3.6c-1.6,0-2.4,0.8-3,1.6
			c0.8,0.3,1.3,1.1,1.3,1.9c0,1.1-0.8,1.9-2,1.9c-1.2,0-1.9-1-1.9-2.1c0-1.9,2.3-3.5,5.7-3.5c3,0,6.3,1.3,6.3,4.8v7.1
			c0,0.9,0.4,1.1,0.9,1.1c1,0,1.8-1.2,2.1-1.9l0.2,0.1c-0.7,1.3-1.8,2.5-3.7,2.5c-1.6,0-2.7-0.9-3-2.2c-0.8,1.2-2.2,2.2-4.6,2.2
			C144,109,142.2,107.6,142.2,105.4z M151.2,106.6v-4.1c-0.7-0.2-1.5-0.4-2.3-0.4c-1.8,0-2.9,1-2.9,3.2c0,1.8,0.8,3,2.3,3
			C149.5,108.3,150.4,107.5,151.2,106.6z"/>
		<path class="st0" d="M160.2,102.2c0-4.4,3.4-7,7.2-7c3.4,0,5.5,2.1,5.5,4c0,1.3-0.9,2.2-2,2.2s-2-0.9-2-2.1c0-1,0.7-1.9,1.7-2
			c-0.4-0.9-1.2-1.9-2.7-1.9c-2.7,0-3.8,3.2-3.8,6.4c0,4.1,1.6,6.5,4.3,6.5c2.1,0,3.7-1.4,4.5-3l0.2,0.1c-0.9,1.6-2.7,3.6-6.1,3.6
			C162.7,109,160.2,105.9,160.2,102.2z"/>
		<path class="st0" d="M176.1,108.5c1.7,0,2.2-0.6,2.2-2.2v-16c0-1.6-0.5-2.2-2.2-2.2v-0.2l5.9-0.6v10.7c1.1-1.2,2.9-2.7,5.2-2.7
			c2,0,3.8,1.2,3.8,4.2v6.8c0,1.6,0.5,2.2,2.2,2.2v0.2h-8v-0.2c1.5,0,2.1-0.6,2.1-2.2v-7.1c0-1.7-0.8-2.6-2.1-2.6
			c-1.4,0-2.4,0.9-3.2,1.7v8c0,1.6,0.5,2.2,2.2,2.2v0.2h-8.1V108.5z"/>
		<path class="st0" d="M204.7,108.5c1.7,0,2.2-0.7,2.2-2.3v-7.8c0-1.6-0.5-2.3-2.2-2.3v-0.2l5.8-0.6v4.2c0.7-2.1,2.3-4.2,4.3-4.2
			c1.5,0,2.2,1.1,2.2,2.2c0,1.2-0.9,2.1-2.1,2.1c-1.2,0-2.2-1-2.1-2.3c-1.1,0.4-1.9,1.4-2.3,2.5v6.5c0,1.7,0.7,2.3,2.4,2.3v0.2h-8.3
			V108.5z"/>
		<path class="st0" d="M219.9,102.1c0-4,3-6.9,7-6.9c3.5,0,6.2,2.1,6.3,6.2h-9.4c-0.1,4.3,1.5,7,4.5,7c2.3,0,3.9-1.6,4.7-3l0.2,0.1
			c-1,1.5-2.8,3.6-6.3,3.6C222.3,109,219.9,105.7,219.9,102.1z M223.8,101.1h5.7c0-1.7-0.2-5.6-2.6-5.6
			C224.9,95.5,223.9,98.4,223.8,101.1z"/>
		<path class="st0" d="M237.6,108.5l-0.2-4.1l0.2,0c0.9,2.1,2,4.5,4.9,4.5c2.2,0,2.9-1.3,2.9-2.4c0-3.6-7.9-2.2-7.9-7.3
			c0-2.4,1.8-3.9,5.2-3.9c1.9,0,3.1,0.4,4.6,0.1l0.2,4.3l-0.2,0c-0.8-1.8-2-4.2-4.6-4.2c-1.8,0-2.6,1.2-2.6,2.2
			c0,3.5,7.9,2.2,7.9,7.3c0,2.6-2.1,4.1-5.7,4.1C240.9,109,238.9,108.7,237.6,108.5z"/>
		<path class="st0" d="M252.4,102.1c0-4.4,3.5-6.9,7.3-6.9c3.8,0,7.3,2.5,7.3,6.9c0,4.4-3.5,6.9-7.3,6.9
			C255.9,109,252.4,106.5,252.4,102.1z M263.1,102.1c0-4-1-6.6-3.4-6.6c-2.4,0-3.4,2.6-3.4,6.6c0,4,0.9,6.6,3.4,6.6
			C262.1,108.8,263.1,106.2,263.1,102.1z"/>
		<path class="st0" d="M270.5,108.5c1.7,0,2.2-0.7,2.2-2.3v-7.8c0-1.6-0.5-2.3-2.2-2.3v-0.2l5.8-0.6v4.2c0.7-2.1,2.3-4.2,4.3-4.2
			c1.5,0,2.2,1.1,2.2,2.2c0,1.2-0.9,2.1-2.1,2.1c-1.2,0-2.2-1-2.1-2.3c-1.1,0.4-1.9,1.4-2.3,2.5v6.5c0,1.7,0.7,2.3,2.4,2.3v0.2h-8.3
			V108.5z"/>
		<path class="st0" d="M287.5,105.1V96h-2.3v-0.4h2.3v-3.4l3.7-0.7v4.1h4V96h-4v9.6c0,1.6,0.5,2.5,1.8,2.5c1.3,0,2.2-1,2.9-1.8
			l0.2,0.1c-1,1.3-2.4,2.7-4.7,2.7C289,109,287.5,107.7,287.5,105.1z"/>
	</g>
	<path class="st0" d="M357.1,31.1c-12.9,0.1-23.3,10.6-23.3,23.5c0,8-6.5,14.5-14.5,14.5c-8,0-14.5-6.5-14.5-14.5
		c0-13-10.5-23.5-23.5-23.5c-13,0-23.5,10.5-23.5,23.5c0,8-6.5,14.5-14.5,14.5v9c13,0,23.5-10.5,23.5-23.5c0-8,6.5-14.5,14.5-14.5
		c8,0,14.5,6.5,14.5,14.5c0,13,10.5,23.5,23.5,23.5c13,0,23.5-10.5,23.5-23.5c0-8,6.4-14.4,14.4-14.5V31.1z"/>
	<path class="st0" d="M319.2,78.1c13,0,23.5-10.5,23.5-23.5c0-8,6.4-14.4,14.4-14.5v-9c-12.9,0.1-23.3,10.6-23.3,23.5
		c0,8-6.5,14.5-14.5,14.5V78.1z"/>
	<path class="st0" d="M271.8,17.7l8.8,8.8c0.2,0.2,0.4,0.3,0.7,0.3c0.3,0,0.5-0.1,0.7-0.3l8.8-8.8H271.8z"/>
</g>
</svg>
