<?xml version="1.0" encoding="utf-8"?>
<!-- Generator: Adobe Illustrator 23.1.1, SVG Export Plug-In . SVG Version: 6.00 Build 0)  -->
<svg version="1.2" baseProfile="tiny" id="Capa_1" xmlns="http://www.w3.org/2000/svg" xmlns:xlink="http://www.w3.org/1999/xlink"
	 x="0px" y="0px" viewBox="0 0 200 200" xml:space="preserve">
<g>
	<path fill="#FFFFFF" d="M26.3,91.2c-6.2,0-11.4,5.2-11.4,11.4c0,6.1,5.1,11.5,11.4,11.5c6.2,0,11.4-5.4,11.4-11.5
		C37.7,96.4,32.6,91.2,26.3,91.2z M26.3,109.9c-2,0-3.7-0.9-5.1-2.2c-1.2-1.3-2-3.2-2-5.2c0-4,3.1-7.3,7.1-7.3s7.1,3.3,7.1,7.3
		c0,1.9-0.8,3.8-2,5.2C30.1,109.1,28.3,109.9,26.3,109.9z"/>
	<path fill="#FFFFFF" d="M58.8,105.8l-0.1,0.2c-1.2,2.3-3.5,3.8-6.2,3.8c-2,0-3.7-0.9-5.1-2.2c-1.2-1.3-2-3.2-2-5.2
		c0-4,3.1-7.3,7.1-7.3c2.8,0,5,1.5,6.2,3.7l0.1,0.3h0.3h4.2l-0.2-0.7c-1.6-4.3-5.7-7.5-10.6-7.5c-6.2,0-11.4,5.2-11.4,11.4
		c0,6.1,5.1,11.5,11.4,11.5c4.9,0,9.2-3.2,10.7-7.6l0.2-0.6H58.8z"/>
	<path fill="#FFFFFF" d="M78,91.2c-6.2,0-11.4,5.2-11.4,11.4c0,6.1,5.1,11.5,11.4,11.5c4.4,0,8.3-2.5,10.2-6.3l0.3-0.8h-5l-0.1,0.2
		c-1.2,1.6-3.2,2.8-5.5,2.8c-3.3,0-5.9-2.4-6.8-5.5h18.2V104v-1.4C89.3,96.4,84.2,91.2,78,91.2z M78,95.3c3.3,0,5.9,2.2,6.8,5.3
		H71.2C72.1,97.5,74.7,95.3,78,95.3z"/>
	<path fill="#FFFFFF" d="M111.6,91.6v2.7c-1.9-1.9-4.6-3.1-7.5-3.1c-6.2,0-11.4,5.2-11.4,11.4c0,6.1,5.1,11.5,11.4,11.5
		c2.9,0,5.5-1.2,7.5-3.2v2.7h4.1v-22C115.7,91.6,111.6,91.6,111.6,91.6z M104,95.3c1.9,0,3.8,0.9,5.2,2.1c1.3,1.3,2.2,3.2,2.2,5.2
		c0,1.9-0.9,3.8-2.2,5.2c-1.3,1.3-3.2,2.2-5.2,2.2c-2,0-3.7-0.9-5-2.2c-1.2-1.3-2-3.2-2-5.2C97,98.6,100,95.3,104,95.3z"/>
	<path fill="#FFFFFF" d="M180.9,91.6v2.7c-1.6-1.5-3.7-2.7-6-3v4.2c1.3,0.3,2.6,1,3.6,2c1.3,1.3,2.2,3.2,2.2,5.2
		c0,1.9-0.9,3.8-2.2,5.2c-1.3,1.3-3.3,2.2-5.2,2.2c-2,0-3.7-0.9-5-2.2c-0.4-0.4-0.7-0.9-1-1.2c-0.5,1.4-1.2,2.8-2.2,3.9
		c2.1,2.2,5,3.6,8.2,3.6c2.9,0,5.5-1.2,7.5-3.2v2.7h4.1v-22L180.9,91.6L180.9,91.6z"/>
	<g>
		<path fill="#FFFFFF" d="M57.4,127.2l-1.3,0.5l0,0V119c0-0.8-0.3-1.1-1.1-1.1v-0.1l2.8-0.3v4.8c0.4-0.5,1.1-1,2.1-1
			c1.7,0,2.7,1.5,2.7,3.2c0,1.8-1.2,3.3-3.3,3.3C58.3,127.7,57.7,127.5,57.4,127.2z M60.6,124.6c0-1.5-0.5-2.8-1.6-2.8
			c-0.6,0-1,0.3-1.3,0.7v4.3c0.1,0.4,0.5,0.9,1.1,0.9C60.1,127.6,60.6,126,60.6,124.6z"/>
		<path fill="#FFFFFF" d="M64.2,124.5c0-1.9,1.4-3.3,3.3-3.3c1.6,0,2.9,1.1,3,2.9h-4.4c0,2,0.7,3.3,2.1,3.3c1.1,0,1.8-0.8,2.2-1.4
			l0.1,0.1c-0.5,0.8-1.3,1.6-3,1.6C65.4,127.7,64.2,126.2,64.2,124.5z M66.1,124h2.7c0-0.8-0.1-2.7-1.2-2.7
			C66.6,121.4,66.1,122.8,66.1,124z"/>
		<path fill="#FFFFFF" d="M72.4,126c0-1.2,1.1-1.7,2.5-1.7c0.6,0,1.2,0.1,1.7,0.3V123c0-1-0.3-1.6-1.3-1.6c-0.8,0-1.1,0.4-1.4,0.8
			c0.4,0.1,0.6,0.5,0.6,0.9c0,0.5-0.4,0.9-1,0.9s-0.9-0.5-0.9-1c0-0.9,1.1-1.6,2.7-1.6c1.4,0,3,0.6,3,2.2v3.3c0,0.4,0.2,0.6,0.4,0.6
			c0.5,0,0.9-0.6,1.1-0.9l0.1,0.1c-0.4,0.6-0.9,1.1-1.7,1.1c-0.8,0-1.2-0.4-1.4-1.1c-0.4,0.6-1.1,1.1-2.1,1.1
			C73.2,127.7,72.4,127.1,72.4,126z M76.6,126.6v-1.9c-0.3-0.1-0.7-0.2-1.1-0.2c-0.9,0-1.3,0.5-1.3,1.5c0,0.9,0.4,1.4,1.1,1.4
			C75.7,127.4,76.2,127.1,76.6,126.6z"/>
		<path fill="#FFFFFF" d="M80.8,124.6c0-2,1.6-3.3,3.3-3.3c1.6,0,2.6,1,2.6,1.9c0,0.6-0.4,1.1-1,1.1s-1-0.5-1-1c0-0.5,0.3-0.9,0.8-1
			c-0.2-0.5-0.6-0.9-1.2-0.9c-1.2,0-1.8,1.5-1.8,3c0,1.9,0.8,3.1,2,3.1c1,0,1.7-0.7,2.1-1.4h0.1c-0.4,0.8-1.2,1.7-2.9,1.7
			C81.9,127.7,80.8,126.3,80.8,124.6z"/>
		<path fill="#FFFFFF" d="M88.2,127.5c0.8,0,1.1-0.3,1.1-1.1V119c0-0.8-0.3-1.1-1.1-1.1v-0.1l2.8-0.3v5c0.6-0.6,1.3-1.2,2.4-1.2
			c1,0,1.8,0.6,1.8,2v3.2c0,0.8,0.3,1.1,1.1,1.1v0.1h-3.7v-0.1c0.8,0,1-0.3,1-1.1v-3.3c0-0.8-0.4-1.2-1-1.2c-0.7,0-1.1,0.4-1.5,0.8
			v3.7c0,0.8,0.3,1.1,1.1,1.1v0.1L88.2,127.5L88.2,127.5z"/>
		<path fill="#FFFFFF" d="M101.6,127.5c0.8,0,1.1-0.3,1.1-1.1v-3.6c0-0.8-0.3-1.1-1.1-1.1v-0.1l2.8-0.3v1.9c0.4-1.1,1.1-2,2-2
			c0.7,0,1.1,0.5,1.1,1.1s-0.5,1-1,1c-0.6,0-1.1-0.5-1-1.1c-0.5,0.2-0.9,0.7-1.1,1.1v3.1c0,0.8,0.3,1.1,1.1,1.1v0.1L101.6,127.5
			L101.6,127.5z"/>
		<path fill="#FFFFFF" d="M108.7,124.5c0-1.9,1.4-3.3,3.3-3.3c1.6,0,2.9,1.1,3,2.9h-4.4c0,2,0.7,3.3,2.1,3.3c1.1,0,1.8-0.8,2.2-1.4
			l0.1,0.1c-0.5,0.8-1.3,1.6-3,1.6C109.8,127.7,108.7,126.2,108.7,124.5z M110.5,124h2.7c0-0.8-0.1-2.7-1.2-2.7
			C111.1,121.4,110.6,122.8,110.5,124z"/>
		<path fill="#FFFFFF" d="M117,127.4l-0.1-1.9h0.1c0.5,1,1,2.1,2.3,2.1c1.1,0,1.3-0.6,1.3-1.1c0-1.7-3.7-1.1-3.7-3.4
			c0-1.1,0.9-1.8,2.5-1.8c0.9,0,1.4,0.2,2.2,0l0.1,2h-0.1c-0.4-0.9-1-2-2.1-2c-0.9,0-1.2,0.6-1.2,1.1c0,1.6,3.7,1.1,3.7,3.4
			c0,1.2-1,1.9-2.7,1.9C118.5,127.7,117.6,127.6,117,127.4z"/>
		<path fill="#FFFFFF" d="M123.9,124.5c0-2.1,1.6-3.3,3.4-3.3c1.8,0,3.4,1.1,3.4,3.3c0,2.1-1.6,3.3-3.4,3.3
			C125.6,127.7,123.9,126.6,123.9,124.5z M129,124.5c0-1.9-0.5-3.2-1.6-3.2s-1.6,1.2-1.6,3.2s0.5,3.2,1.6,3.2
			C128.5,127.6,129,126.4,129,124.5z"/>
		<path fill="#FFFFFF" d="M132.4,127.5c0.8,0,1.1-0.3,1.1-1.1v-3.6c0-0.8-0.3-1.1-1.1-1.1v-0.1l2.8-0.3v1.9c0.4-1.1,1.1-2,2-2
			c0.7,0,1.1,0.5,1.1,1.1s-0.5,1-1,1c-0.6,0-1.1-0.5-1-1.1c-0.5,0.2-0.9,0.7-1.1,1.1v3.1c0,0.8,0.3,1.1,1.1,1.1v0.1L132.4,127.5
			L132.4,127.5z"/>
		<path fill="#FFFFFF" d="M140.3,125.9v-4.3h-1.1v-0.2h1.1v-1.6l1.7-0.3v1.9h1.8v0.2h-1.8v4.5c0,0.8,0.3,1.1,0.9,1.1
			c0.6,0,1.1-0.5,1.3-0.9l0.1,0.1c-0.5,0.6-1.1,1.2-2.2,1.2C141.1,127.7,140.3,127.1,140.3,125.9z"/>
	</g>
	<path fill="#FFFFFF" d="M173,91.3c-6,0.1-10.9,5-10.9,11c0,3.7-3.1,6.8-6.8,6.8s-6.8-3.1-6.8-6.8c0-6.1-4.9-11-11-11s-11,5-11,11
		c0,3.7-3.1,6.8-6.8,6.8v4.2c6.1,0,11-5,11-11c0-3.7,3.1-6.8,6.8-6.8c3.7,0,6.8,3.1,6.8,6.8c0,6.1,5,11,11,11c6.1,0,11-5,11-11
		c0-3.7,3-6.8,6.7-6.8L173,91.3L173,91.3z"/>
	<path fill="#FFFFFF" d="M155.3,113.3c6.1,0,11-5,11-11c0-3.7,3-6.8,6.7-6.8v-4.2c-6,0.1-10.9,5-10.9,11c0,3.7-3.1,6.8-6.8,6.8
		V113.3z"/>
	<path fill="#FFFFFF" d="M133,85l4.1,4.1c0.1,0.1,0.2,0.1,0.3,0.1s0.2-0.1,0.3-0.1l4.1-4.1H133z"/>
</g>
</svg>
