<?xml version="1.0" encoding="utf-8"?>
<!-- Generator: Adobe Illustrator 25.2.3, SVG Export Plug-In . SVG Version: 6.00 Build 0)  -->
<svg version="1.1" id="Layer_1" xmlns="http://www.w3.org/2000/svg" xmlns:xlink="http://www.w3.org/1999/xlink" x="0px" y="0px"
	 viewBox="0 0 479.25 483" style="enable-background:new 0 0 479.25 483;" xml:space="preserve">
<style type="text/css">
	.st0{fill:#E1251B;}
	.st1{font-family:'BebasNeue';}
	.st2{font-size:18.3845px;}
</style>
<g>
	<g>
		<g>
			<path class="st0" d="M34.55,413.26c6.44,0,9.76,3.85,9.76,10.6v1.33h-6.26v-1.75c0-3.01-1.2-4.16-3.31-4.16
				c-2.11,0-3.31,1.14-3.31,4.16c0,8.67,12.95,10.3,12.95,22.34c0,6.74-3.37,10.6-9.88,10.6s-9.88-3.85-9.88-10.6v-2.59h6.26v3.01
				c0,3.01,1.33,4.09,3.43,4.09c2.11,0,3.43-1.08,3.43-4.09c0-8.67-12.95-10.3-12.95-22.34C24.79,417.11,28.1,413.26,34.55,413.26z"
				/>
			<path class="st0" d="M68.99,424.16v5.48c0,6.74-3.25,10.42-9.88,10.42h-3.13v15.84h-6.63v-42.16h9.76
				C65.74,413.74,68.99,417.41,68.99,424.16z M55.99,419.76v14.27h3.13c2.11,0,3.25-0.96,3.25-3.98v-6.32
				c0-3.01-1.14-3.98-3.25-3.98H55.99z"/>
			<path class="st0" d="M72.73,423.86c0-6.75,3.55-10.6,10.06-10.6c6.5,0,10.06,3.85,10.06,10.6v21.92c0,6.74-3.55,10.6-10.06,10.6
				c-6.5,0-10.06-3.85-10.06-10.6V423.86z M79.35,446.2c0,3.01,1.33,4.16,3.43,4.16c2.11,0,3.43-1.14,3.43-4.16v-22.77
				c0-3.01-1.33-4.16-3.43-4.16c-2.11,0-3.43,1.14-3.43,4.16V446.2z"/>
			<path class="st0" d="M112.17,455.9c-0.36-1.08-0.6-1.75-0.6-5.18v-6.63c0-3.91-1.33-5.36-4.34-5.36h-2.29v17.16h-6.63v-42.16h10
				c6.87,0,9.82,3.19,9.82,9.7v3.31c0,4.34-1.38,7.17-4.34,8.55c3.31,1.38,4.4,4.58,4.4,8.97v6.5c0,2.05,0.06,3.55,0.72,5.12H112.17
				z M104.94,419.76v12.95h2.59c2.47,0,3.98-1.08,3.98-4.46v-4.16c0-3.01-1.02-4.34-3.37-4.34H104.94z"/>
			<path class="st0" d="M121.8,413.74h20.48v6.02h-6.93v36.14h-6.63v-36.14h-6.93V413.74z"/>
			<path class="st0" d="M155.29,413.26c6.44,0,9.76,3.85,9.76,10.6v1.33h-6.26v-1.75c0-3.01-1.2-4.16-3.31-4.16
				c-2.11,0-3.31,1.14-3.31,4.16c0,8.67,12.95,10.3,12.95,22.34c0,6.74-3.37,10.6-9.88,10.6s-9.88-3.85-9.88-10.6v-2.59h6.26v3.01
				c0,3.01,1.33,4.09,3.43,4.09s3.43-1.08,3.43-4.09c0-8.67-12.95-10.3-12.95-22.34C145.53,417.11,148.84,413.26,155.29,413.26z"/>
			<path class="st0" d="M200.27,424.16v5.48c0,6.74-3.25,10.42-9.88,10.42h-3.13v15.84h-6.63v-42.16h9.76
				C197.02,413.74,200.27,417.41,200.27,424.16z M187.26,419.76v14.27h3.13c2.11,0,3.25-0.96,3.25-3.98v-6.32
				c0-3.01-1.14-3.98-3.25-3.98H187.26z"/>
			<path class="st0" d="M211.17,431.5h9.09v6.02h-9.09v12.35h11.44v6.02h-18.07v-42.16h18.07v6.02h-11.44V431.5z"/>
			<path class="st0" d="M241.76,455.9c-0.36-1.08-0.6-1.75-0.6-5.18v-6.63c0-3.91-1.33-5.36-4.34-5.36h-2.29v17.16h-6.63v-42.16h10
				c6.87,0,9.82,3.19,9.82,9.7v3.31c0,4.34-1.38,7.17-4.34,8.55c3.31,1.38,4.4,4.58,4.4,8.97v6.5c0,2.05,0.06,3.55,0.72,5.12H241.76
				z M234.53,419.76v12.95h2.59c2.47,0,3.98-1.08,3.98-4.46v-4.16c0-3.01-1.02-4.34-3.37-4.34H234.53z"/>
			<path class="st0" d="M259.95,432.47h8.55v6.02h-8.55v17.41h-6.63v-42.16h17.53v6.02h-10.9V432.47z"/>
			<path class="st0" d="M274.7,423.86c0-6.75,3.55-10.6,10.06-10.6c6.5,0,10.06,3.85,10.06,10.6v21.92c0,6.74-3.55,10.6-10.06,10.6
				c-6.5,0-10.06-3.85-10.06-10.6V423.86z M281.32,446.2c0,3.01,1.33,4.16,3.43,4.16c2.11,0,3.43-1.14,3.43-4.16v-22.77
				c0-3.01-1.33-4.16-3.43-4.16c-2.11,0-3.43,1.14-3.43,4.16V446.2z"/>
			<path class="st0" d="M314.14,455.9c-0.36-1.08-0.6-1.75-0.6-5.18v-6.63c0-3.91-1.33-5.36-4.34-5.36h-2.29v17.16h-6.63v-42.16h10
				c6.87,0,9.82,3.19,9.82,9.7v3.31c0,4.34-1.38,7.17-4.34,8.55c3.31,1.38,4.4,4.58,4.4,8.97v6.5c0,2.05,0.06,3.55,0.72,5.12H314.14
				z M306.92,419.76v12.95h2.59c2.47,0,3.98-1.08,3.98-4.46v-4.16c0-3.01-1.02-4.34-3.37-4.34H306.92z"/>
			<path class="st0" d="M339.74,443.67l4.52-29.93h9.22v42.16h-6.26v-30.23l-4.58,30.23h-6.26l-4.94-29.81v29.81h-5.78v-42.16h9.21
				L339.74,443.67z"/>
			<path class="st0" d="M380.93,455.9h-6.69l-1.14-7.65h-8.13l-1.14,7.65h-6.08l6.75-42.16h9.7L380.93,455.9z M365.81,442.53h6.38
				L369,421.21L365.81,442.53z"/>
			<path class="st0" d="M391.1,425.36v30.53h-5.96v-42.16h8.31l6.81,25.23v-25.23h5.9v42.16h-6.81L391.1,425.36z"/>
			<path class="st0" d="M431.33,440.18v5.6c0,6.74-3.37,10.6-9.88,10.6c-6.5,0-9.88-3.85-9.88-10.6v-21.92
				c0-6.75,3.37-10.6,9.88-10.6c6.5,0,9.88,3.85,9.88,10.6v4.1h-6.26v-4.52c0-3.01-1.33-4.16-3.43-4.16c-2.11,0-3.43,1.14-3.43,4.16
				v22.77c0,3.01,1.33,4.09,3.43,4.09c2.11,0,3.43-1.08,3.43-4.09v-6.02H431.33z"/>
			<path class="st0" d="M443.19,431.5h9.09v6.02h-9.09v12.35h11.44v6.02h-18.07v-42.16h18.07v6.02h-11.44V431.5z"/>
		</g>
	</g>
	<path class="st0" d="M407.9,26.63V69.2l-30.75,38.62l-2.54,26.53L251.44,265.91l16.11,27.9h-20.8h-12.76h-20.8l16.11-27.9
		L106.13,134.34l-2.54-26.53L72.84,69.2V26.63l114.19,115.92l2.54,20.39l27.01,26.34l4.4,19.55c0,0,16.43,20.2,19.41,20.2
		s19.41-20.2,19.41-20.2l4.4-19.55l27.01-26.34l2.54-20.39L407.9,26.63z M247.95,269.64l-7.58,8.1l-7.58-8.1l7.58,13.13
		L247.95,269.64z M95.42,64.02l75.31,89.32l4.58,24.49l31.1,16.11l-27.01-26.34l-2.54-20.39L95.42,64.02z M303.88,147.2l-2.54,20.39
		l-27.01,26.34l31.1-16.11l4.58-24.49l75.31-89.32L303.88,147.2z"/>
	<g>
		<g>
			<polygon class="st0" points="115.14,344.66 115.14,344.66 115.15,344.66 115.15,344.66 			"/>
			<path class="st0" d="M274.94,361.33c-0.06-0.02-0.13-0.03-0.19-0.05c-0.03,0.59-0.05,1.19-0.08,1.78c0.1,0.03,0.18,0.07,0.27,0.1
				V361.33z"/>
			<polygon class="st0" points="273.65,350.87 273.65,350.87 273.65,350.87 			"/>
			<polygon class="st0" points="97.72,383.31 97.72,383.31 97.72,383.31 97.72,383.31 97.72,383.31 			"/>
			<path class="st0" d="M86.48,338.46c-1.15,0.37-1.61,1.17-1.38,2.22l0.52,2.3c0.2-0.08,0.36-0.22,0.44-0.52
				c0.13-0.48-0.12-1.49,0.18-1.36c0.92,0.43,2.1-0.29,2.82,0.69l0,0l0,0c0.2,0.17,0.4,0.33,0.6,0.5c0.57,0.23,0.68,0.6,0.26,1.04
				c-0.42,0.44-0.99,0.72-1.54,0.37c-0.96-0.61-1.46-0.37-1.71,0.68c-0.09,0.37-0.33,0.59-0.61,0.55l1.03,4.58
				c0.17-0.19,0.4-0.29,0.6-0.18c1.1,0.61,2.46,0.29,3.54,0.92c0.13,0.07,0.26,0.16,0.38,0.27c0.56,0.15,1.12,0.3,1.68,0.45l0,0
				c0.22-0.08,0.45-0.16,0.67-0.24l0,0l0,0c0.39,0,0.78,0.01,1.6,0.02c-1.07,0.57-0.96,1.56-1.67,2.04
				c-0.01,0.39-0.05,0.78-0.04,1.17c0.02,0.54-0.01,1.05-0.58,1.28c-0.16,0.06-0.48-0.02-0.59-0.15c-0.34-0.4-0.27-0.88,0.01-1.25
				c0.31-0.41,0.32-0.82,0.2-1.27c-0.39-0.45-0.79-0.51-1.35-0.23c-0.69,0.35-1.06-0.08-1.24-0.72v0v0
				c-0.67-0.85-1.62-0.92-2.59-0.98c-0.12-0.01-0.25-0.03-0.37-0.06l1.08,4.79c0.1,0.02,0.2,0.04,0.3,0.06h0
				c0.67-0.28,1.23-0.21,1.63,0.46c0.4,1.29,0.38,2.04-1.33,1.33c-0.06-0.03-0.13-0.05-0.2-0.07l0.32,1.42
				c0.19-0.06,0.39-0.09,0.62-0.07h0c0.76-0.3,1.42-0.14,1.97,0.46c0.46,0.18,1.17,0.27,1.05,0.89c-0.12,0.65-0.74,0.2-1.14,0.21
				c-0.61,0.01-1.23-0.02-1.84-0.06c-0.1-0.01-0.22,0.01-0.34,0.04l1.23,5.45c0.15-0.22,0.39-0.24,0.67-0.17
				c0.38,0.1,0.57,0.34,0.42,0.73c-0.13,0.33-0.4,0.55-0.77,0.43c-0.04-0.01-0.07-0.04-0.11-0.06l0.26,1.15c0.1,0,0.2,0,0.29,0
				c1.06-0.03,0.44,0.85,0.42,1.38l0,0c0.52,0.53,0.54,1.15,0.29,1.81l0,0l0,0c1.9-0.05,3.55,0.96,5.37,1.25v0
				c0.45,0.45,0.8,0.9,0.07,1.41l0,0l0,0l0,0l0,0c-1.2,0.55-1.94-0.17-2.65-0.95c-0.27,0.18-0.54,0.36-0.81,0.55
				c-0.4,1.58-0.57,2.2-1.21,2.32l0.2,0.87c0.24-0.09,0.52-0.09,0.77-0.04c1.16,0.23,2.32,0.41,3.51,0.41
				c0.68-1.29,0.99-2.82,2.35-3.68l0,0v0c0.52,0.64,0.02,1.24-0.08,1.86c-0.44,0.77-0.14,1.82-0.93,2.45
				c-0.12,0.99,0.37,2.42-1.52,2.16v0c-0.21,0.54-0.06,1.24-0.71,1.58c-0.58,0.7-1.3,0.86-2.13,0.56c-0.03-0.01-0.04-0.01-0.07-0.02
				l0.33,1.46c0.18,0.2,0.21,0.45,0.16,0.71l3.17,14.06c0.01,0.06,0.04,0.09,0.06,0.14c0.08-0.05,0.16-0.1,0.24-0.14l0,0h0
				c0.13-0.51-0.01-1.16,0.7-1.37l0,0l0,0c0.31-0.05,0.38-0.29,0.43-0.54c0.94-0.1,2.01-0.78,2.66,0.54
				c-0.05,1.16-1.04,0.67-1.6,0.92c-0.38,0.07-0.75,0.13-1.13,0.2c-0.05,0.14-0.1,0.29-0.14,0.43c0.15,0.3,0.27,0.53,0.36,0.73
				c0.04-0.01,0.07-0.01,0.1-0.02l3.81-1.23c-0.3-0.1-0.46-0.36-0.39-0.8c0.34,0.07,0.68,0.14,1.03,0.21
				c-0.01,0.12,0.02,0.26,0.01,0.38l3.2-1.04c0.92-0.3,1.46-0.95,1.69-2l1.76-8.87c-0.36-0.15-0.51-0.4,0.09-0.97
				c0.04-0.04,0.08-0.07,0.13-0.11l0.5-2.51c-0.62-0.35-1.23-0.73-0.92-1.35c0.36-0.71,0.74-0.31,1.17,0.07l0.26-1.32
				c-0.99-0.56-2.19-0.56-3.12-1.25v0c-0.5,0.38-0.89,0.16-1.07-0.31c-0.25-0.67,0.45-0.79,0.78-1.13
				c-0.18-0.58-0.31-1.24,0.56-1.23c0.71,0.01,0.94,0.46,0.57,1.18c-0.45,0.88,0.45,1,0.89,1.34c0.45,0.36,0.92,0.52,1.19-0.23
				c0.16-0.43,0.39-0.44,0.58-0.32l2.33-11.76c-0.2-0.07-0.32-0.25-0.27-0.5c0.07-0.34,0.26-0.54,0.51-0.68l0.72-3.64
				c-0.21-0.17-0.16-0.48-0.1-0.75c0.08-0.34,0.11-0.73,0.43-0.9l1.52-7.67c-0.11-0.07-0.22-0.14-0.31-0.23
				c-0.48-0.5-0.03-1.05,0.49-1.36c0.05-0.03,0.09-0.03,0.14-0.06l0.34-1.71c-0.03-0.16-0.04-0.33,0.02-0.52
				c0.03-0.12,0.08-0.19,0.14-0.24l3.12-15.75c-0.44-0.4-0.69-0.88-0.17-1.52c0.18-0.22,0.37-0.35,0.55-0.41l0.13-0.67
				c0.19-1.01-0.13-1.48-0.91-1.4c0.12,0.16,0.19,0.33,0.19,0.55c0.01,0.89-0.98,0.19-1.48,0.28c-0.24-0.13-0.55-0.16-0.83-0.22
				l-1.54,0.5c0.05,0.08,0.09,0.15,0.14,0.23c0.1,0.04,0.23,0.06,0.31,0.13c0.54,0.51,1.7,0.79,1.28,1.71
				c-0.48,1.06-1.18-0.35-1.84-0.14c-0.14,0.04-0.33-0.07-0.49-0.11l0,0c-0.65-0.25-1.49-0.06-1.93-0.8l0,0
				c0-0.06-0.01-0.13-0.02-0.19l-1.54,0.5c-0.92,0.3-1.46,0.95-1.69,2l-0.81,4.58c0.38-0.13,0.91,0.25,1.34,0.25
				c0.33,0.08,0.66,0.16,0.99,0.23c0.38,0.31,0.63,0.65,0.25,1.14c-0.31,0.4-0.69,0.57-1.18,0.39c-0.21-0.08-0.45-0.13-0.61-0.27
				c-0.27-0.23-0.72-0.37-0.99-0.62l-0.32,1.79c0.61,0.14,1.19,0.4,1.74,0.79c0.28,0.04,0.56,0.14,0.84,0.12
				c0.51-0.03,1.05-0.22,1.38,0.33c0.15,0.26-0.03,0.52-0.24,0.75c-0.53,0.57-1.03,0.18-1.54-0.02h0l0,0
				c-0.33,0.34-0.71,0.17-1.08,0.12c-0.19,0.3-0.38,0.61-0.56,0.91l0,0c0.36,0.25,1.32-0.12,0.89,0.94
				c-0.25,0.61-0.53,0.97-1.24,0.74c-0.32-0.11-0.68-0.12-0.96-0.29l-0.62,3.49c0.15,0.02,0.31,0.04,0.48,0.09
				c0.4,0.28,1.41,0.45,1.24,1.01c-0.23,0.76-1.24,0.9-2.02,0.87c-0.02,0-0.03-0.01-0.04-0.01l-1.27,7.17c0.16,0,0.32,0.01,0.49,0
				c1.53-0.11,1.65,0.59,0.89,1.71c-0.05-0.03-0.1-0.05-0.15-0.08c-0.01,0.02-0.01,0.04-0.01,0.06l0.16,0.02
				c-0.55,0.23-1.09,0.46-1.64,0.69c0.29,0.08,0.51,0.23,0.52,0.57l0,0c0.07,0.11,0.15,0.21,0.22,0.32c0,0,0,0,0,0c0,0,0,0,0,0
				c0.01,0.02,0.01,0.03,0.01,0.05c0.06,0.17,0.1,0.31,0.12,0.43c0.18,0.78-0.06,0.82-1.33,0.63c-0.02,0.01-0.04,0.02-0.06,0.03
				l-2.33,13.13c0.31-0.26,0.62-0.51,0.89-0.82c0.73-0.14,1.16-0.45,0.67-1.25v0v0c-0.38-0.16-1.04-0.01-1.09-0.55
				c-0.05-0.62,0.55-0.54,0.98-0.55h0c0.77-0.34,1.42-0.16,1.98,0.43l0,0c1.34,1.26-0.4,1.82-0.62,2.73l0,0l0,0
				c0.2,1.88,0,2.02-2.21,1.63c-0.22,0.49-0.43,0.98-0.65,1.46l0,0l0,0c-0.2,0.16-0.38,0.24-0.56,0.28l-0.06,0.33l-0.07-0.33
				c-0.37,0.02-0.7-0.19-1-0.59c-0.4-0.57,0.08-0.9,0.36-1.28c0.06-0.12,0.14-0.21,0.21-0.31l-0.23-1.15
				c-0.3-0.06-0.67-0.13-0.45-0.59c0.07-0.14,0.14-0.3,0.26-0.41l-0.17-0.87c-0.47,0.07-1-0.19-1.4-0.46
				c-0.32-0.22-0.45-0.74-0.67-1.12v0c-0.5,0.35-0.89,0.06-1.13-0.32c-0.25-0.4,0.26-0.54,0.45-0.79c0.06-0.47-0.04-0.89-0.43-1.2
				l0,0l0,0c-0.5-0.69-0.37-1.24,0.38-1.64c0.2,0.03,0.41,0.05,0.61,0.08h0c0.29-0.26,0.81-0.29,0.88-0.8l0,0
				c-0.9-0.73-2.65-0.56-2.49-2.47c0.02-0.2-1.48-0.1-1.22-1.24l0,0c0.38-1.62,1.21-1.29,2.14-0.49c0.37,0,0.63,0.05,0.83,0.14
				l-0.95-4.79c-1.08-1.14-2.88-0.99-3.8,0.39c-0.3,0.46-0.39,1.43-1.23,1.1c-0.88-0.34-0.45-1.17-0.3-1.8
				c0.21-0.88,0.24-1.83,0.93-2.53c0.73-0.47,1.39,0.09,2.09,0.14c0.62,0.05,1.23,0.12,1.83,0.24L98,349.87
				c-0.26-0.11-0.5-0.29-0.72-0.56c0.22,0.08,0.41,0.02,0.59-0.1l-0.45-2.28c-0.01-0.01-0.03-0.01-0.04-0.02l0,0
				c-0.09-0.07-0.17-0.15-0.27-0.22c-0.65-0.5-1.21-1.21-0.5-1.85c0.14-0.12,0.25-0.18,0.35-0.22l-0.8-4.05
				c-0.15-0.09-0.32-0.15-0.57-0.14c-0.5,0.02-1.16-0.26-0.87-0.89c0.18-0.38,0.75-0.36,1.2-0.15L95.45,337
				c-0.23-0.89-0.77-1.2-1.69-0.9l-0.46,0.15c0.07,0.09,0.1,0.2,0.08,0.34c-0.09,0.49-0.53,0.49-0.91,0.55
				c-0.34-0.02-0.42-0.23-0.4-0.49L86.48,338.46z M89.19,339.58c-0.3-0.09-0.45-0.33-0.38-0.64c0.07-0.29,0.33-0.26,0.55-0.22
				c0.29,0.05,0.54,0.15,0.51,0.52C89.72,339.49,89.51,339.68,89.19,339.58z M91.64,353.71c-0.32,1.04-1.36,0.95-2.28,0.86
				c-0.93-0.09-1.48-0.9-1.23-1.48c0.39-0.9,1.43-0.58,1.8-0.5C90.99,352.83,91.88,352.92,91.64,353.71z M93.07,357.64
				c-0.12,0.4-0.42,0.49-0.79,0.39c-0.4-0.11-0.53-0.37-0.44-0.76c0.1-0.38,0.33-0.58,0.73-0.5
				C93.06,356.86,93.21,357.18,93.07,357.64z M96.13,374.8c-0.08,0.36-0.25,0.63-0.67,0.52c-0.36-0.09-0.58-0.35-0.53-0.72
				c0.05-0.41,0.4-0.46,0.64-0.53C96.08,374.16,96.22,374.41,96.13,374.8z M111.39,375.6c-0.08,0.31-0.34,0.46-0.64,0.41
				c-0.3-0.05-0.26-0.32-0.26-0.53c0.09-0.29,0.16-0.62,0.53-0.54C111.31,375.02,111.48,375.28,111.39,375.6z M111.33,358.03
				c-0.11,0.42-0.33,0.53-0.64,0.4c-0.32-0.13-0.37-0.41-0.26-0.69c0.1-0.28,0.34-0.49,0.63-0.36
				C111.33,357.51,111.36,357.82,111.33,358.03z M111.74,360.35c0.35,0.2,0.38,0.51,0.3,0.86c-0.11,0.46-0.37,0.67-0.85,0.53
				c-0.27-0.08-0.59-0.19-0.39-0.55C111.01,360.81,111.2,360.37,111.74,360.35z M111.58,373.11c-0.27-0.03-0.59-0.07-0.62-0.42
				c-0.03-0.35,0.26-0.49,0.55-0.49c0.32,0,0.47,0.25,0.53,0.51C111.99,373.02,111.84,373.15,111.58,373.11z M111.85,370.39
				c-0.32-0.06-0.73-0.14-0.58-0.61c0.09-0.27,0.37-0.41,0.69-0.36c0.42,0.08,0.56,0.39,0.53,0.75
				C112.45,370.62,112.08,370.43,111.85,370.39z M115.91,353.51c-0.08,0.26-0.3,0.39-0.51,0.27c-0.32-0.19-0.42-0.51-0.29-0.88
				c0.1-0.27,0.32-0.27,0.55-0.25C116.08,352.84,116.03,353.17,115.91,353.51z M115.78,350.79c-0.38-0.04-0.58-0.31-0.67-0.64
				c0.1-0.47,0.47-0.51,0.8-0.47c0.34,0.04,0.68,0.26,0.65,0.65C116.51,350.73,116.13,350.83,115.78,350.79z M119.6,336.28
				c-0.15,0.61-0.56,0.82-1.16,0.7c-0.49-0.1-0.67-0.41-0.52-0.88c0.2-0.64,0.77-0.56,1.22-0.62
				C119.62,335.6,119.7,335.91,119.6,336.28z M118.74,332.52c0.67,0.23,1.23,0.58,1.13,1.43c-0.09,0.87-0.65,0.27-0.98,0.34
				c-0.75-0.2-1.28-0.63-1.21-1.41C117.75,332.21,118.32,332.37,118.74,332.52z M117.63,338.99c0.11-0.28,0.32-0.44,0.58-0.43
				c0.34,0.26,0.6,0.52,0.44,0.88c-0.12,0.28-0.46,0.32-0.74,0.22C117.6,339.55,117.51,339.29,117.63,338.99z M117.03,341.91
				c0.35-0.69,1.07-0.75,1.76-0.83c0.49,0.24,0.67,0.67,0.47,1.13c-0.38,0.85-1.21,0.32-1.82,0.46
				C117.11,342.75,116.87,342.21,117.03,341.91z M117.16,344.26c0.53-0.16,0.85,0.51,0.93,1.01c0.14,0.87-0.37,1.08-1.13,0.92
				c-0.16,0.4,0.28,1.09-0.53,1.16c-0.15,0.01-0.41-0.21-0.47-0.37c-0.24-0.66,0.52-0.56,0.73-0.9
				C116.5,345.38,116.22,344.54,117.16,344.26z M115.88,336.34c-0.24-0.05-0.37-0.26-0.32-0.51c0.05-0.23,0.2-0.4,0.47-0.37
				c0.24,0.05,0.42,0.17,0.41,0.44C116.43,336.26,116.21,336.4,115.88,336.34z M115.56,332.58c0.06-0.26,0.13-0.63,0.5-0.54
				c0.49,0.11,0.49,0.54,0.43,0.95c-0.09,0.28-0.2,0.57-0.55,0.51C115.34,333.41,115.48,332.96,115.56,332.58z M115.39,337.39
				c0.33,0.14,0.6,0.39,0.5,0.76c-0.15,0.56-0.62,0.58-1.09,0.46c-0.4-0.11-0.56-0.38-0.39-0.76
				C114.58,337.44,114.92,337.27,115.39,337.39z M115.8,341.78c-0.06,0.22-0.15,0.49-0.43,0.37c-0.17-0.07-0.33-0.31-0.36-0.49
				c-0.04-0.25,0.14-0.41,0.42-0.35C115.67,341.36,115.83,341.5,115.8,341.78z M113.69,331.19c0.37,0.16,0.9,0.24,0.88,0.83
				c-0.16,0.47-0.57,0.57-0.94,0.48c-0.37-0.08-0.73-0.36-0.64-0.83C113.05,331.33,113.31,331.03,113.69,331.19z M112.59,335.61
				c-0.35-0.05-0.9-0.12-0.57-0.72c0.38-0.69,1.03-0.81,1.68-0.74c0.48,0.13,0.91,0.39,0.75,0.81
				C114.13,335.83,113.31,335.71,112.59,335.61z M110.44,346.79c-0.31-0.53-0.2-1.28,0.32-1.19c1.42,0.23,1.48-0.66,1.82-1.59
				c0.48-1.31,1.61-1.07,2.57-0.67c0.83,0.34,0.7,0.88,0,1.31l0,0c-0.38,0.46-1.21,0.43-1.32,1.2h0c-0.04,0.21-0.09,0.42-0.13,0.63
				c0.45,1.22-0.53,1.27-1.08,0.98c-0.67-0.35-1.29-0.15-1.91-0.28l0,0C110.62,347.05,110.53,346.92,110.44,346.79z M112.35,349.45
				c0.11-0.46,0.32-0.67,0.63-0.58c0.43,0.12,0.41,0.49,0.29,0.83c-0.1,0.29-0.32,0.46-0.65,0.32
				C112.29,349.88,112.33,349.59,112.35,349.45z M112.57,352.32c-0.2,0.34-0.5,0.47-0.85,0.36c-0.31-0.09-0.43-0.35-0.31-0.65
				c0.14-0.35,0.4-0.56,0.77-0.35C112.41,351.8,112.68,351.97,112.57,352.32z M110.72,354.97c0.5,0.2,0.97,0.13,1.42-0.17
				c0.94-0.64,1.85-0.53,2.75,0.09l0,0v0c0.35,0.1,0.6,0.28,0.55,0.7c-0.06,0.45-0.29,0.7-0.78,0.64c-0.78,0.65-1.37-0.75-2.14-0.21
				v0c-0.11,0.02-0.22,0.02-0.32,0c-0.33,0.29-0.7,0.14-1.06,0.09l0,0l0,0C110.52,355.91,109.61,355.81,110.72,354.97z
				 M108.95,351.89c0.11-0.37,0.38-0.53,0.7-0.57c0.47,0.27,0.3,0.62,0.22,0.94c-0.09,0.35-0.26,0.68-0.71,0.51
				C108.73,352.59,108.86,352.21,108.95,351.89z M109.13,354.33c0.08-0.26,0.31-0.31,0.54-0.25c0.28,0.07,0.32,0.26,0.2,0.61
				c-0.14,0.04-0.34,0.18-0.53,0.16C109.04,354.82,109.06,354.55,109.13,354.33z M108.41,360.54c0.13-0.43,0.53-0.32,0.79-0.29
				c0.41,0.11,0.77,0.22,0.7,0.67c-0.08,0.46-0.45,0.44-0.79,0.35C108.73,361.18,108.24,361.11,108.41,360.54z M109.24,362.64
				c1.52,0.95,1.52,0.95,1.33,1.84c-1.33,1.08-2.06-0.23-3-0.74C107.66,362.42,108.25,362.02,109.24,362.64z M107.51,365.51
				c0.46-0.39,0.94-0.1,1.42-0.03c0.54,0.21,1.26,0.06,1.6,0.73c0.33,1.05-0.48,1.31-1.08,1.08c-1-0.38-2.16-0.49-2.94-1.36l0,0h0
				C106.7,365.47,107.05,365.36,107.51,365.51z M107.94,369.56L107.94,369.56c-0.78,0.18-1.48,0.09-2.08-0.42
				c-0.08-0.04-0.15-0.09-0.22-0.18c0.09-1.01,1.29-1.63,2.17-1.11c0.23,0.14,0.38,0.43,0.6,0.59c0.36,0.26,1,0.43,0.84,0.92
				C109.04,370.06,108.38,369.42,107.94,369.56z M98.18,394.29c-0.23-0.05-0.4-0.18-0.38-0.46c0.03-0.25,0.15-0.42,0.42-0.42
				c0.35,0,0.51,0.22,0.45,0.54C98.63,394.19,98.44,394.35,98.18,394.29z M97.48,390.28c-0.84-0.2-0.85-0.8-0.7-1.48l0,0h0
				c0.8-0.42,1.47-0.28,1.99,0.48C98.61,389.96,98.32,390.48,97.48,390.28z M98.16,388c-0.33-0.07-0.42-0.33-0.34-0.64
				c0.07-0.27,0.14-0.6,0.5-0.53c0.39,0.07,0.5,0.39,0.48,0.52C98.7,387.94,98.47,388.06,98.16,388z M99.87,385.29
				c-0.35,0.3-1.12,1.1-1.58-0.07c-0.64-0.26-1.46-0.05-1.9-0.8c-0.3-0.31-0.1-0.67-0.09-1.01l0,0h0c0.76-0.99,1.39-0.65,1.99-0.11
				c0.17,0.05,0.32,0.12,0.38,0.35l0,0h0l0,0c0.24,0.23,0.46,0.49,0.72,0.69C99.72,384.6,100.42,384.81,99.87,385.29z
				 M104.89,394.89c-0.45,0.17-0.9,0.21-1.36,0.07c-1.06,0.44-1.85-0.35-2.75-0.62c-0.67-1.13,0.46-0.93,0.91-1.24c0,0,0,0,0,0
				c0,0,0,0,0,0c0.72,0.17,1.44,0.33,2.16,0.5C104.63,393.68,105.27,393.87,104.89,394.89z M105.16,390.69
				c0.21,0.87,0.18,1.52-1.02,1.18c-0.44-0.12-0.88-0.22-1.32-0.33v0c-0.77-0.08-1.11-0.4-0.62-1.16c-0.06-0.04-0.12-0.06-0.19-0.08
				c-0.09-0.02-0.19-0.02-0.28-0.02c0.05-0.5,0.28-0.91,0.63-1.26l0,0h0c-0.05-0.08-0.12-0.15-0.2-0.2
				c-0.48,0.07-0.92,0.44-1.65,0.09c1.08-1.5,2.46-1.16,3.81-0.88c0.12,0.12,0.36,0.31,0.34,0.34c-0.9,1.41,0.33,1.89,1.11,2.57
				C105.57,390.87,105.37,390.78,105.16,390.69L105.16,390.69L105.16,390.69z M101.9,385.74c0.17-0.87,1.02-0.51,1.56-0.54
				c0.57-0.03,0.68,0.48,0.6,0.98c-0.12,0.74-0.53,0.92-1.11,0.65C102.15,386.8,101.78,386.32,101.9,385.74z M109.2,383.07
				c0.32,0.05,0.41,0.35,0.35,0.66c-0.04,0.25-0.18,0.41-0.45,0.41c-0.35-0.01-0.49-0.22-0.47-0.55
				C108.71,383.29,108.88,383.02,109.2,383.07z M108.75,390c0.01,0.41-0.52,0.4-0.81,0.25c-0.63-0.33-1.39-0.65-1.51-1.44
				c-0.08-0.56,0.47-0.48,0.96-0.41C108.05,388.68,108.73,389.12,108.75,390z M105.45,377.37c0.08-0.44,0.31-0.69,0.79-0.72
				c0.43,0.12,0.61,0.42,0.55,0.87c-0.05,0.44-0.26,0.75-0.76,0.67C105.58,378.12,105.36,377.85,105.45,377.37z M105.39,379.96
				c0.45-0.45,1.04-0.53,1.65-0.43c0.48,0.07,0.68,0.43,0.47,0.86c-0.39,0.83-1.06,0.27-1.61,0.24
				C105.6,380.61,105.21,380.51,105.39,379.96z M101.48,377.86c0.86,0.09,1.59,0.49,2.28,0.96c0.29,0.2,0.47,0.5,0.36,0.86
				c-0.13,0.43-0.48,0.39-0.82,0.33c-0.62-0.11-1.21-0.1-1.71,0.33h0c0,0.01,0,0.01-0.01,0.02c0.29,0.2,0.59,0.39,0.88,0.59
				c0.99,0.7,1.87,1.64,3.26,1.46l0,0c0.13-0.05,0.25-0.11,0.38-0.16c0,0,0,0,0,0l0,0c0.93-0.75,1.54-0.1,1.8,0.62
				c0.29,0.81-0.5,0.99-1.12,1.13c-0.28,0.06-0.55,0.12-0.83,0.19v0l0,0c-0.77,0.3-1.42,0.08-2.01-0.44h0
				c-0.66,0.34-1.21,0.21-1.65-0.39c-0.5-0.63-0.83-1.66-1.95-0.81h0c-0.65,0.35-1.2,0.21-1.65-0.36c-0.37-1.14-0.22-1.77,1.18-1.28
				c0.56,0.2,1.08-0.14,1.62-0.23c0.03-0.1,0.06-0.21,0.09-0.31c0,0-0.01-0.01-0.01-0.01c0.01-0.01,0.01-0.01,0.02-0.01
				c-0.54-0.1-0.79-0.48-0.94-0.96h0C99.71,378.23,100.8,378.15,101.48,377.86z M96.67,357.8c0.87,0.75,2.18-0.11,2.9,0.9h0h0
				c0.26,0.33,0.11,0.67,0.03,1.01c-0.79,0.53-3.38-0.4-3.44-1.24C96.14,358.13,96.42,357.59,96.67,357.8z M96.1,360.13
				c0.28,0.11,0.43,0.33,0.39,0.62c-0.04,0.28-0.29,0.3-0.5,0.24c-0.23-0.06-0.36-0.25-0.31-0.49
				C95.72,360.29,95.81,360.08,96.1,360.13z M95.67,364.52c0.39,0.17,0.59,0.5,0.48,0.93c-0.15,0.56-0.6,0.37-0.97,0.3
				c-0.42-0.09-0.8-0.28-0.53-0.79C94.84,364.58,95.2,364.41,95.67,364.52z M94.3,362.83c0.35,0.24,0.52,0.66,0.41,1.11
				c-0.08,0.32-0.42,0.62-0.78,0.41c-0.45-0.25-0.46-0.73-0.33-1.19C93.69,362.86,93.87,362.67,94.3,362.83z M95.77,346.13
				c-0.07,0.36-0.26,0.65-0.68,0.52c-0.51-0.16-0.64-0.57-0.54-1.06c0.07-0.36,0.25-0.61,0.71-0.52
				C95.73,345.26,95.87,345.64,95.77,346.13z M94.17,342.81c0.17-0.41,0.49-0.41,0.83-0.3c0.39,0.13,0.74,0.37,0.6,0.84
				c-0.13,0.44-0.53,0.55-0.94,0.4C94.24,343.59,94.11,343.24,94.17,342.81z M94.44,348.33c0.55,0.12,0.93,0.4,0.9,1.03
				c-0.03,0.47-0.34,0.49-0.72,0.43c-0.69-0.11-0.96-0.67-0.98-1.21C93.62,348.11,94.13,348.3,94.44,348.33z M92.24,342.66
				c-0.16,0.32-0.5,0.44-0.85,0.32c-0.31-0.1-0.39-0.36-0.28-0.66c0.16-0.32,0.4-0.56,0.78-0.44
				C92.25,341.99,92.41,342.31,92.24,342.66z"/>
			<path class="st0" d="M269.76,332.67L269.76,332.67C269.77,332.67,269.76,332.67,269.76,332.67L269.76,332.67z"/>
			<rect x="267.68" y="321.95" class="st0" width="0" height="0"/>
			<polygon class="st0" points="273.65,350.87 273.64,350.88 273.64,350.88 			"/>
			<path class="st0" d="M135.03,324.23c0.57,0.38,1.22,0.04,1.81,0.17c0.09,0.36,0.41,0.71,0.27,1.08c1.27,1.15,1.25,1.61-0.12,2.61
				c-0.08,0.01-0.16-0.01-0.23-0.01c0.04,0.3-0.01,0.57-0.24,0.8c-0.65-0.26-1.31-0.52-1.96-0.78c-0.4-0.2-0.79-0.41-1.19-0.61l0,0
				c-0.26,0.07-0.51,0.13-0.77,0.2l0,0l0,0c-0.22,0.58-0.78,0.56-1.25,0.7c-0.25,0.15-0.5,0.3-0.75,0.45
				c2.19,0.13,4.36,0.32,6.23,1.65c0.02,0.06,0.01,0.1,0.02,0.15c0.11-0.05,0.23-0.11,0.34-0.16c0.13,0.4,0.42,0.84-0.06,1.16
				c-0.37,0.25-0.55-0.17-0.79-0.36v0c-0.13-0.03-0.26-0.05-0.38-0.08l0,0v0l0,0c-1.08-0.01-1.65,0.39-1.77,1.59
				c-0.06,0.58-0.69,1.11-1.06,1.66l0,0l0,0c-0.81,0.47-0.83-0.46-1.24-0.7c-0.12-0.02-0.25-0.04-0.37-0.07
				c-0.11-0.44-0.22-0.88-0.01-1.32c0.34-0.72,1.17-1.63-0.67-0.83c-0.98,0.43-0.47-1.02-0.97-1.39c-0.52,0.1-1.01,0.08-1.5,0.01
				v1.36c0.03,0.03,0.07,0.04,0.1,0.07c0.55,0.21,1.26,0.05,1.6,0.73c-0.04,0.11-0.08,0.23-0.12,0.34h0
				c-0.21,0.91-0.5,1.66-1.55,0.7c-0.01,0-0.02-0.01-0.03-0.01v4.57c0.02,0.01,0.04,0.03,0.06,0.04c-0.03,0.07-0.04,0.13-0.06,0.2
				v1.02c0.01,0.06,0.02,0.12,0.03,0.17c-0.01,0-0.02,0-0.03-0.01v1.81c0.18-0.19,0.47-0.38,0.83-0.57c0.22,0.05,0.44,0.1,0.67,0.15
				c-0.13,0.56-0.26,1.12-0.38,1.67c-0.11-0.03-0.22-0.05-0.33-0.08c-0.37-0.15-0.62-0.3-0.77-0.44v46.82
				c0,0.81,0.47,1.19,1.18,1.05l4.94-1c0.18-0.05,0.37-0.1,0.56-0.11l1.99-0.4c0-0.05,0-0.09,0-0.14c-0.03-0.23,0.19-1.12,0.98-0.65
				c-0.22,0.22-0.35,0.45-0.42,0.68l15.02-3.05c-0.07-0.07-0.15-0.13-0.21-0.22c-0.5-0.04-0.99-0.12-1.49-0.12
				c-0.51,0.01-0.96-0.13-0.99-0.66c-0.03-0.6,0.48-0.64,0.96-0.63c0.39,0,0.77-0.05,1.16-0.08c0.25-0.06,0.5-0.12,0.74-0.18
				c0.35-0.43,0.89-0.68,1.04-1.3c0.12-0.49,0.5-0.76,1.03-0.64c0.43,0.1,0.63,0.47,0.78,0.83c0.21,0.49-0.17,0.71-0.5,0.93
				c-0.46,0.31-1.02,0.52-1.16,1.15c0,0.19,0.12,0.39,0.23,0.59l4.4-0.89c0.95-0.19,1.26-0.74,1.26-1.54v-8.05
				c0-0.89-0.32-1.22-1.26-1.03l-19.73,4.01v-4.62c-0.07-0.07-0.14-0.12-0.2-0.21c0.04-0.1,0.08-0.2,0.12-0.3
				c0.03-0.01,0.05-0.01,0.08-0.02v-1.97c-0.09-0.12-0.13-0.28-0.09-0.45c0.02-0.08,0.05-0.15,0.09-0.21v-8.49l15.07-3.06
				c0.79-0.16,1.26-0.74,1.26-1.63v-7.97c0-0.89-0.47-1.27-1.26-1.11l-15.07,3.06v-6.39c-0.03-0.01-0.07-0.01-0.1-0.02
				c0-0.03,0.01-0.05,0.01-0.08c-0.06,0.03-0.12,0.05-0.17,0.08c-0.79,0.48-1.61,0.43-2.44,0.13c0.01-1.22,1.15-0.62,1.66-1.02
				c0.25-0.07,0.49-0.14,0.74-0.21c0.1,0.03,0.2,0.07,0.3,0.1v-8.11c-0.14,0.06-0.29,0.1-0.45,0.08c-0.46-0.07-0.31-0.48-0.28-0.81
				c0.03-0.42,0.22-0.55,0.61-0.37c0.25,0.08,0.58,0.15,0.61,0.42l19.24-3.91c0.95-0.19,1.26-0.82,1.26-1.63v-8.05
				c0-0.81-0.32-1.22-1.26-1.03L135.03,324.23C135.03,324.22,135.03,324.22,135.03,324.23z M157.84,378.74
				c0.39,0.13,0.75,0.39,0.59,0.85c-0.19,0.54-0.68,0.52-1.13,0.37c-0.4-0.13-0.68-0.37-0.61-0.85
				C156.95,378.61,157.39,378.6,157.84,378.74z M155.01,378.48c0.24-0.03,0.43,0.08,0.44,0.37c-0.06,0.24-0.2,0.42-0.45,0.39
				c-0.25-0.03-0.37-0.26-0.33-0.48C154.68,378.64,154.88,378.5,155.01,378.48z M152.63,377.91c0.32,0.05,0.54,0.2,0.49,0.55
				c-0.03,0.24-0.19,0.41-0.46,0.39c-0.3-0.02-0.57-0.16-0.59-0.49C152.03,377.98,152.35,377.95,152.63,377.91z M151.14,381.34
				c0.09-0.4,0.37-0.5,0.65-0.47c0.4,0.21,0.64,0.45,0.51,0.83c-0.12,0.36-0.43,0.49-0.79,0.41
				C151.08,382.02,151.05,381.69,151.14,381.34z M138.98,331.71c0.38-0.15,0.83-0.05,1.1,0.26c0.33,0.36-0.11,0.59-0.26,0.87
				c-0.34-0.08-0.67-0.16-1-0.24C138.82,332.28,138.53,331.88,138.98,331.71z M131.25,336.29c-0.12-0.18-0.2-0.59-0.01-0.6
				c0.94-0.03,1.88,0.02,2.82,0.11c0.36,0.03,0.66,0.37,0.53,0.74c-0.25,0.71-0.94,0.73-1.56,0.83c-0.11,0.02-0.2,0.1-0.3,0.16
				c0.23,0.05,0.45,0.11,0.68,0.16c-0.9,0.34-1.68,0.16-2.34-0.55c0.34,0.08,0.67,0.15,1.01,0.23
				C131.8,337.01,131.5,336.66,131.25,336.29z M135.27,380.76c-0.01,0.37-0.45,0.45-0.6,0.24c-0.38-0.52-1.41-0.02-1.43-0.78
				c-0.01-0.64,0.74-0.48,1.2-0.58C134.99,379.81,135.28,380.22,135.27,380.76z M135.1,339.49c0.11,0.03,0.22,0.05,0.34,0.08
				c-0.14,0.39-0.09,0.93-0.73,0.99C134.55,340.08,135.11,339.89,135.1,339.49z M133.19,340.1c0.18-0.69,0.36-1.39,1.16-0.44
				C134.07,340.1,133.71,340.3,133.19,340.1z M129.7,335.41c-0.03,0.11-0.05,0.22-0.08,0.34c0.76,0.1,1.01,0.52,0.77,1.24
				c-0.79,0.5-1.06-0.03-1.27-0.66l0,0C128.72,335.64,128.97,335.37,129.7,335.41z M128.75,337.99c0.15-0.16,0.33-0.47,0.44-0.45
				c1.81,0.33,3.7,0.39,5.31,1.44C132.58,338.7,130.76,337.77,128.75,337.99z M129.64,339.22c-0.12-0.05-0.27-0.23-0.27-0.35
				c0-0.25,0.19-0.39,0.45-0.4c0.25,0.08,0.38,0.26,0.34,0.5C130.11,339.24,129.87,339.31,129.64,339.22z M131.39,339.32
				c-0.02-0.33,0.33-0.48,0.6-0.48c0.76,0.01,0.94,0.5,0.85,1.16c-0.13,0.09-0.27,0.18-0.4,0.27
				C131.97,340.09,131.43,339.93,131.39,339.32z M132.78,385.8c-0.09-0.08-0.18-0.31-0.13-0.39c0.13-0.2,0.35-0.22,0.63-0.05
				c0.02,0.09,0.12,0.28,0.06,0.36C133.21,385.92,132.97,385.96,132.78,385.8z M136.99,384.45c-0.33,0.39-0.54,0.69-0.17,1.17
				c0.87,1.14-0.08,1.15-0.82,1.28v0c-0.13,0.1-0.27,0.2-0.4,0.3h0h0c-0.38,0.59-0.91,0.55-1.48,0.38
				c-0.15,0.31-0.32,0.72-0.71,0.34c-0.57-0.56-0.1-1.02,0.26-1.47c0.52-0.27,0.29,0.47,0.62,0.46l0,0h0l0,0v0l0,0
				c0.05-0.7,0.51-1.13,1.03-1.51c0.05-0.27,0.08-0.53-0.15-0.74c-0.39-0.58-1.22-0.67-1.52-1.35l0,0
				c-0.09-0.04-0.18-0.08-0.27-0.13c-0.22-0.06-0.45-0.11-0.67-0.17c-0.16-0.4,0-0.73,0.23-1.04c0.45-0.33,0.78,0.06,1.06,0.26
				c1.22,0.84,2.37,1.91,3.97-0.04C137.97,383.52,137.4,383.96,136.99,384.45z M136.02,380.41c0.13-0.38,0.52-0.33,0.86-0.28
				c0.35,0.09,0.66,0.26,0.56,0.67c-0.1,0.37-0.45,0.47-0.8,0.38C136.25,381.07,135.84,380.91,136.02,380.41z M138.98,387.27
				c-0.23-0.01-0.48-0.2-0.34-0.46c0.29-0.53,0.84-0.73,1.3-0.94c0.34,0.1,0.47,0.3,0.38,0.54
				C140.08,387,139.62,387.31,138.98,387.27z M150.32,377.04c0.34,0.2,0.52,0.41,0.44,0.71c-0.1,0.37-0.39,0.53-0.75,0.41
				c-0.27-0.09-0.43-0.35-0.36-0.65C149.74,377.12,150.07,377.09,150.32,377.04z M147.2,380.2c0.13-0.43,0.46-0.62,0.94-0.46
				c0.34,0.32,1,0.52,0.76,1.13c-0.19,0.49-0.7,0.16-1.05,0.09C147.45,380.89,147.03,380.74,147.2,380.2z M140.29,383.16
				c0.47-0.03,0.7,0.4,0.59,0.84c-0.22,0.85-0.89,0.71-1.52,0.58c-0.45-0.12-1-0.23-0.73-0.86
				C138.94,383,139.71,383.2,140.29,383.16z M139.53,355.37c-0.46-0.25-1.32-0.04-1.19-0.99
				C138.75,354.69,140.06,353.94,139.53,355.37z M138.86,352.06c0.67,0.3,2.07-0.63,1.99,0.67c-0.08,1.25-1.46,0.35-2.22,0.56
				c-0.16,0.05-0.43-0.28-0.65-0.43C138.04,352.34,138.55,352.31,138.86,352.06z M138.34,366.36c0.08,0.04,0.16,0.08,0.25,0.11
				c-0.18,0.36,0.36,0.85-0.07,1.09c-0.39,0.22-0.7-0.25-1.04-0.42C137.21,366.27,137.77,366.31,138.34,366.36z M138.57,375.44
				c-0.01,0.25-0.22,0.4-0.47,0.38c-0.31-0.03-0.55-0.2-0.56-0.53c-0.01-0.37,0.27-0.45,0.57-0.47
				C138.43,374.9,138.58,375.14,138.57,375.44z M136.74,368.81c0.32,0.08,0.65,0.15,0.97,0.23c-0.07,0.34-0.13,0.67-0.2,1.01
				c-0.31,0.28-0.55,0.23-0.73-0.16C136.58,369.54,136.2,369.2,136.74,368.81z M137.41,377.44c0.58,0.19,1.41,0.44,1.13,1.19
				c-0.34,0.9-1.19,0.7-1.87,0.28c-0.38-0.23-0.7-0.56-1.05-0.84v0c-0.37-0.07-0.66-0.21-0.53-0.66c0.1-0.34,0.36-0.41,0.66-0.35
				C136.31,377.16,136.87,377.26,137.41,377.44z M135.87,334.72c-0.19-0.1-0.39-0.28-0.58-0.27c-0.44,0.01-0.89-0.08-0.78-0.56
				c0.11-0.48,0.56-0.34,0.95-0.15c0.17,0.08,0.42,0.01,0.64,0h0c0.55-0.13,0.98,0,0.86,0.64
				C136.84,335.03,136.43,335.23,135.87,334.72z M138.28,340.86c-0.54-0.06-0.86-0.33-0.78-0.89c0.06-0.43,0.38-0.51,0.77-0.44
				C138.39,339.98,138.49,340.42,138.28,340.86z M138.65,337.55c0.03,0.2-0.01,0.48-0.14,0.62c-0.34,0.4-0.68,0.16-1.02-0.07
				c-0.18-0.12-0.39-0.2-0.59-0.3c-0.08-0.04-0.17-0.08-0.26-0.1c0.11-0.63,0.52-0.82,1.1-0.72
				C138.11,337.04,138.57,337.06,138.65,337.55z M137.85,329.18c-0.27-0.09-0.55-0.18-0.51-0.55c0.05-0.45,0.38-0.48,0.74-0.43
				C138,328.53,137.93,328.86,137.85,329.18z"/>
			<polygon class="st0" points="135.62,378.06 135.62,378.06 135.62,378.07 135.62,378.07 135.62,378.07 135.62,378.07 			"/>
			<polygon class="st0" points="280.32,353.79 280.32,353.78 280.32,353.78 			"/>
			<path class="st0" d="M282.05,327.52c0,0.25-0.2,0.38-0.43,0.3c-0.04-0.01-0.07-0.07-0.1-0.11l-6.58,12.98v-11.2
				c-0.03-0.02-0.06-0.02-0.09-0.04c-0.26-0.19-0.63-0.37-0.48-0.77c0.09-0.23,0.32-0.33,0.57-0.31V318.3
				c-0.84-0.11-1.18,0.58-1.65,1.08l0,0l0,0c-0.36,0.24-0.72,0.19-1.09,0.02c-0.66,0.72-1.4,0.79-2.22,0.29v0
				c-0.33-0.09-0.66-0.18-0.99-0.27c-0.52,0.33-1.05,0.61-0.81,1.42c0.12,0.43,0.02,0.89-0.49,1.11l0,0c-0.58,0.74-1,0.42-1.45-0.17
				c-0.57-0.77-1.08-1.5-0.04-2.28l0,0c0.34-0.51,0.68-1.02,1.02-1.52c0.31-0.42,0.73-0.67,1.23-0.78c0.19-0.3,0.38-0.6,0.58-0.9
				l0,0c0.43-1.09,0.73-2.11-0.87-2.56c-0.14-0.04-0.27-0.09-0.38-0.17l-2.15-0.17c-1.04-0.08-1.61,0.44-1.61,1.48v5.25
				c0.33,0.09,0.43,0.31,0.39,0.6c-0.04,0.24-0.11,0.51-0.39,0.52v7.34c0.51,0.36,1.07,0.62,1.54,1.02v0
				c0.22,0.04,0.44,0.08,0.66,0.12c0.89,0.21,1.79,0.42,2.68,0.63h0l0,0l0,0l0,0.01c0.76-0.77,1.51-1.54,2.27-2.31h0l0,0
				c0.16-0.43,0.45-0.61,0.91-0.46c0.62,0.2,0.47,0.65,0.37,1.09c-0.22,0.43-0.43,0.86-0.65,1.3c0.07,0.14,0.14,0.27,0.21,0.41
				c0.73,0.88,0.66,1.07-0.49,1.38c-0.65,0.17-1.53-0.1-1.75,0.9c0.66,0.16,1.32,0.3,1.97,0.47c0.46,0.12,0.92,0.38,0.73,0.92
				c-0.18,0.5-0.75,0.62-1.11,0.26c-0.44-0.45-1.1-0.15-1.49-0.59l0,0c-0.47,0.11-0.95,0.33-1.35-0.16
				c-0.39-0.48-0.03-0.79,0.25-1.12c0.09-0.85-0.6-0.82-1.12-0.99c-0.57-0.19-1.29-0.07-1.66-0.73l0,0l0,0
				c-0.22-0.06-0.44-0.11-0.66-0.17c-0.51,0.15-0.89-0.27-1.31-0.53v4.54c0.02,0,0.05,0,0.07,0c0.47,0.03,0.67,0.35,0.74,0.7
				c-0.11,0.42-0.35,0.59-0.64,0.56c-0.06-0.01-0.11-0.03-0.16-0.05v1.53c0.02,0.02,0.03,0.03,0.05,0.04
				c1.02,0.73,1.82,0.2,2.6-0.46c-0.24-0.21-0.23-0.47-0.18-0.75v0c-0.32-0.43-0.29-0.89,0.14-1.16c0.43-0.27,0.86-0.08,1.1,0.39
				c0.09,0.14,0.17,0.27,0.26,0.41c1.36-1.47,2.71-0.08,4.05,0.07c0.37,0.04,0.4,0.65,0.24,1.05c-0.24,0.58-0.87,0.77-1.27,0.56
				c-0.9-0.48-1.99-0.53-2.76-1.26c-0.1,0.36-0.12,0.78-0.57,0.93c-0.52,2.15-0.53,2.18-2.49,1.3c-0.42-0.19-0.78-0.17-1.16-0.09
				v1.75c0.97,0.06,2.03-0.21,2.8,0.7l0,0l0,0l0.01,0.01v0c0.94,0.57,0.36,0.79-0.24,1c-0.49,0.22-0.97,0.76-1.46,0.02
				c-0.38,0.05-0.75,0.03-1.11-0.01v0.85c0.28,0.03,0.56,0.36,0.84,0.51c0.37,0.34,0.81,0.56,1.3,0.68c0.4,0.1,0.76,0.34,0.67,0.8
				c-0.11,0.57-0.58,0.57-1.05,0.5l0,0c-0.36-0.1-0.77-0.12-0.92-0.56c-0.28-0.07-0.51-0.19-0.59-0.5l0,0
				c-0.09-0.02-0.18-0.05-0.26-0.07v2.94c0.14-0.18,0.4-0.37,0.84-0.59c0.29,0.19,0.58,0.39,0.87,0.58l0,0l0,0
				c0.15-0.36,0.26-0.89,0.77-0.66c0.45,0.2,0.38,0.7,0.06,1.01c-0.28,0.27-0.66,0.43-1,0.63c-0.16,0.11-0.32,0.22-0.48,0.33
				c-0.46-0.23-0.86-0.46-1.06-0.71v10.32c0.48-0.71,1.44-1.02,2.25-0.55c1.07,0.63,2.05,1.33,3.4,1.2c0.3-0.03,0.28,0.42,0.25,0.7
				c0.42,1.58-0.7,0.65-1.2,0.73c-0.72,0.24-1.37-0.6-2.11-0.13c-0.56-0.13-1.11-0.27-1.67-0.4c-0.13-0.36-0.66-0.55-0.92-0.83
				v13.37c0.6,0.29,0.65,0.83,0.47,1.46l0,0c-0.46,0.57,0.05,1.65-0.47,2.19v0.47c0,1.05,0.56,1.65,1.61,1.74l1,0.08
				c0.47-0.37,0.91-0.4,1.3,0.1l5.41,0.42c1.04,0.08,1.61-0.44,1.61-1.48v-12.37c-0.69-0.04-1.21-0.51-1.8-0.79
				c-0.02-0.46-0.05-0.92-0.07-1.38l0,0l0,0c0.46-0.52,0.62-1.02-0.07-1.48l0,0c-0.59-0.35-1.44-0.42-1.46-1.37
				c-0.5-0.62-0.96-1.27-1.22-2.03l0,0c-0.35-0.45-0.28-0.8,0.24-1.04c0.56-0.69,1.23-0.4,1.88-0.21l0,0
				c0.29,0.09,0.57,0.19,0.86,0.28l0,0l0,0c0.57-0.48,0.73,0.15,0.75,0.4c0.04,0.66-0.55,0.69-1.02,0.81
				c-0.3,1.77,0.82,1.84,1.9,1.96v-0.58l2.97-5.48l0.84,2.04c0.04-0.03,0.08-0.06,0.13-0.09h0l0,0c0.49-0.53,1.05-0.77,1.5-0.03
				c0.35,0.58-0.16,0.62-0.57,0.63c-0.28,0.64,0.07,1.18,0.29,1.74c0.66,0.18,1.33,0.35,1.99,0.53l0,0l0,0
				c0.36,0.13,0.85,0.23,0.66,0.75c-0.13,0.37-0.55,0.29-0.89,0.24c-0.54-0.15-1.06-0.26-1.62-0.18l2.47,6.03
				c0.19-0.49,0.75-0.59,1.17-0.82c0.1-0.45,0.21-0.89,0.31-1.33c-0.28-0.1-0.62-0.11-0.71-0.49l0,0c-1.84-1.46,0.18-1.85,0.74-2.65
				c-0.42-0.15-0.73-0.44-0.39-0.84c0.33-0.38,0.68-0.17,0.89,0.25c0.11,0.03,0.23,0.06,0.34,0.08l0,0
				c0.36-0.04,0.71-0.07,1.07-0.11l0,0c0.37-0.03,0.75-0.06,1.12-0.08c0.33-0.04,0.67-0.07,1-0.11l0,0l0,0
				c0.57,0.08,1.08,0.25,1.21,0.91c0.12,0.05,0.23,0.09,0.35,0.14c0.15,0.39,0.07,0.72-0.24,1c-0.55-0.13-1.1-0.26-1.64-0.39l0,0v0
				c-0.79-0.18-1.58-0.36-2.36-0.54c-0.11-0.03-0.22-0.05-0.33-0.08l0,0c-0.1,0.44-0.21,0.88-0.31,1.33c0.3,0.2,0.61,0.4,0.91,0.6v0
				c0.45-0.37,0.79-0.29,1.02,0.25l0,0v0c0.11,0.01,0.22,0.02,0.34,0.04h0c0.55-0.24,1.19-0.53,1.55,0.17
				c0.26,0.51-0.11,0.82-0.69,0.75c-0.34,0.34-0.73,0.18-1.11,0.1c-0.79,0.23-1.92-0.1-2.05,1.24c0.32,0.34,0.19,0.71,0.08,1.07l0,0
				h0c-0.24,1.16-0.91,0.63-1.51,0.39c-0.13-0.05-0.29-0.08-0.44-0.12l3.05,7.45c0.2,0.04,0.41,0.11,0.6,0.14
				c0.39-0.01,0.79-0.06,1.18-0.04c0.34,0.02,0.7,0.1,0.75,0.53c0.05,0.44-0.15,0.67-0.6,0.86c-0.38,0.16-0.76,0.31-1.14,0.43
				l0.66,1.61c0.24-0.17,0.51-0.24,0.85-0.16l0,0v0c0.37-0.04,0.74-0.07,1.12-0.11l0,0c0.13-0.39,0.33-0.77,0.79-0.73
				c0.42,0.03,0.43,0.47,0.47,0.78c0.07,0.58,0.05,1.16-0.8,1.1h0h0c-0.48,0.01-0.95,0.02-1.43,0.02c-0.14,0.1-0.29,0.19-0.43,0.29
				h0c-0.02,0.01-0.04,0.02-0.05,0.03l0.04,0.09c0.32,0.83,0.88,1.28,1.85,1.35l1.18,0.09c0.07-0.87,0.3-1.64,1.61-1.76
				c0.61-0.05,0.98,0.13,1.26,0.63c0.3,0.54-0.15,0.71-0.47,0.9c-0.18,0.1-0.3,0.24-0.4,0.38l5.32,0.42c0.26,0.02,0.47,0,0.66-0.05
				c-0.07-0.16-0.1-0.35-0.03-0.63c0.1-0.42,0.35-0.56,0.77-0.5c-0.03-0.18-0.09-0.37-0.2-0.58l-3.45-7.99
				c-0.05,0.19-0.1,0.38-0.15,0.58c-0.98-0.37-2.02-0.21-3.02-0.33c-1.08-0.18-0.76,1.36-1.68,1.38l0,0l0,0
				c-0.16,0.1-0.32,0.2-0.49,0.3c-0.42,0.31-0.89,0.01-1.34,0.1c-0.58,0.13-0.89-0.15-0.93-0.7c-0.03-0.48,0.18-1.11,0.66-1.05
				c1.39,0.19,2-0.75,2.81-1.54c0.55-0.54,1.27-1.03,2.17-0.68l0,0c0.13-0.34,0.1-0.79,0.58-0.9v0l0,0
				c0.04-0.05,0.07-0.08,0.11-0.12l-2.58-5.97c-0.15,0.07-0.32,0.11-0.52,0.09c-0.39-0.04-0.64-0.3-0.6-0.66
				c0.05-0.37,0.29-0.57,0.61-0.6l-4.53-10.5c-0.26,0.08-0.41-0.31-0.55-0.72c-0.33-0.27-0.58-0.61-0.4-1.04
				c0.03-0.08,0.08-0.11,0.13-0.16l-1.37-3.17l0.79-1.57c-0.14,0.02-0.28,0.01-0.42-0.08c-1.17-0.66-2.33-0.52-3.54-0.42
				c-0.29,0.02-0.52-0.2-0.64-0.48c-0.22-0.05-0.45-0.11-0.67-0.16c-0.65-1.29-0.27-2.19,0.8-1.79c1.33,0.5,2.85-0.15,4.02,0.84l0,0
				c0.1,0.01,0.2,0.03,0.3,0.05c0.36,0.09,0.76,0.17,0.96,0.42l0.61-1.21c-0.37,0.08-0.69-0.09-0.89-0.54l0,0
				c-0.21-0.05-0.42-0.09-0.63-0.14l0,0v0c-0.76,0.25-0.93-0.24-0.86-0.79c0.09-0.76,0.66-0.61,1.18-0.47
				c0.3,0.07,0.6,0.14,0.91,0.21c0.36,0.07,0.74,0.14,0.96,0.41l0.86-1.7c-0.09-0.25-0.1-0.54,0.06-0.88
				c0.17-0.35,0.59-0.57,0.55-1.02c-0.07-0.84,0.37-1.35,1.04-1.36l0.47-0.93c-0.05-0.01-0.09,0-0.14-0.01
				c-0.22-0.05-0.44-0.1-0.66-0.15c-0.7,0.25-0.93,0.96-1.42,1.41c-0.35,0.33-0.78,0.5-1.22,0.15s-0.64-0.8-0.32-1.34
				c0.35-0.58,0.61-1.26,1.09-1.7c1.02-0.96,2.2-1.72,0.93-3.35c-0.41-0.52,0.11-1.05,0.73-1.26c0.45-0.15,0.97-0.24,1.31,0.08
				c0.69,0.63,1.41,1.08,2.17,1.3l1.6-3.16c-1.03,0.37-1.85-0.87-2.83-0.82c0.01,0.3,0.29,0.69-0.1,0.87
				c-0.44,0.2-0.84,0.03-1.07-0.43c-0.58-0.35-1.19-0.66-1.72-1.08c-0.6-0.48-0.58-1.08-0.03-1.6c0.61-0.57,1.12-0.39,1.53,0.27
				c0.2,0.33,0.33,0.75,0.61,0.99c0.28,0.25,0.78,0.42,1.1,0.13c0.32-0.29,0-0.6-0.22-0.86c-0.89-1.08-1.14-2.14,0.29-2.95
				c0.63-0.36,0.24-1.06,0.68-1.44c0.79-1.31,1.61-0.91,2.45-0.06l0,0c-0.02,0.09-0.02,0.19,0,0.28v0l0,0
				c1.14,0.9,0.33,2.12,0.11,2.92c-0.24,0.9-0.1,1.21,0.39,1.41l2.53-5.02c0.04-0.07,0.06-0.14,0.09-0.21
				c-0.16-0.52-0.2-0.97-0.14-1.37c-0.23-0.24-0.59-0.4-1.07-0.44l-2.07-0.16c-0.22,0.4-0.56,0.54-1.01,0.45
				c-0.37-0.07-0.61-0.27-0.57-0.58l-4.78-0.38c-0.88-0.07-1.44,0.29-1.85,1.06l-5.5,10.85
				C281.91,327.29,282.04,327.41,282.05,327.52z M266.45,326.9c-0.07,0.11-0.28,0.22-0.39,0.19c-0.22-0.06-0.37-0.27-0.29-0.51
				c0.08-0.24,0.3-0.29,0.54-0.24C266.57,326.48,266.58,326.7,266.45,326.9z M268.62,339.1c0.3-0.24,0.62-0.32,0.85,0.04
				c0.23,0.36,0.02,0.62-0.33,0.79C268.13,340.18,268.63,339.48,268.62,339.1z M266.43,356.53c-0.25-0.07-0.36-0.27-0.31-0.52
				c0.05-0.24,0.2-0.39,0.57-0.32c0.07,0.15,0.22,0.34,0.22,0.54C266.92,356.5,266.68,356.6,266.43,356.53z M269.65,350.95
				c-0.6-0.16-1.01,0.7-1.66,0.32c0,0,0,0,0-0.01c0,0,0,0,0,0.01c-0.53-0.12-1.14-0.45-0.76-0.96c0.43-0.57,1.08-1.41,2.04-0.57
				c0.11,0.06,0.21,0.12,0.32,0.18C269.68,350.26,269.89,350.59,269.65,350.95z M268.94,362.2c0.14-0.32,0.44-0.37,0.66-0.19
				c0.18,0.15,0.25,0.44,0.35,0.63c-0.21,0.44-0.5,0.28-0.72,0.21C268.93,362.75,268.8,362.5,268.94,362.2z M270.19,370.64
				c0.24,0.18,0.44,0.41,0.3,0.7c-0.07,0.16-0.38,0.35-0.5,0.31c-0.29-0.1-0.37-0.4-0.29-0.7
				C269.76,370.71,269.93,370.58,270.19,370.64z M268.11,364.44c0.17,0.06,0.34,0.13,0.51,0.19c0.18,0.13,0.36,0.26,0.55,0.39l0,0v0
				c0.24,0.07,0.57,0.07,0.57,0.41c0,0.39-0.34,0.48-0.64,0.58c-0.41,0.47-0.94,0.8-1.4,0.24
				C267.12,365.57,267.37,364.91,268.11,364.44z M269.56,373.73c-0.01,0.11-0.16,0.21-0.24,0.32c-0.08-0.11-0.23-0.22-0.24-0.34
				c-0.01-0.11,0.12-0.24,0.31-0.58C269.48,373.44,269.57,373.59,269.56,373.73z M264.31,361.11c0.08-0.57,0.59-0.76,1.14-0.79
				c0.52,0.35,0.78,0.8,0.68,1.43c-0.1,0.56-0.54,0.77-0.99,0.67C264.5,362.28,264.23,361.7,264.31,361.11z M266.63,376.38
				c-0.42,0.32-0.87,0.3-1.16-0.1c-0.35-0.48,0.17-0.78,0.38-1.13C266.61,375.24,266.86,375.66,266.63,376.38z M266.97,373.25
				c-0.08,0.36-0.25,0.63-0.67,0.52c-0.36-0.09-0.58-0.34-0.53-0.72c0.05-0.41,0.4-0.46,0.64-0.53
				C266.91,372.6,267.05,372.86,266.97,373.25z M267.74,371.27c-0.22,0.49-0.65,0.6-1.15,0.46c-0.4-0.11-0.55-0.38-0.45-0.78
				c0.16-0.67,0.78-0.54,1.13-0.76C267.77,370.5,267.92,370.85,267.74,371.27z M268.37,368.73c-0.09,0.31-0.3,0.53-0.61,0.42
				c-0.52-0.18-0.36-0.62-0.27-1c0.07-0.29,0.21-0.52,0.57-0.47C268.44,367.95,268.5,368.32,268.37,368.73z M270.85,377.7
				c-0.64-0.15-1.27-0.3-1.91-0.45c0.07-0.7,0.35-1.23,1.16-1.08C270.99,376.33,271.11,376.94,270.85,377.7z M272.17,373.8
				c-0.05,0.22-0.11,0.44-0.16,0.66c-0.72-0.14-1.46-0.26-1.1-1.3l0,0h0c0.21-0.33,0.41-0.65,0.62-0.98v0h0l0,0l0,0
				c0.29-0.25,0.57-0.5,0.86-0.75c0.68-0.49,1.2-0.23,1.47,0.44c0.25,0.61-0.26,0.91-0.7,1.17c-0.29,0.17-0.61,0.29-0.91,0.43
				C272.21,373.57,272.19,373.68,272.17,373.8z M273.26,376.11c-0.44-0.1-0.47-0.43-0.38-0.78c0.08-0.29,0.21-0.52,0.57-0.38
				c0.29,0.22,0.55,0.49,0.48,0.84C273.88,376.09,273.56,376.18,273.26,376.11z M270.37,367.97c0.96,0.21,1.81-0.58,2.76-0.27
				c0,0,0,0,0,0v0c0.37,0.16,0.55,0.46,0.61,0.85l0,0c0.52,0.12,1.13,0.22,0.72,0.96c-0.26,0.46-0.69,0.62-1.03,0.01
				c-0.66,0.34-1.16,0.04-1.63-0.41c-0.48,0.25-0.99,0.28-1.44-0.01c-0.2-0.13-0.33-0.44-0.39-0.69
				C269.92,368.16,270.16,367.92,270.37,367.97z M270.47,354.65c-0.3-0.11-0.45-0.31-0.35-0.63c0.08-0.26,0.31-0.35,0.5-0.21
				c0.16,0.11,0.3,0.35,0.31,0.54C270.95,354.6,270.72,354.7,270.47,354.65z M293.93,372.69c0.35,0,0.42,0.3,0.47,0.56
				c-0.07,0.34-0.29,0.51-0.59,0.5c-0.25-0.01-0.37-0.22-0.33-0.47C293.54,373.01,293.56,372.68,293.93,372.69z M293.77,374.64
				c0.86,0.92,1.69,1.81,3.17,1.2c0.58-0.24,1.12,0.18,1.47,0.65c0.41,0.57-0.12,0.96-0.44,1.32c-0.41,0.46-0.89,0.86-1.34,1.28
				c-0.5,0.47-1.01,0.34-1.24-0.22c-0.61-1.54-1.51-2.61-3.31-2.62c-0.08,0-0.16-0.27-0.25-0.41l0,0
				C292.2,374.98,292.92,374.7,293.77,374.64z M290.94,363.81c0.15-0.36,0.49-0.5,0.83-0.38c0.27,0.09,0.4,0.37,0.32,0.7
				c-0.14,0.41-0.44,0.5-0.8,0.35C291.02,364.35,290.8,364.13,290.94,363.81z M291.08,366.76c-0.11,0.69-0.73,1.09-1.53,0.82
				c-0.47-0.1-0.94-0.2-1.42-0.29c-0.1-0.01-0.21-0.01-0.31,0h0c-0.08,0.31-0.15,0.61-0.23,0.92l0,0h0c0.43,0.8,0.05,1.08-0.7,0.96
				c-0.69-0.11-1.29-0.38-0.62-1.23l-0.1-0.04c0.79-0.53-0.1-1.82,1-2.2c0.32-0.03,0.64-0.07,0.96-0.1l0,0l0,0
				c0.58,0.09,1.17,0.18,1.75,0.27l-0.01,0.1C290.39,366.06,291.2,366.02,291.08,366.76z M288.41,357.13
				c0.34,0.13,0.88,0.09,0.81,0.63c-0.09,0.7-0.63,0.41-1.04,0.37C288.25,357.79,288.33,357.46,288.41,357.13z M286.96,350.85
				c0.52,0.2,0.6,0.63,0.52,1.12c-0.57,0.08-1.31,0.47-1.27-0.65C286.35,350.99,286.54,350.69,286.96,350.85z M286.01,353.75
				c0.37-0.03,0.74-0.06,1.11-0.09v0c0.96-0.36,1.04,0.12,0.82,0.87c-0.58,1.55-1.41,0.47-2.17,0.21c-0.25,0.06-0.49,0.12-0.74,0.18
				c-0.07-0.57-0.48-1.31,0.65-1.27C285.79,353.69,285.9,353.72,286.01,353.75z M283.83,346.23c0.85,0.31,1.88,0.57,1.62,1.76
				c-0.18,0.8-0.96,1.16-1.74,0.91c-0.87-0.28-1.42-1.01-1.27-1.95C282.55,346.27,283.09,345.92,283.83,346.23z M282.38,353.17
				c0.08-0.15,0.36-0.3,0.52-0.28c0.24,0.03,0.29,0.3,0.27,0.54c-0.08,0.23-0.24,0.43-0.48,0.38
				C282.37,353.74,282.24,353.45,282.38,353.17z M281.74,356.03c0.31-0.75,1.05-0.13,1.6-0.02c0.46-0.47,0.97-0.15,1.46-0.08
				c0.11,0.03,0.22,0.05,0.33,0.08c0.65,0.17,1.53,0.42,1.35,1.14c-0.24,0.97-1.09,0.14-1.67,0.19c-0.11-0.03-0.22-0.05-0.32-0.08
				c-0.56-0.13-1.12-0.26-1.68-0.39C282.39,356.66,281.41,356.84,281.74,356.03z M277.23,337.65c0.22,0.09,0.4,0.22,0.35,0.49
				c-0.06,0.33-0.28,0.47-0.61,0.37c-0.27-0.08-0.31-0.31-0.26-0.54C276.78,337.72,276.98,337.63,277.23,337.65z M275.81,340.02
				c0.18-0.14,0.34-0.29,0.53-0.42c0.53-0.35,1.06-0.36,1.55,0.07c0.23,0.2,0.31,0.47,0.16,0.76c-0.31,0.58-0.79,0.77-1.42,0.54l0,0
				c-0.41,0.02-0.89,0.34-1.18-0.17C275.25,340.45,275.49,340.19,275.81,340.02z M278.01,346.64c-0.11,0.37-0.46,0.49-0.81,0.41
				c-0.42-0.1-0.73-0.37-0.59-0.84c0.11-0.37,0.45-0.46,0.82-0.42C277.83,345.93,278.16,346.16,278.01,346.64z M275.96,342.98
				c0.44,0.1,0.43,0.47,0.34,0.82c-0.09,0.35-0.31,0.69-0.66,0.69c-0.56-0.01-0.42-0.56-0.53-0.91
				C275.21,343.12,275.49,342.87,275.96,342.98z M272.41,325.87c-0.11-0.03-0.22-0.05-0.33-0.08c-0.88-0.8-2.28,0.71-3.02-0.69v0
				l0,0c-0.39-1.54,0.65-0.8,1.24-0.78c0.46-0.41,0.94-0.09,1.41-0.03v0c0.14-0.09,0.28-0.17,0.42-0.26
				C273.34,324.12,273.39,324.41,272.41,325.87z M272.32,345c0.73,0.29,1.25,0.59,1.26,1.33c0,0.25-0.19,0.38-0.47,0.26
				C272.47,346.33,272.1,345.91,272.32,345z M277.61,350.36c-0.06,1.03-0.58,1.82-1.27,2.54c-0.83-0.2-1.68-0.35-2.49-0.6
				c-1.02-0.31-0.91-0.84-0.2-1.42l0,0l0.01-0.01v0l0,0l0,0c0.52-0.44,1.06-0.1,1.57,0.01c0.71,0.14,1.18-0.06,1.43-0.75
				c-0.48-0.39-0.8-1.03-1.54-1.05c-0.32,0.33-0.68,0.15-1.04,0.09c-0.47-0.13-1.12-0.16-0.8-0.9c0.18-0.41,0.58-0.74,0.99-0.12v0
				c0.29,0.2,0.57,0.4,0.86,0.6c0.62-0.18,1.24-0.14,1.85,0.07c0.21,0.04,0.43,0.09,0.64,0.13c0.07,0.06,0.15,0.09,0.24,0.09l0,0
				l0,0c0.39,0.07,0.84,0.21,0.76,0.65C278.54,350.15,278.04,350.28,277.61,350.36z M281.46,350.57c-0.51-0.19-1.28-0.06-1.18-0.98
				C281.36,349.09,281.47,349.76,281.46,350.57z M281.17,352.63c0.53,0.96-0.26,0.99-0.85,1.15c-0.55,0.81-1.01,0.54-1.36-0.17
				c-0.36-0.75-0.08-1.32,0.61-1.71C280.43,351.42,280.82,352.01,281.17,352.63z M280.48,336.42c-0.17-0.07-0.33-0.3-0.36-0.48
				c-0.04-0.24,0.15-0.41,0.42-0.34c0.23,0.06,0.39,0.2,0.37,0.47C280.84,336.29,280.75,336.54,280.48,336.42z M290.36,319.96
				c-0.09,0.38-0.18,0.83-0.73,0.69c-0.43-0.11-0.69-0.44-0.49-0.88c0.18-0.39,0.45-0.77,0.9-0.86
				C290.52,319.19,290.46,319.58,290.36,319.96z M288.01,316.48c0.34-0.35,0.76-0.11,1.13-0.17c0.84-0.15,1.42,0.3,1.93,0.83
				c0.22,0.23,0.15,0.6-0.14,0.72c-0.75,0.3-1.53,0.46-2.21-0.2l0,0c-0.34-0.02-0.74,0.32-0.98-0.22
				C287.55,317.03,287.63,316.72,288.01,316.48z M283.69,330.38c0.24,0.01,0.43,0.22,0.39,0.46c-0.06,0.32-0.33,0.46-0.62,0.33
				c-0.17-0.08-0.26-0.3-0.47-0.57C283.31,330.49,283.5,330.37,283.69,330.38z M283.66,335.78c0.2,0.55,0.12,1.11-0.52,1.41
				c-0.19-0.16-0.37-0.32-0.56-0.48c-0.33-0.13-0.91-0.08-0.76-0.64c0.11-0.42,0.58-0.44,0.99-0.37
				C283.12,335.47,283.52,335.4,283.66,335.78z"/>
			<path class="st0" d="M274.94,315.73c0-1.05-0.56-1.65-1.61-1.74l-0.26-0.02c-0.17,0.64-0.31,1.29,0.27,1.86
				c0.09,0.14,0.18,0.29,0.27,0.43v0l0,0c0.2,0.06,0.41,0.11,0.61,0.17v0c0.24,0.06,0.48,0.11,0.72,0.17V315.73z"/>
			<polygon class="st0" points="377.87,397.05 377.88,397.05 377.88,397.05 377.88,397.05 377.87,397.05 			"/>
			<path class="st0" d="M100.65,363.24c-0.02,0.09-0.05,0.17-0.07,0.26c0.07,0.12,0.13,0.25,0.2,0.37L100.65,363.24z"/>
			<path class="st0" d="M363.98,350.7c-0.09,0.01-0.19-0.01-0.28-0.07c-0.11-0.07-0.23-0.32-0.19-0.39c0.1-0.16,0.3-0.26,0.43-0.37
				c0.02,0.01,0.02,0.02,0.04,0.03v-1.59c-0.26-0.1-0.46-0.33-0.54-0.71c-0.12-0.55,0.18-0.7,0.54-0.79v-16.27
				c-0.4-0.21-0.79-0.57-1.25-0.25v0c-0.11,0.02-0.22,0.02-0.32,0c-0.33,0.29-0.7,0.14-1.06,0.09l0,0l0,0
				c-0.62-0.2-1.53-0.3-0.42-1.14c0.5,0.2,0.97,0.13,1.42-0.17c0.37-0.25,0.73-0.36,1.09-0.39c-0.19-0.16-0.4-0.3-0.69-0.38
				l-5.97-1.74c-0.19,0.77-1.03,1.38-1.1,2.18l0,0c-0.29,0.28-0.58,0.56-0.87,0.84l0,0c-0.03,0.11-0.05,0.22-0.07,0.33
				c1.02,0.5,2.08,0.73,3.23,0.65c1.53-0.11,1.65,0.59,0.89,1.71c-0.05-0.03-0.1-0.05-0.15-0.08c-0.01,0.02-0.01,0.04-0.01,0.06
				l0.16,0.02c-0.55,0.23-1.09,0.46-1.64,0.69c0.29,0.08,0.51,0.23,0.52,0.57l0,0c0.07,0.11,0.15,0.21,0.22,0.32c0,0,0,0,0,0
				s0,0,0,0c0.01,0.02,0.01,0.03,0.01,0.05c0.07,0.17,0.1,0.32,0.12,0.43c0.18,0.78-0.06,0.82-1.33,0.63
				c-0.44,0.31-0.79,0.21-1.06-0.25c-0.91-0.24-1.97-0.48-0.46-1.44c0.92-0.59,0.66-1.02-0.03-1.49c-0.72-0.49-1.26-1.02-0.47-1.88
				l0,0c-0.22-0.05-0.45-0.1-0.67-0.16v0v0c-0.07,0.61-0.26,1.04-0.58,1.27v4.82c0.63,0.33,1.31,0.7,1.18,1.58
				c-0.1,0.69-0.66,0.4-1.12,0.26c-0.02-0.03-0.04-0.04-0.07-0.07v1.3c0.32-0.09,0.65-0.2,0.97-0.27v0
				c0.44-0.32,0.78-0.26,1.02,0.25c0.3,0.69,0.32,1.2-0.66,1.26c-0.45,0.03-0.89,0.12-1.34,0.21v1.5c0.21,0.26,0.18,0.46,0,0.62
				v4.64c0.18,0.16,0.24,0.4,0.19,0.67c-0.03,0.14-0.1,0.23-0.19,0.29v0.85c0.53-0.6,1.25-1.03,1.78-1.63
				c0.73-0.14,1.16-0.45,0.67-1.25l0,0l0,0c-0.38-0.16-1.04-0.01-1.09-0.55c-0.05-0.62,0.55-0.54,0.98-0.55h0
				c0.77-0.34,1.42-0.16,1.98,0.43l0,0c1.34,1.26-0.4,1.82-0.62,2.73c0.2,1.88,0,2.02-2.21,1.63c-0.22,0.49-0.43,0.98-0.65,1.46
				c0,0,0,0,0,0h0c-0.31,0.26-0.59,0.33-0.85,0.29v1.27c0.17,0.1,0.34,0.21,0.5,0.32c0.29,0.2,0.47,0.5,0.36,0.86
				c-0.13,0.43-0.48,0.39-0.82,0.33c-0.01,0-0.03,0-0.04-0.01v1.54c0.71,0.53,1.45,0.99,2.46,0.86l0,0
				c0.13-0.05,0.25-0.11,0.38-0.16l0,0h0c0.93-0.75,1.54-0.1,1.8,0.62c0.29,0.81-0.49,0.99-1.12,1.13
				c-0.28,0.06-0.55,0.12-0.83,0.19v0l0,0c-0.77,0.3-1.42,0.08-2.01-0.44l0,0c-0.25,0.13-0.47,0.16-0.69,0.16v1.29
				c0.07,0.01,0.14,0.01,0.2,0.01c0.57-0.03,0.68,0.48,0.6,0.98c-0.09,0.6-0.39,0.81-0.8,0.74v0.94c0.35,0.05,0.71,0.12,1.07,0.2
				c0.12,0.12,0.36,0.31,0.34,0.34c-0.9,1.41,0.33,1.89,1.11,2.57c-0.21-0.09-0.41-0.18-0.62-0.27h0h0
				c0.21,0.87,0.18,1.52-1.02,1.18c-0.29-0.08-0.59-0.15-0.88-0.22v1.81c0.19,0.05,0.39,0.09,0.58,0.14
				c-0.15,0.08-0.3,0.16-0.46,0.24c0.19,0.33,0.08,0.74,0.14,1.11c-0.09,0.04-0.18,0.06-0.27,0.08v1.58
				c0.28,0.06,0.56,0.11,0.85,0.17c-0.02,0.25,0.15,0.64-0.27,0.65c-0.24,0.01-0.44-0.06-0.57-0.18v2.82
				c0.01,0.03,0.03,0.05,0.03,0.08c0.01,0,0.02,0,0.02,0l-0.02,0.02c0-0.01-0.01-0.01-0.01-0.02c-0.01,0-0.02,0-0.03,0.01v14.29
				c0,0.89,0.46,1.42,1.24,1.65l6.73,1.96c0.42-0.16,0.88,0.05,1.32,0.16c0.43-0.68,1-0.63,1.57-0.23c0.32,0.22,0.62,0.59,0.52,1
				c-0.01,0.03-0.03,0.04-0.04,0.06l1.38,0.4c0.14-0.14,0.3-0.26,0.53-0.33c1.06-0.49,1.93,0.33,2.87,0.52
				c0.51,0.1,0.66,0.52,0.53,0.96l0.67,0.19c0.12-0.09,0.28-0.17,0.44-0.22c0.62-0.21,1.24-0.23,1.71,0.32
				c0.19,0.21,0.54,0.43,0.52,0.68l0.86,0.25c0.11-0.25,0.4-0.37,0.69-0.45l0,0c0.34-0.26,0.84-0.34,0.95-0.85h0
				c-0.08-0.47-0.84-0.89-0.09-1.41c0.98-0.11,1.95-0.23,2.92-0.34c0.5,0.07,1.02,0.12,1.12,0.74c0.08,0.54-0.18,0.83-0.74,0.81l0,0
				l0,0.01c-0.23,0.33-0.8,0.27-0.87,0.78l-0.05,0.15l-0.01,0.16h0l0,0c1.57,0.99,1.74,1.22,0.86,1.8l1.89,0.55
				c-0.29-0.27-0.52-0.69-0.57-1.05c-0.06-0.5,0.5-0.54,0.89-0.45c0.5,0.11,0.79,0.43,0.65,1.01c-0.15,0.18-0.27,0.52-0.45,0.65
				l0.87,0.25c0.76,0.22,1.13-0.01,1.2-0.68c-0.07,0.16-0.21,0.29-0.53,0.34c-0.31,0.04-0.58-0.18-0.59-0.47
				c-0.03-0.77,0.54-0.69,1.05-0.66c0,0,0,0,0-0.01l0,0.01h0c0.04,0.12,0.08,0.24,0.1,0.36v-1.79c-0.33,0.29-0.77,0.22-1.22,0.08
				c-0.28-0.09-0.54-0.23-0.35-0.66c0.41-0.39,0.96-0.51,1.53-0.42c0.01,0,0.02,0.01,0.04,0.02v-1.76
				c-1.64,0.12-1.87-0.17-1.77-2.24c-0.07-0.24-0.14-0.48-0.21-0.71l0,0l0,0c-0.07-0.06-0.14-0.11-0.22-0.16
				c-0.84-0.03-1.76,0.4-2.45-0.45c-0.08-0.06-0.17-0.1-0.26-0.14l0,0c-0.79-0.18-1.59-0.36-2.38-0.53l0,0
				c-0.39-0.02-0.84-0.02-0.84-0.55c0-0.41,0.38-0.47,0.72-0.51c0.15-0.08,0.29-0.16,0.44-0.25l0,0c0.13-0.54,0-0.91-0.23-1.19
				l-1.95-0.57c-0.02,0.3,0.44,0.93,0.15,1.28h0c-0.31,0.84-0.81,0.95-1.48,0.38c-1.26,0.22-0.94-0.54-0.75-1.21
				c0.02-0.13,0.04-0.27,0.06-0.4c0.28-0.03,0.94,0.23,0.77-0.14c-0.05-0.11-0.07-0.2-0.09-0.3l-9.13-2.66V350.7z M375.28,390.35
				c0.57-0.79,1.32-0.76,2.13-0.44c1.04-0.03,1.44,1.49,2.67,1.11c0.17-0.05,0.41,0.38,0.29,0.69c-0.14,0.37-0.47,0.5-0.83,0.43
				c-0.84-0.17-1.67-0.37-2.51-0.56c-0.55,0.24-1.1,0.72-1.65,0.01C375.07,391.21,374.96,390.78,375.28,390.35z M372.2,392.5
				c0.06-0.44,0.18-0.89,0.74-1.02c0.51,0.34,0.62,0.9,0.65,1.44c0.03,0.47-0.32,0.75-0.75,0.72
				C372.15,393.57,372.13,393.01,372.2,392.5z M368.05,392.07c-0.6,0.19-1.03,0.95-1.81,0.46c0.16-0.48,0.11-0.94-0.1-1.38
				c0.37-0.79,1.05-0.74,1.74-0.63c0.47,0.07,0.91,0.24,1,0.77C368.97,391.91,368.51,391.92,368.05,392.07z M364.9,389.09
				c0.6-0.45,1.17,0.01,1.75,0.06c0.21-0.54,0.06-1.26,0.72-1.59c-0.21,0.54-0.06,1.26-0.72,1.59
				C366.05,389.6,365.48,389.14,364.9,389.09z M371.17,387.09c0.07,0.12,0.26,0.32,0.24,0.48c-0.04,0.31-0.32,0.46-0.61,0.34
				c-0.16-0.07-0.36-0.32-0.34-0.48C370.49,387.13,370.76,387.01,371.17,387.09z M368.88,388.1c0.71-0.3,1.13,0.19,1.43,0.78
				c0.42,0.21,0.92,0.46,0.43,0.97c-0.4,0.42-0.97,0.61-1.37-0.11v0l0,0c-0.2-0.16-0.4-0.32-0.6-0.48l0,0.01
				C368.71,388.86,368.28,388.35,368.88,388.1z M364.54,384.81c0.88,0.24,1.72,0.29,2.52-0.32c0.6-0.46,1.01-0.14,1.26,0.48l0,0
				c0.35,0.65-0.16,1.09-0.39,1.59c-0.48-0.03-0.89,0.87-1.43,0.12c-0.33-0.33-0.72-0.38-1.2-0.43
				C364.48,386.18,363.88,385.77,364.54,384.81z M362.7,344.46c-0.04,0.45-0.41,0.26-0.64,0.22c-0.32-0.06-0.73-0.14-0.58-0.61
				c0.09-0.27,0.37-0.41,0.69-0.36C362.59,343.79,362.73,344.1,362.7,344.46z M361.16,346.99c-0.03-0.35,0.26-0.49,0.55-0.49
				c0.32,0,0.47,0.25,0.53,0.51c-0.04,0.3-0.19,0.43-0.46,0.39C361.51,347.37,361.19,347.34,361.16,346.99z M361.59,349.88
				c-0.08,0.31-0.33,0.46-0.64,0.41c-0.3-0.05-0.26-0.32-0.26-0.53c0.09-0.29,0.16-0.62,0.53-0.54
				C361.51,349.3,361.68,349.56,361.59,349.88z M361.94,334.64c0.35,0.2,0.38,0.51,0.3,0.86c-0.11,0.46-0.37,0.67-0.85,0.53
				c-0.27-0.08-0.59-0.19-0.39-0.55C361.21,335.1,361.4,334.66,361.94,334.64z M360.62,332.03c0.1-0.28,0.34-0.49,0.63-0.36
				c0.28,0.13,0.31,0.44,0.27,0.65c-0.11,0.42-0.33,0.53-0.64,0.4C360.57,332.59,360.52,332.31,360.62,332.03z M359.33,328.61
				c0.08-0.26,0.31-0.31,0.54-0.25c0.28,0.07,0.32,0.26,0.2,0.61c-0.14,0.05-0.34,0.18-0.53,0.16
				C359.24,329.1,359.26,328.83,359.33,328.61z M358.61,334.83c0.13-0.43,0.53-0.32,0.79-0.29c0.41,0.11,0.77,0.22,0.7,0.67
				c-0.08,0.46-0.45,0.44-0.79,0.35C358.93,335.46,358.45,335.4,358.61,334.83z M359.44,336.92c1.52,0.95,1.52,0.95,1.33,1.84
				c-1.33,1.08-2.06-0.23-3-0.74C357.86,336.7,358.46,336.31,359.44,336.92z M357.71,339.8c0.46-0.39,0.94-0.1,1.42-0.03
				c0.54,0.21,1.26,0.06,1.6,0.73c0.33,1.05-0.48,1.31-1.08,1.08c-1-0.38-2.16-0.49-2.94-1.36h0
				C356.91,339.76,357.26,339.65,357.71,339.8z M358.15,343.85L358.15,343.85c-0.78,0.18-1.48,0.09-2.08-0.42
				c-0.08-0.04-0.15-0.09-0.22-0.18c0.09-1.01,1.29-1.63,2.17-1.11c0.23,0.14,0.38,0.43,0.6,0.59c0.36,0.26,1,0.43,0.84,0.92
				C359.24,344.35,358.59,343.71,358.15,343.85z M355.66,351.66c0.08-0.44,0.31-0.69,0.79-0.72c0.43,0.12,0.61,0.42,0.55,0.87
				c-0.05,0.44-0.26,0.75-0.76,0.67C355.79,352.41,355.57,352.14,355.66,351.66z M357.72,354.68c-0.39,0.83-1.06,0.27-1.61,0.24
				c-0.31-0.02-0.7-0.12-0.52-0.66c0.45-0.45,1.04-0.53,1.65-0.43C357.73,353.89,357.92,354.24,357.72,354.68z M363.65,353.22
				c-0.23,0.47-0.72,0.63-1.15,0.3c-1.03-0.77-2.41-0.65-3.42-1.41c-0.5,0.38-0.89,0.16-1.07-0.31c-0.25-0.67,0.46-0.79,0.78-1.13
				c-0.18-0.58-0.31-1.24,0.56-1.23c0.71,0.01,0.94,0.46,0.57,1.18c-0.45,0.88,0.45,1,0.89,1.34c0.45,0.36,0.92,0.52,1.19-0.23
				c0.25-0.69,0.69-0.3,0.87-0.04C363.19,352.17,364.03,352.44,363.65,353.22z"/>
			<path class="st0" d="M335.13,376.15L335.13,376.15C335.12,376.15,335.14,376.18,335.13,376.15L335.13,376.15z"/>
			<path class="st0" d="M383.61,391.57v-2.1c0-0.81-0.39-1.4-1.24-1.65l-1.14-0.33c-0.02,0.02-0.03,0.04-0.05,0.06h0
				c1.17,0.77,2.54,1.45,1.64,3.26C382.97,391.22,383.16,391.52,383.61,391.57z"/>
			<path class="st0" d="M296.1,370.54l-0.51-1.19C295.36,369.79,295.58,370.18,296.1,370.54z"/>
			<polygon class="st0" points="362.77,392.51 362.77,392.51 362.77,392.51 			"/>
			<polygon class="st0" points="335.13,376.15 335.13,376.15 335.13,376.15 			"/>
			<polygon class="st0" points="334.78,356.62 334.78,356.62 334.78,356.62 334.79,356.62 			"/>
			<path class="st0" d="M307.38,381.36l8.49,1.49c0.71,0.13,1.11-0.21,1.27-0.9l2.14-11.38l4.01,0.7c-0.03-0.52,0.12-0.94,0.81-0.88
				l0,0l0,0c0.23,0.06,0.46,0.11,0.68,0.17c0.36,0.14,0.88,0.28,0.63,0.77c-0.06,0.12-0.14,0.2-0.23,0.28l8.22,1.44l1.5,8.21
				c0.29-0.25,0.64-0.11,0.91,0.02c0.53,0.26,1.31,0.53,1.11,1.26c-0.16,0.58-0.78,0.17-1.17,0.07c-0.28-0.07-0.51-0.21-0.67-0.39
				l0.55,2.98c0.02,0.08,0.05,0.14,0.07,0.21c0-0.01,0-0.01,0.01-0.02c0.1-0.17,0.29-0.29,0.52-0.5c0.1,0.24,0.21,0.37,0.2,0.5
				c-0.01,0.24-0.16,0.43-0.43,0.41c-0.06,0-0.11-0.01-0.16-0.03c0.22,0.41,0.55,0.68,1.06,0.77l3.14,0.55
				c-0.67-0.3-1.3-0.69-1.95-1.04l0,0l0,0l-0.02-0.03c-0.7-0.33-0.52-0.75-0.14-1.21c0.34-0.42,0.8-0.57,1.19-0.25
				c0.5,0.4,0.98,0.65,1.64,0.71c0.68,0.06,0.93,0.61,0.73,1.27c-0.13,0.43-0.39,0.64-0.71,0.69l4.52,0.79c0.02,0,0.03,0,0.04,0
				c-0.35-0.11-0.63-0.44-0.36-0.67c0.41-0.36,0.9-0.6,1.36-0.84l-0.32-1.57c-0.23,0.27-0.53,0.47-0.88,0.44
				c-0.7-0.05-0.55-0.78-0.47-1.21c0.08-0.51,0.49-0.78,1.02-0.84l-0.23-1.12c-1.53,0.04-1.16-0.75-0.47-1.69l0,0
				c0.03-0.05,0.06-0.1,0.09-0.15l-0.94-4.61c-0.15,0.15-0.34,0.25-0.63,0.2c-0.46-0.08-0.49-0.41-0.39-0.77
				c0.12-0.41,0.37-0.72,0.76-0.71l-0.29-1.39c-0.58-0.44-1.44-0.35-1.87-1.04l0,0l-0.01-0.01c-0.04-1.19-1.49-2.7,0.76-3.36
				c0.07-0.02,0.14-0.02,0.2-0.03l-1.79-8.74c-0.08,0.1-0.2,0.17-0.37,0.13c-0.48-0.09-0.42-0.45-0.4-0.75
				c0.13-0.23,0.18-0.52,0.48-0.41c0.03,0.01,0.05,0.03,0.08,0.05l-0.33-1.6c-0.12,0.03-0.24,0.07-0.38,0.14
				c-0.19,0.1-0.57-0.1-0.64-0.42c-0.09-0.41,0.16-0.6,0.55-0.66c0.09-0.01,0.17-0.03,0.26-0.05l-1.56-7.61
				c-0.18,0-0.36-0.01-0.54-0.01l0,0c-0.13,0.07-0.25,0.15-0.38,0.22c-1.29-0.84-0.33-1.27,0.32-1.76l0,0
				c0.08-0.07,0.17-0.11,0.25-0.14l-5.01-24.43c-0.16-0.83-0.63-1.24-1.35-1.36l-11.03-1.94c-0.71-0.13-1.19,0.11-1.35,0.89
				l-13.17,59.61C306.11,380.65,306.51,381.21,307.38,381.36z M325.96,369.24c-0.3-0.22-0.44-0.69-0.16-0.87
				c0.92-0.61,0.79-1.8,1.49-2.5c0.17-0.18,0.34-0.35,0.51-0.53c0.18-0.21,0.33-0.6,0.67-0.16c0.05,0.1,0.09,0.2,0.16,0.29
				c0.3,0.36,1.06,0.53,0.82,1.13c-0.28,0.67-0.9,0-1.36,0.12c-0.05,0.97-1.14,1.33-1.31,2.26
				C326.71,369.27,326.31,369.5,325.96,369.24z M328.48,369.9c-0.47-0.09-0.92-0.46-0.8-1.12c0.15-0.54,0.48-0.93,1.1-0.77
				c0.55,0.15,0.8,0.66,0.81,1.19C329.6,369.95,328.92,369.98,328.48,369.9z M332.58,370.12c-0.05,0.12-0.23,0.27-0.34,0.27
				c-0.24,0-0.42-0.18-0.39-0.43c0.03-0.25,0.25-0.34,0.49-0.35C332.59,369.69,332.67,369.9,332.58,370.12z M334.58,369.95
				c0.15-0.31,0.42-0.52,0.82-0.41c0.39,0.17,0.4,0.47,0.32,0.83c-0.09,0.41-0.32,0.55-0.72,0.45
				C334.51,370.69,334.37,370.37,334.58,369.95z M335.01,367.52c0.08-0.32,0.12-0.69,0.59-0.67c0.5,0.24,0.51,0.73,0.55,1.16
				c0.06,0.53-0.34,0.47-0.68,0.41C334.95,368.32,334.91,367.95,335.01,367.52z M334.87,376.8c-0.21-0.28-0.06-0.52,0.25-0.65
				c0,0,0,0-0.01,0c0.33-0.95,0.99-1.04,1.7-0.51c0.5,0.37,0.43,0.9-0.05,1.28C336.12,377.45,335.44,377.56,334.87,376.8z
				 M337.33,380.1c-0.42-0.02-0.58-0.28-0.5-0.68c0.06-0.26,0.11-0.56,0.47-0.57c0.42,0.14,0.42,0.48,0.41,0.81
				C337.7,379.9,337.61,380.11,337.33,380.1z M341.61,380.26c0.11-0.46,0.48-0.61,0.91-0.56c0.37,0.05,0.59,0.29,0.64,0.69
				c-0.16,0.48-0.61,0.44-0.97,0.47C341.81,380.9,341.51,380.71,341.61,380.26z M340.57,381.97c0.57,0.16,0.96,0.24,1.33,0.39
				c0.53,0.21,0.61,0.71,0.47,1.14c-0.17,0.53-0.7,0.62-1.13,0.39c-0.64-0.36-1.18-0.85-2.03-0.53c-0.34,0.12-0.58-0.3-0.62-0.66
				c-0.05-0.47,0.22-0.81,0.65-0.84C339.75,381.81,340.26,381.94,340.57,381.97z M338.44,371.21c-0.3-0.1-0.5-0.35-0.46-0.63
				c0.05-0.36,0.36-0.37,0.66-0.28c0.31,0.08,0.53,0.27,0.46,0.59C339.02,371.21,338.76,371.32,338.44,371.21z M339.94,380.02
				c-0.26-0.09-0.29-0.31-0.25-0.54c0.08-0.27,0.3-0.36,0.5-0.21c0.15,0.11,0.27,0.37,0.26,0.55
				C340.43,380.11,340.16,380.09,339.94,380.02z M340.26,368.46c-0.06,0.47-0.42,0.65-0.87,0.54c-0.45-0.12-0.57-0.49-0.58-0.88
				c0.07-0.51,0.39-0.52,0.76-0.45C340.01,367.75,340.32,367.99,340.26,368.46z M340.05,365.41c-0.16,0.4-0.46,0.45-0.83,0.36
				c-0.32-0.08-0.52-0.27-0.45-0.6c0.1-0.46,0.46-0.42,0.81-0.33C339.88,364.91,340.11,365.05,340.05,365.41z M339.34,363.27
				c-0.16,0.15-0.38,0.29-0.6,0.14c-0.21-0.15-0.22-0.38-0.07-0.58c0.15-0.19,0.37-0.23,0.6-0.1
				C339.47,362.88,339.56,363.07,339.34,363.27z M338,353.34c0.09-0.46,0.46-0.62,0.87-0.6c0.47,0.11,0.56,0.42,0.45,0.79
				c-0.12,0.4-0.36,0.79-0.81,0.73C338.01,354.21,337.91,353.75,338,353.34z M338.17,375.86c0.22,0.09,0.4,0.22,0.35,0.49
				c-0.06,0.33-0.28,0.47-0.61,0.36c-0.27-0.08-0.32-0.31-0.26-0.54C337.71,375.93,337.92,375.84,338.17,375.86z M337.29,363.78
				c0.51,0.05,0.53,0.51,0.46,0.91c-0.07,0.46-0.34,0.68-0.83,0.56c-0.39-0.1-0.56-0.33-0.44-0.75
				C336.68,364.19,336.84,363.74,337.29,363.78z M335.96,362.21c-0.36-0.08-0.66-0.25-0.54-0.69c0.1-0.36,0.36-0.6,0.75-0.53
				c0.46,0.09,0.53,0.52,0.69,0.8C336.64,362.27,336.3,362.28,335.96,362.21z M334.68,355.17c0.29-0.24,0.74-0.23,0.92,0.07
				c0.32,0.57,1.51,0.72,1.14,1.49c-0.56,1.15-1.33,0.52-1.95-0.11l0,0l0,0l0,0l0,0c0,0,0,0,0,0
				C334.39,356.16,334.09,355.68,334.68,355.17z M333.49,363.96c-0.04,0.15-0.34,0.3-0.53,0.31c-0.29,0.02-0.55-0.13-0.53-0.5
				c0.06-0.34,0.27-0.48,0.6-0.41C333.34,363.43,333.56,363.66,333.49,363.96z M333.11,361.72c-0.14,0.43-0.47,0.43-0.82,0.34
				c-0.38-0.09-0.85-0.17-0.67-0.73c0.14-0.42,0.53-0.32,0.86-0.25C332.82,361.15,333.14,361.27,333.11,361.72z M331.85,322.54
				c0.35,0.04,0.48,0.26,0.4,0.59c-0.07,0.26-0.29,0.35-0.53,0.3c-0.24-0.05-0.38-0.23-0.34-0.5
				C331.46,322.7,331.58,322.51,331.85,322.54z M326.34,334.36l5.08,29l-10.15-1.78L326.34,334.36z"/>
			<polygon class="st0" points="334.79,356.62 334.78,356.62 334.79,356.62 			"/>
			<polygon class="st0" points="335.13,376.15 335.13,376.16 335.13,376.15 			"/>
			<polygon class="st0" points="183.63,322.77 183.63,322.77 183.63,322.77 			"/>
			<path class="st0" d="M95.36,379.18c-0.31-0.52-0.76-0.42-1.11-0.56l0,0v0c-0.22-0.12-0.44-0.24-0.65-0.35l0.33,1.44
				C94.39,379.56,94.86,379.33,95.36,379.18z"/>
			<path class="st0" d="M133.2,324.94l0.03-0.01c0.06-0.14,0.12-0.26,0.18-0.37l-3.86,0.78c-0.2,0.04-0.37,0.12-0.52,0.22
				C130.37,326.32,131.94,326.14,133.2,324.94z"/>
			<path class="st0" d="M177.92,379.98v-20.29l5.52-0.62l5.36,19.85c0.16,0.71,0.56,1.06,1.36,0.97l5-0.56
				c-0.23-0.28-0.33-0.65-0.26-1.1c0.12-0.68,0.6-0.96,1.25-0.76c0.75,0.23,1.03,0.81,0.99,1.52c-0.01,0.05-0.04,0.08-0.05,0.13
				l1.38-0.16c0.88-0.1,1.36-0.64,1.12-1.58l-5.52-20.48c3.84-2.12,5.84-5.89,5.84-11.29v-19.65c0-7.57-4-11.14-11.52-10.3l-6.2,0.7
				c0,0,0,0.01,0,0.01c-0.04,0.27-0.29,0.34-0.51,0.25c-0.07-0.03-0.14-0.1-0.2-0.18l-13.18,1.49c-0.8,0.09-1.28,0.63-1.28,1.43
				v59.61c0.32-0.38,0.6-0.81,1.16-0.46c0.76,0.49,0.03,1.08-0.18,1.63c-0.26,0.68,0.5,0.95,0.66,1.47h0
				c-0.07,0.28-0.2,0.5-0.49,0.6c-0.16,0.06-0.29,0.08-0.43,0.1c0.16,0.05,0.35,0.06,0.56,0.04l8.32-0.94
				C177.44,381.32,177.92,380.78,177.92,379.98z M189.28,331.86c0.3-0.24,0.62-0.32,0.85,0.04c0.23,0.36,0.02,0.62-0.33,0.79
				C188.8,332.94,189.29,332.24,189.28,331.86z M193.02,378.59c-0.24,1.08-0.97,0.65-1.6,0.55c-0.73-0.16-1.75-0.4-1.46-1.24
				c0.38-1.15,1.58-0.05,2.41-0.39C192.79,377.33,193.15,377.98,193.02,378.59z M196.96,336.56c-0.09,0.36-0.31,0.69-0.66,0.69
				c-0.56-0.01-0.42-0.56-0.53-0.91c0.11-0.46,0.39-0.71,0.86-0.6C197.06,335.85,197.05,336.21,196.96,336.56z M197.9,330.41
				c0.22,0.09,0.4,0.22,0.35,0.49c-0.06,0.33-0.28,0.47-0.61,0.37c-0.27-0.08-0.31-0.31-0.26-0.54
				C197.44,330.48,197.64,330.39,197.9,330.41z M197.01,318.62c0.37,0.12,0.45,0.44,0.42,0.77c-0.1,0.35-0.31,0.5-0.62,0.41
				c-0.35-0.1-0.59-0.35-0.53-0.73C196.35,318.69,196.64,318.5,197.01,318.62z M196.47,332.78c0.18-0.14,0.34-0.29,0.53-0.42
				c0.53-0.35,1.06-0.36,1.55,0.07c0.23,0.2,0.31,0.47,0.16,0.76c-0.31,0.58-0.79,0.77-1.42,0.54l0,0
				c-0.41,0.02-0.89,0.34-1.19-0.17C195.91,333.21,196.15,332.95,196.47,332.78z M195.03,321.44c0.1-0.26,0.39-0.39,0.67-0.32
				c0.37,0.19,0.51,0.49,0.43,0.84c-0.08,0.32-0.31,0.47-0.62,0.25C195.24,322.02,194.87,321.84,195.03,321.44z M194.24,339.1
				c0,0.25-0.19,0.38-0.47,0.26c-0.64-0.27-1.01-0.68-0.79-1.6C193.71,338.05,194.23,338.36,194.24,339.1z M190.97,317.09
				c0.46-0.41,0.94-0.09,1.41-0.03l0,0c0.14-0.09,0.28-0.17,0.42-0.26l0,0c1.21,0.08,1.25,0.37,0.27,1.83
				c-0.11-0.03-0.22-0.05-0.33-0.08c-0.88-0.8-2.28,0.71-3.02-0.69h0l0,0C189.34,316.33,190.38,317.07,190.97,317.09z
				 M186.97,319.11c0.25,0.13,0.27,0.36,0.14,0.55c-0.07,0.11-0.28,0.22-0.39,0.19c-0.22-0.06-0.37-0.27-0.29-0.51
				C186.51,319.1,186.73,319.05,186.97,319.11z M182.45,321.43c0.53-0.36,1.14-1.08,1.76-0.47c0.61,0.6,1.38,0.88,2.01,1.4l0,0
				c0.22,0.04,0.44,0.08,0.66,0.12c0.89,0.21,1.79,0.42,2.68,0.63v0v0h0l0,0.01c0.76-0.77,1.51-1.54,2.27-2.31l0,0l0,0
				c0.16-0.43,0.45-0.61,0.91-0.46c0.62,0.2,0.47,0.65,0.37,1.09c-0.22,0.43-0.43,0.86-0.65,1.3c0.07,0.14,0.14,0.27,0.21,0.41
				c0.73,0.88,0.66,1.07-0.49,1.38c-0.65,0.17-1.53-0.1-1.75,0.9c0.66,0.16,1.32,0.3,1.97,0.47c0.46,0.12,0.92,0.38,0.73,0.92
				c-0.18,0.5-0.75,0.62-1.11,0.26c-0.44-0.45-1.1-0.15-1.49-0.59v0c-0.47,0.11-0.95,0.33-1.35-0.16c-0.39-0.48-0.03-0.79,0.25-1.12
				c0.09-0.85-0.59-0.82-1.12-0.99c-0.57-0.19-1.29-0.07-1.66-0.73l0,0l0,0c-0.22-0.06-0.44-0.11-0.66-0.17
				c-0.89,0.26-1.37-1.21-2.36-0.56c-0.54,0.74-0.96,0.27-1.33-0.17C181.96,322.2,182.01,321.73,182.45,321.43z M181.31,317.65
				c0.4,0.11,0.82,0.34,0.73,0.77c-0.12,0.57-0.61,0.25-0.97,0.23c-0.33-0.13-0.91-0.08-0.76-0.64
				C180.43,317.6,180.9,317.58,181.31,317.65z M179.83,321.04c0.1-0.38,0.34-0.54,0.65-0.54c0.44,0.22,0.76,0.42,0.65,0.92
				c-0.11,0.47-0.37,0.66-0.85,0.53C179.77,321.81,179.72,321.47,179.83,321.04z M179.35,326.07c0.5,0.04,0.76,0.32,0.8,0.81
				C179.79,326.71,178.55,327.4,179.35,326.07z M177.92,327.48l7.92-0.89c1.66-0.19,2.7,0.43,3.05,1.75
				c1.28-1.07,2.54,0.14,3.8,0.28c0.37,0.04,0.4,0.65,0.24,1.05c-0.24,0.58-0.87,0.77-1.27,0.56c-0.86-0.46-1.89-0.54-2.65-1.18
				c0.01,0.14,0.03,0.27,0.03,0.42v15.14c0,2.09-1.12,3.35-3.2,3.58l-7.92,0.89V327.48z"/>
			<path class="st0" d="M190.42,325.43l0.01-0.01C190.43,325.43,190.43,325.43,190.42,325.43L190.42,325.43z"/>
			<path class="st0" d="M237.26,312.86l-1.17,0.04c0.4,0.42,1.06,0.74,0.65,1.46c-0.02,0.11-0.05,0.22-0.07,0.33
				c0.01,0.37-0.03,0.68,0.49,0.83c0.6,0.18,1.3,0.42,1.15,1.31c-1.1-0.35-2.34-0.28-3.28-1.11l0,0c-0.29,1.41-1.32,1.36-2.4,1.2
				c0.06,0.25,0.12,0.5,0.18,0.75c-0.33,0.34-0.71,0.17-1.08,0.1c-0.45-0.46,0.07-0.69,0.24-1c0.05-0.72,0.48-0.9,1.09-0.68
				c0.68,0.24,1.19,0.05,1.65-0.45c0.1-0.58,0.31-1.07,0.98-1.18c0.21-0.49-0.17-1.03-0.23-1.54l-10.92,0.38
				c0,0.06,0,0.13-0.01,0.21c-0.1,0.47-0.51,0.95-1.03,0.22c-1.06,0.33-2.48,0.05-2.64,1.82c-0.05,0.59-0.76,0.62-1.28,0.39
				c-0.56-0.25-0.84-0.79-0.39-1.23c0.38-0.37,0.58-0.8,0.69-1.25l-3.18,0.11c-0.09,0.26-0.19,0.5-0.25,0.71
				c-0.31,1.17-0.01,1.34,0.91,1.58c0.66,0.17,1.28,0.55,1.38,1.32c0.07,0.55-0.35,0.78-0.83,0.89l0,0l0,0l0,0l0,0
				c-0.55-0.13-1.11-0.26-1.66-0.39l0,0l0,0c-1.33,1.29-2.26-0.49-3.43-0.44c0.01,0.3,0.29,0.69-0.1,0.87
				c-0.44,0.2-0.84,0.03-1.07-0.43c-0.58-0.35-1.19-0.66-1.72-1.07c-0.6-0.48-0.58-1.08-0.03-1.6c0.61-0.57,1.12-0.39,1.53,0.27
				c0.2,0.33,0.33,0.75,0.61,0.99c0.28,0.25,0.78,0.42,1.1,0.13c0.33-0.29,0-0.6-0.22-0.86c-0.52-0.62-0.8-1.24-0.69-1.8l-4.57,0.16
				c-0.8,0.03-1.29,0.53-1.29,1.33v8.05c0,0.81,0.48,1.27,1.29,1.24l9.34-0.32v52.5c0,0.89,0.48,1.27,1.29,1.24l8.37-0.29
				c0.89-0.03,1.29-0.45,1.29-1.33v-52.5l9.34-0.32c0.89-0.03,1.29-0.53,1.29-1.33v-8.05C238.55,313.3,238.15,312.83,237.26,312.86z
				 M223.88,316.65L223.88,316.65L223.88,316.65c-0.05,0.22-0.1,0.45-0.16,0.67c-0.08,0.33-0.16,0.67-0.23,1
				c-0.13,0.09-0.26,0.18-0.38,0.26l0,0l0,0c-1.06,0.42-0.84-0.37-0.88-0.92c0.05-0.22,0.1-0.44,0.16-0.66l0,0
				c0.05-0.22,0.1-0.45,0.16-0.67l0,0l0,0c0.16-0.54,0.25-1.26,1.03-1.02C224.18,315.52,223.99,316.15,223.88,316.65z
				 M226.85,318.86c-0.26,0.66-0.79,0.41-1.26,0.3c-0.38-0.09-0.82-0.21-0.51-0.76c0.29-0.51,0.73-0.62,1.28-0.44
				C226.81,318.1,226.99,318.37,226.85,318.86z M229.95,316.89c-0.21,0.73-0.87,1.11-1.62,0.94c-0.64-0.15-0.78-0.76-0.8-1.34
				c0.29-0.68,0.8-1.09,1.48-0.98C229.69,315.63,230.16,316.18,229.95,316.89z M234.86,318.65c-0.33-0.06-0.66-0.27-0.6-0.69
				c0.05-0.34,0.34-0.41,0.65-0.41c0.33,0.06,0.5,0.3,0.51,0.59C235.41,318.48,235.16,318.7,234.86,318.65z M237.16,318.7
				c-0.02-0.31-0.18-0.66,0.26-0.82c0.42-0.15,0.74-0.05,0.91,0.38C238.19,319.08,237.84,319.34,237.16,318.7z"/>
			<path class="st0" d="M254.68,313.22l-8.37-0.15c-0.89-0.02-1.29,0.46-1.29,1.26v61.84c0,0.81,0.4,1.3,1.29,1.31l8.37,0.15
				c0.8,0.01,1.29-0.46,1.29-1.26v-61.84C255.97,313.73,255.49,313.24,254.68,313.22z"/>
			<path class="st0" d="M116.47,328.75c-0.01,0.01-0.02,0.01-0.03,0.02c0.01,0,0.02,0.01,0.04,0.01
				C116.47,328.77,116.47,328.76,116.47,328.75z"/>
		</g>
		<text transform="matrix(1 0 0 1 377.5211 343.4595)" class="st0 st1 st2"></text>
	</g>
</g>
</svg>
