<?xml version="1.0" encoding="utf-8"?>
<!-- Generator: Adobe Illustrator 25.2.3, SVG Export Plug-In . SVG Version: 6.00 Build 0)  -->
<svg version="1.1" id="Capa_1" xmlns="http://www.w3.org/2000/svg" xmlns:xlink="http://www.w3.org/1999/xlink" x="0px" y="0px"
	 viewBox="0 0 442.9 297.3" style="enable-background:new 0 0 442.9 297.3;" xml:space="preserve">
<style type="text/css">
	.st0{fill:none;stroke:#8A7959;stroke-width:21;stroke-miterlimit:10;}
	.st1{fill:none;stroke:#000000;stroke-width:11;stroke-miterlimit:10;}
	.st2{fill:#324643;}
	.st3{fill:#4C6B66;}
	.st4{fill:#C12A21;}
	.st5{fill:#8A7959;}
	.st6{fill:#FFFFFF;}
</style>
<path class="st0" d="M416.1,156.4l-60.2-30.6l-24.6-21.3l-17.9-5.6l-29.1-16.8l-5.6-7.8l-8.9-9L248.3,81l-18.3,7.6l-3-3.1
	l-45.9-25.8l-3.9-3.9c1.1-1,1.9-2.5,1.9-4.2c0-2.4-1.5-4.5-3.6-5.3c-0.1-1.6-0.7-3.1-1.8-4.3c0-0.2,0-0.5,0-0.7
	c0-4.9-3.9-8.8-8.8-8.8c-0.4,0-0.7,0-1.1,0.1c-0.6-0.7-1.3-1.2-2-1.7c-1-4.9-5.4-8.6-10.6-8.6c-6,0-10.9,4.9-10.9,10.9
	c0,0.1,0,0.1,0,0.2c-1.8,2-2.9,4.6-2.9,7.4c0,6,4.9,10.9,10.9,10.9c0.7,0,1.4-0.1,2.1-0.2c1.7,1.7,3.9,2.8,6.3,3.1l-7,8.5
	L23.7,155.9l15.1,62.4l48.1-0.1l-20.4,28.7l24.6,23.1h261.1l19.4-22.6l-20.8-28.6l52.6,0.1V186L416.1,156.4z"/>
<path class="st1" d="M416.1,156.4l-60.2-30.6l-24.6-21.3l-17.9-5.6l-29.1-16.8l-5.6-7.8l-8.9-9L248.3,81l-18.3,7.6l-3-3.1
	l-45.9-25.8l-3.9-3.9c1.1-1,1.9-2.5,1.9-4.2c0-2.4-1.5-4.5-3.6-5.3c-0.1-1.6-0.7-3.1-1.8-4.3c0-0.2,0-0.5,0-0.7
	c0-4.9-3.9-8.8-8.8-8.8c-0.4,0-0.7,0-1.1,0.1c-0.6-0.7-1.3-1.2-2-1.7c-1-4.9-5.4-8.6-10.6-8.6c-6,0-10.9,4.9-10.9,10.9
	c0,0.1,0,0.1,0,0.2c-1.8,2-2.9,4.6-2.9,7.4c0,6,4.9,10.9,10.9,10.9c0.7,0,1.4-0.1,2.1-0.2c1.7,1.7,3.9,2.8,6.3,3.1l-7,8.5
	L23.7,155.9l14.5,63.8l47,0.2L66,247.4l23.8,22.9l263.3-0.2l18.8-23l-20-27.1l51.9,0l-0.4-34L416.1,156.4z"/>
<g>
	<polygon class="st2" points="75.3,152.3 198.2,96.7 278.8,116.3 282.8,105.3 343,117.9 414.9,155.2 346.2,198.5 69.1,193 	"/>
</g>
<g>
	<g>
		<path class="st2" d="M173.4,57.4c-0.6,0-1.2-0.1-1.8-0.3c-1.5,0.4-3.1,0.3-4.5-0.4c-2.5,0.2-4.9-0.7-6.6-2.4
			c-0.8,0.2-1.7,0.3-2.6,0.3c-2.9,0-5.6-1.2-7.5-3.2c-0.7,0.1-1.4,0.2-2.1,0.2c-6,0-10.9-4.9-10.9-10.9c0-2.8,1.1-5.4,2.9-7.4
			c0-0.1,0-0.1,0-0.2c0-6,4.9-10.9,10.9-10.9c5.2,0,9.6,3.7,10.6,8.6c0.8,0.4,1.5,1,2,1.7c0.4,0,0.7-0.1,1.1-0.1
			c4.9,0,8.8,3.9,8.8,8.8c0,0.2,0,0.5,0,0.7c1.1,1.1,1.7,2.6,1.8,4.3c2.1,0.8,3.6,2.9,3.6,5.3C179.1,54.8,176.6,57.4,173.4,57.4z
			 M165.6,47.4l0.2,1c0.1,0.2,0.2,0.4,0.5,0.5l0.7-1.3L165.6,47.4z M153.8,41.1l1.8,4.2c0.4,1,1.4,1.6,2.4,1.6
			c0.7,0,1.3-0.3,1.6-0.6l4.8-3.8l0.3,1.3l1.1-1.9c0.1-0.2,0.1-0.3,0.1-0.5c0-0.5-0.4-1-1-1c-0.2,0-0.4,0.1-0.6,0.2l-5.8,4.7
			l-0.5-7.5c0-0.1-0.1-0.1-0.2-0.2l-3.9-0.3l0.3-3.9c0-0.1,0-0.2,0-0.2c0-1.7-1.4-3-3-3s-3,1.4-3,3c0,0.2,0,0.5,0.1,0.8l0.7,2.7
			l-2.4,1.5c-0.9,0.6-1.4,1.5-1.4,2.5c0,1.7,1.4,3,3,3c0.6,0,1.1-0.2,1.6-0.4L153.8,41.1z"/>
	</g>
</g>
<rect x="195.6" y="160.2" width="36.3" height="40.8"/>
<rect x="75" y="173.1" width="36.3" height="40.8"/>
<g>
	<polygon class="st2" points="230,88.6 248.3,81 269.6,65.3 278.6,74.3 284.2,82.1 313.3,98.9 331.2,104.5 355.8,125.8 410.1,159.9 
		338.1,133 322.4,121.8 295.3,112.6 295.5,118.9 309.4,153.3 257.8,118.5 250,111.8 	"/>
</g>
<g>
	<polygon class="st3" points="236.1,96.7 248.6,93.9 258,88.9 252.2,99.1 246.2,107.2 251.4,112 257.8,107.3 265.7,90.5 
		267.4,106.1 298.2,139.8 281.2,109.8 278.3,99.3 280.1,94.6 293.2,104.6 325.8,115.3 343,129.1 380.5,147.3 351.2,127.7 
		339.6,117.4 328.4,108.5 310.5,102.9 291.4,91.7 280.2,84.9 276.9,79.3 273.5,88.3 268.9,77.3 268.7,70.9 266.4,72.5 252.2,86.1 
		234.2,92.8 	"/>
</g>
<g>
	<polygon class="st2" points="24.5,158.3 156.5,144.9 178.9,110.1 202.4,132.5 271.8,157.2 243.8,132.5 240.5,120.2 341.3,172.8 
		259.5,119.1 227,85.5 181.1,59.7 174.4,53 159.9,50.8 149.8,63.1 	"/>
</g>
<g>
	<polygon class="st3" points="97.6,148.2 150.3,123 175.8,90.2 196.3,108.5 224.2,127.5 200.7,101.7 192.9,83.8 224.2,96.1 
		250,119.7 294.8,145.4 254.5,119.7 227.6,91.7 185.1,68.1 189.5,73.7 178.3,68.1 182.8,80.5 163.8,58.1 157.1,65.9 125.4,92.5 
		123,101.4 95.6,122.8 130.2,107.3 149.2,83.8 141.6,111.5 	"/>
</g>
<g>
	<polygon points="400.5,218.7 41.7,218.7 33.8,152.5 400.5,152.5 	"/>
	<g>
		<g>
			<path d="M28,157.9l11.6,0l5,26.2c0.8,4,1.7,10.8,2.3,15.4h0.3c0.6-4.6,1.5-11.4,2.3-15.4l5-26.2l11.6,0L53,213.3l-11.9,0
				L28,157.9z"/>
			<path d="M57.3,218.7H36.9l-15.7-66.1h22.9l3,15.7l3-15.7H73L57.3,218.7z M45.4,207.9h3.4l0.7-3h-4.8L45.4,207.9z M34.8,163.3
				l1.8,7.7l-1.5-7.7H34.8z M59,163.3l-1.5,7.7l1.8-7.7H59z"/>
		</g>
		<g>
			<path d="M100.6,202.6l0,10.7l-29.3,0l0-55.4l28.6,0l0,10.7l-17.3,0l0,11.5l15.7,0l0,10.3l-15.7,0l0,12.3L100.6,202.6z"/>
			<path d="M106,218.7H65.9v-66.1h39.3V174H87.9v0.7h15.7v21.1H87.9v1.5H106V218.7z M76.7,207.9h0.5v-44.6h-0.5V207.9z"/>
		</g>
		<g>
			<path d="M123.5,194.7h-4l0,18.6l-11.2,0l0-55.4l16.1,0c11,0,17.5,6.8,17.5,18.4c0,7.5-2.8,13.1-7.7,16l10.4,21l-12.3,0
				L123.5,194.7z M119.5,184l4.7,0c4,0,6.1-2.7,6.1-7.7c0-5.1-2.1-7.8-6.1-7.8l-4.7,0L119.5,184z"/>
			<path d="M153.3,218.7H129l-4-8.5v8.5h-22v-66.1h21.4c13.9,0,22.9,9.3,22.9,23.8c0,7.2-2.2,13.3-6.3,17.5L153.3,218.7z
				 M135.8,207.9h0.2l-3.8-7.7L135.8,207.9z M113.7,207.9h0.5v-44.6h-0.5V207.9z M125.8,189.3h1.1l0.4,0.8l4.1-2.5
				c4.2-2.5,5-7.5,5-11.4c0-7.8-3.3-12.1-9.7-12.9c6.6,1.3,8.9,7.5,8.9,12.9C135.7,182,133.1,188.5,125.8,189.3z"/>
		</g>
		<g>
			<path d="M179.4,168.6l-10.8,0l0,44.7l-11.5,0l0-44.7l-10.8,0l0-10.7l33.2,0L179.4,168.6z"/>
			<path d="M174,218.7h-22.3V174h-10.8v-21.4h44V174H174V218.7z M162.4,207.9h0.8v-44.6h-0.8V207.9z"/>
		</g>
		<g>
			<path d="M196,157.9l0,55.4l-11.2,0l0-55.4L196,157.9z"/>
			<path d="M201.3,218.7h-22v-66.1h22V218.7z M190.1,207.9h0.5v-44.6h-0.5V207.9z"/>
		</g>
		<g>
			<path d="M219.9,192.4l-3.1,5l0,16l-11.1,0l0-55.4l11.1,0l0,21.2l2.8-6.2l7.8-15l12.8,0l-14.1,24.2l16.5,31.2l-12.7,0L219.9,192.4
				z"/>
			<path d="M251.6,218.7h-25l-4.4-9.1v9.1h-21.8v-66.1h21.8v3.7l1.9-3.7h25.5l-17.3,29.7L251.6,218.7z M233.4,207.9h0.3l-3.6-6.9
				L233.4,207.9z M211.1,207.9h0.3v-44.6h-0.3V207.9z M230.7,163.3l-1.4,2.6l1.5-2.6H230.7z"/>
		</g>
		<g>
			<path d="M268,204.1l-11.7,0l-1.8,9.2l-11.6,0l13.3-55.4l12,0l13.3,55.4l-11.6,0L268,204.1z M265.8,193.5l-1.3-6.3
				c-0.7-4-1.7-10.7-2.2-15.2H262c-0.6,4.5-1.4,11.2-2.2,15.2l-1.3,6.3L265.8,193.5z"/>
			<path d="M288.3,218.7h-22.9l-1.8-9.2h-2.9l-1.8,9.2H236l15.9-66.1h20.5L288.3,218.7z M274.2,207.9h0.4l-2.2-9L274.2,207.9z
				 M249.7,207.9h0.4l1.8-9L249.7,207.9z M272.3,198.8L272.3,198.8l-0.4-2L272.3,198.8z M251.9,198.8L251.9,198.8l0.5-2L251.9,198.8
				z M259.6,166.6h5.1l-0.8-3.2h-3.5L259.6,166.6z"/>
		</g>
		<g>
			<path d="M314.3,202.6l0,10.7l-27.7,0l0-55.4l11.2,0l0,44.7L314.3,202.6z"/>
			<path d="M319.7,218.7h-38.5v-66.1h22v44.7h16.5V218.7z M292,207.9h0.5v-44.6H292V207.9z"/>
		</g>
		<g>
			<path d="M330.9,157.9l0,55.4l-11.2,0l0-55.4L330.9,157.9z"/>
			<path d="M336.3,218.7h-22v-66.1h22V218.7z M325,207.9h0.5v-44.6H325V207.9z"/>
		</g>
		<g>
			<path d="M370.2,168.6l-10.8,0l0,44.7l-11.5,0l0-44.7l-10.8,0l0-10.7l33.2,0L370.2,168.6z"/>
			<path d="M364.7,218.7h-22.3V174h-10.8v-21.4l44,0V174h-10.8L364.7,218.7z M353.2,207.9h0.8l0-44.6h-0.8V207.9z"/>
		</g>
		<g>
			<path d="M384.4,196.9l-13.1-38.9l11.6,0l4.5,15.3c0.6,1.8,1.8,6.2,2.4,8.9h0.3c0.6-2.7,1.9-7,2.5-9.1l4.4-15.1l11.6,0l-13.1,38.9
				l0,16.5l-11.2,0L384.4,196.9z"/>
			<path d="M401,218.7h-22v-21l-15.2-45.2H387l3,10.3l3-10.3h23.2l-15.2,45.2L401,218.7z M389.8,207.9h0.5V196l2.8-8.5H387l2.8,8.5
				V207.9z M378.9,163.3l0.9,2.7l-0.8-2.7H378.9z M401.1,163.3l-0.6,1.9L401.1,163.3L401.1,163.3z"/>
		</g>
	</g>
</g>
<g>
	<path class="st3" d="M173.4,49.9c-0.3,0-0.5,0.1-0.7,0.2c-0.2-0.9-0.7-1.6-1.4-2c0.2-0.4,0.4-0.9,0.4-1.4c0-1.4-1.1-2.6-2.5-2.8
		c0.4-0.7,0.7-1.6,0.7-2.5c0-2.7-2.2-4.9-4.9-4.9c-1.2,0-2.2,0.4-3.1,1.1c-0.1-2-1.7-3.6-3.8-3.8c0-0.2,0-0.4,0-0.6
		c0-3.8-3.1-6.9-6.9-6.9c-3.8,0-6.9,3.1-6.9,6.9c0,0.6,0.1,1.2,0.2,1.8c-1.9,1.2-3.1,3.4-3.1,5.8c0,3.8,3.1,6.9,6.9,6.9
		c1.3,0,2.6-0.4,3.6-1c1,2.3,3.3,4,6,4c1.5,0,2.9-0.5,4-1.4c0.5,2,2.3,3.5,4.5,3.5c0.5,0,1-0.1,1.4-0.2c0.5,0.5,1.2,0.8,2,0.8
		c0.8,0,1.5-0.3,2-0.8c0.3,0.5,0.9,0.9,1.5,0.9c1,0,1.8-0.8,1.8-1.8C175.2,50.7,174.4,49.9,173.4,49.9z"/>
</g>
<g>
	<path class="st4" d="M29.9,161.2l11.5,0l4.9,25.9c0.8,4,1.7,10.7,2.3,15.3h0.3c0.5-4.5,1.5-11.3,2.3-15.3l4.9-25.9l11.5,0l-13,54.8
		l-11.8,0L29.9,161.2z"/>
	<path class="st4" d="M101.8,205.5l0,10.6l-29.1,0l0-54.8l28.3,0l0,10.6l-17.2,0l0,11.4l15.6,0l0,10.2l-15.6,0l0,12.1L101.8,205.5z"
		/>
	<path class="st4" d="M124.4,197.6l-3.9,0l0,18.4l-11.1,0l0-54.8l15.9,0c10.9,0,17.3,6.7,17.3,18.3c0,7.4-2.7,12.9-7.6,15.8
		l10.3,20.8l-12.1,0L124.4,197.6z M120.5,187.1h4.6c3.9,0,6-2.7,6-7.6c0-5-2.1-7.7-6-7.7l-4.6,0L120.5,187.1z"/>
	<path class="st4" d="M179.8,171.8l-10.7,0l0,44.3l-11.4,0l0-44.3l-10.7,0l0-10.6l32.9,0L179.8,171.8z"/>
	<path class="st4" d="M196.2,161.2l0,54.8l-11.1,0l0-54.8L196.2,161.2z"/>
	<path class="st4" d="M219.9,195.3l-3.1,4.9l0,15.8l-11,0l0-54.8l11,0l0,21l2.8-6.1l7.7-14.9l12.7,0l-13.9,24l16.3,30.9l-12.5,0
		L219.9,195.3z"/>
	<path class="st4" d="M267.5,207l-11.6,0l-1.8,9.1l-11.5,0l13.2-54.8l11.9,0l13.2,54.8l-11.5,0L267.5,207z M265.3,196.4l-1.3-6.3
		c-0.7-3.9-1.6-10.6-2.2-15h-0.3c-0.5,4.5-1.4,11.1-2.2,15l-1.3,6.3L265.3,196.4z"/>
	<path class="st4" d="M313.4,205.5v10.6l-27.4,0l0-54.8l11.1,0l0,44.3L313.4,205.5z"/>
	<path class="st4" d="M329.8,161.2l0,54.8l-11.1,0l0-54.8L329.8,161.2z"/>
	<path class="st4" d="M368.7,171.8l-10.7,0l0,44.3l-11.4,0l0-44.3l-10.7,0l0-10.6l32.9,0L368.7,171.8z"/>
	<path class="st4" d="M382.8,199.8l-12.9-38.5l11.5,0l4.5,15.2c0.5,1.8,1.8,6.1,2.4,8.8h0.3c0.6-2.7,1.9-7,2.5-9l4.3-15l11.5,0
		L394,199.8l0,16.3l-11.1,0L382.8,199.8z"/>
</g>
<g>
	<g>
		<path class="st2" d="M257,250.8c1.9,0,1.9-3,0-3C255.1,247.8,255.1,250.8,257,250.8L257,250.8z"/>
	</g>
</g>
<polygon points="80.1,218.1 360.9,218.1 362.1,234.6 368.9,245.3 352.3,270.1 100.2,270.1 83.7,267 65.5,238.8 "/>
<g>
	<g>
		<polygon class="st2" points="119.8,268.3 235.3,268.3 235.3,226.4 119.9,226.4 141,247.2 		"/>
	</g>
	
		<rect x="99.4" y="233.8" transform="matrix(-0.7076 -0.7066 0.7066 -0.7076 18.1069 502.0918)" class="st5" width="27.1" height="27.1"/>
	<rect x="103.9" y="238.3" transform="matrix(-0.7076 -0.7066 0.7066 -0.7076 18.1069 502.0918)" width="18.1" height="18.1"/>
	
		<rect x="87.1" y="238" transform="matrix(-0.7076 -0.7066 0.7066 -0.7076 -10.1927 490.3813)" class="st5" width="18.6" height="18.6"/>
	<rect x="90.1" y="241.1" transform="matrix(-0.7076 -0.7066 0.7066 -0.7076 -10.1927 490.3813)" width="12.5" height="12.4"/>
	
		<rect x="77.1" y="240.2" transform="matrix(-0.7076 -0.7066 0.7066 -0.7076 -30.9217 481.8035)" class="st5" width="14.2" height="14.2"/>
	<rect x="79.5" y="242.6" transform="matrix(-0.7076 -0.7066 0.7066 -0.7076 -30.9217 481.8035)" width="9.5" height="9.5"/>
	<g>
		<polygon class="st2" points="317,226.4 201.6,226.4 201.6,268.3 316.9,268.3 295.9,247.4 		"/>
	</g>
	
		<rect x="310.4" y="233.8" transform="matrix(0.7076 0.7066 -0.7066 0.7076 269.4889 -156.5412)" class="st5" width="27.1" height="27.1"/>
	<rect x="314.8" y="238.3" transform="matrix(0.7076 0.7066 -0.7066 0.7076 269.4889 -156.5412)" width="18.1" height="18.1"/>
	
		<rect x="331.2" y="238" transform="matrix(0.7076 0.7066 -0.7066 0.7076 274.3348 -168.2518)" class="st5" width="18.6" height="18.6"/>
	<rect x="334.2" y="241.1" transform="matrix(0.7076 0.7066 -0.7066 0.7076 274.3348 -168.2518)" width="12.5" height="12.4"/>
	
		<rect x="345.5" y="240.3" transform="matrix(0.7076 0.7066 -0.7066 0.7076 277.8843 -176.8296)" class="st5" width="14.2" height="14.2"/>
	<rect x="347.9" y="242.6" transform="matrix(0.7076 0.7066 -0.7066 0.7076 277.8843 -176.8296)" width="9.5" height="9.5"/>
	<g>
		<path class="st6" d="M193.4,230.9c-0.9,0-1.6,0-2,0v0.1c0.4,0.1,0.6,0.2,0.8,0.3c0.1,0.1,0.2,0.5,0.2,1.1v8.5
			c0,1.3-0.2,1.3-0.8,1.4v0.1c0.5,0,0.9,0,1.4,0c0.5,0,1,0,1.5,0v-0.1c-0.3,0-0.6-0.2-0.7-0.3c-0.1-0.2-0.2-0.5-0.2-1.1v-4.3
			c0.6,0,1,0,1.2,0c0.3,0,0.6,0,0.8,0c0.3,0,0.5,0.1,0.6,0.1c0.4,0.2,0.6,0.5,0.6,1.1h0.1c0-0.7,0-1.2,0-1.5c0-0.5,0-1,0-1.7h-0.1
			c0,0.2,0,0.4-0.1,0.5c-0.1,0.4-0.3,0.6-0.6,0.7c-0.3,0.1-1.2,0.2-2.6,0.2v-4.6c0.2-0.1,0.7-0.1,1.3-0.1c1.2,0,2,0.1,2.3,0.2
			c0.3,0.1,0.5,0.6,0.5,1.2h0.1c0.1-0.3,0.1-0.7,0.1-1.3c0-0.2,0-0.6,0-0.7C197.3,230.9,195.8,230.9,193.4,230.9"/>
		<path class="st6" d="M204.2,242.4L204.2,242.4c-0.6-0.2-0.7-0.2-0.8-1.5v-8.5c0-1.3,0.2-1.3,0.8-1.4v-0.1c-0.4,0-0.9,0-1.4,0
			c-0.5,0-0.9,0-1.4,0v0.1c0.6,0.1,0.7,0.2,0.8,1.4v8.5c0,1.3-0.2,1.3-0.8,1.4v0.1c0.5,0,0.9,0,1.4,0
			C203.3,242.3,203.7,242.4,204.2,242.4"/>
		<path class="st6" d="M209.3,230.6h-0.1v3.5c0,2.5,0,4.1,0,4.9c0,1.6-0.1,2.5-0.3,2.8c-0.1,0.1-0.3,0.3-0.6,0.4v0.1
			c0.4,0,0.9,0,1.2,0c0.4,0,0.9,0,1.3,0v-0.1c-0.2-0.1-0.4-0.1-0.4-0.2c-0.3-0.1-0.4-0.5-0.5-1.1c-0.1-0.7-0.1-3-0.1-6.9v-1.4l9,10
			h0.1v-3.6c0-2.5,0-4.2,0-5c0-1.5,0.2-2.4,0.4-2.7c0.1-0.1,0.3-0.3,0.7-0.4v-0.1c-0.9,0-1.7,0-2.7,0v0.1c0,0,0,0,0,0
			c0.2,0,0.3,0.1,0.4,0.1c0.3,0.1,0.4,0.5,0.5,1c0.1,0.7,0.2,3,0.2,7v1.4L209.3,230.6z"/>
		<path class="st6" d="M229.5,242.5c1.3,0,2.6-0.3,4-1c0-0.7,0-1.2,0.1-1.7h-0.1c-0.2,0.8-0.7,1.3-1.4,1.7s-1.5,0.6-2.3,0.6
			c-1.2,0-2.4-0.4-3.4-1.2c-1-0.8-1.6-2.3-1.6-4.1c0-1.9,0.5-3.4,1.4-4.3c0.9-0.9,2-1.3,3.2-1.3c1.1,0,2,0.2,2.7,0.7
			c0.7,0.4,1.1,1.1,1.2,1.9h0.1c0,0,0-0.4,0-0.6c0-0.6,0-1.1,0-1.5l-0.5-0.1c-0.3-0.1-0.4-0.1-0.5-0.2c-0.2-0.1-0.8-0.2-1.2-0.3
			c-0.5-0.1-1.3-0.2-2-0.2c-1.9,0-3.6,0.7-4.5,1.9c-0.9,1.1-1.5,2.6-1.5,4c0,1.5,0.6,2.9,1.6,4C225.9,241.8,227.6,242.5,229.5,242.5
			"/>
		<path class="st6" d="M241.1,232.8l1.5,4.7h-1.7c-0.7,0-1.2,0-1.5,0L241.1,232.8z M237.1,241.8c-0.2,0.2-0.5,0.4-0.9,0.5v0.1
			c0.4,0,0.8,0,1.1,0c0.5,0,1,0,1.5,0v-0.1c-0.5,0-0.7-0.3-0.7-0.7c0-0.2,0.1-0.6,0.3-1.1l0.9-2.6c0.4,0,0.9,0,1.7,0h1.8l0.9,3
			c0.1,0.4,0.2,0.7,0.2,0.8c0,0.3-0.2,0.5-0.7,0.6v0.1c0.9,0,1.9,0,2.8,0v-0.1c-0.3,0-0.5-0.1-0.6-0.2c-0.1-0.1-0.2-0.4-0.4-0.9
			l-3.3-10.5h-0.2l-3.6,9.5C237.5,241,237.3,241.5,237.1,241.8"/>
		<path class="st6" d="M153.4,255.8c-0.3-0.3-0.7-0.6-1.1-0.9c-0.8-0.6-1.5-1-2-1.8c-0.2-0.4-0.3-0.8-0.3-1.3c0-1.2,0.8-1.8,1.9-1.8
			c1.2,0,2,0.6,2.2,1.8h0.1c0-0.2,0-0.4,0-0.9c0-0.4,0-0.7,0-1c-0.1,0-0.2,0-0.3,0c-0.2,0-0.5,0-0.9-0.1c-0.4-0.1-0.8-0.1-1.2-0.1
			c-0.9,0-1.5,0.3-2.1,0.8c-0.6,0.5-0.8,1.2-0.8,2c0,3.4,4.7,3.4,4.7,6.5c0,1.4-1,2.1-2.1,2.1c-0.7,0-1.3-0.2-1.8-0.5
			c-0.5-0.4-0.7-0.8-0.7-1.5c0-0.1,0-0.2,0-0.4h-0.1c-0.1,0.3-0.2,0.6-0.2,1c0,0.3,0.1,0.9,0.1,1.1c0,0.2,0,0.4,0,0.4
			c0.1,0,0.1,0,0.2,0c0.2,0,0.6,0,1,0.1c0.5,0.1,0.9,0.2,1.2,0.2c0.9,0,1.7-0.3,2.4-0.9c0.6-0.6,0.9-1.4,0.9-2.3
			C154.6,257.3,154.1,256.4,153.4,255.8"/>
		<path class="st6" d="M161.8,256.7c-0.7,0-1.2,0-1.5,0l1.7-4.7l1.5,4.7H161.8z M165.9,260.3l-3.3-10.5h-0.2l-3.6,9.5
			c-0.3,0.9-0.6,1.4-0.8,1.7c-0.2,0.2-0.5,0.4-0.9,0.5v0.1c0.4,0,0.8,0,1.1,0c0.5,0,1,0,1.5,0v-0.1c-0.5,0-0.7-0.3-0.7-0.7
			c0-0.2,0.1-0.6,0.3-1.1l0.9-2.6c0.4,0,0.9,0,1.7,0h1.8l0.9,3c0.1,0.4,0.2,0.7,0.2,0.8c0,0.3-0.2,0.5-0.7,0.6v0.1
			c0.9,0,1.9,0,2.8,0v-0.1c-0.3,0-0.5-0.1-0.6-0.2C166.2,261.1,166.1,260.8,165.9,260.3"/>
		<path class="st6" d="M172.7,261.6L172.7,261.6c-0.2-0.2-0.4-0.2-0.4-0.3c-0.3-0.1-0.4-0.5-0.5-1.1c-0.1-0.7-0.1-3-0.1-6.9v-1.4
			l9,10h0.1v-3.6c0-2.5,0-4.2,0-5c0-1.5,0.2-2.4,0.4-2.7c0.1-0.1,0.3-0.3,0.7-0.4V250c-0.9,0-1.7,0-2.7,0v0.1c0,0,0,0,0,0
			c0.2,0,0.3,0.1,0.4,0.1c0.3,0.1,0.4,0.5,0.5,1c0.1,0.7,0.2,3,0.2,7v1.4l-8.9-9.9h-0.1v3.5c0,2.5,0,4.1,0,4.9
			c0,1.6-0.1,2.5-0.3,2.8c-0.1,0.1-0.3,0.3-0.6,0.4v0.1c0.4,0,0.9,0,1.2,0C171.7,261.5,172.2,261.5,172.7,261.6"/>
		<path class="st6" d="M197.9,250c-1.9,0-3.6,0.7-4.5,1.9c-0.9,1.1-1.5,2.6-1.5,4c0,1.5,0.6,2.9,1.6,4c1,1.1,2.7,1.8,4.6,1.8
			c1.3,0,2.6-0.3,4-1c0-0.7,0-1.2,0.1-1.7H202c-0.2,0.8-0.7,1.3-1.4,1.7s-1.5,0.6-2.3,0.6c-1.2,0-2.4-0.4-3.4-1.2
			c-1-0.8-1.6-2.3-1.6-4.1c0-1.9,0.5-3.4,1.4-4.3c0.9-0.9,2-1.3,3.2-1.3c1.1,0,2,0.2,2.7,0.7c0.7,0.4,1.1,1.1,1.2,1.9h0.1
			c0,0,0-0.4,0-0.6c0-0.6,0-1.1,0-1.5l-0.5-0.1c-0.3-0.1-0.4-0.1-0.5-0.2c-0.2-0.1-0.8-0.2-1.2-0.3C199.3,250.1,198.5,250,197.9,250
			"/>
		<path class="st6" d="M209.4,256.7c-0.7,0-1.2,0-1.5,0l1.7-4.7l1.5,4.7H209.4z M213.5,260.3l-3.3-10.5H210l-3.6,9.5
			c-0.3,0.9-0.6,1.4-0.8,1.7c-0.2,0.2-0.5,0.4-0.9,0.5v0.1c0.4,0,0.8,0,1.1,0c0.5,0,1,0,1.5,0v-0.1c-0.5,0-0.7-0.3-0.7-0.7
			c0-0.2,0.1-0.6,0.3-1.1l0.9-2.6c0.4,0,0.9,0,1.7,0h1.8l0.9,3c0.1,0.4,0.2,0.7,0.2,0.8c0,0.3-0.2,0.5-0.7,0.6v0.1
			c0.9,0,1.9,0,2.8,0v-0.1c-0.3,0-0.5-0.1-0.6-0.2C213.8,261.1,213.6,260.8,213.5,260.3"/>
		<path class="st6" d="M219.2,251.5c-0.2-0.4-0.3-0.7-0.3-0.9c0-0.3,0.2-0.4,0.7-0.5V250c-0.5,0-0.9,0-1.4,0c-0.6,0-1.1,0-1.6,0v0.1
			c0.6,0.1,0.7,0.3,1.2,1.2l3.2,6.4v2.4c0,0.6,0,1-0.2,1.1c-0.1,0.1-0.3,0.3-0.6,0.3v0.1c0.5,0,0.9,0,1.4,0c0.5,0,0.9,0,1.4,0v-0.1
			c-0.3-0.1-0.5-0.2-0.6-0.3c-0.1-0.2-0.1-0.5-0.1-1.1v-2.6l2.2-4.2l0.6-1.1c0.5-0.9,0.8-1.5,0.9-1.7c0.1-0.2,0.4-0.3,0.7-0.4V250
			c-0.4,0-0.8,0-1.2,0c-0.3,0-0.7,0-1.2,0v0.1c0.4,0.1,0.6,0.3,0.6,0.6c0,0.1,0,0.2,0,0.2c0,0.2-0.3,0.8-0.7,1.7
			c-0.1,0.2-0.2,0.3-0.2,0.5l-2,3.8L219.2,251.5z"/>
		<path class="st6" d="M229.3,250L229.3,250c0.4,0.1,0.6,0.3,0.8,0.4c0.1,0.1,0.2,0.5,0.2,1.1v8.5c0,1.1-0.1,1.3-0.9,1.4v0.1
			c0.4,0,1.5,0,3.2,0c1.2,0,2.3,0,3.3,0c0-0.4,0.1-1.1,0.1-2.1h-0.1c0,0.8-0.3,1.2-0.7,1.4c-0.2,0.1-0.9,0.2-1.3,0.2h-1.1
			c-0.7,0-1.2,0-1.3-0.1v-5.1c0.6,0,1,0,1.2,0c0.3,0,0.5,0,0.8,0c0.3,0,0.5,0.1,0.6,0.1c0.3,0.2,0.6,0.5,0.6,1.2h0.1
			c0-0.7,0-1.2,0-1.6c0-0.3,0-0.8,0-1.5h-0.1c-0.1,0.6-0.3,0.9-0.6,1.1c-0.2,0.1-0.9,0.1-1.4,0.2h-1.2v-4.7c0.2-0.1,0.7-0.1,1.3-0.1
			c1.2,0,2,0.1,2.3,0.2c0.3,0.1,0.5,0.6,0.5,1.2h0.1c0.1-0.3,0.1-0.7,0.1-1.3c0-0.2,0-0.6,0-0.7c-0.5,0-1.9,0-4.4,0
			C230.4,250.1,229.8,250.1,229.3,250"/>
		<path class="st6" d="M246.6,250.8c0.5,0.1,0.6,0.2,0.6,0.5c0,0.1,0,0.2,0,0.2h0.1c0-0.2,0.1-0.5,0.2-0.9c0.1-0.4,0.2-0.7,0.3-0.8
			h-0.1c-0.2,0.2-0.6,0.3-1.1,0.3c-0.5,0-1.7,0-3.6,0c-1.7,0-2.7,0-3-0.1c-0.2-0.1-0.4-0.2-0.4-0.4h-0.1c-0.1,0.4-0.2,0.8-0.3,1.2
			c-0.1,0.4-0.2,0.7-0.2,0.9h0.1c0.2-0.5,0.6-0.8,1-0.9c0.4-0.1,1.3-0.2,2.7-0.2v9.4c0,1.3-0.2,1.3-0.8,1.4v0.1c0.5,0,0.9,0,1.4,0
			c0.5,0,0.9,0,1.4,0v-0.1c-0.6-0.1-0.7-0.2-0.8-1.4v-9.4C245.4,250.7,246.1,250.7,246.6,250.8"/>
		<path class="st6" d="M253.2,256.7c-0.7,0-1.2,0-1.5,0l1.7-4.7l1.5,4.7H253.2z M257.2,260.3l-3.3-10.5h-0.2l-3.6,9.5
			c-0.3,0.9-0.6,1.4-0.8,1.7c-0.2,0.2-0.5,0.4-0.9,0.5v0.1c0.4,0,0.8,0,1.1,0c0.5,0,1,0,1.5,0v-0.1c-0.5,0-0.7-0.3-0.7-0.7
			c0-0.2,0.1-0.6,0.3-1.1l0.9-2.6c0.4,0,0.9,0,1.7,0h1.8l0.9,3c0.1,0.4,0.2,0.7,0.2,0.8c0,0.3-0.2,0.5-0.7,0.6v0.1
			c0.9,0,1.9,0,2.8,0v-0.1c-0.3,0-0.5-0.1-0.6-0.2C257.5,261.1,257.4,260.8,257.2,260.3"/>
		<path class="st6" d="M270.4,250L270.4,250C270.4,250.1,270.4,250.1,270.4,250c0.2,0.1,0.3,0.2,0.4,0.2c0.3,0.1,0.4,0.5,0.5,1
			c0.1,0.7,0.2,3,0.2,7v1.4l-8.9-9.9h-0.1v3.5c0,2.5,0,4.1,0,4.9c0,1.6-0.1,2.5-0.3,2.8c-0.1,0.1-0.3,0.3-0.6,0.4v0.1
			c0.4,0,0.9,0,1.2,0c0.4,0,0.9,0,1.3,0v-0.1c-0.2-0.1-0.4-0.1-0.4-0.2c-0.3-0.1-0.4-0.5-0.5-1.1c-0.1-0.7-0.1-3-0.1-6.9v-1.4l9,10
			h0.1v-3.6c0-2.5,0-4.2,0-5c0-1.5,0.2-2.4,0.4-2.7c0.1-0.1,0.3-0.3,0.7-0.4V250C272.2,250.1,271.3,250.1,270.4,250"/>
		<path class="st6" d="M279.4,251.6c0.8-0.9,1.8-1.3,2.9-1.3c1.2,0,2.2,0.5,3,1.4c0.8,0.9,1.3,2.4,1.3,4.2c0,1.8-0.4,3.1-1.2,4
			c-0.8,0.9-1.8,1.4-3.1,1.4c-1.2,0-2.2-0.5-3-1.4c-0.8-0.9-1.2-2.3-1.2-4.1C278.1,254,278.6,252.4,279.4,251.6 M282.3,261.7
			c1.6,0,3-0.6,4.1-1.7c1.1-1.1,1.7-2.5,1.7-4.1c0-1.7-0.6-3.1-1.6-4.2c-1.1-1.1-2.4-1.7-4-1.7c-1.2,0-2.2,0.3-3.1,0.9
			c-0.9,0.6-1.6,1.3-2,2.2c-0.5,0.9-0.7,1.8-0.7,2.9c0,1.5,0.5,2.9,1.6,4C279.2,261.1,280.6,261.7,282.3,261.7"/>
	</g>
</g>
</svg>
