<?xml version="1.0" encoding="utf-8"?>
<!-- Generator: Adobe Illustrator 25.2.3, SVG Export Plug-In . SVG Version: 6.00 Build 0)  -->
<svg version="1.1" id="Modo_de_aislamiento" xmlns="http://www.w3.org/2000/svg" xmlns:xlink="http://www.w3.org/1999/xlink"
	 x="0px" y="0px" viewBox="0 0 1080 1080" style="enable-background:new 0 0 1080 1080;" xml:space="preserve">
<style type="text/css">
	.st0{fill:#7F6644;}
	.st1{fill:#E5DED1;}
</style>
<g>
	<g>
		<path class="st0" d="M378.65,521.94c-6.01,0-10.3-0.1-13.05-0.2v0.51c2.55,0.41,4.18,1.12,4.89,2.14
			c0.82,0.92,1.22,3.36,1.22,7.14v54.73c-0.31,8.26-1.02,8.66-5.09,9.28v0.51c2.96-0.1,5.91-0.2,8.87-0.2c3.46,0,6.62,0.1,9.48,0.2
			v-0.51c-2.24-0.31-3.77-1.02-4.59-2.04c-0.71-1.02-1.12-3.47-1.12-7.24v-27.72c3.57,0,6.22,0,7.95,0.1c1.73,0,3.57,0.1,5.4,0.31
			c1.94,0.2,3.16,0.41,3.77,0.71c2.45,1.02,3.67,2.96,3.87,7.03h0.51c-0.1-4.59-0.2-7.85-0.2-9.58c0-2.96,0.1-6.52,0.2-10.7h-0.51
			c-0.1,1.43-0.31,2.55-0.51,3.36c-0.51,2.45-1.83,3.98-3.77,4.69c-1.94,0.71-7.44,1.02-16.71,1.02v-29.86
			c1.53-0.41,4.38-0.61,8.56-0.61c7.85,0,12.84,0.51,14.98,1.43c2.14,0.92,3.16,3.57,3.16,7.95h0.51c0.41-1.73,0.61-4.48,0.61-8.36
			c0-1.22-0.1-3.97-0.1-4.28C403.93,521.84,394.45,521.94,378.65,521.94"/>
		<path class="st0" d="M448.37,596.04v-0.51c-4.08-0.61-4.79-1.02-5.09-9.28v-54.73c0.31-8.26,1.02-8.66,5.09-9.27v-0.51
			c-2.85,0.1-5.81,0.2-8.87,0.2c-2.96,0-5.91-0.1-8.87-0.2v0.51c4.08,0.61,4.79,1.02,5.09,9.27v54.73
			c-0.31,8.26-1.02,8.66-5.09,9.28v0.51c2.96-0.1,5.91-0.2,8.87-0.2C442.56,595.83,445.52,595.93,448.37,596.04"/>
		<path class="st0" d="M481.39,520.21h-0.71v22.52c0,16.1-0.1,26.7-0.2,31.9c-0.2,10.19-0.92,16.31-2.24,18.24
			c-0.61,0.92-2.04,1.83-4.18,2.65v0.51c2.85-0.1,5.5-0.2,8.05-0.2c2.75,0,5.71,0.1,8.66,0.2v-0.51c-1.43-0.51-2.34-0.82-2.85-1.12
			c-1.63-0.92-2.75-3.26-3.26-6.93c-0.61-4.38-0.92-19.26-0.92-44.64v-9.17l57.89,64.41h0.51v-23.44c0-16.31,0.1-27.11,0.2-32.51
			c0.3-9.68,1.12-15.49,2.45-17.43c0.71-0.92,2.14-1.73,4.38-2.45v-0.51c-5.71,0.31-11.11,0.31-17.12,0v0.51c0.1,0,0.2,0,0.31,0.1
			c1.12,0.31,1.94,0.61,2.35,0.92c1.73,0.92,2.85,3.06,3.36,6.52c0.71,4.59,1.02,19.67,1.02,45.46v9.07L481.39,520.21z"/>
		<path class="st0" d="M611.96,596.85c8.26,0,16.71-2.14,25.48-6.52c0-4.38,0.2-7.95,0.61-10.91h-0.51
			c-1.43,4.89-4.38,8.66-8.97,11.21c-4.59,2.55-9.58,3.77-14.98,3.77c-7.85,0-15.39-2.75-21.81-8.05c-6.22-5.4-10.4-14.88-10.4-26.7
			c0-12.23,3.36-21.91,8.97-27.62c5.61-5.71,12.74-8.56,20.89-8.56c7.13,0,13.05,1.43,17.74,4.28c4.69,2.75,7.23,6.83,7.74,12.03
			h0.51c0-0.31-0.1-2.55-0.1-3.87c0-3.77,0.1-7.03,0.31-9.68l-3.06-0.82c-1.63-0.51-2.75-0.92-3.47-1.02
			c-1.32-0.41-5.3-1.43-7.44-1.83c-3.46-0.61-8.56-1.33-12.64-1.33c-12.33,0-22.93,4.69-29.15,12.03
			c-6.12,7.24-9.58,16.51-9.58,25.99c0,9.68,3.57,18.75,10.09,25.99C588.72,592.27,599.32,596.85,611.96,596.85"/>
		<path class="st0" d="M686.37,534.38l9.38,30.17h-10.8c-4.28,0-7.54,0-9.68-0.1L686.37,534.38z M660.59,592.27
			c-1.32,1.53-3.26,2.65-6.01,3.26v0.51c2.85-0.1,5.2-0.2,6.93-0.2c3.36,0,6.52,0.1,9.48,0.2v-0.51c-3.16-0.31-4.69-1.84-4.69-4.49
			c0-1.43,0.61-3.77,1.73-6.93l6.11-16.51c2.34-0.1,6.01-0.1,10.8-0.1h11.72l6.01,19.16c0.82,2.75,1.22,4.49,1.22,5.3
			c0,2.14-1.53,3.36-4.49,3.57v0.51c6.01-0.31,12.23-0.31,17.94,0v-0.51c-1.94-0.31-3.16-0.82-3.67-1.53
			c-0.51-0.71-1.33-2.75-2.45-6.11l-21.4-67.67h-1.02l-23.03,61.25C663.64,587.07,661.91,590.64,660.59,592.27"/>
		<path class="st0" d="M120.72,682.89c-2.24-1.83-4.69-3.67-7.34-5.61c-5.3-3.77-9.99-6.42-12.94-11.42
			c-1.53-2.55-2.24-5.3-2.24-8.25c0-7.64,5.4-11.52,12.44-11.52c8.05,0,12.74,3.87,14.27,11.72h0.61c-0.1-1.02-0.1-2.85-0.1-5.61
			c0-2.34,0.1-4.59,0.31-6.72c-0.41,0.1-1.02,0.1-1.73,0.1c-1.12,0-3.16-0.3-6.12-0.82c-2.85-0.51-5.3-0.82-7.44-0.82
			c-5.5,0-9.99,1.73-13.56,5.09c-3.57,3.36-5.3,7.75-5.3,13.15c0,22.12,30.58,21.81,30.58,42.09c0,8.87-6.22,13.76-13.86,13.76
			c-4.38,0-8.15-1.12-11.31-3.46c-3.16-2.35-4.69-5.4-4.69-9.38c0-0.51,0.1-1.33,0.2-2.55h-0.51c-0.82,1.83-1.22,3.97-1.22,6.42
			c0,1.73,0.51,5.5,0.51,7.03c0,1.43,0,2.34-0.1,2.65c0.41-0.1,0.92-0.1,1.53-0.1c1.53,0,3.67,0.31,6.62,0.92
			c2.96,0.71,5.61,1.02,8.05,1.02c6.11,0,11.21-1.84,15.19-5.61c3.97-3.77,6.01-8.87,6.01-15.08
			C128.57,692.57,125.21,686.56,120.72,682.89"/>
		<path class="st0" d="M175.26,688.29c-4.28,0-7.54,0-9.68-0.1l11.11-30.07l9.38,30.17H175.26z M201.55,711.63l-21.4-67.68h-1.02
			l-23.03,61.25c-2.14,5.61-3.87,9.17-5.2,10.8c-1.32,1.53-3.26,2.65-6.01,3.26v0.51c2.85-0.1,5.2-0.2,6.93-0.2
			c3.36,0,6.52,0.1,9.48,0.2v-0.51c-3.16-0.31-4.69-1.84-4.69-4.49c0-1.43,0.61-3.77,1.73-6.93l6.11-16.51
			c2.34-0.1,6.01-0.1,10.8-0.1h11.72l6.01,19.16c0.82,2.75,1.22,4.49,1.22,5.3c0,2.14-1.53,3.36-4.49,3.57v0.51
			c6.01-0.31,12.23-0.31,17.94,0v-0.51c-1.94-0.31-3.16-0.82-3.67-1.53C203.49,717.04,202.67,715,201.55,711.63"/>
		<path class="st0" d="M245.17,719.79v-0.51c-1.43-0.51-2.34-0.82-2.85-1.12c-1.63-0.92-2.75-3.26-3.26-6.93
			c-0.61-4.38-0.92-19.26-0.92-44.64v-9.17l57.89,64.41h0.51v-23.44c0-16.31,0.1-27.11,0.2-32.51c0.31-9.68,1.12-15.49,2.45-17.43
			c0.71-0.92,2.14-1.73,4.38-2.45v-0.51c-5.71,0.31-11.11,0.31-17.12,0V646c0.1,0,0.2,0,0.3,0.1c1.12,0.31,1.94,0.61,2.35,0.92
			c1.73,0.92,2.85,3.06,3.36,6.52c0.71,4.59,1.02,19.67,1.02,45.46v9.07l-57.69-64.11h-0.71v22.52c0,16.11-0.1,26.7-0.2,31.9
			c-0.2,10.19-0.92,16.31-2.24,18.24c-0.61,0.92-2.04,1.83-4.18,2.65v0.51c2.85-0.1,5.5-0.2,8.05-0.2
			C239.26,719.58,242.22,719.68,245.17,719.79"/>
		<path class="st0" d="M407.95,644.98c-12.33,0-22.93,4.69-29.15,12.03c-6.12,7.24-9.58,16.51-9.58,25.99
			c0,9.68,3.57,18.75,10.09,25.99c6.52,7.03,17.12,11.62,29.76,11.62c8.26,0,16.71-2.14,25.48-6.52c0-4.38,0.2-7.95,0.61-10.9h-0.51
			c-1.43,4.89-4.38,8.66-8.97,11.21c-4.59,2.55-9.58,3.77-14.98,3.77c-7.85,0-15.39-2.75-21.81-8.05c-6.22-5.4-10.4-14.88-10.4-26.7
			c0-12.23,3.36-21.91,8.97-27.62c5.61-5.71,12.74-8.56,20.89-8.56c7.13,0,13.05,1.43,17.74,4.28c4.69,2.75,7.23,6.83,7.74,12.03
			h0.51c0-0.31-0.1-2.55-0.1-3.87c0-3.77,0.1-7.03,0.31-9.68l-3.06-0.82c-1.63-0.51-2.75-0.92-3.47-1.02
			c-1.32-0.41-5.3-1.42-7.44-1.83C417.13,645.69,412.03,644.98,407.95,644.98"/>
		<path class="st0" d="M482.06,688.29c-4.28,0-7.54,0-9.68-0.1l11.11-30.07l9.38,30.17H482.06z M508.35,711.63l-21.4-67.68h-1.02
			l-23.03,61.25c-2.14,5.61-3.87,9.17-5.2,10.8c-1.32,1.53-3.26,2.65-6.01,3.26v0.51c2.85-0.1,5.2-0.2,6.93-0.2
			c3.36,0,6.52,0.1,9.48,0.2v-0.51c-3.16-0.31-4.69-1.84-4.69-4.49c0-1.43,0.61-3.77,1.73-6.93l6.11-16.51
			c2.34-0.1,6.01-0.1,10.8-0.1h11.72l6.01,19.16c0.82,2.75,1.22,4.49,1.22,5.3c0,2.14-1.53,3.36-4.49,3.57v0.51
			c6.01-0.31,12.23-0.31,17.94,0v-0.51c-1.94-0.31-3.16-0.82-3.67-1.53C510.29,717.04,509.47,715,508.35,711.63"/>
		<path class="st0" d="M545.45,654.86c-1.32-2.55-1.94-4.38-1.94-5.61c0-1.73,1.53-2.85,4.59-3.26v-0.51
			c-2.96,0.1-6.02,0.2-9.07,0.2c-3.98,0-7.34-0.1-10.19-0.2V646c3.67,0.82,4.69,2.24,7.44,7.64l20.49,41.07V710
			c0,3.77-0.31,6.22-1.02,7.24c-0.61,0.92-1.93,1.63-4.08,2.04v0.51c2.96-0.1,5.91-0.21,8.87-0.21c3.06,0,6.01,0.1,8.87,0.21v-0.51
			c-2.14-0.41-3.47-1.12-4.18-2.04c-0.61-1.02-0.92-3.47-0.92-7.24v-16.82l14.07-26.81l3.77-7.13c3.16-6.11,5.2-9.79,6.12-10.91
			c0.92-1.12,2.34-1.93,4.38-2.34v-0.51c-2.85,0.1-5.4,0.2-7.74,0.2c-1.94,0-4.49-0.1-7.44-0.2V646c2.75,0.51,4.18,1.73,4.18,3.67
			c0,0.51,0,1.02-0.1,1.53c-0.2,1.43-1.83,5.1-4.79,10.9c-0.72,1.22-1.22,2.24-1.53,2.96l-12.64,24.56L545.45,654.86z"/>
		<path class="st0" d="M610.69,645.49V646c2.55,0.41,4.18,1.12,4.89,2.14c0.82,0.92,1.22,3.36,1.22,7.13V710
			c0,6.93-0.92,8.46-5.81,9.28v0.51c2.85-0.1,9.68-0.2,20.49-0.2c7.64,0,14.68,0.1,21,0.31c0-2.55,0.51-7.24,0.61-13.45h-0.51
			c-0.31,4.99-2.14,7.54-4.28,8.87c-1.12,0.71-5.61,1.12-8.36,1.22h-6.93c-4.69,0-7.54-0.2-8.66-0.61v-33.13c3.67,0,6.32,0,8.05,0.1
			c1.73,0,3.46,0.1,5.4,0.31c1.94,0.2,3.16,0.51,3.77,0.82c2.24,1.32,3.67,3.26,4.08,7.74h0.51c-0.1-4.59-0.2-8.05-0.2-10.4
			c0-2.14,0.1-5.3,0.2-9.48h-0.51c-0.41,3.98-1.73,5.61-4.18,6.83c-1.22,0.41-5.71,0.92-9.07,1.02h-8.05v-30.37
			c1.53-0.41,4.38-0.61,8.56-0.61c7.85,0,12.84,0.51,14.98,1.43s3.16,3.57,3.16,7.95h0.51c0.41-1.73,0.61-4.48,0.61-8.36
			c0-1.22-0.1-3.98-0.1-4.28c-3.06,0.1-12.54,0.2-28.33,0.2C617.72,645.69,613.44,645.59,610.69,645.49"/>
		<path class="st0" d="M722.19,650.28c3.26,0.51,3.87,1.43,3.87,3.06c0,0.51-0.1,1.02-0.2,1.53h0.61c0.2-1.12,0.71-2.96,1.43-5.61
			c0.82-2.75,1.43-4.48,1.73-5.3h-0.61c-1.43,1.22-3.77,1.94-6.93,2.24c-3.16,0.2-10.8,0.3-22.93,0.3c-11.11,0-17.63-0.2-19.57-0.71
			c-1.53-0.41-2.45-1.32-2.55-2.65h-0.51c-0.51,2.35-1.12,4.89-1.93,7.44c-0.82,2.55-1.33,4.38-1.53,5.5h0.51
			c1.43-3.06,3.57-4.89,6.42-5.5c2.85-0.71,8.66-1.02,17.53-1.02V710c-0.31,8.26-1.02,8.66-5.1,9.28v0.51
			c2.96-0.1,5.91-0.2,8.87-0.2c3.06,0,6.01,0.1,8.87,0.2v-0.51c-4.08-0.61-4.79-1.02-5.1-9.28v-60.44
			C714.45,649.56,719.04,649.77,722.19,650.28"/>
		<path class="st0" d="M764.4,688.29c-4.28,0-7.54,0-9.68-0.1l11.11-30.07l9.38,30.17H764.4z M790.69,711.63l-21.4-67.68h-1.02
			l-23.03,61.25c-2.14,5.61-3.87,9.17-5.2,10.8c-1.32,1.53-3.26,2.65-6.01,3.26v0.51c2.85-0.1,5.2-0.2,6.93-0.2
			c3.36,0,6.52,0.1,9.48,0.2v-0.51c-3.16-0.31-4.69-1.84-4.69-4.49c0-1.43,0.61-3.77,1.73-6.93l6.11-16.51
			c2.34-0.1,6.01-0.1,10.8-0.1h11.72l6.01,19.16c0.81,2.75,1.22,4.49,1.22,5.3c0,2.14-1.53,3.36-4.49,3.57v0.51
			c6.01-0.31,12.23-0.31,17.94,0v-0.51c-1.94-0.31-3.16-0.82-3.67-1.53S791.81,715,790.69,711.63"/>
		<path class="st0" d="M875.6,645.49V646c0.1,0,0.2,0,0.31,0.1c1.12,0.31,1.94,0.61,2.35,0.92c1.73,0.92,2.85,3.06,3.36,6.52
			c0.71,4.59,1.02,19.67,1.02,45.46v9.07l-57.69-64.11h-0.71v22.52c0,16.11-0.1,26.7-0.2,31.9c-0.2,10.19-0.92,16.31-2.24,18.24
			c-0.61,0.92-2.04,1.83-4.18,2.65v0.51c2.85-0.1,5.5-0.2,8.05-0.2c2.75,0,5.71,0.1,8.66,0.2v-0.51c-1.43-0.51-2.34-0.82-2.85-1.12
			c-1.63-0.92-2.75-3.26-3.26-6.93c-0.61-4.38-0.92-19.26-0.92-44.64v-9.17l57.89,64.41h0.51v-23.44c0-16.31,0.1-27.11,0.21-32.51
			c0.3-9.68,1.12-15.49,2.45-17.43c0.71-0.92,2.14-1.73,4.38-2.45v-0.51C887.01,645.79,881.61,645.79,875.6,645.49"/>
		<path class="st0" d="M933.59,655.58c5.2-5.6,11.52-8.36,18.55-8.36c7.64,0,14.17,3.06,19.57,9.17c5.4,6.12,8.16,15.19,8.16,27.21
			c0,11.31-2.55,19.87-7.75,25.79c-5.2,5.91-11.82,8.87-19.98,8.87c-7.95,0-14.47-2.96-19.47-8.87c-4.99-5.91-7.54-14.68-7.54-26.4
			C925.14,670.76,928.4,660.98,933.59,655.58 M952.14,720.6c10.5,0,19.37-3.67,26.4-10.91c7.13-7.34,10.7-16.21,10.7-26.7
			c0-10.8-3.57-19.88-10.6-27.11c-7.03-7.24-15.59-10.91-25.69-10.91c-7.44,0-14.06,1.83-19.87,5.61
			c-5.81,3.77-10.09,8.46-13.04,14.27c-2.96,5.81-4.38,11.92-4.38,18.45c0,9.89,3.36,18.65,10.09,26.09
			C932.58,716.83,941.34,720.6,952.14,720.6"/>
		<path class="st1" d="M538.78,247.85c12.75,0,24.27,5.4,32.39,14.02h-64.78C514.51,253.25,526.03,247.85,538.78,247.85
			 M491.69,292.39c0,15.63,7.66,29.5,19.42,38.07l-45.5,43.32L394.1,305.7v-41.28h106.84C495.13,272.25,491.69,281.93,491.69,292.39
			 M684.99,304.49l-72.66,69.17l-45.59-43.4c11.6-8.58,19.13-22.36,19.13-37.86c0-10.47-3.44-20.15-9.24-27.97h108.36V304.49z
			 M394.1,360.65l42.66,40.61l-25.16,23.95l-17.49-16.65V360.65z M438.6,399.5l-44.5-42.37v-47.91l69.67,66.32L438.6,399.5z
			 M490.77,401.26l-25.16,23.96l-25.16-23.95l25.16-23.96L490.77,401.26z M583.47,401.13l-25.16,23.96l-19.27-18.35l-19.4,18.47
			l-25.16-23.95l44.57-42.43L583.47,401.13z M637.49,401.13l-25.16,23.95l-25.16-23.95l25.16-23.96L637.49,401.13z M684.99,355.92
			l-45.65,43.46l-25.16-23.95l70.81-67.41V355.92z M684.99,407.34l-18.64,17.74l-25.16-23.96l43.8-41.7V407.34z M515.16,330.13
			l23.87-22.73l23.67,22.53c-6.92,4.42-15.12,7-23.92,7C530.11,336.93,522.01,334.43,515.16,330.13 M538.78,339.48
			c9.53,0,18.4-2.85,25.82-7.74l45.88,43.68l-25.16,23.95l-46.28-44.06l-46.42,44.19l-25.16-23.95l45.81-43.61
			C520.62,336.7,529.38,339.48,538.78,339.48 M394.1,435.54v-23.46l15.5,14.75h3.99l25.01-23.81l25.01,23.81h3.99l25.02-23.81
			l25.01,23.81h3.99l17.41-16.57l17.41,16.57h3.73l25.15-23.94l25.15,23.94h3.73l25.15-23.94l25.15,23.94h3.73l16.77-15.97v24.68
			H394.1z M573.4,264.42c6.2,7.65,9.92,17.39,9.92,27.97c0,14.82-7.29,27.97-18.46,36.07l-25.82-24.58l-26.04,24.79
			c-11.34-8.08-18.75-21.33-18.75-36.28c0-10.59,3.72-20.32,9.92-27.97H573.4z M391.55,438.09h295.99V261.87H574.59
			c-8.64-10.13-21.49-16.57-35.81-16.57s-27.17,6.44-35.81,16.57H391.55V438.09z"/>
	</g>
</g>
</svg>
