<?xml version="1.0" encoding="utf-8"?>
<!-- Generator: Adobe Illustrator 25.2.3, SVG Export Plug-In . SVG Version: 6.00 Build 0)  -->
<svg version="1.1" id="Capa_1" xmlns="http://www.w3.org/2000/svg" xmlns:xlink="http://www.w3.org/1999/xlink" x="0px" y="0px"
	 viewBox="0 0 409.99 101.81" style="enable-background:new 0 0 409.99 101.81;" xml:space="preserve">
<style type="text/css">
	.st0{fill:#C12A21;}
</style>
<g>
	<path class="st0" d="M16.47,23.48l11.52,0l4.94,25.93c0.78,4,1.72,10.73,2.27,15.28h0.31c0.55-4.54,1.49-11.28,2.27-15.28
		l4.94-25.93l11.52,0L41.23,78.33l-11.75,0L16.47,23.48z"/>
	<path class="st0" d="M88.39,67.75l0,10.58l-29.07,0l0-54.84l28.28,0l0,10.58l-17.16,0l0,11.36l15.59,0l0,10.19l-15.59,0l0,12.14
		L88.39,67.75z"/>
	<path class="st0" d="M111.03,59.91l-3.92,0l0,18.41l-11.13,0l0-54.84l15.9,0c10.89,0,17.32,6.74,17.32,18.25
		c0,7.44-2.74,12.93-7.6,15.83l10.34,20.76l-12.14,0L111.03,59.91z M107.11,49.34l4.62,0c3.92,0,6.03-2.66,6.03-7.6
		c0-5.01-2.12-7.68-6.03-7.68l-4.62,0L107.11,49.34z"/>
	<path class="st0" d="M166.41,34.06l-10.73,0l0,44.27l-11.44,0l0-44.27l-10.73,0l0-10.58l32.91,0L166.41,34.06z"/>
	<path class="st0" d="M182.78,23.48l0,54.84l-11.13,0l0-54.84L182.78,23.48z"/>
	<path class="st0" d="M206.52,57.56l-3.06,4.94l0,15.83l-10.97,0l0-54.84l10.97,0l0,21l2.82-6.11l7.68-14.89l12.69,0l-13.95,23.97
		l16.3,30.87l-12.54,0L206.52,57.56z"/>
	<path class="st0" d="M254.15,69.24l-11.6,0l-1.8,9.09l-11.52,0l13.16-54.84l11.91,0l13.16,54.84l-11.52,0L254.15,69.24z
		 M251.96,58.66l-1.25-6.27c-0.71-3.92-1.65-10.58-2.19-15.04h-0.31c-0.55,4.47-1.41,11.13-2.19,15.04l-1.25,6.27L251.96,58.66z"/>
	<path class="st0" d="M299.98,67.75l0,10.58l-27.42,0l0-54.84l11.12,0l0,44.27L299.98,67.75z"/>
	<path class="st0" d="M316.43,23.48l0,54.84l-11.12,0l0-54.84L316.43,23.48z"/>
	<path class="st0" d="M355.37,34.06l-10.73,0l0,44.27l-11.44,0l0-44.27l-10.73,0V23.48l32.91,0V34.06z"/>
	<path class="st0" d="M369.46,62.03l-12.93-38.55l11.52,0l4.47,15.2c0.55,1.8,1.8,6.11,2.35,8.78h0.31
		c0.63-2.66,1.88-6.97,2.51-9.01L382,23.48l11.52,0l-12.93,38.55l0,16.3l-11.13,0L369.46,62.03z"/>
</g>
</svg>
